G04*
G04 #@! TF.GenerationSoftware,Altium Limited,Altium Designer,19.1.6 (110)*
G04*
G04 Layer_Physical_Order=3*
G04 Layer_Color=16440176*
%FSLAX43Y43*%
%MOMM*%
G71*
G01*
G75*
%ADD10C,0.200*%
%ADD13C,0.203*%
%ADD14C,0.254*%
%ADD118C,0.635*%
%ADD119C,0.508*%
%ADD120C,0.600*%
%ADD130C,1.625*%
%ADD131C,1.200*%
%ADD132R,1.200X1.200*%
%ADD133C,4.000*%
%ADD134C,0.500*%
%ADD135C,0.600*%
G36*
X34742Y67522D02*
X34747Y67523D01*
X34752Y67522D01*
X89100D01*
Y36750D01*
X99921D01*
X99922Y3500D01*
X99922Y3499D01*
X99922Y3499D01*
X99922Y3483D01*
X99922Y3260D01*
X99866Y2833D01*
X99755Y2418D01*
X99591Y2020D01*
X99377Y1647D01*
X99116Y1305D01*
X98813Y1000D01*
X98473Y736D01*
X98101Y520D01*
X97705Y353D01*
X97290Y239D01*
X96864Y180D01*
X96650Y178D01*
X34602Y178D01*
X34378Y182D01*
X33934Y246D01*
X33503Y368D01*
X33091Y546D01*
X32706Y775D01*
X32354Y1053D01*
X32041Y1375D01*
X31773Y1734D01*
X31554Y2126D01*
X31388Y2542D01*
X31278Y2977D01*
X31225Y3423D01*
X31228Y3647D01*
X31228Y3649D01*
X31228Y3651D01*
Y64191D01*
X31229Y64197D01*
X31230Y64209D01*
X31227Y64228D01*
X31228Y64233D01*
X31236Y64467D01*
X31310Y64906D01*
X31440Y65331D01*
X31624Y65737D01*
X31860Y66114D01*
X32144Y66458D01*
X32469Y66762D01*
X32832Y67021D01*
X33225Y67230D01*
X33642Y67386D01*
X34076Y67486D01*
X34519Y67529D01*
X34742Y67522D01*
D02*
G37*
%LPC*%
G36*
X76227Y66202D02*
Y64077D01*
X78352D01*
X78321Y64392D01*
X78192Y64817D01*
X77983Y65208D01*
X77702Y65552D01*
X77358Y65833D01*
X76967Y66043D01*
X76542Y66171D01*
X76227Y66202D01*
D02*
G37*
G36*
X75973D02*
X75658Y66171D01*
X75233Y66043D01*
X74842Y65833D01*
X74498Y65552D01*
X74217Y65208D01*
X74007Y64817D01*
X73879Y64392D01*
X73848Y64077D01*
X75973D01*
Y66202D01*
D02*
G37*
G36*
X49177Y65652D02*
Y63527D01*
X51302D01*
X51271Y63842D01*
X51143Y64267D01*
X50933Y64658D01*
X50652Y65002D01*
X50308Y65283D01*
X49917Y65493D01*
X49492Y65621D01*
X49177Y65652D01*
D02*
G37*
G36*
X48923D02*
X48608Y65621D01*
X48183Y65493D01*
X47792Y65283D01*
X47448Y65002D01*
X47167Y64658D01*
X46958Y64267D01*
X46829Y63842D01*
X46798Y63527D01*
X48923D01*
Y65652D01*
D02*
G37*
G36*
X78352Y63823D02*
X76227D01*
Y61698D01*
X76542Y61729D01*
X76967Y61857D01*
X77358Y62067D01*
X77702Y62348D01*
X77983Y62692D01*
X78192Y63083D01*
X78321Y63508D01*
X78352Y63823D01*
D02*
G37*
G36*
X75973D02*
X73848D01*
X73879Y63508D01*
X74007Y63083D01*
X74217Y62692D01*
X74498Y62348D01*
X74842Y62067D01*
X75233Y61857D01*
X75658Y61729D01*
X75973Y61698D01*
Y63823D01*
D02*
G37*
G36*
X51302Y63273D02*
X49177D01*
Y61148D01*
X49492Y61179D01*
X49917Y61307D01*
X50308Y61517D01*
X50652Y61798D01*
X50933Y62142D01*
X51143Y62533D01*
X51271Y62958D01*
X51302Y63273D01*
D02*
G37*
G36*
X48923D02*
X46798D01*
X46829Y62958D01*
X46958Y62533D01*
X47167Y62142D01*
X47448Y61798D01*
X47792Y61517D01*
X48183Y61307D01*
X48608Y61179D01*
X48923Y61148D01*
Y63273D01*
D02*
G37*
G36*
X64295Y59960D02*
X64295Y59960D01*
X59484D01*
X59484Y59960D01*
X59405Y59945D01*
X59338Y59900D01*
X59338Y59900D01*
X58750Y59312D01*
X58705Y59245D01*
X58690Y59166D01*
X58690Y59166D01*
Y51048D01*
X58433Y50959D01*
X58390Y50951D01*
X58215Y51068D01*
X58000Y51111D01*
X57785Y51068D01*
X57603Y50947D01*
X57482Y50765D01*
X57439Y50550D01*
X57482Y50335D01*
X57591Y50172D01*
X57553Y50147D01*
X57432Y49965D01*
X57389Y49750D01*
X57432Y49535D01*
X57553Y49353D01*
X57735Y49232D01*
X57950Y49189D01*
X58165Y49232D01*
X58347Y49353D01*
X58638Y49249D01*
X58682Y49215D01*
X58639Y49000D01*
X58682Y48785D01*
X58803Y48603D01*
X58985Y48482D01*
X59132Y48215D01*
X59089Y48000D01*
X59132Y47785D01*
X59253Y47603D01*
X59435Y47482D01*
X59650Y47439D01*
X59865Y47482D01*
X60047Y47603D01*
X60168Y47785D01*
X60211Y48000D01*
X60168Y48215D01*
X60146Y48247D01*
X60301Y48439D01*
X60353Y48478D01*
X60550Y48439D01*
X60764Y48482D01*
X60844Y48535D01*
X61144Y48401D01*
Y47370D01*
X61135Y47368D01*
X60953Y47247D01*
X60832Y47065D01*
X60789Y46850D01*
X60832Y46635D01*
X60953Y46453D01*
X61135Y46332D01*
X61350Y46289D01*
X61539Y46134D01*
Y40178D01*
X61539Y40178D01*
X61554Y40099D01*
X61599Y40032D01*
X62074Y39557D01*
X62053Y39347D01*
X61932Y39165D01*
X61889Y38950D01*
X61932Y38735D01*
X62053Y38553D01*
X62235Y38432D01*
X62450Y38389D01*
X62639Y38300D01*
X62682Y38085D01*
X62803Y37903D01*
X62985Y37782D01*
X63200Y37739D01*
X63358Y37609D01*
Y22899D01*
X62722Y22263D01*
X62715Y22268D01*
X62500Y22311D01*
X62285Y22268D01*
X62103Y22147D01*
X61982Y21965D01*
X61939Y21750D01*
X61982Y21535D01*
X62103Y21353D01*
X62285Y21232D01*
X62500Y21189D01*
X62715Y21232D01*
X62742Y21250D01*
X63042Y21090D01*
Y16470D01*
X63059Y16381D01*
X63109Y16306D01*
X63395Y16020D01*
Y15615D01*
X63383Y15603D01*
X63333Y15528D01*
X63315Y15440D01*
Y15424D01*
X63285Y15418D01*
X63103Y15297D01*
X62982Y15115D01*
X62939Y14900D01*
X62982Y14685D01*
X63103Y14503D01*
X63285Y14382D01*
X63500Y14339D01*
X63714Y14382D01*
X63896Y14503D01*
X64018Y14685D01*
X64061Y14900D01*
X64018Y15115D01*
X63896Y15297D01*
X63863Y15319D01*
X63841Y15431D01*
X63858Y15520D01*
Y15821D01*
X64050Y16089D01*
X64265Y16132D01*
X64447Y16253D01*
X64568Y16435D01*
X64611Y16650D01*
X64568Y16865D01*
X64447Y17047D01*
X64265Y17168D01*
X64256Y17170D01*
Y20565D01*
X64649Y20959D01*
X64692Y20978D01*
X65060Y20949D01*
X65503Y20507D01*
X65503Y20147D01*
X65382Y19965D01*
X65339Y19750D01*
X65382Y19535D01*
X65503Y19353D01*
X65685Y19232D01*
X65900Y19189D01*
X65944Y19198D01*
X66199Y18955D01*
X66188Y18900D01*
X66235Y18666D01*
X66367Y18467D01*
X66566Y18335D01*
X66800Y18288D01*
X67034Y18335D01*
X67233Y18467D01*
X67365Y18666D01*
X67371Y18693D01*
X67696Y18792D01*
X68779Y17709D01*
X68753Y17447D01*
X68632Y17265D01*
X68589Y17050D01*
X68632Y16835D01*
X68753Y16653D01*
X68935Y16532D01*
X69150Y16489D01*
X69365Y16532D01*
X69547Y16653D01*
X69668Y16835D01*
X69711Y17050D01*
X69668Y17265D01*
X69815Y17582D01*
X69997Y17703D01*
X70118Y17885D01*
X70140Y17995D01*
X70421Y18112D01*
X70446Y18113D01*
X71840Y16719D01*
X71828Y16598D01*
X71760Y16374D01*
X71628Y16286D01*
X71507Y16104D01*
X71464Y15890D01*
X71507Y15675D01*
X71628Y15493D01*
X71810Y15372D01*
X72025Y15329D01*
X72240Y15372D01*
X72422Y15493D01*
X72653Y15403D01*
X72835Y15282D01*
X73050Y15239D01*
X73264Y15282D01*
X73294Y15302D01*
X73594Y15142D01*
Y13435D01*
X72952Y12793D01*
X72632Y12897D01*
X72618Y12965D01*
X72497Y13147D01*
X72315Y13268D01*
X72100Y13311D01*
X71885Y13268D01*
X71703Y13147D01*
X71582Y12965D01*
X71539Y12750D01*
X71582Y12535D01*
X71703Y12353D01*
X71885Y12232D01*
X71953Y12218D01*
X72057Y11898D01*
X71405Y11245D01*
X71360Y11179D01*
X71344Y11100D01*
X71344Y11100D01*
Y10181D01*
X71302Y10146D01*
X71044Y10048D01*
X70940Y10118D01*
X70725Y10161D01*
X70510Y10118D01*
X70328Y9997D01*
X70207Y9815D01*
X70164Y9600D01*
X70207Y9385D01*
X70328Y9203D01*
X70510Y9082D01*
X70725Y9039D01*
X70940Y9082D01*
X71044Y9152D01*
X71302Y9054D01*
X71344Y9019D01*
Y7099D01*
X71044Y6965D01*
X70965Y7018D01*
X70750Y7061D01*
X70535Y7018D01*
X70353Y6897D01*
X70232Y6715D01*
X70189Y6500D01*
X70232Y6285D01*
X70353Y6103D01*
X70535Y5982D01*
X70750Y5939D01*
X71032Y5835D01*
X71153Y5653D01*
X71246Y5592D01*
X71256Y5561D01*
Y5289D01*
X71246Y5258D01*
X71153Y5197D01*
X71032Y5015D01*
X70989Y4800D01*
X71032Y4585D01*
X71153Y4403D01*
X71335Y4282D01*
X71550Y4239D01*
X71764Y4282D01*
X71946Y4403D01*
X72068Y4585D01*
X72111Y4800D01*
X72068Y5015D01*
X72063Y5022D01*
X72347Y5306D01*
X72347Y5306D01*
X72391Y5373D01*
X72407Y5452D01*
Y6452D01*
X72407Y6452D01*
X72391Y6530D01*
X72347Y6597D01*
X72347Y6597D01*
X72109Y6835D01*
Y10765D01*
X73793Y12449D01*
X74093Y12325D01*
Y8452D01*
X74093Y8452D01*
X74108Y8373D01*
X74153Y8306D01*
X77287Y5172D01*
X77282Y5165D01*
X77239Y4950D01*
X77282Y4735D01*
X77403Y4553D01*
X77585Y4432D01*
X77800Y4389D01*
X78015Y4432D01*
X78197Y4553D01*
X78318Y4735D01*
X78361Y4950D01*
X78318Y5165D01*
X78197Y5347D01*
X78294Y5642D01*
X79501D01*
X79517Y5617D01*
X79684Y5506D01*
X79726Y5423D01*
X79770Y5168D01*
X78853Y4252D01*
X78809Y4185D01*
X78793Y4106D01*
X78793Y4106D01*
Y2780D01*
X78793Y2780D01*
X78809Y2701D01*
X78853Y2635D01*
X79372Y2116D01*
X79339Y1950D01*
X79382Y1735D01*
X79503Y1553D01*
X79685Y1432D01*
X79900Y1389D01*
X80115Y1432D01*
X80297Y1553D01*
X80418Y1735D01*
X80461Y1950D01*
X80418Y2165D01*
X80297Y2347D01*
X80212Y2403D01*
X80117Y2546D01*
X80126Y2772D01*
X80168Y2835D01*
X80211Y3050D01*
X80168Y3265D01*
X80047Y3447D01*
X79865Y3568D01*
X79856Y3570D01*
Y4150D01*
X81150Y5444D01*
X81150Y5444D01*
X81195Y5511D01*
X81210Y5589D01*
Y5855D01*
X81471Y6022D01*
X81510Y6027D01*
X81700Y5989D01*
X81914Y6032D01*
X82096Y6153D01*
X82218Y6335D01*
X82261Y6550D01*
X82218Y6765D01*
X82155Y6858D01*
X82372Y7075D01*
X82435Y7032D01*
X82650Y6989D01*
X82865Y7032D01*
X83047Y7153D01*
X83168Y7335D01*
X83211Y7550D01*
X83168Y7765D01*
X83047Y7947D01*
X82865Y8068D01*
X82650Y8111D01*
X82435Y8068D01*
X82253Y7947D01*
X82132Y7765D01*
X82089Y7550D01*
X82132Y7335D01*
X82194Y7242D01*
X81978Y7025D01*
X81914Y7068D01*
X81700Y7111D01*
X81510Y7073D01*
X81471Y7078D01*
X81210Y7245D01*
Y8040D01*
X81210Y8040D01*
X81195Y8118D01*
X81263Y8348D01*
X81324Y8436D01*
X81448Y8518D01*
X81569Y8700D01*
X81612Y8915D01*
X81569Y9129D01*
X81448Y9311D01*
X81266Y9433D01*
X81051Y9476D01*
X80837Y9433D01*
X80707Y9346D01*
X80515Y9406D01*
X80407Y9479D01*
Y11146D01*
X80577Y11229D01*
X80707Y11260D01*
X80862Y11157D01*
X81076Y11114D01*
X81291Y11157D01*
X81473Y11278D01*
X81594Y11460D01*
X81637Y11675D01*
X81594Y11890D01*
X81473Y12072D01*
X81291Y12193D01*
X81076Y12236D01*
X80862Y12193D01*
X80707Y12090D01*
X80577Y12121D01*
X80407Y12204D01*
Y13751D01*
X80700Y13989D01*
X80915Y14032D01*
X81097Y14153D01*
X81218Y14335D01*
X81261Y14550D01*
X81218Y14765D01*
X81097Y14947D01*
X80915Y15068D01*
X80700Y15111D01*
X80554Y15082D01*
X80335Y15202D01*
X80254Y15274D01*
Y15942D01*
X80310Y15998D01*
X80355Y16065D01*
X80370Y16144D01*
Y19798D01*
X80596Y19954D01*
X80670Y19975D01*
X80850Y19939D01*
X81064Y19982D01*
X81246Y20103D01*
X81368Y20285D01*
X81411Y20500D01*
X81368Y20715D01*
X81282Y20843D01*
X81446Y20953D01*
X81568Y21135D01*
X81611Y21350D01*
X81591Y21447D01*
X81764Y21482D01*
X81946Y21603D01*
X82068Y21785D01*
X82111Y22000D01*
X82091Y22098D01*
X82249Y22129D01*
X82431Y22251D01*
X82552Y22432D01*
X82595Y22647D01*
X82552Y22862D01*
X82431Y23044D01*
X82249Y23165D01*
X82034Y23208D01*
X81819Y23165D01*
X81638Y23044D01*
X81516Y22862D01*
X81473Y22647D01*
X81493Y22549D01*
X81335Y22518D01*
X81153Y22396D01*
X81032Y22215D01*
X80989Y22000D01*
X81008Y21903D01*
X80835Y21868D01*
X80670Y21758D01*
X80577Y21778D01*
X80370Y21863D01*
Y22243D01*
X80370Y22243D01*
X80534Y22535D01*
X80732Y22667D01*
X80865Y22866D01*
X80912Y23100D01*
X80865Y23334D01*
X80732Y23533D01*
X80534Y23665D01*
X80300Y23712D01*
X80066Y23665D01*
X79867Y23533D01*
X79756Y23366D01*
X79673Y23324D01*
X79418Y23280D01*
X77565Y25133D01*
Y25411D01*
X77565Y25411D01*
X77550Y25490D01*
X77505Y25556D01*
X77505Y25556D01*
X75114Y27948D01*
Y30372D01*
X75409Y30446D01*
X75414Y30446D01*
X76237Y29622D01*
X76232Y29615D01*
X76189Y29400D01*
X76232Y29185D01*
X76353Y29003D01*
X76535Y28882D01*
X76750Y28839D01*
X76965Y28882D01*
X77029Y28925D01*
X77303Y29053D01*
X77485Y28932D01*
X77700Y28889D01*
X77915Y28932D01*
X78097Y29053D01*
X78218Y29235D01*
X78261Y29450D01*
X78218Y29665D01*
X78097Y29847D01*
X77915Y29968D01*
X77700Y30011D01*
X77485Y29968D01*
X77478Y29963D01*
X76657Y30784D01*
Y39457D01*
X76925Y39626D01*
X76957Y39628D01*
X77150Y39589D01*
X77364Y39632D01*
X77546Y39753D01*
X77668Y39935D01*
X77700Y40098D01*
X78401Y40799D01*
X78493Y40937D01*
X78526Y41100D01*
Y43995D01*
X78826Y44162D01*
X78894Y44120D01*
Y37600D01*
X78894Y37600D01*
X78910Y37521D01*
X78954Y37455D01*
X79287Y37122D01*
X79282Y37115D01*
X79239Y36900D01*
X79282Y36685D01*
X79403Y36503D01*
X79585Y36382D01*
X79800Y36339D01*
X80015Y36382D01*
X80197Y36503D01*
X80279Y36627D01*
X80520Y36697D01*
X80628Y36703D01*
X81544Y35786D01*
Y32458D01*
X81244Y32298D01*
X81215Y32318D01*
X81000Y32361D01*
X80785Y32318D01*
X80603Y32197D01*
X80482Y32015D01*
X80439Y31800D01*
X80482Y31585D01*
X80589Y31425D01*
X80588Y31329D01*
X80538Y31086D01*
X80403Y30997D01*
X80282Y30815D01*
X80239Y30600D01*
X80282Y30385D01*
X80403Y30203D01*
X80585Y30082D01*
X80800Y30039D01*
X81015Y30082D01*
X81197Y30203D01*
X81244Y30275D01*
X81544Y30184D01*
Y28820D01*
X81535Y28818D01*
X81353Y28697D01*
X81232Y28515D01*
X81189Y28300D01*
X81232Y28085D01*
X81353Y27903D01*
X81535Y27782D01*
X81750Y27739D01*
X81965Y27782D01*
X82147Y27903D01*
X82453D01*
X82635Y27782D01*
X82850Y27739D01*
X83065Y27782D01*
X83247Y27903D01*
X83368Y28085D01*
X83411Y28300D01*
X83368Y28515D01*
X83247Y28697D01*
X83065Y28818D01*
X82850Y28861D01*
X82635Y28818D01*
X82628Y28813D01*
X82309Y29132D01*
Y36018D01*
X82309Y36018D01*
X82293Y36096D01*
X82249Y36163D01*
X82249Y36163D01*
X81115Y37296D01*
X81214Y37622D01*
X81265Y37632D01*
X81447Y37753D01*
X81568Y37935D01*
X81611Y38150D01*
X81568Y38365D01*
X81447Y38547D01*
X81265Y38668D01*
X81050Y38711D01*
X80906Y38829D01*
Y44440D01*
X81114Y44482D01*
X81296Y44603D01*
X81418Y44785D01*
X81461Y45000D01*
X81418Y45215D01*
X81296Y45396D01*
X81114Y45518D01*
X80907Y45730D01*
X80907Y45730D01*
Y46760D01*
X81046Y46853D01*
X81168Y47035D01*
X81211Y47250D01*
X81168Y47465D01*
X81046Y47646D01*
X80864Y47768D01*
X80650Y47811D01*
X80435Y47768D01*
X80253Y47646D01*
X80132Y47465D01*
X80089Y47250D01*
X80132Y47035D01*
X80253Y46853D01*
X80311Y46815D01*
X80194Y46532D01*
X80050Y46561D01*
X79856Y46522D01*
X79827Y46523D01*
X79556Y46692D01*
Y48080D01*
X79565Y48082D01*
X79747Y48203D01*
X79868Y48385D01*
X79911Y48600D01*
X79868Y48815D01*
X79747Y48997D01*
X79705Y49025D01*
X79518Y49285D01*
X79561Y49500D01*
X79813Y49725D01*
X79926Y49736D01*
X79996Y49664D01*
X80032Y49485D01*
X80153Y49303D01*
X80335Y49182D01*
X80550Y49139D01*
X80765Y49182D01*
X80947Y49303D01*
X81068Y49485D01*
X81111Y49700D01*
X81068Y49915D01*
X80947Y50097D01*
X80765Y50218D01*
X80695Y50508D01*
X80738Y50723D01*
X80695Y50938D01*
X80574Y51120D01*
X80392Y51241D01*
X80177Y51284D01*
X79962Y51241D01*
X79780Y51120D01*
X79659Y50938D01*
X79657Y50929D01*
X79332Y50830D01*
X78667Y51495D01*
X78600Y51540D01*
X78521Y51556D01*
X78521Y51556D01*
X77229D01*
X77208Y51576D01*
Y53433D01*
X77942Y54166D01*
X78717D01*
X78880Y54199D01*
X79018Y54291D01*
X79751Y55024D01*
X79915Y55057D01*
X80096Y55178D01*
X80218Y55360D01*
X80261Y55575D01*
X80218Y55790D01*
X80126Y55928D01*
Y56627D01*
X80093Y56790D01*
X80001Y56928D01*
X78110Y58819D01*
X77972Y58911D01*
X77809Y58943D01*
X71663D01*
X71501Y58911D01*
X71362Y58819D01*
X71170Y58626D01*
X67537D01*
X67533Y58633D01*
X67334Y58765D01*
X67100Y58812D01*
X66866Y58765D01*
X66667Y58633D01*
X66535Y58434D01*
X66488Y58200D01*
X66535Y57966D01*
X66667Y57767D01*
X66866Y57635D01*
X67100Y57588D01*
X67334Y57635D01*
X67533Y57767D01*
X67537Y57774D01*
X71346D01*
X71509Y57807D01*
X71647Y57899D01*
X71840Y58092D01*
X77633D01*
X79274Y56451D01*
Y55928D01*
X79182Y55790D01*
X79149Y55626D01*
X78541Y55018D01*
X77765D01*
X77602Y54985D01*
X77464Y54893D01*
X76481Y53910D01*
X76389Y53772D01*
X76357Y53609D01*
Y51400D01*
X76389Y51237D01*
X76481Y51099D01*
X77116Y50465D01*
Y47709D01*
X77148Y47546D01*
X77240Y47408D01*
X77797Y46851D01*
X77772Y46631D01*
X77636Y46545D01*
X77485Y46474D01*
X77300Y46511D01*
X77085Y46468D01*
X76903Y46346D01*
X76782Y46165D01*
X76778Y46145D01*
X76472D01*
X76468Y46165D01*
X76346Y46346D01*
X76164Y46468D01*
X75950Y46511D01*
X75735Y46468D01*
X75553Y46346D01*
X75432Y46165D01*
X75389Y45950D01*
X75432Y45735D01*
X75553Y45553D01*
X75735Y45432D01*
X75950Y45389D01*
X76039Y45200D01*
X76082Y44985D01*
X76203Y44803D01*
X76385Y44682D01*
X76600Y44639D01*
X76815Y44682D01*
X76997Y44803D01*
X77118Y44985D01*
X77144Y45114D01*
X77236Y45276D01*
X77432Y45304D01*
X77491Y45261D01*
X77674Y45063D01*
Y43347D01*
X77374Y43280D01*
X77297Y43397D01*
X77115Y43518D01*
X76900Y43561D01*
X76685Y43518D01*
X76500Y43399D01*
X76314Y43518D01*
X76100Y43561D01*
X75885Y43518D01*
X75807Y43466D01*
X75791Y43457D01*
X75576Y43672D01*
X75618Y43735D01*
X75661Y43950D01*
X75618Y44165D01*
X75497Y44347D01*
X75315Y44468D01*
X75100Y44511D01*
X74885Y44468D01*
X74703Y44347D01*
X74582Y44165D01*
X74539Y43950D01*
X74582Y43735D01*
X74443Y43494D01*
X74407Y43471D01*
X74193Y43562D01*
X74101Y43630D01*
X74091Y43677D01*
X74047Y43744D01*
X74047Y43744D01*
X73513Y44278D01*
X73518Y44285D01*
X73561Y44500D01*
X73518Y44715D01*
X73396Y44896D01*
X73214Y45018D01*
X73000Y45061D01*
X72785Y45018D01*
X72603Y44896D01*
X72482Y44715D01*
X72439Y44500D01*
X72482Y44285D01*
X72550Y44183D01*
X72410Y44090D01*
X72289Y43908D01*
X72246Y43693D01*
X72289Y43479D01*
X72410Y43297D01*
X72592Y43175D01*
X72732Y42965D01*
X72689Y42750D01*
X72732Y42535D01*
X72853Y42353D01*
X73035Y42232D01*
X73250Y42189D01*
X73396Y42218D01*
X73615Y42098D01*
X73696Y42026D01*
Y37558D01*
X73457Y37320D01*
X73250Y37361D01*
X73035Y37318D01*
X72853Y37197D01*
X72732Y37015D01*
X72689Y36800D01*
X72732Y36585D01*
X72853Y36403D01*
X73035Y36282D01*
X73250Y36239D01*
X73465Y36282D01*
X73647Y36403D01*
X73930Y36291D01*
X73996Y36233D01*
Y27329D01*
X73650Y26983D01*
X73605Y26916D01*
X73590Y26837D01*
X73590Y26837D01*
Y22126D01*
X73590Y22126D01*
X73385Y21918D01*
X73203Y21796D01*
X73082Y21615D01*
X73039Y21400D01*
X73082Y21185D01*
X73203Y21003D01*
X73385Y20882D01*
X73455Y20868D01*
X73480Y20620D01*
X73472Y20559D01*
X73303Y20447D01*
X73182Y20265D01*
X73139Y20050D01*
X73182Y19835D01*
X73303Y19653D01*
X73485Y19532D01*
X73700Y19489D01*
X73846Y19518D01*
X74065Y19398D01*
X74146Y19326D01*
Y18430D01*
X74008Y18292D01*
X73963Y18225D01*
X73948Y18146D01*
X73948Y18146D01*
Y17939D01*
X73648Y17814D01*
X72006Y19456D01*
Y21850D01*
X72006Y21850D01*
X71990Y21929D01*
X71945Y21995D01*
X71945Y21995D01*
X71194Y22747D01*
X71127Y22791D01*
X71048Y22807D01*
X71048Y22807D01*
X69984D01*
X69945Y22845D01*
X69879Y22890D01*
X69800Y22906D01*
X69800Y22906D01*
X68158D01*
X68104Y22959D01*
Y29284D01*
X68404Y29428D01*
X68439Y29400D01*
X68482Y29185D01*
X68603Y29003D01*
X68785Y28882D01*
X68941Y28608D01*
X68983Y28393D01*
X69105Y28211D01*
X69287Y28090D01*
X69501Y28047D01*
X69716Y28090D01*
X69898Y28211D01*
X70020Y28393D01*
X70062Y28608D01*
X70020Y28822D01*
X69898Y29004D01*
X69716Y29126D01*
X69561Y29400D01*
X69518Y29615D01*
X69397Y29797D01*
X69215Y29918D01*
X69000Y29961D01*
X68785Y29918D01*
X68778Y29913D01*
X68481Y30210D01*
Y34946D01*
X68781Y35037D01*
X68803Y35003D01*
X68985Y34882D01*
X69200Y34839D01*
X69415Y34882D01*
X69597Y35003D01*
X69718Y35185D01*
X69761Y35400D01*
X69718Y35615D01*
X69597Y35797D01*
X69460Y35888D01*
X69442Y36130D01*
X69453Y36212D01*
X71395Y38155D01*
X71395Y38155D01*
X71440Y38221D01*
X71456Y38300D01*
Y42280D01*
X71465Y42282D01*
X71647Y42403D01*
X71768Y42585D01*
X71811Y42800D01*
X71768Y43015D01*
X71647Y43197D01*
X71465Y43318D01*
X71250Y43361D01*
X71151Y43647D01*
X71118Y43815D01*
X70997Y43997D01*
X70815Y44118D01*
X70600Y44161D01*
X70385Y44118D01*
X70203Y43997D01*
X70082Y43815D01*
X70039Y43600D01*
X70082Y43385D01*
X70203Y43203D01*
X70385Y43082D01*
X70393Y43080D01*
Y42348D01*
X70393Y42348D01*
X70409Y42270D01*
X70453Y42203D01*
X70691Y41965D01*
Y38632D01*
X68404Y36345D01*
X68104Y36469D01*
Y38643D01*
X68404Y38803D01*
X68435Y38782D01*
X68650Y38739D01*
X68865Y38782D01*
X69047Y38903D01*
X69168Y39085D01*
X69211Y39300D01*
X69168Y39515D01*
X69047Y39697D01*
X68865Y39818D01*
X68650Y39861D01*
X68481Y39999D01*
Y44155D01*
X68550Y44211D01*
X68765Y44254D01*
X68947Y44376D01*
X69068Y44557D01*
X69111Y44772D01*
X69068Y44987D01*
X68947Y45169D01*
X68765Y45290D01*
X68550Y45333D01*
X68404Y45304D01*
X68185Y45425D01*
X68104Y45496D01*
Y50415D01*
X68088Y50493D01*
X68044Y50560D01*
X67055Y51548D01*
Y53130D01*
X67064Y53132D01*
X67246Y53253D01*
X67368Y53435D01*
X67411Y53650D01*
X67393Y53740D01*
X67584Y54040D01*
X73937D01*
X73937Y54040D01*
X74016Y54055D01*
X74083Y54100D01*
X74260Y54277D01*
X74268Y54272D01*
X74482Y54229D01*
X74697Y54272D01*
X74879Y54393D01*
X75000Y54575D01*
X75043Y54790D01*
X75000Y55005D01*
X74879Y55187D01*
X74868Y55194D01*
X74668Y55435D01*
X74711Y55650D01*
X74668Y55865D01*
X74547Y56047D01*
X74447Y56113D01*
Y56203D01*
X74568Y56385D01*
X74611Y56600D01*
X74568Y56815D01*
X74447Y56997D01*
X74265Y57118D01*
X74050Y57161D01*
X73835Y57118D01*
X73653Y56997D01*
X73532Y56815D01*
X73489Y56600D01*
X73532Y56385D01*
X73653Y56203D01*
X73753Y56137D01*
Y56047D01*
X73632Y55865D01*
X73589Y55650D01*
X73632Y55435D01*
X73753Y55253D01*
X73935Y55132D01*
X73929Y54827D01*
X73921Y54790D01*
X73936Y54716D01*
X73719Y54457D01*
X73706Y54451D01*
X70037D01*
X69913Y54751D01*
X70595Y55433D01*
X70595Y55433D01*
X70640Y55500D01*
X70656Y55579D01*
Y55980D01*
X70665Y55982D01*
X70847Y56103D01*
X70968Y56285D01*
X71011Y56500D01*
X70968Y56715D01*
X70847Y56897D01*
X70665Y57018D01*
X70450Y57061D01*
X70235Y57018D01*
X70118Y56940D01*
X70040Y56901D01*
X69753Y56987D01*
X69747Y56997D01*
X69565Y57118D01*
X69350Y57161D01*
X69135Y57118D01*
X68953Y56997D01*
X68894Y56907D01*
X66352D01*
X66352Y56907D01*
X66273Y56891D01*
X66206Y56847D01*
X66206Y56847D01*
X64636Y55277D01*
X64592Y55210D01*
X64576Y55131D01*
X64576Y55131D01*
Y53531D01*
X64284Y53365D01*
X64276Y53367D01*
X64050Y53412D01*
X63816Y53365D01*
X63551Y53549D01*
X63561Y53600D01*
X63518Y53815D01*
X63397Y53997D01*
X63215Y54118D01*
X63000Y54161D01*
X62785Y54118D01*
X62603Y53997D01*
X62482Y53815D01*
X62439Y53600D01*
X62482Y53385D01*
X62603Y53203D01*
X62785Y53082D01*
X63000Y53039D01*
X63187Y53076D01*
X63306Y53006D01*
X63454Y52881D01*
X63438Y52800D01*
X63485Y52566D01*
X63617Y52367D01*
X63816Y52235D01*
X64050Y52188D01*
X64276Y52233D01*
X64284Y52234D01*
X64576Y52069D01*
Y50112D01*
X64276Y49987D01*
X63068Y51195D01*
X63001Y51240D01*
X62923Y51255D01*
X62923Y51255D01*
X62020D01*
X62018Y51264D01*
X61896Y51446D01*
X61714Y51568D01*
X61500Y51611D01*
X61285Y51568D01*
X61256Y51548D01*
X60956Y51708D01*
Y52130D01*
X60965Y52132D01*
X61147Y52253D01*
X61268Y52435D01*
X61311Y52650D01*
X61268Y52865D01*
X61147Y53047D01*
X60965Y53168D01*
X60750Y53211D01*
X60535Y53168D01*
X60492Y53139D01*
X60192Y53299D01*
Y56251D01*
X60448Y56507D01*
X60485Y56482D01*
X60700Y56439D01*
X60915Y56482D01*
X61097Y56603D01*
X61218Y56785D01*
X61261Y57000D01*
X61218Y57215D01*
X61097Y57397D01*
X60915Y57518D01*
X60700Y57561D01*
X60485Y57518D01*
X60303Y57397D01*
X60182Y57215D01*
X60154Y57073D01*
X60121Y57048D01*
X59821Y57193D01*
Y58125D01*
X59900Y58189D01*
X60115Y58232D01*
X60297Y58353D01*
X60418Y58535D01*
X60461Y58750D01*
X60432Y58894D01*
X60554Y59116D01*
X60625Y59194D01*
X63515D01*
X63885Y58825D01*
X63840Y58590D01*
X63600Y58412D01*
X63366Y58365D01*
X63167Y58233D01*
X63035Y58034D01*
X62988Y57800D01*
X63035Y57566D01*
X63167Y57367D01*
X63366Y57235D01*
X63600Y57188D01*
X63834Y57235D01*
X64033Y57367D01*
X64165Y57566D01*
X64199Y57733D01*
X64338Y57901D01*
X64450Y57989D01*
X64665Y58032D01*
X64847Y58153D01*
X64913Y58253D01*
X65003D01*
X65185Y58132D01*
X65400Y58089D01*
X65615Y58132D01*
X65797Y58253D01*
X65918Y58435D01*
X65961Y58650D01*
X65918Y58865D01*
X65797Y59047D01*
X65615Y59168D01*
X65400Y59211D01*
X65185Y59168D01*
X65178Y59163D01*
X64441Y59900D01*
X64374Y59945D01*
X64361Y59947D01*
X64295Y59960D01*
D02*
G37*
G36*
X39327Y60145D02*
Y59427D01*
X40045D01*
X40032Y59523D01*
X39946Y59731D01*
X39809Y59909D01*
X39631Y60046D01*
X39423Y60132D01*
X39327Y60145D01*
D02*
G37*
G36*
X39073D02*
X38977Y60132D01*
X38769Y60046D01*
X38591Y59909D01*
X38454Y59731D01*
X38368Y59523D01*
X38355Y59427D01*
X39073D01*
Y60145D01*
D02*
G37*
G36*
X37200Y60056D02*
X37004Y60031D01*
X36930Y60000D01*
X36500D01*
Y59570D01*
X36469Y59496D01*
X36444Y59300D01*
X36464Y59141D01*
X35862Y58538D01*
X35773Y58406D01*
X35742Y58250D01*
X35742Y58250D01*
Y36500D01*
X35742Y36500D01*
X35773Y36344D01*
X35862Y36212D01*
X40544Y31529D01*
X40538Y31500D01*
X40585Y31266D01*
X40717Y31067D01*
X40916Y30935D01*
X41150Y30888D01*
X41384Y30935D01*
X41394Y30942D01*
X41694Y30781D01*
Y29203D01*
X41655Y29145D01*
X41640Y29066D01*
X41640Y29066D01*
Y13630D01*
X39668Y11659D01*
X39496Y11731D01*
X39300Y11756D01*
X39104Y11731D01*
X38922Y11655D01*
X38765Y11535D01*
X38645Y11378D01*
X38569Y11196D01*
X38544Y11000D01*
X38569Y10804D01*
X38645Y10622D01*
X38765Y10465D01*
X38922Y10345D01*
X39104Y10269D01*
X39300Y10244D01*
X39496Y10269D01*
X39678Y10345D01*
X39835Y10465D01*
X39955Y10622D01*
X40031Y10804D01*
X40056Y11000D01*
X40031Y11196D01*
X39959Y11368D01*
X41748Y13157D01*
X42048Y13033D01*
Y12038D01*
X39668Y9659D01*
X39496Y9731D01*
X39300Y9756D01*
X39104Y9731D01*
X38922Y9655D01*
X38765Y9535D01*
X38645Y9378D01*
X38569Y9196D01*
X38544Y9000D01*
X38569Y8804D01*
X38645Y8622D01*
X38765Y8465D01*
X38922Y8345D01*
X39104Y8269D01*
X39300Y8244D01*
X39496Y8269D01*
X39678Y8345D01*
X39835Y8465D01*
X39955Y8622D01*
X40031Y8804D01*
X40056Y9000D01*
X40031Y9196D01*
X39959Y9368D01*
X42399Y11808D01*
X42399Y11808D01*
X42443Y11875D01*
X42459Y11953D01*
X42459Y11953D01*
Y21758D01*
X42443Y21836D01*
X42404Y21895D01*
Y28837D01*
X42443Y28896D01*
X42459Y28975D01*
Y31900D01*
X42459Y31900D01*
X42443Y31979D01*
X42399Y32045D01*
X38759Y35685D01*
Y42606D01*
X39023Y42774D01*
X39059Y42777D01*
X39250Y42739D01*
X39465Y42782D01*
X39647Y42903D01*
X39768Y43085D01*
X39811Y43300D01*
X39768Y43515D01*
X39647Y43697D01*
X39465Y43818D01*
X39250Y43861D01*
X39059Y43823D01*
X39023Y43826D01*
X38759Y43994D01*
Y44346D01*
X38923Y44495D01*
X39059Y44562D01*
X39200Y44544D01*
X39396Y44569D01*
X39578Y44645D01*
X39735Y44765D01*
X39855Y44922D01*
X39931Y45104D01*
X39956Y45300D01*
X39931Y45496D01*
X39855Y45678D01*
X39735Y45835D01*
X39578Y45955D01*
X39396Y46031D01*
X39200Y46056D01*
X39004Y46031D01*
X38822Y45955D01*
X38758Y45906D01*
X38473Y46018D01*
X38453Y46263D01*
X38832Y46641D01*
X39004Y46569D01*
X39200Y46544D01*
X39396Y46569D01*
X39578Y46645D01*
X39735Y46765D01*
X39855Y46922D01*
X39931Y47104D01*
X39956Y47300D01*
X39931Y47496D01*
X39855Y47678D01*
X39735Y47835D01*
X39578Y47955D01*
X39396Y48031D01*
X39200Y48056D01*
X39004Y48031D01*
X38822Y47955D01*
X38665Y47835D01*
X38545Y47678D01*
X38469Y47496D01*
X38444Y47300D01*
X38469Y47104D01*
X38541Y46932D01*
X38055Y46445D01*
X38010Y46379D01*
X37994Y46300D01*
X37994Y46300D01*
Y45989D01*
X37852Y45905D01*
X37694Y45866D01*
X37578Y45955D01*
X37396Y46031D01*
X37200Y46056D01*
X37004Y46031D01*
X36858Y45970D01*
X36723Y46021D01*
X36558Y46131D01*
Y46469D01*
X36723Y46579D01*
X36858Y46630D01*
X37004Y46569D01*
X37200Y46544D01*
X37396Y46569D01*
X37578Y46645D01*
X37735Y46765D01*
X37855Y46922D01*
X37931Y47104D01*
X37956Y47300D01*
X37931Y47496D01*
X37855Y47678D01*
X37735Y47835D01*
X37578Y47955D01*
X37396Y48031D01*
X37200Y48056D01*
X37004Y48031D01*
X36858Y47970D01*
X36723Y48021D01*
X36558Y48131D01*
Y48469D01*
X36723Y48579D01*
X36858Y48630D01*
X37004Y48569D01*
X37200Y48544D01*
X37396Y48569D01*
X37578Y48645D01*
X37735Y48765D01*
X37855Y48922D01*
X37931Y49104D01*
X37956Y49300D01*
X37931Y49496D01*
X37855Y49678D01*
X37735Y49835D01*
X37578Y49955D01*
X37396Y50031D01*
X37200Y50056D01*
X37004Y50031D01*
X36858Y49970D01*
X36723Y50021D01*
X36558Y50131D01*
Y50469D01*
X36723Y50579D01*
X36858Y50630D01*
X37004Y50569D01*
X37200Y50544D01*
X37396Y50569D01*
X37578Y50645D01*
X37735Y50765D01*
X37855Y50922D01*
X37931Y51104D01*
X37956Y51300D01*
X37931Y51496D01*
X37855Y51678D01*
X37735Y51835D01*
X37578Y51955D01*
X37396Y52031D01*
X37200Y52056D01*
X37004Y52031D01*
X36858Y51970D01*
X36723Y52021D01*
X36558Y52131D01*
Y52469D01*
X36723Y52579D01*
X36858Y52630D01*
X37004Y52569D01*
X37200Y52544D01*
X37396Y52569D01*
X37578Y52645D01*
X37735Y52765D01*
X37855Y52922D01*
X37931Y53104D01*
X37956Y53300D01*
X37931Y53496D01*
X37855Y53678D01*
X37735Y53835D01*
X37578Y53955D01*
X37396Y54031D01*
X37200Y54056D01*
X37004Y54031D01*
X36908Y53991D01*
X36639Y54143D01*
X36622Y54361D01*
X36875Y54510D01*
X36977Y54468D01*
X37073Y54455D01*
Y55300D01*
Y56145D01*
X36977Y56132D01*
X36875Y56090D01*
X36622Y56239D01*
X36639Y56457D01*
X36908Y56609D01*
X37004Y56569D01*
X37200Y56544D01*
X37396Y56569D01*
X37578Y56645D01*
X37735Y56765D01*
X37855Y56922D01*
X37931Y57104D01*
X37956Y57300D01*
X37931Y57496D01*
X37855Y57678D01*
X37735Y57835D01*
X37578Y57955D01*
X37396Y58031D01*
X37200Y58056D01*
X37004Y58031D01*
X36880Y57979D01*
X36711Y58234D01*
X37041Y58564D01*
X37200Y58544D01*
X37396Y58569D01*
X37470Y58600D01*
X37900D01*
Y59030D01*
X37931Y59104D01*
X37956Y59300D01*
X37931Y59496D01*
X37900Y59570D01*
Y60000D01*
X37470D01*
X37396Y60031D01*
X37200Y60056D01*
D02*
G37*
G36*
X40045Y59173D02*
X39327D01*
Y58455D01*
X39423Y58468D01*
X39631Y58554D01*
X39809Y58691D01*
X39946Y58869D01*
X40032Y59077D01*
X40045Y59173D01*
D02*
G37*
G36*
X39073D02*
X38355D01*
X38368Y59077D01*
X38454Y58869D01*
X38591Y58691D01*
X38769Y58554D01*
X38977Y58468D01*
X39073Y58455D01*
Y59173D01*
D02*
G37*
G36*
X39200Y58056D02*
X39004Y58031D01*
X38822Y57955D01*
X38665Y57835D01*
X38545Y57678D01*
X38469Y57496D01*
X38444Y57300D01*
X38469Y57104D01*
X38545Y56922D01*
X38665Y56765D01*
X38822Y56645D01*
X39004Y56569D01*
X39200Y56544D01*
X39396Y56569D01*
X39578Y56645D01*
X39735Y56765D01*
X39855Y56922D01*
X39931Y57104D01*
X39956Y57300D01*
X39931Y57496D01*
X39855Y57678D01*
X39735Y57835D01*
X39578Y57955D01*
X39396Y58031D01*
X39200Y58056D01*
D02*
G37*
G36*
X37327Y56145D02*
Y55427D01*
X38045D01*
X38032Y55523D01*
X37946Y55731D01*
X37809Y55909D01*
X37631Y56046D01*
X37423Y56132D01*
X37327Y56145D01*
D02*
G37*
G36*
X39200Y56056D02*
X39004Y56031D01*
X38822Y55955D01*
X38665Y55835D01*
X38545Y55678D01*
X38469Y55496D01*
X38444Y55300D01*
X38469Y55104D01*
X38545Y54922D01*
X38665Y54765D01*
X38822Y54645D01*
X39004Y54569D01*
X39200Y54544D01*
X39396Y54569D01*
X39578Y54645D01*
X39735Y54765D01*
X39855Y54922D01*
X39931Y55104D01*
X39956Y55300D01*
X39931Y55496D01*
X39855Y55678D01*
X39735Y55835D01*
X39578Y55955D01*
X39396Y56031D01*
X39200Y56056D01*
D02*
G37*
G36*
X38045Y55173D02*
X37327D01*
Y54455D01*
X37423Y54468D01*
X37631Y54554D01*
X37809Y54691D01*
X37946Y54869D01*
X38032Y55077D01*
X38045Y55173D01*
D02*
G37*
G36*
X46050Y54811D02*
X45835Y54768D01*
X45653Y54647D01*
X45532Y54465D01*
X45489Y54250D01*
X45532Y54035D01*
X45653Y53853D01*
X45835Y53732D01*
X46050Y53689D01*
X46265Y53732D01*
X46447Y53853D01*
X46568Y54035D01*
X46611Y54250D01*
X46568Y54465D01*
X46447Y54647D01*
X46265Y54768D01*
X46050Y54811D01*
D02*
G37*
G36*
X39200Y54056D02*
X39004Y54031D01*
X38822Y53955D01*
X38665Y53835D01*
X38545Y53678D01*
X38469Y53496D01*
X38444Y53300D01*
X38469Y53104D01*
X38545Y52922D01*
X38665Y52765D01*
X38822Y52645D01*
X39004Y52569D01*
X39200Y52544D01*
X39396Y52569D01*
X39578Y52645D01*
X39735Y52765D01*
X39855Y52922D01*
X39931Y53104D01*
X39956Y53300D01*
X39931Y53496D01*
X39855Y53678D01*
X39735Y53835D01*
X39578Y53955D01*
X39396Y54031D01*
X39200Y54056D01*
D02*
G37*
G36*
Y52056D02*
X39004Y52031D01*
X38822Y51955D01*
X38665Y51835D01*
X38545Y51678D01*
X38469Y51496D01*
X38444Y51300D01*
X38469Y51104D01*
X38545Y50922D01*
X38665Y50765D01*
X38822Y50645D01*
X39004Y50569D01*
X39200Y50544D01*
X39396Y50569D01*
X39578Y50645D01*
X39735Y50765D01*
X39855Y50922D01*
X39931Y51104D01*
X39956Y51300D01*
X39931Y51496D01*
X39855Y51678D01*
X39735Y51835D01*
X39578Y51955D01*
X39396Y52031D01*
X39200Y52056D01*
D02*
G37*
G36*
X39327Y50145D02*
Y49427D01*
X40045D01*
X40032Y49523D01*
X39946Y49731D01*
X39809Y49909D01*
X39631Y50046D01*
X39423Y50132D01*
X39327Y50145D01*
D02*
G37*
G36*
X39073D02*
X38977Y50132D01*
X38769Y50046D01*
X38591Y49909D01*
X38454Y49731D01*
X38368Y49523D01*
X38355Y49427D01*
X39073D01*
Y50145D01*
D02*
G37*
G36*
X40045Y49173D02*
X39327D01*
Y48455D01*
X39423Y48468D01*
X39631Y48554D01*
X39809Y48691D01*
X39946Y48869D01*
X40032Y49077D01*
X40045Y49173D01*
D02*
G37*
G36*
X39073D02*
X38355D01*
X38368Y49077D01*
X38454Y48869D01*
X38591Y48691D01*
X38769Y48554D01*
X38977Y48468D01*
X39073Y48455D01*
Y49173D01*
D02*
G37*
G36*
X44550Y52811D02*
X44335Y52768D01*
X44153Y52647D01*
X44032Y52465D01*
X43989Y52250D01*
X44032Y52035D01*
X44142Y51870D01*
Y45600D01*
X44142Y45600D01*
X44173Y45444D01*
X44262Y45312D01*
X44623Y44951D01*
X44615Y44874D01*
X44400Y44611D01*
X44185Y44568D01*
X44003Y44447D01*
X43882Y44265D01*
X43839Y44050D01*
X43882Y43835D01*
X44003Y43653D01*
X44185Y43532D01*
X44400Y43489D01*
X44615Y43532D01*
X44797Y43653D01*
X44918Y43835D01*
X44961Y44050D01*
X45224Y44265D01*
X45301Y44273D01*
X46193Y43380D01*
X46232Y43185D01*
X46353Y43003D01*
X46535Y42882D01*
X46750Y42839D01*
X46965Y42882D01*
X47147Y43003D01*
X47268Y43185D01*
X47311Y43400D01*
X47268Y43615D01*
X47147Y43797D01*
X46965Y43918D01*
X46770Y43957D01*
X44958Y45769D01*
Y51870D01*
X45068Y52035D01*
X45111Y52250D01*
X45068Y52465D01*
X44947Y52647D01*
X44765Y52768D01*
X44550Y52811D01*
D02*
G37*
G36*
X52900Y48511D02*
X52685Y48468D01*
X52503Y48347D01*
X52382Y48165D01*
X52339Y47950D01*
X52382Y47735D01*
X52503Y47553D01*
X52685Y47432D01*
X52696Y47430D01*
Y44834D01*
X52606Y44744D01*
X52562Y44678D01*
X52546Y44600D01*
Y41481D01*
X52562Y41403D01*
X52606Y41337D01*
X53296Y40646D01*
Y39241D01*
X53021Y39072D01*
X52996Y39072D01*
X52800Y39111D01*
X52585Y39068D01*
X52403Y38947D01*
X52282Y38765D01*
X52239Y38550D01*
X52282Y38335D01*
X52403Y38153D01*
X52585Y38032D01*
X52800Y37989D01*
X52996Y38028D01*
X53021Y38028D01*
X53296Y37859D01*
Y37463D01*
X52956Y37123D01*
X52912Y37057D01*
X52896Y36979D01*
Y34970D01*
X52885Y34968D01*
X52703Y34847D01*
X52582Y34665D01*
X52539Y34450D01*
X52582Y34235D01*
X52703Y34053D01*
X52885Y33932D01*
X53100Y33889D01*
X53315Y33932D01*
X53497Y34053D01*
X53618Y34235D01*
X53661Y34450D01*
X53618Y34665D01*
X53497Y34847D01*
X53315Y34968D01*
X53304Y34970D01*
Y36804D01*
X53552Y37019D01*
X53755Y37005D01*
X54087Y36672D01*
X54082Y36665D01*
X54039Y36450D01*
X54082Y36235D01*
X54203Y36053D01*
X54385Y35932D01*
X54444Y35920D01*
Y31091D01*
X54303Y30997D01*
X54182Y30815D01*
X54139Y30600D01*
X54182Y30385D01*
X54303Y30203D01*
X54485Y30082D01*
X54561Y30067D01*
X54567Y30036D01*
X54611Y29969D01*
X54696Y29885D01*
Y25924D01*
X54615Y25852D01*
X54396Y25732D01*
X54250Y25761D01*
X54035Y25718D01*
X53853Y25597D01*
X53822Y25549D01*
X53512Y25499D01*
X53467Y25516D01*
X53315Y25618D01*
X53100Y25661D01*
X52885Y25618D01*
X52703Y25497D01*
X52582Y25315D01*
X52539Y25100D01*
X52582Y24885D01*
X52703Y24703D01*
X52885Y24582D01*
X53100Y24539D01*
X53315Y24582D01*
X53497Y24703D01*
X53528Y24751D01*
X53838Y24801D01*
X53883Y24784D01*
X54035Y24682D01*
X54250Y24639D01*
X54340Y24657D01*
X54640Y24466D01*
Y21769D01*
X54557Y21698D01*
X54197Y21697D01*
X54015Y21818D01*
X53800Y21861D01*
X53585Y21818D01*
X53403Y21697D01*
X53282Y21515D01*
X53239Y21300D01*
X53282Y21085D01*
X53403Y20903D01*
X53585Y20782D01*
X53800Y20739D01*
X54015Y20782D01*
X54197Y20903D01*
X54216Y20933D01*
X54532Y20885D01*
X54653Y20703D01*
X54835Y20582D01*
X55050Y20539D01*
X55265Y20582D01*
X55386Y20663D01*
X55653Y20803D01*
X55835Y20682D01*
X56050Y20639D01*
X56265Y20682D01*
X56394Y20768D01*
X56494Y20792D01*
X56755Y20726D01*
X56803Y20653D01*
X56985Y20532D01*
X57200Y20489D01*
X57415Y20532D01*
X57597Y20653D01*
X57617Y20684D01*
X57624Y20687D01*
X57964Y20663D01*
X58003Y20603D01*
X58185Y20482D01*
X58400Y20439D01*
X58615Y20482D01*
X58797Y20603D01*
X58918Y20785D01*
X58961Y21000D01*
X58918Y21215D01*
X58797Y21397D01*
X58615Y21518D01*
X58400Y21561D01*
X58185Y21518D01*
X58003Y21397D01*
X57983Y21366D01*
X57976Y21363D01*
X57636Y21387D01*
X57597Y21447D01*
X57439Y21551D01*
X57415Y21568D01*
X57268Y21785D01*
X57311Y22000D01*
X57268Y22215D01*
X57147Y22397D01*
Y22487D01*
X57247Y22553D01*
X57368Y22735D01*
X57411Y22950D01*
X57368Y23165D01*
X57247Y23347D01*
X57065Y23468D01*
X56850Y23511D01*
X56635Y23468D01*
X56583Y23433D01*
X56300Y23402D01*
X56163Y23452D01*
X56065Y23518D01*
X55850Y23561D01*
X55760Y23543D01*
X55460Y23734D01*
Y27020D01*
X56178Y27737D01*
X56185Y27732D01*
X56400Y27689D01*
X56615Y27732D01*
X56797Y27853D01*
X56918Y28035D01*
X56961Y28250D01*
X56918Y28465D01*
X56797Y28647D01*
X56615Y28768D01*
X56606Y28770D01*
Y29897D01*
X56606Y29897D01*
X56590Y29975D01*
X56545Y30042D01*
X56545Y30042D01*
X56205Y30382D01*
Y30980D01*
X56214Y30982D01*
X56396Y31103D01*
X56518Y31285D01*
X56561Y31500D01*
X56518Y31715D01*
X56396Y31896D01*
X56214Y32018D01*
X56205Y32020D01*
Y33615D01*
X56795Y34205D01*
X56840Y34271D01*
X56856Y34350D01*
X56856Y34350D01*
Y36030D01*
X56865Y36032D01*
X57047Y36153D01*
X57168Y36335D01*
X57211Y36550D01*
X57168Y36765D01*
X57145Y36835D01*
X57190Y36902D01*
X57206Y36980D01*
X57206Y36980D01*
Y39059D01*
X57503Y39153D01*
X57685Y39032D01*
X57900Y38989D01*
X58115Y39032D01*
X58297Y39153D01*
X58418Y39335D01*
X58714Y39286D01*
Y35937D01*
X58653Y35897D01*
X58547Y35737D01*
X58412Y35696D01*
X58216Y35667D01*
X58065Y35768D01*
X57850Y35811D01*
X57635Y35768D01*
X57453Y35647D01*
X57332Y35465D01*
X57289Y35250D01*
X57332Y35035D01*
X57453Y34853D01*
X57635Y34732D01*
X57850Y34689D01*
X58065Y34732D01*
X58247Y34853D01*
X58353Y35013D01*
X58488Y35054D01*
X58684Y35083D01*
X58835Y34982D01*
X59050Y34939D01*
X59265Y34982D01*
X59447Y35103D01*
X59568Y35285D01*
X59611Y35500D01*
X59568Y35715D01*
X59447Y35897D01*
X59436Y35904D01*
Y40963D01*
X59497Y41003D01*
X59618Y41185D01*
X59661Y41400D01*
X59618Y41615D01*
X59497Y41797D01*
X59436Y41837D01*
Y45246D01*
X59447Y45253D01*
X59568Y45435D01*
X59611Y45650D01*
X59568Y45865D01*
X59447Y46047D01*
X59265Y46168D01*
X59050Y46211D01*
X58835Y46168D01*
X58653Y46047D01*
X58532Y45865D01*
X58489Y45650D01*
X58532Y45435D01*
X58653Y45253D01*
X58714Y45213D01*
Y41804D01*
X58703Y41797D01*
X58582Y41615D01*
X58539Y41400D01*
X58582Y41185D01*
X58703Y41003D01*
X58714Y40996D01*
Y39814D01*
X58418Y39765D01*
X58297Y39947D01*
X58115Y40068D01*
X57900Y40111D01*
X57685Y40068D01*
X57503Y39947D01*
X57206Y40041D01*
Y41230D01*
X57215Y41232D01*
X57397Y41353D01*
X57518Y41535D01*
X57561Y41750D01*
X57518Y41965D01*
X57397Y42147D01*
X57215Y42268D01*
X57000Y42311D01*
X56785Y42268D01*
X56778Y42263D01*
X56155Y42885D01*
Y46830D01*
X56164Y46832D01*
X56346Y46953D01*
X56468Y47135D01*
X56511Y47350D01*
X56468Y47564D01*
X56346Y47746D01*
X56164Y47868D01*
X55950Y47911D01*
X55735Y47868D01*
X55668Y47823D01*
X55568Y47865D01*
X55447Y48047D01*
X55265Y48168D01*
X55050Y48211D01*
X54835Y48168D01*
X54653Y48047D01*
X54532Y47865D01*
X54489Y47650D01*
X54532Y47435D01*
X54653Y47253D01*
X54835Y47132D01*
X54844Y47130D01*
Y43285D01*
X53722Y42163D01*
X53715Y42168D01*
X53500Y42211D01*
X53285Y42168D01*
X53254Y42147D01*
X52954Y42307D01*
Y44515D01*
X53044Y44606D01*
X53044Y44606D01*
X53088Y44672D01*
X53104Y44750D01*
Y47430D01*
X53115Y47432D01*
X53297Y47553D01*
X53418Y47735D01*
X53461Y47950D01*
X53418Y48165D01*
X53297Y48347D01*
X53115Y48468D01*
X52900Y48511D01*
D02*
G37*
G36*
X57450Y31311D02*
X57235Y31268D01*
X57053Y31147D01*
X56932Y30965D01*
X56889Y30750D01*
X56932Y30535D01*
X57053Y30353D01*
X57235Y30232D01*
X57450Y30189D01*
X57665Y30232D01*
X57847Y30353D01*
X57968Y30535D01*
X58011Y30750D01*
X57968Y30965D01*
X57847Y31147D01*
X57665Y31268D01*
X57450Y31311D01*
D02*
G37*
G36*
X79150Y27762D02*
X78916Y27715D01*
X78717Y27583D01*
X78585Y27384D01*
X78538Y27150D01*
X78585Y26916D01*
X78717Y26717D01*
X78753Y26694D01*
X78753Y26685D01*
X78662Y26393D01*
X78535Y26368D01*
X78353Y26247D01*
X78232Y26065D01*
X78189Y25850D01*
X78232Y25635D01*
X78353Y25453D01*
X78535Y25332D01*
X78750Y25289D01*
X78965Y25332D01*
X79147Y25453D01*
X79268Y25635D01*
X79311Y25850D01*
X79268Y26065D01*
X79147Y26247D01*
X79137Y26253D01*
X79139Y26299D01*
X79227Y26554D01*
X79384Y26585D01*
X79583Y26717D01*
X79715Y26916D01*
X79762Y27150D01*
X79715Y27384D01*
X79583Y27583D01*
X79384Y27715D01*
X79150Y27762D01*
D02*
G37*
G36*
X80700Y26211D02*
X80485Y26168D01*
X80303Y26047D01*
X80182Y25865D01*
X80139Y25650D01*
X80182Y25435D01*
X80303Y25253D01*
X80485Y25132D01*
X80700Y25089D01*
X80915Y25132D01*
X81097Y25253D01*
X81218Y25435D01*
X81261Y25650D01*
X81218Y25865D01*
X81097Y26047D01*
X80915Y26168D01*
X80700Y26211D01*
D02*
G37*
G36*
X59100Y31961D02*
X58885Y31918D01*
X58703Y31797D01*
X58582Y31615D01*
X58539Y31400D01*
X58582Y31185D01*
X58703Y31003D01*
X58714Y30996D01*
Y25460D01*
X58678Y25436D01*
X58557Y25254D01*
X58514Y25040D01*
X58557Y24825D01*
X58678Y24643D01*
X58860Y24522D01*
X59075Y24479D01*
X59290Y24522D01*
X59472Y24643D01*
X59593Y24825D01*
X59636Y25040D01*
X59593Y25254D01*
X59472Y25436D01*
X59436Y25460D01*
Y30963D01*
X59497Y31003D01*
X59618Y31185D01*
X59661Y31400D01*
X59618Y31615D01*
X59497Y31797D01*
X59315Y31918D01*
X59100Y31961D01*
D02*
G37*
G36*
X82800Y26711D02*
X82585Y26668D01*
X82403Y26547D01*
X82282Y26365D01*
X82239Y26150D01*
X82282Y25935D01*
X82403Y25753D01*
X82537Y25664D01*
X82564Y25500D01*
Y25500D01*
X82537Y25336D01*
X82403Y25247D01*
X82282Y25065D01*
X82239Y24850D01*
X82282Y24635D01*
X82403Y24453D01*
X82585Y24332D01*
X82800Y24289D01*
X83015Y24332D01*
X83197Y24453D01*
X83318Y24635D01*
X83361Y24850D01*
X83318Y25065D01*
X83197Y25247D01*
X83063Y25336D01*
X83036Y25500D01*
Y25500D01*
X83063Y25664D01*
X83197Y25753D01*
X83318Y25935D01*
X83361Y26150D01*
X83318Y26365D01*
X83197Y26547D01*
X83015Y26668D01*
X82800Y26711D01*
D02*
G37*
G36*
X35550Y26712D02*
X35316Y26665D01*
X35117Y26533D01*
X34985Y26334D01*
X34938Y26100D01*
X34985Y25866D01*
X35117Y25667D01*
X35316Y25535D01*
X35375Y25523D01*
Y25217D01*
X35366Y25215D01*
X35167Y25083D01*
X35035Y24884D01*
X34988Y24650D01*
X35035Y24416D01*
X35167Y24217D01*
X35366Y24085D01*
X35600Y24038D01*
X35834Y24085D01*
X36033Y24217D01*
X36165Y24416D01*
X36212Y24650D01*
X36165Y24884D01*
X36033Y25083D01*
X35834Y25215D01*
X35775Y25227D01*
Y25533D01*
X35784Y25535D01*
X35983Y25667D01*
X36115Y25866D01*
X36162Y26100D01*
X36115Y26334D01*
X35983Y26533D01*
X35784Y26665D01*
X35550Y26712D01*
D02*
G37*
G36*
X39427Y23845D02*
Y23127D01*
X40145D01*
X40132Y23223D01*
X40046Y23431D01*
X39909Y23609D01*
X39731Y23746D01*
X39523Y23832D01*
X39427Y23845D01*
D02*
G37*
G36*
X39173D02*
X39077Y23832D01*
X38869Y23746D01*
X38691Y23609D01*
X38554Y23431D01*
X38468Y23223D01*
X38455Y23127D01*
X39173D01*
Y23845D01*
D02*
G37*
G36*
X53025Y24061D02*
X52810Y24018D01*
X52628Y23897D01*
X52507Y23715D01*
X52464Y23500D01*
X52507Y23285D01*
X52628Y23103D01*
X52810Y22982D01*
X53025Y22939D01*
X53240Y22982D01*
X53422Y23103D01*
X53543Y23285D01*
X53586Y23500D01*
X53543Y23715D01*
X53422Y23897D01*
X53240Y24018D01*
X53025Y24061D01*
D02*
G37*
G36*
X37300Y23756D02*
X37104Y23731D01*
X37030Y23700D01*
X36600D01*
Y23270D01*
X36569Y23196D01*
X36544Y23000D01*
X36569Y22804D01*
X36600Y22730D01*
Y22300D01*
X37030D01*
X37104Y22269D01*
X37300Y22244D01*
X37496Y22269D01*
X37570Y22300D01*
X38000D01*
Y22730D01*
X38031Y22804D01*
X38056Y23000D01*
X38031Y23196D01*
X38000Y23270D01*
Y23700D01*
X37570D01*
X37496Y23731D01*
X37300Y23756D01*
D02*
G37*
G36*
X40145Y22873D02*
X39427D01*
Y22155D01*
X39523Y22168D01*
X39731Y22254D01*
X39909Y22391D01*
X40046Y22569D01*
X40132Y22777D01*
X40145Y22873D01*
D02*
G37*
G36*
X39173D02*
X38455D01*
X38468Y22777D01*
X38554Y22569D01*
X38691Y22391D01*
X38869Y22254D01*
X39077Y22168D01*
X39173Y22155D01*
Y22873D01*
D02*
G37*
G36*
X44800Y23212D02*
X44566Y23165D01*
X44367Y23033D01*
X44235Y22834D01*
X44188Y22600D01*
X44235Y22366D01*
X44367Y22167D01*
X44566Y22035D01*
X44800Y21988D01*
X45034Y22035D01*
X45233Y22167D01*
X45365Y22366D01*
X45412Y22600D01*
X45365Y22834D01*
X45233Y23033D01*
X45034Y23165D01*
X44800Y23212D01*
D02*
G37*
G36*
X48550Y53787D02*
X48316Y53740D01*
X48117Y53608D01*
X47985Y53409D01*
X47938Y53175D01*
X47985Y52941D01*
X48117Y52742D01*
X48316Y52610D01*
X48550Y52563D01*
X48579Y52569D01*
X49692Y51456D01*
Y22799D01*
X49667Y22783D01*
X49535Y22584D01*
X49488Y22350D01*
X49535Y22116D01*
X49667Y21917D01*
X49866Y21785D01*
X50100Y21738D01*
X50334Y21785D01*
X50533Y21917D01*
X50665Y22116D01*
X50712Y22350D01*
X50665Y22584D01*
X50533Y22783D01*
X50508Y22799D01*
Y51625D01*
X50508Y51625D01*
X50477Y51781D01*
X50388Y51913D01*
X50388Y51913D01*
X49156Y53146D01*
X49162Y53175D01*
X49115Y53409D01*
X48983Y53608D01*
X48784Y53740D01*
X48550Y53787D01*
D02*
G37*
G36*
X39300Y21756D02*
X39104Y21731D01*
X38922Y21655D01*
X38765Y21535D01*
X38645Y21378D01*
X38569Y21196D01*
X38544Y21000D01*
X38569Y20804D01*
X38645Y20622D01*
X38765Y20465D01*
X38922Y20345D01*
X39104Y20269D01*
X39300Y20244D01*
X39496Y20269D01*
X39678Y20345D01*
X39835Y20465D01*
X39955Y20622D01*
X40031Y20804D01*
X40056Y21000D01*
X40031Y21196D01*
X39955Y21378D01*
X39835Y21535D01*
X39678Y21655D01*
X39496Y21731D01*
X39300Y21756D01*
D02*
G37*
G36*
X37300D02*
X37104Y21731D01*
X36922Y21655D01*
X36765Y21535D01*
X36645Y21378D01*
X36569Y21196D01*
X36544Y21000D01*
X36569Y20804D01*
X36645Y20622D01*
X36765Y20465D01*
X36922Y20345D01*
X37104Y20269D01*
X37300Y20244D01*
X37496Y20269D01*
X37678Y20345D01*
X37835Y20465D01*
X37955Y20622D01*
X38031Y20804D01*
X38056Y21000D01*
X38031Y21196D01*
X37955Y21378D01*
X37835Y21535D01*
X37678Y21655D01*
X37496Y21731D01*
X37300Y21756D01*
D02*
G37*
G36*
X83000Y20962D02*
X82766Y20915D01*
X82567Y20783D01*
X82435Y20584D01*
X82388Y20350D01*
X82435Y20116D01*
X82567Y19917D01*
X82766Y19785D01*
X83000Y19738D01*
X83234Y19785D01*
X83432Y19917D01*
X83565Y20116D01*
X83612Y20350D01*
X83565Y20584D01*
X83432Y20783D01*
X83234Y20915D01*
X83000Y20962D01*
D02*
G37*
G36*
X85688Y20831D02*
X85473Y20788D01*
X85291Y20667D01*
X85169Y20485D01*
X85127Y20270D01*
X85169Y20056D01*
X85291Y19874D01*
X85473Y19752D01*
X85688Y19710D01*
X85902Y19752D01*
X86084Y19874D01*
X86206Y20056D01*
X86248Y20270D01*
X86206Y20485D01*
X86084Y20667D01*
X85902Y20788D01*
X85688Y20831D01*
D02*
G37*
G36*
X53037Y20428D02*
X52823Y20385D01*
X52641Y20264D01*
X52519Y20082D01*
X52477Y19867D01*
X52519Y19653D01*
X52641Y19471D01*
X52823Y19349D01*
X53037Y19306D01*
X53252Y19349D01*
X53434Y19471D01*
X53556Y19653D01*
X53598Y19867D01*
X53556Y20082D01*
X53434Y20264D01*
X53252Y20385D01*
X53037Y20428D01*
D02*
G37*
G36*
X37427Y19845D02*
Y19127D01*
X38145D01*
X38132Y19223D01*
X38046Y19431D01*
X37909Y19609D01*
X37731Y19746D01*
X37523Y19832D01*
X37427Y19845D01*
D02*
G37*
G36*
X37173D02*
X37077Y19832D01*
X36869Y19746D01*
X36691Y19609D01*
X36554Y19431D01*
X36468Y19223D01*
X36455Y19127D01*
X37173D01*
Y19845D01*
D02*
G37*
G36*
X39300Y19756D02*
X39104Y19731D01*
X38922Y19655D01*
X38765Y19535D01*
X38645Y19378D01*
X38569Y19196D01*
X38544Y19000D01*
X38569Y18804D01*
X38645Y18622D01*
X38765Y18465D01*
X38922Y18345D01*
X39104Y18269D01*
X39300Y18244D01*
X39496Y18269D01*
X39678Y18345D01*
X39835Y18465D01*
X39955Y18622D01*
X40031Y18804D01*
X40056Y19000D01*
X40031Y19196D01*
X39955Y19378D01*
X39835Y19535D01*
X39678Y19655D01*
X39496Y19731D01*
X39300Y19756D01*
D02*
G37*
G36*
X38145Y18873D02*
X37427D01*
Y18155D01*
X37523Y18168D01*
X37731Y18254D01*
X37909Y18391D01*
X38046Y18569D01*
X38132Y18777D01*
X38145Y18873D01*
D02*
G37*
G36*
X37173D02*
X36455D01*
X36468Y18777D01*
X36554Y18569D01*
X36691Y18391D01*
X36869Y18254D01*
X37077Y18168D01*
X37173Y18155D01*
Y18873D01*
D02*
G37*
G36*
X81823Y18788D02*
X81608Y18745D01*
X81426Y18624D01*
X81305Y18442D01*
X81262Y18227D01*
X81305Y18012D01*
X81426Y17830D01*
X81608Y17709D01*
X81823Y17666D01*
X82037Y17709D01*
X82219Y17830D01*
X82341Y18012D01*
X82384Y18227D01*
X82341Y18442D01*
X82219Y18624D01*
X82037Y18745D01*
X81823Y18788D01*
D02*
G37*
G36*
X54200Y18261D02*
X53985Y18218D01*
X53803Y18097D01*
X53682Y17915D01*
X53639Y17700D01*
X53682Y17485D01*
X53803Y17303D01*
X53985Y17182D01*
X54200Y17139D01*
X54415Y17182D01*
X54597Y17303D01*
X54718Y17485D01*
X54761Y17700D01*
X54718Y17915D01*
X54597Y18097D01*
X54415Y18218D01*
X54200Y18261D01*
D02*
G37*
G36*
X58300Y17911D02*
X58085Y17868D01*
X57903Y17747D01*
X57782Y17565D01*
X57739Y17350D01*
X57782Y17135D01*
X57903Y16953D01*
X58085Y16832D01*
X58300Y16789D01*
X58515Y16832D01*
X58697Y16953D01*
X58818Y17135D01*
X58861Y17350D01*
X58818Y17565D01*
X58697Y17747D01*
X58515Y17868D01*
X58300Y17911D01*
D02*
G37*
G36*
X39300Y17756D02*
X39104Y17731D01*
X38922Y17655D01*
X38765Y17535D01*
X38645Y17378D01*
X38569Y17196D01*
X38544Y17000D01*
X38569Y16804D01*
X38645Y16622D01*
X38765Y16465D01*
X38922Y16345D01*
X39104Y16269D01*
X39300Y16244D01*
X39496Y16269D01*
X39678Y16345D01*
X39835Y16465D01*
X39955Y16622D01*
X40031Y16804D01*
X40056Y17000D01*
X40031Y17196D01*
X39955Y17378D01*
X39835Y17535D01*
X39678Y17655D01*
X39496Y17731D01*
X39300Y17756D01*
D02*
G37*
G36*
X37300D02*
X37104Y17731D01*
X36922Y17655D01*
X36765Y17535D01*
X36645Y17378D01*
X36569Y17196D01*
X36544Y17000D01*
X36569Y16804D01*
X36645Y16622D01*
X36765Y16465D01*
X36922Y16345D01*
X37104Y16269D01*
X37300Y16244D01*
X37496Y16269D01*
X37678Y16345D01*
X37835Y16465D01*
X37955Y16622D01*
X38031Y16804D01*
X38056Y17000D01*
X38031Y17196D01*
X37955Y17378D01*
X37835Y17535D01*
X37678Y17655D01*
X37496Y17731D01*
X37300Y17756D01*
D02*
G37*
G36*
X67850Y16361D02*
X67635Y16318D01*
X67453Y16197D01*
X67332Y16015D01*
X67289Y15800D01*
X67332Y15585D01*
X67453Y15403D01*
X67635Y15282D01*
X67850Y15239D01*
X68065Y15282D01*
X68247Y15403D01*
X68368Y15585D01*
X68411Y15800D01*
X68368Y16015D01*
X68247Y16197D01*
X68065Y16318D01*
X67850Y16361D01*
D02*
G37*
G36*
X60450Y16161D02*
X60235Y16118D01*
X60053Y15997D01*
X59932Y15815D01*
X59889Y15600D01*
X59932Y15385D01*
X60053Y15203D01*
X60235Y15082D01*
X60450Y15039D01*
X60665Y15082D01*
X60847Y15203D01*
X60968Y15385D01*
X61011Y15600D01*
X60968Y15815D01*
X60847Y15997D01*
X60665Y16118D01*
X60450Y16161D01*
D02*
G37*
G36*
X51100D02*
X50885Y16118D01*
X50703Y15997D01*
X50582Y15815D01*
X50539Y15600D01*
X50582Y15385D01*
X50703Y15203D01*
X50885Y15082D01*
X51100Y15039D01*
X51315Y15082D01*
X51497Y15203D01*
X51618Y15385D01*
X51661Y15600D01*
X51618Y15815D01*
X51497Y15997D01*
X51315Y16118D01*
X51100Y16161D01*
D02*
G37*
G36*
X39300Y15756D02*
X39104Y15731D01*
X38922Y15655D01*
X38765Y15535D01*
X38645Y15378D01*
X38569Y15196D01*
X38544Y15000D01*
X38569Y14804D01*
X38645Y14622D01*
X38765Y14465D01*
X38922Y14345D01*
X39104Y14269D01*
X39300Y14244D01*
X39496Y14269D01*
X39678Y14345D01*
X39835Y14465D01*
X39955Y14622D01*
X40031Y14804D01*
X40056Y15000D01*
X40031Y15196D01*
X39955Y15378D01*
X39835Y15535D01*
X39678Y15655D01*
X39496Y15731D01*
X39300Y15756D01*
D02*
G37*
G36*
X37300D02*
X37104Y15731D01*
X36922Y15655D01*
X36765Y15535D01*
X36645Y15378D01*
X36569Y15196D01*
X36544Y15000D01*
X36569Y14804D01*
X36645Y14622D01*
X36765Y14465D01*
X36922Y14345D01*
X37104Y14269D01*
X37300Y14244D01*
X37496Y14269D01*
X37678Y14345D01*
X37835Y14465D01*
X37955Y14622D01*
X38031Y14804D01*
X38056Y15000D01*
X38031Y15196D01*
X37955Y15378D01*
X37835Y15535D01*
X37678Y15655D01*
X37496Y15731D01*
X37300Y15756D01*
D02*
G37*
G36*
X67915Y14911D02*
X67700Y14868D01*
X67518Y14747D01*
X67397Y14565D01*
X67354Y14350D01*
X67397Y14135D01*
X67518Y13953D01*
X67700Y13832D01*
X67915Y13789D01*
X68129Y13832D01*
X68311Y13953D01*
X68433Y14135D01*
X68476Y14350D01*
X68433Y14565D01*
X68311Y14747D01*
X68129Y14868D01*
X67915Y14911D01*
D02*
G37*
G36*
X72025Y14941D02*
X71791Y14895D01*
X71592Y14762D01*
X71460Y14564D01*
X71413Y14329D01*
X71460Y14095D01*
X71592Y13897D01*
X71791Y13764D01*
X72025Y13718D01*
X72259Y13764D01*
X72458Y13897D01*
X72590Y14095D01*
X72637Y14329D01*
X72590Y14564D01*
X72458Y14762D01*
X72259Y14895D01*
X72025Y14941D01*
D02*
G37*
G36*
X82000Y14361D02*
X81785Y14318D01*
X81603Y14197D01*
X81482Y14015D01*
X81439Y13800D01*
X81482Y13585D01*
X81603Y13403D01*
X81785Y13282D01*
X82000Y13239D01*
X82215Y13282D01*
X82397Y13403D01*
X82518Y13585D01*
X82561Y13800D01*
X82518Y14015D01*
X82397Y14197D01*
X82215Y14318D01*
X82000Y14361D01*
D02*
G37*
G36*
X39427Y13845D02*
Y13127D01*
X40145D01*
X40132Y13223D01*
X40046Y13431D01*
X39909Y13609D01*
X39731Y13746D01*
X39523Y13832D01*
X39427Y13845D01*
D02*
G37*
G36*
X39173D02*
X39077Y13832D01*
X38869Y13746D01*
X38691Y13609D01*
X38554Y13431D01*
X38468Y13223D01*
X38455Y13127D01*
X39173D01*
Y13845D01*
D02*
G37*
G36*
X50600Y13611D02*
X50385Y13568D01*
X50203Y13447D01*
X50082Y13265D01*
X50039Y13050D01*
X50082Y12835D01*
X50203Y12653D01*
X50385Y12532D01*
X50600Y12489D01*
X50815Y12532D01*
X50997Y12653D01*
X51118Y12835D01*
X51161Y13050D01*
X51118Y13265D01*
X50997Y13447D01*
X50815Y13568D01*
X50600Y13611D01*
D02*
G37*
G36*
X37300Y13756D02*
X37104Y13731D01*
X36922Y13655D01*
X36765Y13535D01*
X36645Y13378D01*
X36569Y13196D01*
X36544Y13000D01*
X36569Y12804D01*
X36645Y12622D01*
X36765Y12465D01*
X36922Y12345D01*
X37104Y12269D01*
X37300Y12244D01*
X37496Y12269D01*
X37678Y12345D01*
X37835Y12465D01*
X37955Y12622D01*
X38031Y12804D01*
X38056Y13000D01*
X38031Y13196D01*
X37955Y13378D01*
X37835Y13535D01*
X37678Y13655D01*
X37496Y13731D01*
X37300Y13756D01*
D02*
G37*
G36*
X69350Y13311D02*
X69135Y13268D01*
X68953Y13147D01*
X68832Y12965D01*
X68789Y12750D01*
X68832Y12535D01*
X68953Y12353D01*
X69135Y12232D01*
X69350Y12189D01*
X69565Y12232D01*
X69747Y12353D01*
X69868Y12535D01*
X69911Y12750D01*
X69868Y12965D01*
X69747Y13147D01*
X69565Y13268D01*
X69350Y13311D01*
D02*
G37*
G36*
X66550D02*
X66335Y13268D01*
X66153Y13147D01*
X66032Y12965D01*
X65989Y12750D01*
X66032Y12535D01*
X66153Y12353D01*
X66335Y12232D01*
X66550Y12189D01*
X66765Y12232D01*
X66947Y12353D01*
X67068Y12535D01*
X67111Y12750D01*
X67068Y12965D01*
X66947Y13147D01*
X66765Y13268D01*
X66550Y13311D01*
D02*
G37*
G36*
X40145Y12873D02*
X39427D01*
Y12155D01*
X39523Y12168D01*
X39731Y12254D01*
X39909Y12391D01*
X40046Y12569D01*
X40132Y12777D01*
X40145Y12873D01*
D02*
G37*
G36*
X39173D02*
X38455D01*
X38468Y12777D01*
X38554Y12569D01*
X38691Y12391D01*
X38869Y12254D01*
X39077Y12168D01*
X39173Y12155D01*
Y12873D01*
D02*
G37*
G36*
X37300Y11756D02*
X37104Y11731D01*
X36922Y11655D01*
X36765Y11535D01*
X36645Y11378D01*
X36569Y11196D01*
X36544Y11000D01*
X36569Y10804D01*
X36645Y10622D01*
X36765Y10465D01*
X36922Y10345D01*
X37104Y10269D01*
X37300Y10244D01*
X37496Y10269D01*
X37678Y10345D01*
X37835Y10465D01*
X37955Y10622D01*
X38031Y10804D01*
X38056Y11000D01*
X38031Y11196D01*
X37955Y11378D01*
X37835Y11535D01*
X37678Y11655D01*
X37496Y11731D01*
X37300Y11756D01*
D02*
G37*
G36*
X60165Y10271D02*
X59950Y10228D01*
X59768Y10107D01*
X59647Y9925D01*
X59604Y9710D01*
X59647Y9496D01*
X59768Y9314D01*
X59950Y9192D01*
X60165Y9149D01*
X60379Y9192D01*
X60561Y9314D01*
X60683Y9496D01*
X60725Y9710D01*
X60683Y9925D01*
X60561Y10107D01*
X60379Y10228D01*
X60165Y10271D01*
D02*
G37*
G36*
X55550Y10261D02*
X55335Y10218D01*
X55153Y10097D01*
X55032Y9915D01*
X54989Y9700D01*
X55032Y9485D01*
X55153Y9303D01*
X55335Y9182D01*
X55550Y9139D01*
X55765Y9182D01*
X55947Y9303D01*
X56068Y9485D01*
X56111Y9700D01*
X56068Y9915D01*
X55947Y10097D01*
X55765Y10218D01*
X55550Y10261D01*
D02*
G37*
G36*
X67950Y10161D02*
X67735Y10118D01*
X67553Y9997D01*
X67432Y9815D01*
X67389Y9600D01*
X67432Y9385D01*
X67553Y9203D01*
X67735Y9082D01*
X67950Y9039D01*
X68165Y9082D01*
X68347Y9203D01*
X68468Y9385D01*
X68511Y9600D01*
X68468Y9815D01*
X68347Y9997D01*
X68165Y10118D01*
X67950Y10161D01*
D02*
G37*
G36*
X37300Y9756D02*
X37104Y9731D01*
X36922Y9655D01*
X36765Y9535D01*
X36645Y9378D01*
X36569Y9196D01*
X36544Y9000D01*
X36569Y8804D01*
X36645Y8622D01*
X36765Y8465D01*
X36922Y8345D01*
X37104Y8269D01*
X37300Y8244D01*
X37496Y8269D01*
X37678Y8345D01*
X37835Y8465D01*
X37955Y8622D01*
X38031Y8804D01*
X38056Y9000D01*
X38031Y9196D01*
X37955Y9378D01*
X37835Y9535D01*
X37678Y9655D01*
X37496Y9731D01*
X37300Y9756D01*
D02*
G37*
G36*
X48727Y7402D02*
Y5277D01*
X50852D01*
X50821Y5592D01*
X50693Y6017D01*
X50483Y6408D01*
X50202Y6752D01*
X49858Y7033D01*
X49467Y7242D01*
X49042Y7371D01*
X48727Y7402D01*
D02*
G37*
G36*
X48473D02*
X48158Y7371D01*
X47733Y7242D01*
X47342Y7033D01*
X46998Y6752D01*
X46717Y6408D01*
X46507Y6017D01*
X46379Y5592D01*
X46348Y5277D01*
X48473D01*
Y7402D01*
D02*
G37*
G36*
X66015Y5857D02*
Y4925D01*
X66947D01*
X66927Y5076D01*
X66820Y5336D01*
X66649Y5559D01*
X66426Y5730D01*
X66166Y5837D01*
X66015Y5857D01*
D02*
G37*
G36*
X65761D02*
X65610Y5837D01*
X65350Y5730D01*
X65127Y5559D01*
X64956Y5336D01*
X64849Y5076D01*
X64829Y4925D01*
X65761D01*
Y5857D01*
D02*
G37*
G36*
X58750Y5761D02*
X58535Y5718D01*
X58353Y5597D01*
X58232Y5415D01*
X58189Y5200D01*
X58232Y4985D01*
X58353Y4803D01*
X58535Y4682D01*
X58750Y4639D01*
X58965Y4682D01*
X59147Y4803D01*
X59268Y4985D01*
X59311Y5200D01*
X59268Y5415D01*
X59147Y5597D01*
X58965Y5718D01*
X58750Y5761D01*
D02*
G37*
G36*
X66947Y4671D02*
X66015D01*
Y3739D01*
X66166Y3759D01*
X66426Y3866D01*
X66649Y4037D01*
X66820Y4260D01*
X66927Y4520D01*
X66947Y4671D01*
D02*
G37*
G36*
X65761D02*
X64829D01*
X64849Y4520D01*
X64956Y4260D01*
X65127Y4037D01*
X65350Y3866D01*
X65610Y3759D01*
X65761Y3739D01*
Y4671D01*
D02*
G37*
G36*
X61450Y13511D02*
X61235Y13468D01*
X61053Y13347D01*
X60932Y13165D01*
X60889Y12950D01*
X60932Y12735D01*
X61053Y12553D01*
X61235Y12432D01*
X61244Y12430D01*
Y4630D01*
X61185Y4618D01*
X61003Y4497D01*
X60882Y4315D01*
X60839Y4100D01*
X60882Y3885D01*
X61003Y3703D01*
X61185Y3582D01*
X61400Y3539D01*
X61615Y3582D01*
X61797Y3703D01*
X61918Y3885D01*
X61961Y4100D01*
X61918Y4315D01*
X61797Y4497D01*
X61656Y4591D01*
Y12430D01*
X61665Y12432D01*
X61847Y12553D01*
X61968Y12735D01*
X62011Y12950D01*
X61968Y13165D01*
X61847Y13347D01*
X61665Y13468D01*
X61450Y13511D01*
D02*
G37*
G36*
X50852Y5023D02*
X48727D01*
Y2898D01*
X49042Y2929D01*
X49467Y3057D01*
X49858Y3267D01*
X50202Y3548D01*
X50483Y3892D01*
X50693Y4283D01*
X50821Y4708D01*
X50852Y5023D01*
D02*
G37*
G36*
X48473D02*
X46348D01*
X46379Y4708D01*
X46507Y4283D01*
X46717Y3892D01*
X46998Y3548D01*
X47342Y3267D01*
X47733Y3057D01*
X48158Y2929D01*
X48473Y2898D01*
Y5023D01*
D02*
G37*
%LPD*%
G36*
X64510Y47699D02*
X64535Y47682D01*
X64750Y47639D01*
X64867Y47543D01*
Y44982D01*
X64829Y44950D01*
X64567Y44849D01*
X64464Y44918D01*
X64250Y44961D01*
X64035Y44918D01*
X63853Y44796D01*
X63732Y44615D01*
X63689Y44400D01*
X63732Y44185D01*
X63853Y44003D01*
X64035Y43882D01*
X64250Y43839D01*
X64464Y43882D01*
X64567Y43951D01*
X64829Y43850D01*
X64867Y43818D01*
Y40990D01*
X64567Y40833D01*
X64514Y40868D01*
X64300Y40911D01*
X64085Y40868D01*
X63903Y40746D01*
X63782Y40565D01*
X63739Y40350D01*
X63781Y40137D01*
X63685Y40118D01*
X63503Y39997D01*
X63387Y39822D01*
X63381Y39814D01*
X63058Y39726D01*
X62354Y40430D01*
Y46925D01*
X62434Y46997D01*
X62654Y47118D01*
X62800Y47089D01*
X63014Y47132D01*
X63196Y47253D01*
X63263Y47353D01*
X63428Y47461D01*
X63639Y47511D01*
X63750Y47489D01*
X63965Y47532D01*
X64147Y47653D01*
X64341Y47794D01*
X64510Y47699D01*
D02*
G37*
G36*
X76246Y41103D02*
Y30699D01*
X76246Y30699D01*
X76262Y30620D01*
X76306Y30553D01*
X76090Y30351D01*
X75764Y30677D01*
Y37593D01*
X75748Y37672D01*
X75703Y37738D01*
X75354Y38088D01*
Y40635D01*
X75946Y41227D01*
X76246Y41103D01*
D02*
G37*
G36*
X76801Y25180D02*
Y24901D01*
X76801Y24901D01*
X76817Y24823D01*
X76861Y24756D01*
X77622Y23995D01*
X77505Y23688D01*
X77392Y23665D01*
X77193Y23533D01*
X77061Y23334D01*
X77014Y23100D01*
X77061Y22866D01*
X77193Y22667D01*
X77219Y22651D01*
X77300Y22358D01*
X77264Y22287D01*
X77182Y22165D01*
X77148Y21994D01*
X76961Y21941D01*
X76854Y21936D01*
X76746Y22096D01*
X76564Y22218D01*
X76350Y22261D01*
X76142Y22219D01*
X76109Y22231D01*
X76016Y22275D01*
X75997Y22503D01*
X76118Y22685D01*
X76161Y22900D01*
X76118Y23115D01*
X75997Y23297D01*
X75815Y23418D01*
X75600Y23461D01*
X75458Y23433D01*
X75234Y23557D01*
X75158Y23627D01*
Y23865D01*
X75227Y23968D01*
X75258Y24124D01*
Y25151D01*
X75283Y25167D01*
X75415Y25366D01*
X75462Y25600D01*
X75415Y25834D01*
X75405Y25849D01*
X75344Y25947D01*
X75437Y26160D01*
X75762Y26218D01*
X76801Y25180D01*
D02*
G37*
G36*
X79017Y22600D02*
X78918Y22275D01*
X78885Y22268D01*
X78703Y22146D01*
X78582Y21965D01*
X78539Y21750D01*
X78582Y21535D01*
X78703Y21353D01*
X78885Y21232D01*
X79100Y21189D01*
X79306Y21230D01*
X79315Y21232D01*
X79606Y21066D01*
Y16375D01*
X79550Y16319D01*
X79505Y16252D01*
X79490Y16174D01*
X79490Y16174D01*
Y14030D01*
X78603Y13144D01*
X78558Y13077D01*
X78543Y12998D01*
X78543Y12998D01*
Y12430D01*
X78543Y12430D01*
X78558Y12351D01*
X78603Y12285D01*
X79596Y11292D01*
Y9724D01*
X79515Y9652D01*
X79296Y9532D01*
X79150Y9561D01*
X78935Y9518D01*
X78753Y9397D01*
X78632Y9215D01*
X78589Y9000D01*
X78632Y8785D01*
X78753Y8603D01*
X78935Y8482D01*
X79150Y8439D01*
X79364Y8482D01*
X79370Y8486D01*
X79595Y8574D01*
X79804Y8450D01*
X80446Y7808D01*
Y6801D01*
X80235Y6651D01*
X80146Y6623D01*
X79950Y6662D01*
X79716Y6615D01*
X79517Y6483D01*
X79501Y6458D01*
X77649D01*
X76136Y7971D01*
X76156Y8249D01*
X76400Y8439D01*
X76615Y8482D01*
X76797Y8603D01*
X76918Y8785D01*
X76961Y9000D01*
X76918Y9215D01*
X76797Y9397D01*
X76615Y9518D01*
X76400Y9561D01*
X76258Y9533D01*
X76034Y9657D01*
X75958Y9727D01*
Y10488D01*
X76088Y10618D01*
X76088Y10618D01*
X76177Y10751D01*
X76208Y10907D01*
X76208Y10907D01*
Y12490D01*
X76508Y12650D01*
X76535Y12632D01*
X76750Y12589D01*
X76965Y12632D01*
X77147Y12753D01*
X77268Y12935D01*
X77311Y13150D01*
X77268Y13365D01*
X77147Y13547D01*
X76965Y13668D01*
X76750Y13711D01*
X76535Y13668D01*
X76353Y13547D01*
X76297Y13462D01*
X76001Y13393D01*
X75933Y13401D01*
X75466Y13869D01*
Y17603D01*
X75545Y17682D01*
X75545Y17682D01*
X75633Y17814D01*
X75664Y17970D01*
X75664Y17970D01*
Y21196D01*
X75899Y21283D01*
X75964Y21296D01*
X76135Y21182D01*
X76350Y21139D01*
X76564Y21182D01*
X76746Y21303D01*
X76868Y21485D01*
X76902Y21656D01*
X77088Y21709D01*
X77196Y21714D01*
X77303Y21553D01*
X77485Y21432D01*
X77700Y21389D01*
X77914Y21432D01*
X78096Y21553D01*
X78218Y21735D01*
X78261Y21950D01*
X78218Y22165D01*
X78096Y22346D01*
X78067Y22594D01*
X78089Y22712D01*
X78191Y22866D01*
X78214Y22979D01*
X78521Y23096D01*
X79017Y22600D01*
D02*
G37*
G36*
X71463Y21683D02*
X71594Y21581D01*
Y19371D01*
X71594Y19371D01*
X71610Y19293D01*
X71655Y19226D01*
X73594Y17286D01*
Y16458D01*
X73294Y16298D01*
X73264Y16318D01*
X73050Y16361D01*
X72835Y16318D01*
X72828Y16313D01*
X70257Y18883D01*
Y21190D01*
X70303Y21252D01*
X70486Y21392D01*
X70545Y21410D01*
X70650Y21389D01*
X70864Y21432D01*
X71046Y21553D01*
X71093Y21624D01*
X71412Y21692D01*
X71463Y21683D01*
D02*
G37*
G36*
X75392Y12789D02*
Y11076D01*
X75262Y10945D01*
X75173Y10813D01*
X75142Y10657D01*
X75142Y10657D01*
Y8648D01*
X75142Y8648D01*
X75173Y8492D01*
X75132Y8333D01*
X74799Y8242D01*
X74504Y8537D01*
Y12661D01*
X74652Y12808D01*
X74696Y12875D01*
X74712Y12954D01*
X74712Y12954D01*
Y13045D01*
X75012Y13169D01*
X75392Y12789D01*
D02*
G37*
G36*
X37852Y44695D02*
X37994Y44611D01*
Y35657D01*
X37694Y35532D01*
X36558Y36669D01*
Y44469D01*
X36723Y44579D01*
X36858Y44630D01*
X37004Y44569D01*
X37200Y44544D01*
X37396Y44569D01*
X37578Y44645D01*
X37694Y44734D01*
X37852Y44695D01*
D02*
G37*
D10*
X52750Y41481D02*
Y44600D01*
X52900Y44750D01*
Y47950D01*
X52750Y41481D02*
X53500Y40731D01*
Y37379D02*
Y40731D01*
X53100Y36979D02*
X53500Y37379D01*
X53100Y34450D02*
Y36979D01*
D13*
X81750Y28300D02*
Y35871D01*
X79822Y37800D02*
X81750Y35871D01*
X74148Y22323D02*
X74705Y21766D01*
Y18198D02*
Y21766D01*
X73795Y22126D02*
X74352Y21570D01*
Y18345D02*
Y21570D01*
X74148Y22323D02*
Y25891D01*
X73795Y22126D02*
Y26837D01*
X80248Y45277D02*
X80701Y45730D01*
X80248Y44730D02*
Y45277D01*
Y44730D02*
X80321Y44657D01*
Y37800D02*
Y44657D01*
X79812Y16290D02*
Y22096D01*
X77007Y24901D02*
X79812Y22096D01*
X77007Y24901D02*
Y25265D01*
X78998Y4106D02*
X80652Y5759D01*
X78998Y2780D02*
Y4106D01*
Y2780D02*
X79828Y1950D01*
X80652Y5759D02*
Y7893D01*
X79695Y13945D02*
Y16174D01*
X78748Y12998D02*
X79695Y13945D01*
X78748Y12430D02*
Y12998D01*
Y12430D02*
X79801Y11377D01*
Y8744D02*
Y11377D01*
X79695Y16174D02*
X79812Y16290D01*
X73250Y36821D02*
X73901Y37473D01*
X73250Y36800D02*
Y36821D01*
X75558Y30592D02*
Y37593D01*
X75148Y38003D02*
X75558Y37593D01*
X75148Y38003D02*
Y40720D01*
X75558Y30592D02*
X76750Y29400D01*
X75205Y36105D02*
Y37447D01*
X74908Y35808D02*
X75205Y36105D01*
X74908Y27863D02*
Y35808D01*
X74852Y36502D02*
Y37300D01*
X74555Y36205D02*
X74852Y36502D01*
X74555Y27717D02*
Y36205D01*
X76451Y30699D02*
Y41351D01*
Y30699D02*
X77700Y29450D01*
X67898Y22874D02*
Y50415D01*
Y22874D02*
X68072Y22700D01*
X68930Y54598D02*
X69470D01*
X68874Y54655D02*
X68930Y54598D01*
X69470D02*
X70450Y55579D01*
X66194Y53916D02*
X66580Y54301D01*
X67120D02*
X67176Y54245D01*
X66580Y54301D02*
X67120D01*
X66434Y54655D02*
X68874D01*
X65841Y54062D02*
X66434Y54655D01*
X66100Y55250D02*
X69200D01*
X65488Y54638D02*
X66100Y55250D01*
X65488Y49983D02*
Y54638D01*
X66250Y56050D02*
X68450D01*
X65135Y54935D02*
X66250Y56050D01*
X65135Y49837D02*
Y54935D01*
X66352Y56702D02*
X69048D01*
X64781Y55131D02*
X66352Y56702D01*
X64781Y49691D02*
Y55131D01*
X59986Y50485D02*
X61350Y49121D01*
X59986Y56336D02*
X60650Y57000D01*
X59986Y50485D02*
Y56336D01*
X61350Y46850D02*
Y49121D01*
X60550Y49000D02*
Y49250D01*
X59616Y50184D02*
X60550Y49250D01*
X59616Y50184D02*
Y58466D01*
X59900Y58750D01*
X59248Y49873D02*
X59851Y49270D01*
X58895Y49305D02*
Y59166D01*
X60750Y50700D02*
Y52650D01*
Y50700D02*
X61750Y49700D01*
X59851Y48730D02*
Y49270D01*
X59248Y49873D02*
Y59020D01*
X58895Y49305D02*
X59200Y49000D01*
X55198Y23339D02*
X55255Y23395D01*
X55198Y22701D02*
Y23339D01*
Y22701D02*
X56050Y21849D01*
Y21200D02*
Y21849D01*
X55255Y23395D02*
Y27105D01*
X56400Y28250D01*
X54845Y21385D02*
Y24874D01*
Y21385D02*
X55050Y21180D01*
Y21100D02*
Y21180D01*
X54845Y24874D02*
X54902Y24930D01*
X56000Y30297D02*
Y31500D01*
X54757Y30115D02*
Y30543D01*
Y30115D02*
X54902Y29970D01*
Y24930D02*
Y29970D01*
X54650Y30650D02*
Y36400D01*
X56000Y31500D02*
Y33700D01*
Y30297D02*
X56400Y29897D01*
Y28250D02*
Y29897D01*
X54700Y30600D02*
X54757Y30543D01*
X54650Y30650D02*
X54700Y30600D01*
X54600Y36450D02*
X54650Y36400D01*
X56000Y33700D02*
X56650Y34350D01*
Y36550D01*
Y36630D01*
X57000Y36980D01*
Y41750D01*
X53900Y37150D02*
X54600Y36450D01*
X53900Y37150D02*
Y41250D01*
X53500Y41650D02*
X53900Y41250D01*
X55950Y42800D02*
X57000Y41750D01*
X55950Y42800D02*
Y47350D01*
X53500Y41650D02*
X55050Y43200D01*
Y47650D01*
X62450Y38950D02*
Y39250D01*
X62477Y39277D01*
Y39445D01*
X61744Y40178D02*
X62477Y39445D01*
X61744Y40178D02*
Y46456D01*
X61350Y46850D02*
X61744Y46456D01*
X60650Y57000D02*
X60700D01*
X59676Y48555D02*
X59851Y48730D01*
X59676Y48026D02*
Y48555D01*
X62923Y51050D02*
X65426Y48547D01*
X61500Y51050D02*
X62923D01*
X59650Y48000D02*
X59676Y48026D01*
X65779Y21520D02*
Y48693D01*
X66132Y21667D02*
Y48839D01*
X66486Y21813D02*
Y48986D01*
X66839Y21974D02*
Y49132D01*
X67192Y22374D02*
Y49278D01*
X67545Y22624D02*
Y49846D01*
X68550Y44692D02*
Y44772D01*
X65426Y21374D02*
Y48547D01*
X65073Y21228D02*
Y47797D01*
X73000Y44500D02*
X73901Y43598D01*
X71250Y38300D02*
Y42800D01*
X70598Y43598D02*
X70600Y43600D01*
X68276Y44417D02*
X68550Y44692D01*
X68276Y39700D02*
Y44417D01*
X67192Y22374D02*
X67616Y21950D01*
X64750Y48120D02*
Y48200D01*
X68650Y39300D02*
Y39326D01*
X65426Y21374D02*
X66550Y20250D01*
X66850Y51463D02*
X67898Y50415D01*
X65841Y50130D02*
X66839Y49132D01*
X68072Y22700D02*
X69800D01*
X67545Y22624D02*
X67866Y22303D01*
X66194Y50276D02*
X67192Y49278D01*
X65073Y21228D02*
X65900Y20400D01*
X66486Y21813D02*
X68148Y20150D01*
X65779Y21520D02*
X68851Y18448D01*
X64750Y48120D02*
X65073Y47797D01*
X68276Y39700D02*
X68650Y39326D01*
X66839Y21974D02*
X67713Y21100D01*
X66132Y21667D02*
X68699Y19100D01*
X65135Y49837D02*
X66132Y48839D01*
X65488Y49983D02*
X66486Y48986D01*
X66846Y50546D02*
X67545Y49846D01*
X64781Y49691D02*
X65779Y48693D01*
X67866Y22303D02*
X69568D01*
X67616Y21950D02*
X69422D01*
X65841Y50130D02*
Y54062D01*
X66194Y50276D02*
Y53916D01*
X70897Y38547D02*
Y42050D01*
X68276Y35926D02*
X70897Y38547D01*
X69200Y36250D02*
X71250Y38300D01*
X64300Y40350D02*
X64356Y40294D01*
X64700Y21300D02*
Y40294D01*
X64356D02*
X64700D01*
X63900Y39600D02*
X63950Y39550D01*
X63200Y38250D02*
Y38300D01*
X64347Y22097D02*
Y39353D01*
X64150Y39550D02*
X64347Y39353D01*
X63950Y39550D02*
X64150D01*
X63200Y38250D02*
X63564Y37886D01*
Y22814D02*
Y37886D01*
X76451Y41351D02*
X76900Y41800D01*
Y43000D01*
X75148Y40720D02*
X76100Y41671D01*
X75402Y41473D02*
Y43170D01*
X74795Y40866D02*
X75402Y41473D01*
X74795Y37856D02*
Y40866D01*
X74750Y41321D02*
Y42900D01*
X74442Y41012D02*
X74750Y41321D01*
X74442Y37710D02*
Y41012D01*
X74795Y37856D02*
X75205Y37447D01*
X74442Y37710D02*
X74852Y37300D01*
X76100Y41671D02*
Y43000D01*
X80650Y47250D02*
X80701Y47198D01*
Y45730D02*
Y47198D01*
X79350Y45778D02*
Y48600D01*
Y45778D02*
X79822Y45307D01*
Y37800D02*
Y45307D01*
X79100Y37600D02*
Y44900D01*
X80820Y45000D02*
X80900D01*
X76832Y51350D02*
X78521D01*
X79800Y50071D01*
X80137D01*
X80508Y49700D01*
X80550D01*
X75100Y43950D02*
X75157Y43893D01*
Y43415D02*
X75402Y43170D01*
X80700Y44881D02*
X80820Y45000D01*
X75157Y43415D02*
Y43893D01*
X80321Y37800D02*
X82103Y36018D01*
X79100Y37600D02*
X79800Y36900D01*
X80700Y38580D02*
Y44881D01*
X80700D01*
X69293Y56657D02*
X69350Y56600D01*
X67176Y54245D02*
X73937D01*
X70450Y55579D02*
Y56500D01*
X69048Y56702D02*
X69093Y56657D01*
X69293D01*
X73937Y54245D02*
X74482Y54790D01*
X38553Y43350D02*
Y44653D01*
Y35600D02*
Y43350D01*
X38603Y43300D01*
X39250D01*
X73901Y37473D02*
Y43598D01*
X70598Y42348D02*
Y43598D01*
Y42348D02*
X70897Y42050D01*
X55893Y47293D02*
X55950Y47350D01*
X39091Y53191D02*
X39200Y53300D01*
X59484Y59755D02*
X64295D01*
X65400Y58650D01*
X58895Y59166D02*
X59484Y59755D01*
X63600Y59400D02*
X64450Y58550D01*
X60350Y59400D02*
X63600D01*
X60348Y59402D02*
X60350Y59400D01*
X59630Y59402D02*
X60348D01*
X59248Y59020D02*
X59630Y59402D01*
X66850Y51463D02*
Y53650D01*
X38553Y44653D02*
X39200Y45300D01*
X38553Y35600D02*
X42253Y31900D01*
X38200Y35442D02*
Y46300D01*
X39200Y47300D01*
X38200Y35442D02*
X41852Y31791D01*
Y31598D02*
Y31791D01*
Y31598D02*
X41900Y31550D01*
X42253Y28975D02*
Y31900D01*
X42198Y28920D02*
X42253Y28975D01*
X42198Y21812D02*
Y28920D01*
Y21812D02*
X42253Y21758D01*
X41845Y13545D02*
Y29066D01*
X39300Y11000D02*
X41845Y13545D01*
X41900Y29121D02*
Y31550D01*
X41845Y29066D02*
X41900Y29121D01*
X42253Y11953D02*
Y21758D01*
X39300Y9000D02*
X42253Y11953D01*
X74908Y27863D02*
X77360Y25411D01*
X74555Y27717D02*
X77007Y25265D01*
X74202Y27244D02*
Y36848D01*
X73795Y26837D02*
X74202Y27244D01*
X77360Y25048D02*
Y25411D01*
X74200Y36850D02*
X74202Y36848D01*
X80165Y16144D02*
Y22243D01*
X77360Y25048D02*
X80165Y22243D01*
X80048Y14280D02*
X80202Y14127D01*
X80048Y16027D02*
X80165Y16144D01*
X80048Y14280D02*
Y16027D01*
X79801Y8744D02*
X80652Y7893D01*
X80202Y8843D02*
Y14127D01*
Y8843D02*
X81005Y8040D01*
X74298Y8452D02*
Y12746D01*
X74506Y18000D02*
X74705Y18198D01*
X74153Y18146D02*
X74352Y18345D01*
X74506Y12954D02*
Y18000D01*
X74298Y8452D02*
X77800Y4950D01*
X74153Y13100D02*
Y18146D01*
X74298Y12746D02*
X74506Y12954D01*
X71903Y10850D02*
X74153Y13100D01*
X79650Y4235D02*
X81005Y5589D01*
Y8040D01*
X79828Y1950D02*
X79900D01*
X79650Y3050D02*
Y4235D01*
X73800Y13350D02*
Y17371D01*
X71550Y11100D02*
X73800Y13350D01*
X62500Y21750D02*
X63564Y22814D01*
X64050Y20650D02*
X64700Y21300D01*
X64050Y16650D02*
Y20650D01*
X80700Y38580D02*
X81050Y38230D01*
Y38150D02*
Y38230D01*
X82103Y29047D02*
Y36018D01*
X63950Y21700D02*
X64347Y22097D01*
X82103Y29047D02*
X82850Y28300D01*
X68699Y19100D02*
X69400D01*
X66550Y20229D02*
X69150Y17628D01*
Y17050D02*
Y17628D01*
X66550Y20229D02*
Y20250D01*
X69520Y18100D02*
X69600D01*
X70052Y18798D02*
X73050Y15800D01*
X70052Y18798D02*
Y21320D01*
X69171Y18448D02*
X69520Y18100D01*
X68851Y18448D02*
X69171D01*
X69422Y21950D02*
X70052Y21320D01*
X71800Y19371D02*
X73800Y17371D01*
X71800Y19371D02*
Y21850D01*
X65900Y19750D02*
Y20400D01*
X61400Y4100D02*
X61450Y4150D01*
Y12950D01*
X74148Y25891D02*
X74559Y26302D01*
X74758Y26488D02*
X74838D01*
X74850Y26500D01*
X74571Y26302D02*
X74758Y26488D01*
X71903Y6750D02*
Y10850D01*
X71550Y6050D02*
Y11100D01*
X67713Y21100D02*
X69350D01*
X68148Y20150D02*
X69250D01*
X74559Y26302D02*
X74571D01*
X71903Y6750D02*
X72201Y6452D01*
Y5452D02*
Y6452D01*
X71550Y4800D02*
X72201Y5452D01*
X68276Y30124D02*
X69000Y29400D01*
X68276Y30124D02*
Y35926D01*
X69800Y22700D02*
X69898Y22602D01*
X71048D01*
X71800Y21850D01*
X69921Y21950D02*
X70650D01*
X69568Y22303D02*
X69921Y21950D01*
X69200Y35400D02*
Y36250D01*
D14*
X62538Y48534D02*
Y49350D01*
X62123Y40335D02*
Y48119D01*
Y40335D02*
X63943Y38515D01*
X62123Y48119D02*
X62538Y48534D01*
X63943Y22650D02*
Y38515D01*
X63273Y21980D02*
X63943Y22650D01*
X63273Y16470D02*
Y21980D01*
Y16470D02*
X63627Y16116D01*
Y15520D02*
Y16116D01*
X63547Y15440D02*
X63627Y15520D01*
X63547Y14947D02*
Y15440D01*
X63500Y14900D02*
X63547Y14947D01*
D118*
X77150Y40150D02*
X78100Y41100D01*
X77150Y40150D02*
X77150D01*
X76832Y51350D02*
X77541Y50641D01*
X76783Y51400D02*
X76832Y51350D01*
X78100Y41100D02*
Y45127D01*
X78300Y45327D01*
Y46950D01*
X77541Y47709D02*
X78300Y46950D01*
X77541Y47709D02*
Y50641D01*
X76783Y51400D02*
Y53609D01*
X77765Y54592D01*
X78717D01*
X79700Y55575D01*
Y55600D01*
X79700Y55600D01*
Y56627D01*
X77809Y58518D02*
X79700Y56627D01*
X71663Y58518D02*
X77809D01*
X71346Y58200D02*
X71663Y58518D01*
X67100Y58200D02*
X71346D01*
D119*
X59075Y35500D02*
Y45625D01*
Y25040D02*
Y31400D01*
X59050Y45650D02*
X59075Y45625D01*
D120*
X74750Y22548D02*
X75256Y22042D01*
Y17970D02*
Y22042D01*
X74750Y22548D02*
Y24024D01*
X48550Y53175D02*
X50100Y51625D01*
Y22350D02*
Y51625D01*
X44550Y45600D02*
X46750Y43400D01*
X44550Y45600D02*
Y52250D01*
X75800Y10907D02*
Y12958D01*
X75058Y13700D02*
X75800Y12958D01*
X75058Y17772D02*
X75256Y17970D01*
X75550Y10657D02*
X75800Y10907D01*
X75058Y13700D02*
Y17772D01*
X75550Y8648D02*
Y10657D01*
X74750Y24024D02*
X74850Y24124D01*
Y25600D01*
X77480Y6050D02*
X79950D01*
X75650Y7880D02*
X77480Y6050D01*
X36150Y36500D02*
X41150Y31500D01*
X36150Y36500D02*
Y58250D01*
X37200Y59300D01*
X75550Y8648D02*
X75650Y8548D01*
Y7880D02*
Y8548D01*
D130*
X65888Y4798D02*
D03*
D131*
X39300Y9000D02*
D03*
Y11000D02*
D03*
Y13000D02*
D03*
Y23000D02*
D03*
X37300Y19000D02*
D03*
X37200Y55300D02*
D03*
X39200Y59300D02*
D03*
Y53300D02*
D03*
Y49300D02*
D03*
Y47300D02*
D03*
Y45300D02*
D03*
D132*
X37200Y59300D02*
D03*
D133*
X48600Y5150D02*
D03*
X49050Y63400D02*
D03*
X76100Y63950D02*
D03*
D134*
X69850Y42850D02*
D03*
X40550Y45600D02*
D03*
X81750Y28300D02*
D03*
X57150Y27500D02*
D03*
X56350Y23850D02*
D03*
X57750Y24350D02*
D03*
X54250Y29700D02*
D03*
X56000Y31500D02*
D03*
X79350Y60371D02*
D03*
Y61788D02*
D03*
Y63206D02*
D03*
Y64624D02*
D03*
Y66041D02*
D03*
X81450Y65991D02*
D03*
Y64574D02*
D03*
Y63156D02*
D03*
Y61738D02*
D03*
Y60321D02*
D03*
Y58903D02*
D03*
Y57485D02*
D03*
Y56068D02*
D03*
Y54650D02*
D03*
X82200Y41833D02*
D03*
Y45392D02*
D03*
Y47171D02*
D03*
Y48950D02*
D03*
Y43612D02*
D03*
Y40054D02*
D03*
Y38275D02*
D03*
X79807Y58267D02*
D03*
X76850Y57650D02*
D03*
X65307Y60217D02*
D03*
X68257Y66317D02*
D03*
X55457Y61567D02*
D03*
X58050Y54950D02*
D03*
X57307Y57317D02*
D03*
X81000Y2800D02*
D03*
X69157Y8117D02*
D03*
X64907D02*
D03*
X58307Y14467D02*
D03*
X56007Y13617D02*
D03*
X45157Y12617D02*
D03*
X49557Y16767D02*
D03*
X50257Y19367D02*
D03*
X37157Y33017D02*
D03*
Y38217D02*
D03*
Y40017D02*
D03*
Y41867D02*
D03*
X48857Y47817D02*
D03*
X51350Y47750D02*
D03*
X54000D02*
D03*
X61100Y54900D02*
D03*
X54600Y50900D02*
D03*
X41657Y62167D02*
D03*
X32950Y34683D02*
D03*
Y38242D02*
D03*
Y40021D02*
D03*
Y41800D02*
D03*
Y36462D02*
D03*
Y32904D02*
D03*
Y31125D02*
D03*
Y29346D02*
D03*
X83700Y36446D02*
D03*
X86150D02*
D03*
X83700Y38225D02*
D03*
X88500D02*
D03*
X86150Y40004D02*
D03*
X83700D02*
D03*
X86150Y45342D02*
D03*
X83700Y43562D02*
D03*
X88500Y45342D02*
D03*
X86150Y47121D02*
D03*
X88500Y41783D02*
D03*
X86150D02*
D03*
X88500Y43562D02*
D03*
X86150Y48900D02*
D03*
X83700D02*
D03*
Y47121D02*
D03*
X34900Y66417D02*
D03*
X38329D02*
D03*
X41757D02*
D03*
X45186D02*
D03*
X48614D02*
D03*
X52043D02*
D03*
X55471D02*
D03*
X58900D02*
D03*
X55121Y2267D02*
D03*
X51693D02*
D03*
X48264D02*
D03*
X44836D02*
D03*
X41407D02*
D03*
X37979D02*
D03*
X34550D02*
D03*
X86400Y34667D02*
D03*
X88100D02*
D03*
X90100D02*
D03*
X92000D02*
D03*
X93900Y32887D02*
D03*
X96050D02*
D03*
X98150D02*
D03*
X86350Y31108D02*
D03*
X88050D02*
D03*
X90050D02*
D03*
X92000D02*
D03*
X93850D02*
D03*
X96000D02*
D03*
X98200D02*
D03*
Y29329D02*
D03*
X96000D02*
D03*
X93850D02*
D03*
X92000D02*
D03*
X90050D02*
D03*
X88050D02*
D03*
X86350D02*
D03*
X98200Y27550D02*
D03*
X96000D02*
D03*
X93850D02*
D03*
X92000D02*
D03*
X90050D02*
D03*
X88050D02*
D03*
X86350D02*
D03*
X86550Y2050D02*
D03*
X88250D02*
D03*
X90250D02*
D03*
X92200D02*
D03*
X94050Y2100D02*
D03*
X96200D02*
D03*
X98350D02*
D03*
X86550Y4300D02*
D03*
X88250D02*
D03*
X90250D02*
D03*
X92200D02*
D03*
X94050Y4325D02*
D03*
X96200D02*
D03*
X98350Y4312D02*
D03*
X88500Y36446D02*
D03*
X62450Y38950D02*
D03*
X60700Y57000D02*
D03*
X59200Y49000D02*
D03*
X61500Y51050D02*
D03*
X61750Y49700D02*
D03*
X60550Y49000D02*
D03*
X62538Y49350D02*
D03*
X61350Y46850D02*
D03*
X60750Y52650D02*
D03*
X63200Y51850D02*
D03*
X72350Y52700D02*
D03*
X69750Y49150D02*
D03*
X72079Y48758D02*
D03*
X74550Y50300D02*
D03*
X69200Y52650D02*
D03*
X74350Y52450D02*
D03*
X74300Y47500D02*
D03*
X69550D02*
D03*
X63050Y46600D02*
D03*
X68550Y44772D02*
D03*
X71250Y42800D02*
D03*
X70600Y43600D02*
D03*
X73000Y44500D02*
D03*
X64750Y48200D02*
D03*
X66846Y50546D02*
D03*
X63250Y43350D02*
D03*
X68650Y39300D02*
D03*
X69500Y39250D02*
D03*
X64300Y40350D02*
D03*
X63900Y39600D02*
D03*
X63200Y38300D02*
D03*
X77150Y40150D02*
D03*
X75800Y40450D02*
D03*
X76100Y43000D02*
D03*
X80650Y47250D02*
D03*
X79100Y44900D02*
D03*
X80900Y45000D02*
D03*
X79350Y48600D02*
D03*
X80550Y49700D02*
D03*
X75100Y43950D02*
D03*
X79050Y53250D02*
D03*
X79700Y55575D02*
D03*
X69350Y56600D02*
D03*
X69200Y55250D02*
D03*
X74850Y6050D02*
D03*
X50750Y53000D02*
D03*
X47250Y57550D02*
D03*
X46750Y43400D02*
D03*
X44550Y52250D02*
D03*
X50850Y56150D02*
D03*
X78150Y56950D02*
D03*
X74400Y59850D02*
D03*
X68750Y60050D02*
D03*
X39250Y43300D02*
D03*
X73250Y36800D02*
D03*
X76900Y43000D02*
D03*
X74750Y42900D02*
D03*
X55950Y47350D02*
D03*
X57150Y46650D02*
D03*
X60450Y45650D02*
D03*
X57550Y44250D02*
D03*
X59650Y48000D02*
D03*
X66850Y53650D02*
D03*
X68450Y56050D02*
D03*
X70450Y56500D02*
D03*
X74200Y36850D02*
D03*
X79160Y17750D02*
D03*
X79050Y16450D02*
D03*
X74950Y12400D02*
D03*
X76300Y17650D02*
D03*
X77810Y17700D02*
D03*
X77700Y29450D02*
D03*
X76750Y29400D02*
D03*
X84100Y15700D02*
D03*
X85250D02*
D03*
X83000D02*
D03*
X79650Y3050D02*
D03*
X79900Y1950D02*
D03*
X53650Y10200D02*
D03*
X62500Y21750D02*
D03*
X55650Y17250D02*
D03*
X55050Y21100D02*
D03*
X42850Y28650D02*
D03*
X37250Y30100D02*
D03*
X48400Y13500D02*
D03*
X44800Y19600D02*
D03*
X62950Y15800D02*
D03*
X63500Y14900D02*
D03*
X60200Y17350D02*
D03*
X54000Y19250D02*
D03*
X56500Y17250D02*
D03*
X57950Y12850D02*
D03*
X52900Y47950D02*
D03*
X53800Y35500D02*
D03*
X53100Y34450D02*
D03*
X81050Y38150D02*
D03*
X63950Y21700D02*
D03*
X58750Y8150D02*
D03*
X82850Y28300D02*
D03*
X69400Y19100D02*
D03*
X59100Y31400D02*
D03*
X59050Y35500D02*
D03*
X59100Y41400D02*
D03*
X59050Y45650D02*
D03*
X60425Y40350D02*
D03*
X60500Y34450D02*
D03*
Y30150D02*
D03*
X60425Y25040D02*
D03*
X81700Y50700D02*
D03*
X82650D02*
D03*
X77100Y18800D02*
D03*
X79150D02*
D03*
X69150Y17050D02*
D03*
X69600Y18100D02*
D03*
X73050Y15800D02*
D03*
Y17200D02*
D03*
X54700Y30600D02*
D03*
X55050Y47650D02*
D03*
X56650Y36550D02*
D03*
X57000Y41750D02*
D03*
X53500Y41650D02*
D03*
X57100Y33000D02*
D03*
X54600Y36450D02*
D03*
X56400Y28250D02*
D03*
X53400Y44050D02*
D03*
X52850Y39550D02*
D03*
X57900Y26950D02*
D03*
X53950Y26150D02*
D03*
X59075Y25040D02*
D03*
X51750Y17100D02*
D03*
X56050Y21200D02*
D03*
X64050Y16650D02*
D03*
X65900Y19750D02*
D03*
X61400Y4100D02*
D03*
X61450Y12950D02*
D03*
X66475Y15900D02*
D03*
X64200Y13550D02*
D03*
X74850Y26500D02*
D03*
X77800Y4950D02*
D03*
X84950Y4900D02*
D03*
X64150Y5900D02*
D03*
X69200Y5550D02*
D03*
X73050Y3950D02*
D03*
X73000Y7400D02*
D03*
X79800Y36900D02*
D03*
X70450Y23300D02*
D03*
X70650Y21950D02*
D03*
X69350Y21100D02*
D03*
X69250Y20150D02*
D03*
X65400Y58650D02*
D03*
X64450Y58550D02*
D03*
X69000Y29400D02*
D03*
X71550Y4800D02*
D03*
Y6050D02*
D03*
X59900Y58750D02*
D03*
X57350Y64850D02*
D03*
X59950D02*
D03*
X61200D02*
D03*
X69200Y35400D02*
D03*
X77750Y34400D02*
D03*
X72760Y32200D02*
D03*
X75550Y57650D02*
D03*
X72450Y40450D02*
D03*
X81200Y48300D02*
D03*
X74482Y54790D02*
D03*
X83850Y54550D02*
D03*
Y55968D02*
D03*
Y57385D02*
D03*
Y58803D02*
D03*
Y60221D02*
D03*
Y61638D02*
D03*
Y63056D02*
D03*
Y64474D02*
D03*
Y65891D02*
D03*
X86150Y55259D02*
D03*
Y56676D02*
D03*
Y58094D02*
D03*
Y59512D02*
D03*
Y60929D02*
D03*
Y62347D02*
D03*
Y63765D02*
D03*
Y65182D02*
D03*
Y66600D02*
D03*
X83700Y45342D02*
D03*
Y41783D02*
D03*
X86150Y43562D02*
D03*
Y38225D02*
D03*
X88500Y40004D02*
D03*
Y47121D02*
D03*
Y48900D02*
D03*
X88600Y66600D02*
D03*
Y65182D02*
D03*
Y63765D02*
D03*
Y62347D02*
D03*
Y60929D02*
D03*
Y59512D02*
D03*
Y58094D02*
D03*
Y56676D02*
D03*
Y55259D02*
D03*
X88650Y53300D02*
D03*
X87400Y53150D02*
D03*
X86300Y49900D02*
D03*
X86150Y53200D02*
D03*
X84750Y53150D02*
D03*
X83500Y53100D02*
D03*
X82750Y52850D02*
D03*
X81750D02*
D03*
X88650Y50300D02*
D03*
X88100Y51050D02*
D03*
X87450Y50300D02*
D03*
X84550Y50400D02*
D03*
X83450D02*
D03*
X77650Y53250D02*
D03*
X80350D02*
D03*
X76350Y54750D02*
D03*
X98350Y6525D02*
D03*
X96200Y6550D02*
D03*
X94050D02*
D03*
X92200Y6550D02*
D03*
X90250D02*
D03*
X88250D02*
D03*
X86550D02*
D03*
X98350Y8738D02*
D03*
X96200Y8775D02*
D03*
X94050D02*
D03*
X92200Y8800D02*
D03*
X90250D02*
D03*
X88250D02*
D03*
X86550D02*
D03*
X98350Y10950D02*
D03*
X96200Y11000D02*
D03*
X94050D02*
D03*
X86550Y11050D02*
D03*
X88250D02*
D03*
X90250D02*
D03*
X92200D02*
D03*
X86550Y12475D02*
D03*
X88250D02*
D03*
X90250D02*
D03*
X92200D02*
D03*
X86550Y13900D02*
D03*
X92200D02*
D03*
X90250D02*
D03*
X88250D02*
D03*
X85050D02*
D03*
X98250Y13250D02*
D03*
X94750Y13200D02*
D03*
X98650Y15500D02*
D03*
X96500Y15450D02*
D03*
X96450Y19800D02*
D03*
X98400Y21860D02*
D03*
X94750Y22890D02*
D03*
X98850Y19800D02*
D03*
X97950Y24950D02*
D03*
X96000D02*
D03*
X94100D02*
D03*
X92250Y20830D02*
D03*
X92200Y21860D02*
D03*
X92250Y23920D02*
D03*
X92300Y24950D02*
D03*
X90400Y21860D02*
D03*
X90450Y23920D02*
D03*
X90500Y24950D02*
D03*
X88450D02*
D03*
Y23920D02*
D03*
Y21860D02*
D03*
Y20830D02*
D03*
X93050Y16350D02*
D03*
X92150D02*
D03*
X91700Y15900D02*
D03*
X91100Y15150D02*
D03*
X90050Y15100D02*
D03*
X89100Y15150D02*
D03*
X88100Y15200D02*
D03*
X87150D02*
D03*
X86200Y15250D02*
D03*
X92950Y19000D02*
D03*
X91900D02*
D03*
X90850Y18950D02*
D03*
X89850Y18800D02*
D03*
X88900Y18750D02*
D03*
X88000Y18700D02*
D03*
X87050D02*
D03*
X86150Y18650D02*
D03*
X85500Y18050D02*
D03*
X90350Y20830D02*
D03*
X96510Y22890D02*
D03*
Y13200D02*
D03*
X75950Y24350D02*
D03*
X76460Y16250D02*
D03*
X73550Y27514D02*
D03*
X70725Y11209D02*
D03*
X84250Y20300D02*
D03*
X80350Y24400D02*
D03*
X84300Y26150D02*
D03*
Y23450D02*
D03*
X83400Y13800D02*
D03*
X78000Y10350D02*
D03*
X84250Y10300D02*
D03*
X82650D02*
D03*
X76420Y10325D02*
D03*
X73550Y10500D02*
D03*
D135*
X48550Y53175D02*
D03*
X50100Y22350D02*
D03*
X41150Y31500D02*
D03*
X79950Y6050D02*
D03*
X74850Y25600D02*
D03*
X67100Y58200D02*
D03*
M02*
