G04*
G04 #@! TF.GenerationSoftware,Altium Limited,Altium Designer,19.1.6 (110)*
G04*
G04 Layer_Color=152*
%FSLAX43Y43*%
%MOMM*%
G71*
G01*
G75*
%ADD136C,0.010*%
%ADD137C,0.050*%
D136*
X100200Y64400D02*
G03*
X96600Y67800I-3500J-100D01*
G01*
X34800D02*
G03*
X30950Y64250I-150J-3700D01*
G01*
X30950Y3400D02*
G03*
X34400Y0I3425J25D01*
G01*
X96900D02*
G03*
X100200Y3350I-25J3325D01*
G01*
X34400Y0D02*
X96900D01*
X30950Y3400D02*
Y64250D01*
X100200Y3350D02*
Y64400D01*
X34800Y67800D02*
X96600D01*
D137*
X75610Y9640D02*
Y13040D01*
X72810D02*
X75610D01*
X72810Y9640D02*
Y13040D01*
Y9640D02*
X75610D01*
X80270Y14450D02*
X80960D01*
X80270Y14090D02*
Y14450D01*
X75150Y14090D02*
X80270D01*
X75150D02*
Y14450D01*
X74460D02*
X75150D01*
X74460D02*
Y15140D01*
X74100D02*
X74460D01*
X74100D02*
Y20260D01*
X74460D01*
Y20950D01*
X75150D01*
Y21310D01*
X80270D01*
Y20950D02*
Y21310D01*
Y20950D02*
X80960D01*
Y20260D02*
Y20950D01*
Y20260D02*
X81320D01*
Y15140D02*
Y20260D01*
X80960Y15140D02*
X81320D01*
X80960Y14450D02*
Y15140D01*
X67060Y41100D02*
Y44100D01*
X65310Y41100D02*
X67060D01*
X65310D02*
Y44100D01*
X67060D01*
X67310Y45210D02*
X76590D01*
Y54490D01*
X67310D02*
X76590D01*
X67310Y45210D02*
Y54490D01*
M02*
