G04*
G04 #@! TF.GenerationSoftware,Altium Limited,Altium Designer,19.1.6 (110)*
G04*
G04 Layer_Color=65535*
%FSLAX43Y43*%
%MOMM*%
G71*
G01*
G75*
%ADD10C,0.200*%
%ADD11C,0.250*%
%ADD12C,0.100*%
%ADD13C,0.203*%
%ADD14C,0.254*%
%ADD15C,0.300*%
%ADD16C,0.127*%
%ADD17C,0.152*%
%ADD18R,0.185X0.650*%
%ADD19R,1.702X0.457*%
%ADD20R,0.165X0.584*%
G36*
X30050Y68250D02*
D01*
D02*
G37*
G36*
X30550Y68050D02*
D01*
D02*
G37*
D10*
X73610Y13390D02*
G03*
X73610Y13390I-100J0D01*
G01*
X75610Y13800D02*
G03*
X75610Y13800I-100J0D01*
G01*
X69250Y7200D02*
G03*
X69150Y7200I-50J0D01*
G01*
D02*
G03*
X69250Y7200I50J0D01*
G01*
D02*
G03*
X69150Y7200I-50J0D01*
G01*
X55476Y29626D02*
G03*
X55476Y29626I-100J0D01*
G01*
X37800Y24000D02*
G03*
X38800Y24000I500J0D01*
G01*
X37700Y60300D02*
G03*
X38700Y60300I500J0D01*
G01*
X73200Y23500D02*
Y23900D01*
X73900Y23500D02*
Y23900D01*
X83350Y25200D02*
X83750D01*
X83350Y24500D02*
X83750D01*
X83350Y26500D02*
X83750D01*
X83350Y25800D02*
X83750D01*
X71500Y23500D02*
Y23900D01*
X72200Y23500D02*
Y23900D01*
X70550Y23500D02*
Y23900D01*
X69850Y23500D02*
Y23900D01*
X66500Y23550D02*
Y23950D01*
X67200Y23550D02*
Y23950D01*
X78800Y26200D02*
Y26600D01*
X79500Y26200D02*
Y26600D01*
X80300Y26185D02*
Y26585D01*
X81000Y26185D02*
Y26585D01*
X79900Y8050D02*
Y8450D01*
X79200Y8050D02*
Y8450D01*
X76050Y8050D02*
Y8450D01*
X76750Y8050D02*
Y8450D01*
X83200Y5850D02*
X83600D01*
X83200Y6550D02*
X83600D01*
X83200Y4550D02*
X83600D01*
X83200Y5250D02*
X83600D01*
X79550Y3500D02*
X80550D01*
X79550Y6600D02*
X80550D01*
Y3500D02*
Y6600D01*
X79550Y3500D02*
Y6600D01*
X68400Y16250D02*
X68800D01*
X68400Y15550D02*
X68800D01*
X65600Y14650D02*
X66000D01*
X65600Y13950D02*
X66000D01*
X65600Y12400D02*
X66000D01*
X65600Y13100D02*
X66000D01*
X68450Y11550D02*
X68850D01*
X68450Y10850D02*
X68850D01*
X65600Y11550D02*
X66000D01*
X65600Y10850D02*
X66000D01*
X75400Y3015D02*
X75800D01*
X75400Y3715D02*
X75800D01*
X62100Y10050D02*
X62500D01*
X62100Y9350D02*
X62500D01*
X62050Y7000D02*
X62450D01*
X62050Y6300D02*
X62450D01*
X59300Y6300D02*
X59700D01*
X59300Y7000D02*
X59700D01*
X62050Y4900D02*
X62450D01*
X62050Y5600D02*
X62450D01*
X59300Y5600D02*
X59700D01*
X59300Y4900D02*
X59700D01*
X52150Y20950D02*
X52550D01*
X52150Y21650D02*
X52550D01*
X52800Y16250D02*
X53200D01*
X52800Y15550D02*
X53200D01*
X52450Y11900D02*
Y15000D01*
X53450Y11900D02*
Y15000D01*
X52450D02*
X53450D01*
X52450Y11900D02*
X53450D01*
X56100Y12100D02*
X56500D01*
X56100Y12800D02*
X56500D01*
X52150Y24800D02*
X52550D01*
X52150Y25500D02*
X52550D01*
X62100Y16250D02*
X62500D01*
X62100Y15550D02*
X62500D01*
X59450Y19450D02*
X59850D01*
X59450Y20150D02*
X59850D01*
X78700Y28710D02*
Y29110D01*
X79400Y28710D02*
Y29110D01*
X76400Y26150D02*
Y26550D01*
X75700Y26150D02*
Y26550D01*
X80150Y28700D02*
Y29100D01*
X80850Y28700D02*
Y29100D01*
X55376Y30050D02*
Y30824D01*
X56924D01*
Y29626D02*
Y30824D01*
X55800Y29626D02*
X56924D01*
X55376Y30050D02*
X55800Y29626D01*
X59550Y36150D02*
X59950D01*
X59550Y36850D02*
X59950D01*
X59500Y38900D02*
X59900D01*
X59500Y38200D02*
X59900D01*
X66900Y25510D02*
Y28610D01*
X67900Y25510D02*
Y28610D01*
X66900D02*
X67900D01*
X66900Y25510D02*
X67900D01*
X70710Y40900D02*
Y41300D01*
X71410Y40900D02*
Y41300D01*
X69500Y40900D02*
Y41300D01*
X70200Y40900D02*
Y41300D01*
X68990Y40900D02*
Y41300D01*
X68290Y40900D02*
Y41300D01*
X63600Y53450D02*
X64000D01*
X63600Y54150D02*
X64000D01*
X89050Y51950D02*
Y52250D01*
X71315Y57750D02*
X71615D01*
X67450Y61500D02*
Y61900D01*
X66750Y61500D02*
Y61900D01*
X45750Y45500D02*
X46150D01*
X45750Y46200D02*
X46150D01*
X45750Y44040D02*
X46150D01*
X45750Y44740D02*
X46150D01*
X49050Y54900D02*
X49450D01*
X49050Y54200D02*
X49450D01*
X46350Y52750D02*
Y55850D01*
X45350Y52750D02*
Y55850D01*
Y52750D02*
X46350D01*
X45350Y55850D02*
X46350D01*
X45600Y56800D02*
X46000D01*
X45600Y57500D02*
X46000D01*
X52150Y34900D02*
X52550D01*
X52150Y34200D02*
X52550D01*
X52100Y36850D02*
X52500D01*
X52100Y36150D02*
X52500D01*
X35816Y6995D02*
X40816Y6998D01*
X40880D02*
Y24905D01*
X35800Y6998D02*
Y24905D01*
X35816Y24902D02*
X40816Y24905D01*
X38735Y8000D02*
Y24000D01*
X37865Y8000D02*
X38735D01*
X37865D02*
Y24000D01*
X38800D01*
X37800D02*
X38735D01*
X37700Y60300D02*
X38635D01*
X37765D02*
X38700D01*
X37765Y44300D02*
Y60300D01*
Y44300D02*
X38635D01*
Y60300D01*
X35716Y61202D02*
X40716Y61205D01*
X35700Y43298D02*
Y61205D01*
X40780Y43298D02*
Y61205D01*
X35716Y43295D02*
X40716Y43298D01*
D11*
X73325Y18760D02*
G03*
X73325Y18760I-125J0D01*
G01*
X93535Y17631D02*
G03*
X93535Y17631I-125J0D01*
G01*
X81450Y3275D02*
G03*
X81450Y3275I-125J0D01*
G01*
X54350Y11675D02*
G03*
X54350Y11675I-125J0D01*
G01*
X53550Y41275D02*
G03*
X53550Y41275I-125J0D01*
G01*
X54525Y35775D02*
G03*
X54525Y35775I-125J0D01*
G01*
X68800Y25285D02*
G03*
X68800Y25285I-125J0D01*
G01*
X67575Y31450D02*
G03*
X67575Y31450I-125J0D01*
G01*
X81275Y31000D02*
G03*
X81275Y31000I-125J0D01*
G01*
X77260Y29570D02*
G03*
X77260Y29570I-125J0D01*
G01*
X74325Y55675D02*
G03*
X74325Y55675I-125J0D01*
G01*
X47925Y47500D02*
G03*
X47925Y47500I-125J0D01*
G01*
X44700Y56075D02*
G03*
X44700Y56075I-125J0D01*
G01*
D12*
X90710Y18400D02*
G03*
X90710Y18400I-50J0D01*
G01*
X54500Y26250D02*
G03*
X54600Y26250I50J0D01*
G01*
D02*
G03*
X54500Y26250I-50J0D01*
G01*
X84600Y52400D02*
G03*
X84700Y52400I50J0D01*
G01*
D02*
G03*
X84600Y52400I-50J0D01*
G01*
X72650Y3600D02*
Y3975D01*
Y3600D02*
Y3975D01*
X69650Y3600D02*
Y3975D01*
Y3600D02*
Y3975D01*
Y7350D02*
Y7600D01*
Y7350D02*
Y7600D01*
X72650Y7225D02*
Y7600D01*
Y7225D02*
Y7600D01*
X72275Y3600D02*
X72650D01*
X72275D02*
X72650D01*
X69650D02*
X70025D01*
X69650D02*
X70025D01*
X69650Y7600D02*
X70025D01*
X69650D02*
X70025D01*
X72275D02*
X72650D01*
X72275D02*
X72650D01*
D13*
X72371Y25062D02*
G03*
X72587Y25278I0J216D01*
G01*
X71089D02*
G03*
X71304Y25062I216J0D01*
G01*
X72587Y28049D02*
G03*
X72371Y28265I-216J0D01*
G01*
X71304D02*
G03*
X71089Y28049I0J-216D01*
G01*
X74083Y25062D02*
G03*
X74299Y25278I0J216D01*
G01*
X72801D02*
G03*
X73017Y25062I216J0D01*
G01*
X74299Y28049D02*
G03*
X74083Y28265I-216J0D01*
G01*
X73017D02*
G03*
X72801Y28049I0J-216D01*
G01*
X69717Y64252D02*
G03*
X69501Y64036I0J-216D01*
G01*
X70999D02*
G03*
X70783Y64252I-216J0D01*
G01*
X69501Y61264D02*
G03*
X69717Y61048I216J0D01*
G01*
X70783D02*
G03*
X70999Y61264I0J216D01*
G01*
X72587Y25278D02*
Y28049D01*
X71089Y25278D02*
Y28049D01*
X71304Y25062D02*
X72371D01*
X71304Y28265D02*
X72371D01*
X74299Y25278D02*
Y28049D01*
X72801Y25278D02*
Y28049D01*
X73017Y25062D02*
X74083D01*
X73017Y28265D02*
X74083D01*
X69501Y61264D02*
Y64036D01*
X70999Y61264D02*
Y64036D01*
X69717Y64252D02*
X70783D01*
X69717Y61048D02*
X70783D01*
D14*
X53867Y43916D02*
G03*
X53867Y43916I-22J0D01*
G01*
X54247Y19906D02*
G03*
X54247Y19906I-12J0D01*
G01*
X90550Y53150D02*
X96550D01*
Y51150D02*
Y53150D01*
X90550Y51150D02*
X96550D01*
X90550D02*
Y53150D01*
X91050Y52500D02*
X91900D01*
X91050Y51750D02*
Y52500D01*
Y51750D02*
X91850D01*
Y52450D01*
X64488Y7448D02*
X67138D01*
X64488Y3948D02*
Y7448D01*
X67138Y3848D02*
Y7448D01*
X67088Y3798D02*
X67138Y3848D01*
X64638Y3798D02*
X67088D01*
X64488Y3948D02*
X64638Y3798D01*
X55050Y46300D02*
X55550D01*
X55050Y43800D02*
X55550D01*
X35903Y9284D02*
X36665D01*
Y10808D01*
X35903D02*
X36665D01*
X35903Y21222D02*
X36665D01*
Y22873D01*
X35903D02*
X36665D01*
X35803Y59173D02*
X36565D01*
Y57522D02*
Y59173D01*
X35803Y57522D02*
X36565D01*
X35803Y47108D02*
X36565D01*
Y45584D02*
Y47108D01*
X35803Y45584D02*
X36565D01*
X83136Y20571D02*
X83003Y20704D01*
X82737Y20704D01*
X82603Y20571D01*
X82604Y20037D01*
X82737Y19904D01*
X83004Y19904D01*
X83137Y20038D01*
X83404Y19905D02*
X83670Y19905D01*
X83537Y19905D01*
X83536Y20705D01*
X83403Y20571D01*
X84070Y20572D02*
X84203Y20705D01*
X84469Y20705D01*
X84603Y20572D01*
X84603Y20439D01*
X84470Y20305D01*
X84603Y20172D01*
X84603Y20039D01*
X84470Y19906D01*
X84203Y19905D01*
X84070Y20039D01*
X84070Y20172D01*
X84203Y20305D01*
X84070Y20438D01*
X84070Y20572D01*
X84203Y20305D02*
X84470Y20305D01*
X33326Y47860D02*
X33073Y47605D01*
X33075Y47097D01*
X33330Y46844D01*
X33584Y46846D01*
X33837Y47101D01*
X33835Y47608D01*
X34088Y47863D01*
X34342Y47865D01*
X34597Y47612D01*
X34599Y47104D01*
X34346Y46849D01*
X34590Y49135D02*
X34592Y48627D01*
X34339Y48372D01*
X33832Y48370D01*
X33577Y48623D01*
X33574Y49131D01*
X33827Y49386D01*
X34081Y49387D01*
X34086Y48371D01*
X34587Y49897D02*
X33571Y49893D01*
X33568Y50654D01*
X33821Y50909D01*
X34582Y50913D01*
X34580Y51420D02*
X34577Y52182D01*
X34322Y52435D01*
X34069Y52180D01*
X34071Y51672D01*
X33818Y51417D01*
X33563Y51670D01*
X33560Y52432D01*
X34572Y53198D02*
X34570Y53706D01*
X34315Y53959D01*
X33807Y53956D01*
X33554Y53701D01*
X33557Y53193D01*
X33812Y52941D01*
X34319Y52943D01*
X34572Y53198D01*
X33551Y54463D02*
X34567Y54467D01*
X34059Y54465D01*
X33804Y54718D01*
X33549Y54971D01*
X33548Y55225D01*
X34550Y10600D02*
X33027Y10588D01*
X33021Y11350D01*
X33273Y11606D01*
X33780Y11610D01*
X34036Y11358D01*
X34042Y10596D01*
X34536Y12377D02*
X34532Y12885D01*
X34277Y13137D01*
X33769Y13133D01*
X33517Y12877D01*
X33521Y12370D01*
X33777Y12118D01*
X34284Y12122D01*
X34536Y12377D01*
X33511Y13639D02*
X34273Y13645D01*
X34525Y13901D01*
X34269Y14153D01*
X34521Y14409D01*
X34265Y14661D01*
X33503Y14655D01*
X34509Y15932D02*
X34513Y15424D01*
X34261Y15168D01*
X33753Y15165D01*
X33497Y15416D01*
X33493Y15924D01*
X33745Y16180D01*
X33999Y16182D01*
X34007Y15166D01*
X33487Y16686D02*
X34503Y16694D01*
X33995Y16690D01*
X33739Y16942D01*
X33484Y17194D01*
X33482Y17448D01*
X35547Y20714D02*
X35014D01*
X35547Y21247D01*
Y21380D01*
X35414Y21514D01*
X35147D01*
X35014Y21380D01*
X35141Y22619D02*
X35408D01*
X35274D01*
Y23419D01*
X35141Y23285D01*
X35041Y58919D02*
X35308D01*
X35174D01*
Y59719D01*
X35041Y59585D01*
X35447Y57014D02*
X34914D01*
X35447Y57547D01*
Y57680D01*
X35314Y57814D01*
X35047D01*
X34914Y57680D01*
X61933Y18866D02*
X61800Y19000D01*
X61533D01*
X61400Y18866D01*
Y18333D01*
X61533Y18200D01*
X61800D01*
X61933Y18333D01*
X62733Y19000D02*
X62466Y18866D01*
X62200Y18600D01*
Y18333D01*
X62333Y18200D01*
X62600D01*
X62733Y18333D01*
Y18467D01*
X62600Y18600D01*
X62200D01*
X62999Y18333D02*
X63133Y18200D01*
X63399D01*
X63533Y18333D01*
Y18866D01*
X63399Y19000D01*
X63133D01*
X62999Y18866D01*
Y18733D01*
X63133Y18600D01*
X63533D01*
X79450Y27800D02*
X78650D01*
Y28200D01*
X78784Y28333D01*
X79050D01*
X79183Y28200D01*
Y27800D01*
Y28067D02*
X79450Y28333D01*
Y29000D02*
X78650D01*
X79050Y28600D01*
Y29133D01*
X79317Y29399D02*
X79450Y29533D01*
Y29799D01*
X79317Y29933D01*
X78784D01*
X78650Y29799D01*
Y29533D01*
X78784Y29399D01*
X78917D01*
X79050Y29533D01*
Y29933D01*
X87300Y54650D02*
Y53850D01*
X87833D01*
X88100Y54516D02*
X88233Y54650D01*
X88500D01*
X88633Y54516D01*
Y54383D01*
X88500Y54250D01*
X88366D01*
X88500D01*
X88633Y54117D01*
Y53983D01*
X88500Y53850D01*
X88233D01*
X88100Y53983D01*
X84483Y49516D02*
X84350Y49650D01*
X84083D01*
X83950Y49516D01*
Y48983D01*
X84083Y48850D01*
X84350D01*
X84483Y48983D01*
X84750Y49650D02*
X85283D01*
Y49516D01*
X84750Y48983D01*
Y48850D01*
X85549Y49516D02*
X85683Y49650D01*
X85949D01*
X86083Y49516D01*
Y49383D01*
X85949Y49250D01*
X86083Y49117D01*
Y48983D01*
X85949Y48850D01*
X85683D01*
X85549Y48983D01*
Y49117D01*
X85683Y49250D01*
X85549Y49383D01*
Y49516D01*
X85683Y49250D02*
X85949D01*
X92400Y54300D02*
Y54833D01*
X92667Y55100D01*
X92933Y54833D01*
Y54300D01*
Y54700D01*
X92400D01*
X93200Y54300D02*
X93466D01*
X93333D01*
Y55100D01*
X93200Y54966D01*
X94399D02*
X94266Y55100D01*
X93999D01*
X93866Y54966D01*
Y54833D01*
X93999Y54700D01*
X94266D01*
X94399Y54567D01*
Y54433D01*
X94266Y54300D01*
X93999D01*
X93866Y54433D01*
X67050Y18150D02*
Y18950D01*
X67450D01*
X67583Y18816D01*
Y18550D01*
X67450Y18417D01*
X67050D01*
X67317D02*
X67583Y18150D01*
X67850D02*
X68116D01*
X67983D01*
Y18950D01*
X67850Y18816D01*
X68516Y18150D02*
X68783D01*
X68649D01*
Y18950D01*
X68516Y18816D01*
X75784Y23083D02*
X75650Y22950D01*
Y22683D01*
X75784Y22550D01*
X76317D01*
X76450Y22683D01*
Y22950D01*
X76317Y23083D01*
X76450Y23750D02*
X75650D01*
X76050Y23350D01*
Y23883D01*
X76450Y24683D02*
Y24149D01*
X75917Y24683D01*
X75784D01*
X75650Y24549D01*
Y24283D01*
X75784Y24149D01*
X77284Y23233D02*
X77150Y23100D01*
Y22833D01*
X77284Y22700D01*
X77817D01*
X77950Y22833D01*
Y23100D01*
X77817Y23233D01*
X77950Y24033D02*
Y23500D01*
X77417Y24033D01*
X77284D01*
X77150Y23900D01*
Y23633D01*
X77284Y23500D01*
X77817Y24299D02*
X77950Y24433D01*
Y24699D01*
X77817Y24833D01*
X77284D01*
X77150Y24699D01*
Y24433D01*
X77284Y24299D01*
X77417D01*
X77550Y24433D01*
Y24833D01*
X80345Y23147D02*
X80209Y23016D01*
X80203Y22750D01*
X80334Y22614D01*
X80867Y22603D01*
X81003Y22733D01*
X81008Y23000D01*
X80878Y23136D01*
X81028Y23933D02*
X81017Y23400D01*
X80495Y23944D01*
X80361Y23947D01*
X80225Y23816D01*
X80220Y23549D01*
X80350Y23413D01*
X80367Y24213D02*
X80237Y24349D01*
X80242Y24616D01*
X80378Y24746D01*
X80511Y24743D01*
X80642Y24607D01*
X80778Y24738D01*
X80911Y24735D01*
X81042Y24599D01*
X81036Y24332D01*
X80900Y24202D01*
X80767Y24205D01*
X80636Y24341D01*
X80500Y24210D01*
X80367Y24213D01*
X80636Y24341D02*
X80642Y24607D01*
X70833Y16216D02*
X70700Y16350D01*
X70433D01*
X70300Y16216D01*
Y15683D01*
X70433Y15550D01*
X70700D01*
X70833Y15683D01*
X71500Y15550D02*
Y16350D01*
X71100Y15950D01*
X71633D01*
X71899Y16216D02*
X72033Y16350D01*
X72299D01*
X72433Y16216D01*
Y16083D01*
X72299Y15950D01*
X72166D01*
X72299D01*
X72433Y15817D01*
Y15683D01*
X72299Y15550D01*
X72033D01*
X71899Y15683D01*
X67750Y15450D02*
Y16250D01*
X68150D01*
X68283Y16116D01*
Y15850D01*
X68150Y15717D01*
X67750D01*
X68017D02*
X68283Y15450D01*
X68550D02*
X68816D01*
X68683D01*
Y16250D01*
X68550Y16116D01*
X69749Y16250D02*
X69483Y16116D01*
X69216Y15850D01*
Y15583D01*
X69349Y15450D01*
X69616D01*
X69749Y15583D01*
Y15717D01*
X69616Y15850D01*
X69216D01*
X73639Y38090D02*
X73504Y37958D01*
X73502Y37691D01*
X73634Y37557D01*
X74167Y37551D01*
X74301Y37683D01*
X74304Y37950D01*
X74172Y38084D01*
X74308Y38350D02*
X74310Y38616D01*
X74309Y38483D01*
X73509Y38491D01*
X73641Y38356D01*
X73520Y39557D02*
X73515Y39024D01*
X73914Y39020D01*
X73784Y39288D01*
X73785Y39421D01*
X73920Y39553D01*
X74186Y39551D01*
X74318Y39416D01*
X74316Y39149D01*
X74181Y39017D01*
X75244Y38045D02*
X75108Y37915D01*
X75103Y37648D01*
X75234Y37512D01*
X75767Y37502D01*
X75902Y37633D01*
X75907Y37900D01*
X75777Y38036D01*
X75915Y38300D02*
X75920Y38566D01*
X75917Y38433D01*
X75118Y38448D01*
X75248Y38312D01*
X75935Y39366D02*
X75135Y39381D01*
X75527Y38973D01*
X75537Y39506D01*
X54889Y21926D02*
X54756Y22060D01*
X54489D01*
X54356Y21926D01*
Y21793D01*
X54489Y21660D01*
X54756D01*
X54889Y21526D01*
Y21393D01*
X54756Y21260D01*
X54489D01*
X54356Y21393D01*
X55156Y21926D02*
X55289Y22060D01*
X55556D01*
X55689Y21926D01*
Y21793D01*
X55556Y21660D01*
X55689Y21526D01*
Y21393D01*
X55556Y21260D01*
X55289D01*
X55156Y21393D01*
Y21526D01*
X55289Y21660D01*
X55156Y21793D01*
Y21926D01*
X55289Y21660D02*
X55556D01*
X55033Y27916D02*
X54900Y28050D01*
X54633D01*
X54500Y27916D01*
Y27783D01*
X54633Y27650D01*
X54900D01*
X55033Y27517D01*
Y27383D01*
X54900Y27250D01*
X54633D01*
X54500Y27383D01*
X55300Y28050D02*
X55833D01*
Y27916D01*
X55300Y27383D01*
Y27250D01*
X54233Y32066D02*
X54100Y32200D01*
X53833D01*
X53700Y32066D01*
Y31933D01*
X53833Y31800D01*
X54100D01*
X54233Y31667D01*
Y31533D01*
X54100Y31400D01*
X53833D01*
X53700Y31533D01*
X55033Y32200D02*
X54766Y32066D01*
X54500Y31800D01*
Y31533D01*
X54633Y31400D01*
X54900D01*
X55033Y31533D01*
Y31667D01*
X54900Y31800D01*
X54500D01*
X55383Y36616D02*
X55250Y36750D01*
X54983D01*
X54850Y36616D01*
Y36483D01*
X54983Y36350D01*
X55250D01*
X55383Y36217D01*
Y36083D01*
X55250Y35950D01*
X54983D01*
X54850Y36083D01*
X56183Y36750D02*
X55650D01*
Y36350D01*
X55916Y36483D01*
X56050D01*
X56183Y36350D01*
Y36083D01*
X56050Y35950D01*
X55783D01*
X55650Y36083D01*
X55133Y42416D02*
X55000Y42550D01*
X54733D01*
X54600Y42416D01*
Y42283D01*
X54733Y42150D01*
X55000D01*
X55133Y42017D01*
Y41883D01*
X55000Y41750D01*
X54733D01*
X54600Y41883D01*
X55800Y41750D02*
Y42550D01*
X55400Y42150D01*
X55933D01*
X52933Y46166D02*
X52800Y46300D01*
X52533D01*
X52400Y46166D01*
Y46033D01*
X52533Y45900D01*
X52800D01*
X52933Y45767D01*
Y45633D01*
X52800Y45500D01*
X52533D01*
X52400Y45633D01*
X53200Y46166D02*
X53333Y46300D01*
X53600D01*
X53733Y46166D01*
Y46033D01*
X53600Y45900D01*
X53466D01*
X53600D01*
X53733Y45767D01*
Y45633D01*
X53600Y45500D01*
X53333D01*
X53200Y45633D01*
X71083Y2416D02*
X70950Y2550D01*
X70683D01*
X70550Y2416D01*
Y2283D01*
X70683Y2150D01*
X70950D01*
X71083Y2017D01*
Y1883D01*
X70950Y1750D01*
X70683D01*
X70550Y1883D01*
X71883Y1750D02*
X71350D01*
X71883Y2283D01*
Y2416D01*
X71750Y2550D01*
X71483D01*
X71350Y2416D01*
X54783Y64450D02*
X54517D01*
X54650D01*
Y63783D01*
X54517Y63650D01*
X54383D01*
X54250Y63783D01*
X55583Y63650D02*
X55050D01*
X55583Y64183D01*
Y64316D01*
X55450Y64450D01*
X55183D01*
X55050Y64316D01*
X71033Y36700D02*
X70500D01*
Y36300D01*
X70767D01*
X70500D01*
Y35900D01*
X71300D02*
X71566D01*
X71433D01*
Y36700D01*
X71300Y36566D01*
X69803Y26057D02*
X69665Y25928D01*
X69656Y25662D01*
X69784Y25524D01*
X70317Y25505D01*
X70455Y25633D01*
X70464Y25900D01*
X70336Y26038D01*
X69698Y26861D02*
X69679Y26328D01*
X70079Y26313D01*
X69955Y26585D01*
X69960Y26718D01*
X70098Y26846D01*
X70364Y26837D01*
X70493Y26699D01*
X70483Y26432D01*
X70345Y26304D01*
X70374Y27103D02*
X70512Y27232D01*
X70521Y27498D01*
X70393Y27636D01*
X69860Y27655D01*
X69722Y27527D01*
X69713Y27260D01*
X69841Y27122D01*
X69974Y27117D01*
X70112Y27246D01*
X70127Y27646D01*
X73450Y14600D02*
Y14466D01*
X73717Y14200D01*
X73983Y14466D01*
Y14600D01*
X73717Y14200D02*
Y13800D01*
X74250Y14466D02*
X74383Y14600D01*
X74650D01*
X74783Y14466D01*
Y14333D01*
X74650Y14200D01*
X74516D01*
X74650D01*
X74783Y14067D01*
Y13933D01*
X74650Y13800D01*
X74383D01*
X74250Y13933D01*
X65900Y40750D02*
Y40616D01*
X66167Y40350D01*
X66433Y40616D01*
Y40750D01*
X66167Y40350D02*
Y39950D01*
X67233D02*
X66700D01*
X67233Y40483D01*
Y40616D01*
X67100Y40750D01*
X66833D01*
X66700Y40616D01*
X75800Y59250D02*
Y59116D01*
X76067Y58850D01*
X76333Y59116D01*
Y59250D01*
X76067Y58850D02*
Y58450D01*
X76600D02*
X76866D01*
X76733D01*
Y59250D01*
X76600Y59116D01*
X59461Y16065D02*
Y15399D01*
X59595Y15265D01*
X59861D01*
X59995Y15399D01*
Y16065D01*
X60261D02*
X60794D01*
Y15932D01*
X60261Y15399D01*
Y15265D01*
X77700Y2800D02*
Y2133D01*
X77833Y2000D01*
X78100D01*
X78233Y2133D01*
Y2800D01*
X79033D02*
X78766Y2666D01*
X78500Y2400D01*
Y2133D01*
X78633Y2000D01*
X78900D01*
X79033Y2133D01*
Y2267D01*
X78900Y2400D01*
X78500D01*
X63650Y28400D02*
Y27733D01*
X63783Y27600D01*
X64050D01*
X64183Y27733D01*
Y28400D01*
X64983D02*
X64450D01*
Y28000D01*
X64716Y28133D01*
X64850D01*
X64983Y28000D01*
Y27733D01*
X64850Y27600D01*
X64583D01*
X64450Y27733D01*
X49550Y14700D02*
Y14033D01*
X49683Y13900D01*
X49950D01*
X50083Y14033D01*
Y14700D01*
X50750Y13900D02*
Y14700D01*
X50350Y14300D01*
X50883D01*
X42850Y53700D02*
X43517D01*
X43650Y53833D01*
Y54100D01*
X43517Y54233D01*
X42850D01*
X42984Y54500D02*
X42850Y54633D01*
Y54900D01*
X42984Y55033D01*
X43117D01*
X43250Y54900D01*
Y54766D01*
Y54900D01*
X43383Y55033D01*
X43517D01*
X43650Y54900D01*
Y54633D01*
X43517Y54500D01*
X74250Y22250D02*
Y21583D01*
X74383Y21450D01*
X74650D01*
X74783Y21583D01*
Y22250D01*
X75583Y21450D02*
X75050D01*
X75583Y21983D01*
Y22116D01*
X75450Y22250D01*
X75183D01*
X75050Y22116D01*
X67050Y45200D02*
Y44533D01*
X67183Y44400D01*
X67450D01*
X67583Y44533D01*
Y45200D01*
X67850Y44400D02*
X68116D01*
X67983D01*
Y45200D01*
X67850Y45066D01*
X65733Y2666D02*
X65600Y2800D01*
X65333D01*
X65200Y2666D01*
Y2533D01*
X65333Y2400D01*
X65600D01*
X65733Y2267D01*
Y2133D01*
X65600Y2000D01*
X65333D01*
X65200Y2133D01*
X66000Y2000D02*
X66266D01*
X66133D01*
Y2800D01*
X66000Y2666D01*
X51300Y22000D02*
Y22800D01*
X51700D01*
X51833Y22666D01*
Y22400D01*
X51700Y22267D01*
X51300D01*
X51567D02*
X51833Y22000D01*
X52500D02*
Y22800D01*
X52100Y22400D01*
X52633D01*
X52899Y22666D02*
X53033Y22800D01*
X53299D01*
X53433Y22666D01*
Y22533D01*
X53299Y22400D01*
X53433Y22267D01*
Y22133D01*
X53299Y22000D01*
X53033D01*
X52899Y22133D01*
Y22267D01*
X53033Y22400D01*
X52899Y22533D01*
Y22666D01*
X53033Y22400D02*
X53299D01*
X61350Y36100D02*
Y36900D01*
X61750D01*
X61883Y36766D01*
Y36500D01*
X61750Y36367D01*
X61350D01*
X61617D02*
X61883Y36100D01*
X62550D02*
Y36900D01*
X62150Y36500D01*
X62683D01*
X62949Y36900D02*
X63483D01*
Y36766D01*
X62949Y36233D01*
Y36100D01*
X48500Y36050D02*
Y36850D01*
X48900D01*
X49033Y36716D01*
Y36450D01*
X48900Y36317D01*
X48500D01*
X48767D02*
X49033Y36050D01*
X49700D02*
Y36850D01*
X49300Y36450D01*
X49833D01*
X50633Y36850D02*
X50366Y36716D01*
X50099Y36450D01*
Y36183D01*
X50233Y36050D01*
X50499D01*
X50633Y36183D01*
Y36317D01*
X50499Y36450D01*
X50099D01*
X58750Y20850D02*
Y21650D01*
X59150D01*
X59283Y21516D01*
Y21250D01*
X59150Y21117D01*
X58750D01*
X59017D02*
X59283Y20850D01*
X59950D02*
Y21650D01*
X59550Y21250D01*
X60083D01*
X60883Y21650D02*
X60349D01*
Y21250D01*
X60616Y21383D01*
X60749D01*
X60883Y21250D01*
Y20983D01*
X60749Y20850D01*
X60483D01*
X60349Y20983D01*
X48300Y24850D02*
Y25650D01*
X48700D01*
X48833Y25516D01*
Y25250D01*
X48700Y25117D01*
X48300D01*
X48567D02*
X48833Y24850D01*
X49500D02*
Y25650D01*
X49100Y25250D01*
X49633D01*
X50299Y24850D02*
Y25650D01*
X49899Y25250D01*
X50433D01*
X61300Y37750D02*
Y38550D01*
X61700D01*
X61833Y38416D01*
Y38150D01*
X61700Y38017D01*
X61300D01*
X61567D02*
X61833Y37750D01*
X62500D02*
Y38550D01*
X62100Y38150D01*
X62633D01*
X62899Y38416D02*
X63033Y38550D01*
X63299D01*
X63433Y38416D01*
Y38283D01*
X63299Y38150D01*
X63166D01*
X63299D01*
X63433Y38017D01*
Y37883D01*
X63299Y37750D01*
X63033D01*
X62899Y37883D01*
X48500Y34150D02*
Y34950D01*
X48900D01*
X49033Y34816D01*
Y34550D01*
X48900Y34417D01*
X48500D01*
X48767D02*
X49033Y34150D01*
X49700D02*
Y34950D01*
X49300Y34550D01*
X49833D01*
X50633Y34150D02*
X50099D01*
X50633Y34683D01*
Y34816D01*
X50499Y34950D01*
X50233D01*
X50099Y34816D01*
X61250Y6250D02*
Y7050D01*
X61650D01*
X61783Y6916D01*
Y6650D01*
X61650Y6517D01*
X61250D01*
X61517D02*
X61783Y6250D01*
X62450D02*
Y7050D01*
X62050Y6650D01*
X62583D01*
X62849Y6916D02*
X62983Y7050D01*
X63249D01*
X63383Y6916D01*
Y6383D01*
X63249Y6250D01*
X62983D01*
X62849Y6383D01*
Y6916D01*
X67700Y10750D02*
Y11550D01*
X68100D01*
X68233Y11416D01*
Y11150D01*
X68100Y11017D01*
X67700D01*
X67967D02*
X68233Y10750D01*
X68500Y11416D02*
X68633Y11550D01*
X68900D01*
X69033Y11416D01*
Y11283D01*
X68900Y11150D01*
X68766D01*
X68900D01*
X69033Y11017D01*
Y10883D01*
X68900Y10750D01*
X68633D01*
X68500Y10883D01*
X69299D02*
X69433Y10750D01*
X69699D01*
X69833Y10883D01*
Y11416D01*
X69699Y11550D01*
X69433D01*
X69299Y11416D01*
Y11283D01*
X69433Y11150D01*
X69833D01*
X64850Y10700D02*
Y11500D01*
X65250D01*
X65383Y11366D01*
Y11100D01*
X65250Y10967D01*
X64850D01*
X65117D02*
X65383Y10700D01*
X65650Y11366D02*
X65783Y11500D01*
X66050D01*
X66183Y11366D01*
Y11233D01*
X66050Y11100D01*
X65916D01*
X66050D01*
X66183Y10967D01*
Y10833D01*
X66050Y10700D01*
X65783D01*
X65650Y10833D01*
X66449Y11500D02*
X66983D01*
Y11366D01*
X66449Y10833D01*
Y10700D01*
X64900Y13950D02*
Y14750D01*
X65300D01*
X65433Y14616D01*
Y14350D01*
X65300Y14217D01*
X64900D01*
X65167D02*
X65433Y13950D01*
X66100D02*
Y14750D01*
X65700Y14350D01*
X66233D01*
X66499Y13950D02*
X66766D01*
X66633D01*
Y14750D01*
X66499Y14616D01*
X61300Y16800D02*
Y17600D01*
X61700D01*
X61833Y17466D01*
Y17200D01*
X61700Y17067D01*
X61300D01*
X61567D02*
X61833Y16800D01*
X62100Y17466D02*
X62233Y17600D01*
X62500D01*
X62633Y17466D01*
Y17333D01*
X62500Y17200D01*
X62366D01*
X62500D01*
X62633Y17067D01*
Y16933D01*
X62500Y16800D01*
X62233D01*
X62100Y16933D01*
X62899Y17466D02*
X63033Y17600D01*
X63299D01*
X63433Y17466D01*
Y17333D01*
X63299Y17200D01*
X63433Y17067D01*
Y16933D01*
X63299Y16800D01*
X63033D01*
X62899Y16933D01*
Y17067D01*
X63033Y17200D01*
X62899Y17333D01*
Y17466D01*
X63033Y17200D02*
X63299D01*
X55750Y6200D02*
Y7000D01*
X56150D01*
X56283Y6866D01*
Y6600D01*
X56150Y6467D01*
X55750D01*
X56017D02*
X56283Y6200D01*
X56550Y6866D02*
X56683Y7000D01*
X56950D01*
X57083Y6866D01*
Y6733D01*
X56950Y6600D01*
X56816D01*
X56950D01*
X57083Y6467D01*
Y6333D01*
X56950Y6200D01*
X56683D01*
X56550Y6333D01*
X57883Y7000D02*
X57349D01*
Y6600D01*
X57616Y6733D01*
X57749D01*
X57883Y6600D01*
Y6333D01*
X57749Y6200D01*
X57483D01*
X57349Y6333D01*
X61250Y9400D02*
Y10200D01*
X61650D01*
X61783Y10066D01*
Y9800D01*
X61650Y9667D01*
X61250D01*
X61517D02*
X61783Y9400D01*
X62050Y10066D02*
X62183Y10200D01*
X62450D01*
X62583Y10066D01*
Y9933D01*
X62450Y9800D01*
X62316D01*
X62450D01*
X62583Y9667D01*
Y9533D01*
X62450Y9400D01*
X62183D01*
X62050Y9533D01*
X63249Y9400D02*
Y10200D01*
X62849Y9800D01*
X63383D01*
X64700Y12350D02*
Y13150D01*
X65100D01*
X65233Y13016D01*
Y12750D01*
X65100Y12617D01*
X64700D01*
X64967D02*
X65233Y12350D01*
X65500Y13016D02*
X65633Y13150D01*
X65900D01*
X66033Y13016D01*
Y12883D01*
X65900Y12750D01*
X65766D01*
X65900D01*
X66033Y12617D01*
Y12483D01*
X65900Y12350D01*
X65633D01*
X65500Y12483D01*
X66833Y13150D02*
X66566Y13016D01*
X66299Y12750D01*
Y12483D01*
X66433Y12350D01*
X66699D01*
X66833Y12483D01*
Y12617D01*
X66699Y12750D01*
X66299D01*
X61300Y2800D02*
Y3600D01*
X61700D01*
X61833Y3466D01*
Y3200D01*
X61700Y3067D01*
X61300D01*
X61567D02*
X61833Y2800D01*
X62100Y3466D02*
X62233Y3600D01*
X62500D01*
X62633Y3466D01*
Y3333D01*
X62500Y3200D01*
X62366D01*
X62500D01*
X62633Y3067D01*
Y2933D01*
X62500Y2800D01*
X62233D01*
X62100Y2933D01*
X62899Y3466D02*
X63033Y3600D01*
X63299D01*
X63433Y3466D01*
Y3333D01*
X63299Y3200D01*
X63166D01*
X63299D01*
X63433Y3067D01*
Y2933D01*
X63299Y2800D01*
X63033D01*
X62899Y2933D01*
X58350Y3500D02*
Y4300D01*
X58750D01*
X58883Y4166D01*
Y3900D01*
X58750Y3767D01*
X58350D01*
X58617D02*
X58883Y3500D01*
X59150Y4166D02*
X59283Y4300D01*
X59550D01*
X59683Y4166D01*
Y4033D01*
X59550Y3900D01*
X59416D01*
X59550D01*
X59683Y3767D01*
Y3633D01*
X59550Y3500D01*
X59283D01*
X59150Y3633D01*
X60483Y3500D02*
X59949D01*
X60483Y4033D01*
Y4166D01*
X60349Y4300D01*
X60083D01*
X59949Y4166D01*
X64750Y34800D02*
Y35600D01*
X65150D01*
X65283Y35466D01*
Y35200D01*
X65150Y35067D01*
X64750D01*
X65017D02*
X65283Y34800D01*
X65550Y35466D02*
X65683Y35600D01*
X65950D01*
X66083Y35466D01*
Y35333D01*
X65950Y35200D01*
X65816D01*
X65950D01*
X66083Y35067D01*
Y34933D01*
X65950Y34800D01*
X65683D01*
X65550Y34933D01*
X66349Y34800D02*
X66616D01*
X66483D01*
Y35600D01*
X66349Y35466D01*
X78750Y34250D02*
Y35050D01*
X79150D01*
X79283Y34916D01*
Y34650D01*
X79150Y34517D01*
X78750D01*
X79017D02*
X79283Y34250D01*
X79550Y34916D02*
X79683Y35050D01*
X79950D01*
X80083Y34916D01*
Y34783D01*
X79950Y34650D01*
X79816D01*
X79950D01*
X80083Y34517D01*
Y34383D01*
X79950Y34250D01*
X79683D01*
X79550Y34383D01*
X80349Y34916D02*
X80483Y35050D01*
X80749D01*
X80883Y34916D01*
Y34383D01*
X80749Y34250D01*
X80483D01*
X80349Y34383D01*
Y34916D01*
X80900Y27900D02*
X80100D01*
Y28300D01*
X80234Y28433D01*
X80500D01*
X80633Y28300D01*
Y27900D01*
Y28167D02*
X80900Y28433D01*
Y29233D02*
Y28700D01*
X80367Y29233D01*
X80234D01*
X80100Y29100D01*
Y28833D01*
X80234Y28700D01*
X80767Y29499D02*
X80900Y29633D01*
Y29899D01*
X80767Y30033D01*
X80234D01*
X80100Y29899D01*
Y29633D01*
X80234Y29499D01*
X80367D01*
X80500Y29633D01*
Y30033D01*
X82350Y3050D02*
Y3850D01*
X82750D01*
X82883Y3716D01*
Y3450D01*
X82750Y3317D01*
X82350D01*
X82617D02*
X82883Y3050D01*
X83683D02*
X83150D01*
X83683Y3583D01*
Y3716D01*
X83550Y3850D01*
X83283D01*
X83150Y3716D01*
X83949D02*
X84083Y3850D01*
X84349D01*
X84483Y3716D01*
Y3583D01*
X84349Y3450D01*
X84483Y3317D01*
Y3183D01*
X84349Y3050D01*
X84083D01*
X83949Y3183D01*
Y3317D01*
X84083Y3450D01*
X83949Y3583D01*
Y3716D01*
X84083Y3450D02*
X84349D01*
X74650Y1500D02*
Y2300D01*
X75050D01*
X75183Y2166D01*
Y1900D01*
X75050Y1767D01*
X74650D01*
X74917D02*
X75183Y1500D01*
X75983D02*
X75450D01*
X75983Y2033D01*
Y2166D01*
X75850Y2300D01*
X75583D01*
X75450Y2166D01*
X76249Y2300D02*
X76783D01*
Y2166D01*
X76249Y1633D01*
Y1500D01*
X70550Y22650D02*
X69750Y22663D01*
X69757Y23063D01*
X69892Y23194D01*
X70159Y23189D01*
X70290Y23054D01*
X70283Y22654D01*
X70288Y22921D02*
X70558Y23183D01*
X70571Y23983D02*
X70563Y23450D01*
X70038Y23991D01*
X69905Y23993D01*
X69769Y23862D01*
X69765Y23596D01*
X69896Y23460D01*
X69784Y24795D02*
X69913Y24526D01*
X70176Y24256D01*
X70442Y24251D01*
X70577Y24383D01*
X70582Y24649D01*
X70451Y24784D01*
X70317Y24787D01*
X70182Y24655D01*
X70176Y24256D01*
X67100Y19900D02*
X66300Y19912D01*
X66306Y20312D01*
X66441Y20443D01*
X66708Y20439D01*
X66839Y20304D01*
X66833Y19904D01*
X66837Y20170D02*
X67108Y20433D01*
X67120Y21233D02*
X67112Y20700D01*
X66587Y21241D01*
X66453Y21243D01*
X66318Y21111D01*
X66314Y20845D01*
X66445Y20709D01*
X66332Y22044D02*
X66324Y21511D01*
X66724Y21505D01*
X66594Y21774D01*
X66596Y21907D01*
X66732Y22038D01*
X66998Y22034D01*
X67129Y21899D01*
X67125Y21633D01*
X66990Y21501D01*
X55400Y13500D02*
Y14300D01*
X55800D01*
X55933Y14166D01*
Y13900D01*
X55800Y13767D01*
X55400D01*
X55667D02*
X55933Y13500D01*
X56733D02*
X56200D01*
X56733Y14033D01*
Y14166D01*
X56600Y14300D01*
X56333D01*
X56200Y14166D01*
X57399Y13500D02*
Y14300D01*
X56999Y13900D01*
X57533D01*
X54550Y15500D02*
Y16300D01*
X54950D01*
X55083Y16166D01*
Y15900D01*
X54950Y15767D01*
X54550D01*
X54817D02*
X55083Y15500D01*
X55883D02*
X55350D01*
X55883Y16033D01*
Y16166D01*
X55750Y16300D01*
X55483D01*
X55350Y16166D01*
X56149D02*
X56283Y16300D01*
X56549D01*
X56683Y16166D01*
Y16033D01*
X56549Y15900D01*
X56416D01*
X56549D01*
X56683Y15767D01*
Y15633D01*
X56549Y15500D01*
X56283D01*
X56149Y15633D01*
X44650Y58300D02*
Y59100D01*
X45050D01*
X45183Y58966D01*
Y58700D01*
X45050Y58567D01*
X44650D01*
X44917D02*
X45183Y58300D01*
X45983D02*
X45450D01*
X45983Y58833D01*
Y58966D01*
X45850Y59100D01*
X45583D01*
X45450Y58966D01*
X46783Y58300D02*
X46249D01*
X46783Y58833D01*
Y58966D01*
X46649Y59100D01*
X46383D01*
X46249Y58966D01*
X51100Y54250D02*
Y55050D01*
X51500D01*
X51633Y54916D01*
Y54650D01*
X51500Y54517D01*
X51100D01*
X51367D02*
X51633Y54250D01*
X52433D02*
X51900D01*
X52433Y54783D01*
Y54916D01*
X52300Y55050D01*
X52033D01*
X51900Y54916D01*
X52699Y54250D02*
X52966D01*
X52833D01*
Y55050D01*
X52699Y54916D01*
X74900Y27800D02*
Y28600D01*
X75300D01*
X75433Y28466D01*
Y28200D01*
X75300Y28067D01*
X74900D01*
X75167D02*
X75433Y27800D01*
X75700Y27933D02*
X75833Y27800D01*
X76100D01*
X76233Y27933D01*
Y28466D01*
X76100Y28600D01*
X75833D01*
X75700Y28466D01*
Y28333D01*
X75833Y28200D01*
X76233D01*
X79900Y7200D02*
X79100D01*
Y7600D01*
X79234Y7733D01*
X79500D01*
X79633Y7600D01*
Y7200D01*
Y7467D02*
X79900Y7733D01*
Y8533D02*
Y8000D01*
X79367Y8533D01*
X79234D01*
X79100Y8400D01*
Y8133D01*
X79234Y8000D01*
Y8799D02*
X79100Y8933D01*
Y9199D01*
X79234Y9333D01*
X79767D01*
X79900Y9199D01*
Y8933D01*
X79767Y8799D01*
X79234D01*
X85500Y5000D02*
Y5800D01*
X85900D01*
X86033Y5666D01*
Y5400D01*
X85900Y5267D01*
X85500D01*
X85767D02*
X86033Y5000D01*
X86300D02*
X86566D01*
X86433D01*
Y5800D01*
X86300Y5666D01*
X86966Y5133D02*
X87099Y5000D01*
X87366D01*
X87499Y5133D01*
Y5666D01*
X87366Y5800D01*
X87099D01*
X86966Y5666D01*
Y5533D01*
X87099Y5400D01*
X87499D01*
X76800Y7200D02*
X76000Y7215D01*
X76008Y7615D01*
X76144Y7745D01*
X76410Y7740D01*
X76541Y7605D01*
X76533Y7205D01*
X76538Y7471D02*
X76810Y7733D01*
X76815Y8000D02*
X76820Y8266D01*
X76817Y8133D01*
X76018Y8148D01*
X76148Y8012D01*
X76161Y8678D02*
X76030Y8814D01*
X76035Y9081D01*
X76171Y9211D01*
X76304Y9209D01*
X76435Y9073D01*
X76570Y9204D01*
X76704Y9201D01*
X76835Y9066D01*
X76830Y8799D01*
X76694Y8668D01*
X76561Y8671D01*
X76430Y8807D01*
X76294Y8676D01*
X76161Y8678D01*
X76430Y8807D02*
X76435Y9073D01*
X82550Y27000D02*
Y27800D01*
X82950D01*
X83083Y27666D01*
Y27400D01*
X82950Y27267D01*
X82550D01*
X82817D02*
X83083Y27000D01*
X83350D02*
X83616D01*
X83483D01*
Y27800D01*
X83350Y27666D01*
X84016Y27800D02*
X84549D01*
Y27666D01*
X84016Y27133D01*
Y27000D01*
X73950Y22750D02*
X73150D01*
Y23150D01*
X73284Y23283D01*
X73550D01*
X73683Y23150D01*
Y22750D01*
Y23017D02*
X73950Y23283D01*
Y23550D02*
Y23816D01*
Y23683D01*
X73150D01*
X73284Y23550D01*
X73150Y24749D02*
Y24216D01*
X73550D01*
X73417Y24483D01*
Y24616D01*
X73550Y24749D01*
X73817D01*
X73950Y24616D01*
Y24349D01*
X73817Y24216D01*
X72200Y22800D02*
X71400D01*
Y23200D01*
X71534Y23333D01*
X71800D01*
X71933Y23200D01*
Y22800D01*
Y23067D02*
X72200Y23333D01*
Y23600D02*
Y23866D01*
Y23733D01*
X71400D01*
X71534Y23600D01*
X72200Y24666D02*
X71400D01*
X71800Y24266D01*
Y24799D01*
X81000Y25400D02*
X80200Y25417D01*
X80209Y25817D01*
X80345Y25947D01*
X80612Y25942D01*
X80742Y25805D01*
X80733Y25406D01*
X80739Y25672D02*
X81011Y25933D01*
X81017Y26200D02*
X81023Y26466D01*
X81020Y26333D01*
X80220Y26350D01*
X80351Y26214D01*
X80365Y26880D02*
X80234Y27016D01*
X80240Y27283D01*
X80376Y27413D01*
X80509Y27410D01*
X80640Y27274D01*
X80637Y27141D01*
X80640Y27274D01*
X80776Y27405D01*
X80909Y27402D01*
X81040Y27266D01*
X81034Y26999D01*
X80898Y26869D01*
X79550Y25400D02*
X78750Y25417D01*
X78759Y25816D01*
X78895Y25947D01*
X79161Y25941D01*
X79292Y25805D01*
X79283Y25406D01*
X79289Y25672D02*
X79561Y25933D01*
X79567Y26200D02*
X79572Y26466D01*
X79569Y26333D01*
X78770Y26349D01*
X78900Y26213D01*
X79592Y27399D02*
X79581Y26866D01*
X79059Y27410D01*
X78925Y27413D01*
X78789Y27282D01*
X78784Y27016D01*
X78914Y26880D01*
X82600Y24450D02*
Y25250D01*
X83000D01*
X83133Y25116D01*
Y24850D01*
X83000Y24717D01*
X82600D01*
X82867D02*
X83133Y24450D01*
X83400D02*
X83666D01*
X83533D01*
Y25250D01*
X83400Y25116D01*
X84066D02*
X84199Y25250D01*
X84466D01*
X84599Y25116D01*
Y24583D01*
X84466Y24450D01*
X84199D01*
X84066Y24583D01*
Y25116D01*
X67500Y42650D02*
Y43450D01*
X67900D01*
X68033Y43316D01*
Y43050D01*
X67900Y42917D01*
X67500D01*
X67767D02*
X68033Y42650D01*
X68300Y43316D02*
X68433Y43450D01*
X68700D01*
X68833Y43316D01*
Y43183D01*
X68700Y43050D01*
X68833Y42917D01*
Y42783D01*
X68700Y42650D01*
X68433D01*
X68300Y42783D01*
Y42917D01*
X68433Y43050D01*
X68300Y43183D01*
Y43316D01*
X68433Y43050D02*
X68700D01*
X48050Y49050D02*
Y49850D01*
X48450D01*
X48583Y49716D01*
Y49450D01*
X48450Y49317D01*
X48050D01*
X48317D02*
X48583Y49050D01*
X48850Y49850D02*
X49383D01*
Y49716D01*
X48850Y49183D01*
Y49050D01*
X66500Y63450D02*
Y64250D01*
X66900D01*
X67033Y64116D01*
Y63850D01*
X66900Y63717D01*
X66500D01*
X66767D02*
X67033Y63450D01*
X67833Y64250D02*
X67566Y64116D01*
X67300Y63850D01*
Y63583D01*
X67433Y63450D01*
X67700D01*
X67833Y63583D01*
Y63717D01*
X67700Y63850D01*
X67300D01*
X47850Y44100D02*
Y44900D01*
X48250D01*
X48383Y44766D01*
Y44500D01*
X48250Y44367D01*
X47850D01*
X48117D02*
X48383Y44100D01*
X49183Y44900D02*
X48650D01*
Y44500D01*
X48916Y44633D01*
X49050D01*
X49183Y44500D01*
Y44233D01*
X49050Y44100D01*
X48783D01*
X48650Y44233D01*
X47900Y45550D02*
Y46350D01*
X48300D01*
X48433Y46216D01*
Y45950D01*
X48300Y45817D01*
X47900D01*
X48167D02*
X48433Y45550D01*
X49100D02*
Y46350D01*
X48700Y45950D01*
X49233D01*
X71450Y38200D02*
X70650Y38211D01*
X70656Y38611D01*
X70791Y38742D01*
X71058Y38739D01*
X71189Y38604D01*
X71183Y38204D01*
X71187Y38470D02*
X71457Y38733D01*
X70795Y39009D02*
X70663Y39144D01*
X70667Y39411D01*
X70802Y39542D01*
X70936Y39540D01*
X71067Y39405D01*
X71065Y39272D01*
X71067Y39405D01*
X71202Y39537D01*
X71335Y39535D01*
X71467Y39400D01*
X71463Y39133D01*
X71328Y39002D01*
X70200Y38150D02*
X69401Y38171D01*
X69411Y38570D01*
X69547Y38700D01*
X69814Y38693D01*
X69944Y38557D01*
X69934Y38157D01*
X69940Y38423D02*
X70214Y38683D01*
X70234Y39482D02*
X70220Y38949D01*
X69701Y39496D01*
X69568Y39500D01*
X69431Y39370D01*
X69424Y39103D01*
X69554Y38967D01*
X65300Y53400D02*
Y54200D01*
X65700D01*
X65833Y54066D01*
Y53800D01*
X65700Y53667D01*
X65300D01*
X65567D02*
X65833Y53400D01*
X66100D02*
X66366D01*
X66233D01*
Y54200D01*
X66100Y54066D01*
X91450Y17300D02*
Y18100D01*
X91717Y17833D01*
X91983Y18100D01*
Y17300D01*
X92783D02*
X92250D01*
X92783Y17833D01*
Y17966D01*
X92650Y18100D01*
X92383D01*
X92250Y17966D01*
X82000Y53400D02*
Y54200D01*
X82267Y53933D01*
X82533Y54200D01*
Y53400D01*
X82800D02*
X83066D01*
X82933D01*
Y54200D01*
X82800Y54066D01*
X71100Y55616D02*
X71900Y55600D01*
X71910Y56133D01*
X71926Y56933D02*
X71916Y56400D01*
X71393Y56943D01*
X71260Y56946D01*
X71124Y56815D01*
X71119Y56549D01*
X71249Y56413D01*
X72250Y61350D02*
Y60550D01*
X72783D01*
X73050D02*
X73316D01*
X73183D01*
Y61350D01*
X73050Y61216D01*
X38933Y27500D02*
X38667D01*
X38800D01*
Y26833D01*
X38667Y26700D01*
X38533D01*
X38400Y26833D01*
X39200Y27366D02*
X39333Y27500D01*
X39600D01*
X39733Y27366D01*
Y27233D01*
X39600Y27100D01*
X39466D01*
X39600D01*
X39733Y26967D01*
Y26833D01*
X39600Y26700D01*
X39333D01*
X39200Y26833D01*
X38133Y63850D02*
X37867D01*
X38000D01*
Y63183D01*
X37867Y63050D01*
X37733D01*
X37600Y63183D01*
X38400Y63050D02*
X38666D01*
X38533D01*
Y63850D01*
X38400Y63716D01*
X49100Y18033D02*
Y17500D01*
X49500D01*
Y17767D01*
Y17500D01*
X49900D01*
X49100Y18300D02*
X49767D01*
X49900Y18433D01*
Y18700D01*
X49767Y18833D01*
X49100D01*
X49234Y19633D02*
X49100Y19499D01*
Y19233D01*
X49234Y19099D01*
X49367D01*
X49500Y19233D01*
Y19499D01*
X49633Y19633D01*
X49767D01*
X49900Y19499D01*
Y19233D01*
X49767Y19099D01*
X49100Y20432D02*
Y19899D01*
X49900D01*
Y20432D01*
X49500Y19899D02*
Y20166D01*
X49900Y21232D02*
Y20699D01*
X49367Y21232D01*
X49234D01*
X49100Y21099D01*
Y20832D01*
X49234Y20699D01*
X40650Y32983D02*
Y32450D01*
X41050D01*
Y32717D01*
Y32450D01*
X41450D01*
X40650Y33250D02*
X41317D01*
X41450Y33383D01*
Y33650D01*
X41317Y33783D01*
X40650D01*
X40784Y34583D02*
X40650Y34449D01*
Y34183D01*
X40784Y34049D01*
X40917D01*
X41050Y34183D01*
Y34449D01*
X41183Y34583D01*
X41317D01*
X41450Y34449D01*
Y34183D01*
X41317Y34049D01*
X40650Y35382D02*
Y34849D01*
X41450D01*
Y35382D01*
X41050Y34849D02*
Y35116D01*
X41450Y35649D02*
Y35916D01*
Y35782D01*
X40650D01*
X40784Y35649D01*
X46156Y16991D02*
X46150Y16458D01*
X46550Y16454D01*
X46553Y16721D01*
X46550Y16454D01*
X46950Y16450D01*
X46158Y17258D02*
X46958Y17250D01*
X46962Y17650D01*
X46830Y17784D01*
X46697Y17786D01*
X46562Y17654D01*
X46558Y17254D01*
X46562Y17654D01*
X46430Y17788D01*
X46297Y17790D01*
X46162Y17658D01*
X46158Y17258D01*
X46172Y18591D02*
X46166Y18057D01*
X46566Y18053D01*
X46436Y18321D01*
X46437Y18455D01*
X46572Y18587D01*
X46838Y18584D01*
X46970Y18449D01*
X46967Y18183D01*
X46833Y18051D01*
X38500Y31933D02*
Y31400D01*
X38900D01*
Y31667D01*
Y31400D01*
X39300D01*
X38500Y32200D02*
X39300D01*
Y32600D01*
X39167Y32733D01*
X39033D01*
X38900Y32600D01*
Y32200D01*
Y32600D01*
X38767Y32733D01*
X38634D01*
X38500Y32600D01*
Y32200D01*
X39300Y33399D02*
X38500D01*
X38900Y32999D01*
Y33533D01*
X77150Y26133D02*
Y25600D01*
X77550D01*
Y25867D01*
Y25600D01*
X77950D01*
X77150Y26400D02*
X77950D01*
Y26800D01*
X77817Y26933D01*
X77683D01*
X77550Y26800D01*
Y26400D01*
Y26800D01*
X77417Y26933D01*
X77284D01*
X77150Y26800D01*
Y26400D01*
X77284Y27199D02*
X77150Y27333D01*
Y27599D01*
X77284Y27733D01*
X77417D01*
X77550Y27599D01*
Y27466D01*
Y27599D01*
X77683Y27733D01*
X77817D01*
X77950Y27599D01*
Y27333D01*
X77817Y27199D01*
X68033Y13250D02*
X67500D01*
Y12850D01*
X67767D01*
X67500D01*
Y12450D01*
X68300Y13250D02*
Y12450D01*
X68700D01*
X68833Y12583D01*
Y12717D01*
X68700Y12850D01*
X68300D01*
X68700D01*
X68833Y12983D01*
Y13116D01*
X68700Y13250D01*
X68300D01*
X69633Y12450D02*
X69099D01*
X69633Y12983D01*
Y13116D01*
X69499Y13250D01*
X69233D01*
X69099Y13116D01*
X76661Y38049D02*
X76650Y37516D01*
X77050Y37508D01*
X77056Y37775D01*
X77050Y37508D01*
X77450Y37500D01*
X76666Y38316D02*
X77466Y38300D01*
X77474Y38699D01*
X77344Y38835D01*
X77210Y38838D01*
X77074Y38707D01*
X77066Y38308D01*
X77074Y38707D01*
X76944Y38843D01*
X76810Y38846D01*
X76675Y38715D01*
X76666Y38316D01*
X77482Y39099D02*
X77488Y39366D01*
X77485Y39232D01*
X76685Y39249D01*
X76816Y39113D01*
X71400Y25700D02*
X72200D01*
Y26100D01*
X72067Y26233D01*
X71534D01*
X71400Y26100D01*
Y25700D01*
X71534Y27033D02*
X71400Y26900D01*
Y26633D01*
X71534Y26500D01*
X71667D01*
X71800Y26633D01*
Y26900D01*
X71933Y27033D01*
X72067D01*
X72200Y26900D01*
Y26633D01*
X72067Y26500D01*
X71534Y27299D02*
X71400Y27433D01*
Y27699D01*
X71534Y27833D01*
X71667D01*
X71800Y27699D01*
Y27566D01*
Y27699D01*
X71933Y27833D01*
X72067D01*
X72200Y27699D01*
Y27433D01*
X72067Y27299D01*
X73200Y25700D02*
X74000D01*
Y26100D01*
X73867Y26233D01*
X73334D01*
X73200Y26100D01*
Y25700D01*
X73334Y27033D02*
X73200Y26900D01*
Y26633D01*
X73334Y26500D01*
X73467D01*
X73600Y26633D01*
Y26900D01*
X73733Y27033D01*
X73867D01*
X74000Y26900D01*
Y26633D01*
X73867Y26500D01*
X74000Y27833D02*
Y27299D01*
X73467Y27833D01*
X73334D01*
X73200Y27699D01*
Y27433D01*
X73334Y27299D01*
X69400Y65700D02*
Y64900D01*
X69800D01*
X69933Y65033D01*
Y65566D01*
X69800Y65700D01*
X69400D01*
X70733Y65566D02*
X70600Y65700D01*
X70333D01*
X70200Y65566D01*
Y65433D01*
X70333Y65300D01*
X70600D01*
X70733Y65167D01*
Y65033D01*
X70600Y64900D01*
X70333D01*
X70200Y65033D01*
X70999Y64900D02*
X71266D01*
X71133D01*
Y65700D01*
X70999Y65566D01*
X50345Y19147D02*
X50209Y19016D01*
X50203Y18750D01*
X50334Y18614D01*
X50867Y18603D01*
X51003Y18733D01*
X51008Y19000D01*
X50878Y19136D01*
X50217Y19416D02*
X50228Y19949D01*
X50361Y19946D01*
X50883Y19402D01*
X51016Y19400D01*
X50233Y20215D02*
X50244Y20749D01*
X50377Y20746D01*
X50899Y20202D01*
X51033Y20199D01*
X52533Y17266D02*
X52400Y17400D01*
X52133D01*
X52000Y17266D01*
Y16733D01*
X52133Y16600D01*
X52400D01*
X52533Y16733D01*
X52800Y17400D02*
X53333D01*
Y17266D01*
X52800Y16733D01*
Y16600D01*
X54133Y17400D02*
X53866Y17266D01*
X53599Y17000D01*
Y16733D01*
X53733Y16600D01*
X53999D01*
X54133Y16733D01*
Y16867D01*
X53999Y17000D01*
X53599D01*
X48933Y23716D02*
X48800Y23850D01*
X48533D01*
X48400Y23716D01*
Y23183D01*
X48533Y23050D01*
X48800D01*
X48933Y23183D01*
X49200Y23850D02*
X49733D01*
Y23716D01*
X49200Y23183D01*
Y23050D01*
X50533Y23850D02*
X49999D01*
Y23450D01*
X50266Y23583D01*
X50399D01*
X50533Y23450D01*
Y23183D01*
X50399Y23050D01*
X50133D01*
X49999Y23183D01*
X62233Y26866D02*
X62100Y27000D01*
X61833D01*
X61700Y26866D01*
Y26333D01*
X61833Y26200D01*
X62100D01*
X62233Y26333D01*
X62500Y27000D02*
X63033D01*
Y26866D01*
X62500Y26333D01*
Y26200D01*
X63699D02*
Y27000D01*
X63299Y26600D01*
X63833D01*
X62083Y23766D02*
X61950Y23900D01*
X61683D01*
X61550Y23766D01*
Y23233D01*
X61683Y23100D01*
X61950D01*
X62083Y23233D01*
X62350Y23900D02*
X62883D01*
Y23766D01*
X62350Y23233D01*
Y23100D01*
X63149Y23766D02*
X63283Y23900D01*
X63549D01*
X63683Y23766D01*
Y23633D01*
X63549Y23500D01*
X63416D01*
X63549D01*
X63683Y23367D01*
Y23233D01*
X63549Y23100D01*
X63283D01*
X63149Y23233D01*
X62183Y25366D02*
X62050Y25500D01*
X61783D01*
X61650Y25366D01*
Y24833D01*
X61783Y24700D01*
X62050D01*
X62183Y24833D01*
X62450Y25500D02*
X62983D01*
Y25366D01*
X62450Y24833D01*
Y24700D01*
X63783D02*
X63249D01*
X63783Y25233D01*
Y25366D01*
X63649Y25500D01*
X63383D01*
X63249Y25366D01*
X60383Y31866D02*
X60250Y32000D01*
X59983D01*
X59850Y31866D01*
Y31333D01*
X59983Y31200D01*
X60250D01*
X60383Y31333D01*
X60650Y32000D02*
X61183D01*
Y31866D01*
X60650Y31333D01*
Y31200D01*
X61449D02*
X61716D01*
X61583D01*
Y32000D01*
X61449Y31866D01*
X61933Y34766D02*
X61800Y34900D01*
X61533D01*
X61400Y34766D01*
Y34233D01*
X61533Y34100D01*
X61800D01*
X61933Y34233D01*
X62200Y34900D02*
X62733D01*
Y34766D01*
X62200Y34233D01*
Y34100D01*
X62999Y34766D02*
X63133Y34900D01*
X63399D01*
X63533Y34766D01*
Y34233D01*
X63399Y34100D01*
X63133D01*
X62999Y34233D01*
Y34766D01*
X59083Y47266D02*
X58950Y47400D01*
X58683D01*
X58550Y47266D01*
Y46733D01*
X58683Y46600D01*
X58950D01*
X59083Y46733D01*
X59883Y47400D02*
X59616Y47266D01*
X59350Y47000D01*
Y46733D01*
X59483Y46600D01*
X59750D01*
X59883Y46733D01*
Y46867D01*
X59750Y47000D01*
X59350D01*
X60149Y47266D02*
X60283Y47400D01*
X60549D01*
X60683Y47266D01*
Y47133D01*
X60549Y47000D01*
X60683Y46867D01*
Y46733D01*
X60549Y46600D01*
X60283D01*
X60149Y46733D01*
Y46867D01*
X60283Y47000D01*
X60149Y47133D01*
Y47266D01*
X60283Y47000D02*
X60549D01*
X61983Y40566D02*
X61850Y40700D01*
X61583D01*
X61450Y40566D01*
Y40033D01*
X61583Y39900D01*
X61850D01*
X61983Y40033D01*
X62783Y40700D02*
X62516Y40566D01*
X62250Y40300D01*
Y40033D01*
X62383Y39900D01*
X62650D01*
X62783Y40033D01*
Y40167D01*
X62650Y40300D01*
X62250D01*
X63049Y40700D02*
X63583D01*
Y40566D01*
X63049Y40033D01*
Y39900D01*
X70933Y9916D02*
X70800Y10050D01*
X70533D01*
X70400Y9916D01*
Y9383D01*
X70533Y9250D01*
X70800D01*
X70933Y9383D01*
X71733Y10050D02*
X71466Y9916D01*
X71200Y9650D01*
Y9383D01*
X71333Y9250D01*
X71600D01*
X71733Y9383D01*
Y9517D01*
X71600Y9650D01*
X71200D01*
X72533Y10050D02*
X72266Y9916D01*
X71999Y9650D01*
Y9383D01*
X72133Y9250D01*
X72399D01*
X72533Y9383D01*
Y9517D01*
X72399Y9650D01*
X71999D01*
X65283Y16166D02*
X65150Y16300D01*
X64883D01*
X64750Y16166D01*
Y15633D01*
X64883Y15500D01*
X65150D01*
X65283Y15633D01*
X66083Y16300D02*
X65816Y16166D01*
X65550Y15900D01*
Y15633D01*
X65683Y15500D01*
X65950D01*
X66083Y15633D01*
Y15767D01*
X65950Y15900D01*
X65550D01*
X66883Y16300D02*
X66349D01*
Y15900D01*
X66616Y16033D01*
X66749D01*
X66883Y15900D01*
Y15633D01*
X66749Y15500D01*
X66483D01*
X66349Y15633D01*
X56283Y8316D02*
X56150Y8450D01*
X55883D01*
X55750Y8316D01*
Y7783D01*
X55883Y7650D01*
X56150D01*
X56283Y7783D01*
X57083Y8450D02*
X56816Y8316D01*
X56550Y8050D01*
Y7783D01*
X56683Y7650D01*
X56950D01*
X57083Y7783D01*
Y7917D01*
X56950Y8050D01*
X56550D01*
X57749Y7650D02*
Y8450D01*
X57349Y8050D01*
X57883D01*
X68183Y9966D02*
X68050Y10100D01*
X67783D01*
X67650Y9966D01*
Y9433D01*
X67783Y9300D01*
X68050D01*
X68183Y9433D01*
X68983Y10100D02*
X68716Y9966D01*
X68450Y9700D01*
Y9433D01*
X68583Y9300D01*
X68850D01*
X68983Y9433D01*
Y9567D01*
X68850Y9700D01*
X68450D01*
X69249Y9966D02*
X69383Y10100D01*
X69649D01*
X69783Y9966D01*
Y9833D01*
X69649Y9700D01*
X69516D01*
X69649D01*
X69783Y9567D01*
Y9433D01*
X69649Y9300D01*
X69383D01*
X69249Y9433D01*
X65133Y9866D02*
X65000Y10000D01*
X64733D01*
X64600Y9866D01*
Y9333D01*
X64733Y9200D01*
X65000D01*
X65133Y9333D01*
X65933Y10000D02*
X65666Y9866D01*
X65400Y9600D01*
Y9333D01*
X65533Y9200D01*
X65800D01*
X65933Y9333D01*
Y9467D01*
X65800Y9600D01*
X65400D01*
X66733Y9200D02*
X66199D01*
X66733Y9733D01*
Y9866D01*
X66599Y10000D01*
X66333D01*
X66199Y9866D01*
X58383Y11316D02*
X58250Y11450D01*
X57983D01*
X57850Y11316D01*
Y10783D01*
X57983Y10650D01*
X58250D01*
X58383Y10783D01*
X59183Y11450D02*
X58916Y11316D01*
X58650Y11050D01*
Y10783D01*
X58783Y10650D01*
X59050D01*
X59183Y10783D01*
Y10917D01*
X59050Y11050D01*
X58650D01*
X59449Y10650D02*
X59716D01*
X59583D01*
Y11450D01*
X59449Y11316D01*
X61733Y8466D02*
X61600Y8600D01*
X61333D01*
X61200Y8466D01*
Y7933D01*
X61333Y7800D01*
X61600D01*
X61733Y7933D01*
X62533Y8600D02*
X62266Y8466D01*
X62000Y8200D01*
Y7933D01*
X62133Y7800D01*
X62400D01*
X62533Y7933D01*
Y8067D01*
X62400Y8200D01*
X62000D01*
X62799Y8466D02*
X62933Y8600D01*
X63199D01*
X63333Y8466D01*
Y7933D01*
X63199Y7800D01*
X62933D01*
X62799Y7933D01*
Y8466D01*
X74033Y7566D02*
X73900Y7700D01*
X73633D01*
X73500Y7566D01*
Y7033D01*
X73633Y6900D01*
X73900D01*
X74033Y7033D01*
X74833Y7700D02*
X74300D01*
Y7300D01*
X74566Y7433D01*
X74700D01*
X74833Y7300D01*
Y7033D01*
X74700Y6900D01*
X74433D01*
X74300Y7033D01*
X75099Y7566D02*
X75233Y7700D01*
X75499D01*
X75633Y7566D01*
Y7433D01*
X75499Y7300D01*
X75633Y7167D01*
Y7033D01*
X75499Y6900D01*
X75233D01*
X75099Y7033D01*
Y7167D01*
X75233Y7300D01*
X75099Y7433D01*
Y7566D01*
X75233Y7300D02*
X75499D01*
X77334Y4733D02*
X77200Y4600D01*
X77200Y4333D01*
X77334Y4200D01*
X77867Y4200D01*
X78000Y4333D01*
X78000Y4600D01*
X77867Y4733D01*
X77200Y5533D02*
X77200Y5000D01*
X77600Y5000D01*
X77467Y5266D01*
Y5400D01*
X77600Y5533D01*
X77867Y5533D01*
X78000Y5400D01*
X78000Y5133D01*
X77867Y5000D01*
X77200Y5799D02*
X77200Y6333D01*
X77334D01*
X77867Y5799D01*
X78000D01*
X68000Y20303D02*
X67863Y20174D01*
X67855Y19907D01*
X67984Y19770D01*
X68517Y19754D01*
X68654Y19883D01*
X68662Y20150D01*
X68533Y20287D01*
X67891Y21107D02*
X67875Y20574D01*
X68275Y20561D01*
X68149Y20832D01*
X68153Y20965D01*
X68291Y21094D01*
X68557Y21086D01*
X68686Y20949D01*
X68678Y20683D01*
X68541Y20553D01*
X67915Y21906D02*
X68040Y21635D01*
X68299Y21361D01*
X68565Y21353D01*
X68702Y21482D01*
X68711Y21748D01*
X68581Y21886D01*
X68448Y21890D01*
X68311Y21761D01*
X68299Y21361D01*
X63183Y30116D02*
X63050Y30250D01*
X62783D01*
X62650Y30116D01*
Y29583D01*
X62783Y29450D01*
X63050D01*
X63183Y29583D01*
X63983Y30250D02*
X63450D01*
Y29850D01*
X63716Y29983D01*
X63850D01*
X63983Y29850D01*
Y29583D01*
X63850Y29450D01*
X63583D01*
X63450Y29583D01*
X64783Y30250D02*
X64249D01*
Y29850D01*
X64516Y29983D01*
X64649D01*
X64783Y29850D01*
Y29583D01*
X64649Y29450D01*
X64383D01*
X64249Y29583D01*
X52133Y9316D02*
X52000Y9450D01*
X51733D01*
X51600Y9316D01*
Y8783D01*
X51733Y8650D01*
X52000D01*
X52133Y8783D01*
X52933Y9450D02*
X52400D01*
Y9050D01*
X52666Y9183D01*
X52800D01*
X52933Y9050D01*
Y8783D01*
X52800Y8650D01*
X52533D01*
X52400Y8783D01*
X53599Y8650D02*
Y9450D01*
X53199Y9050D01*
X53733D01*
X54883Y9266D02*
X54750Y9400D01*
X54483D01*
X54350Y9266D01*
Y8733D01*
X54483Y8600D01*
X54750D01*
X54883Y8733D01*
X55683Y9400D02*
X55150D01*
Y9000D01*
X55416Y9133D01*
X55550D01*
X55683Y9000D01*
Y8733D01*
X55550Y8600D01*
X55283D01*
X55150Y8733D01*
X55949Y9266D02*
X56083Y9400D01*
X56349D01*
X56483Y9266D01*
Y9133D01*
X56349Y9000D01*
X56216D01*
X56349D01*
X56483Y8867D01*
Y8733D01*
X56349Y8600D01*
X56083D01*
X55949Y8733D01*
X44342Y17043D02*
X44206Y16912D01*
X44202Y16645D01*
X44334Y16510D01*
X44867Y16502D01*
X45002Y16633D01*
X45006Y16900D01*
X44875Y17035D01*
X44220Y17845D02*
X44212Y17312D01*
X44612Y17306D01*
X44483Y17574D01*
X44485Y17707D01*
X44620Y17839D01*
X44887Y17835D01*
X45018Y17699D01*
X45014Y17433D01*
X44879Y17302D01*
X45032Y18632D02*
X45024Y18099D01*
X44499Y18640D01*
X44365Y18642D01*
X44230Y18511D01*
X44226Y18245D01*
X44357Y18109D01*
X47683Y12566D02*
X47550Y12700D01*
X47283D01*
X47150Y12566D01*
Y12033D01*
X47283Y11900D01*
X47550D01*
X47683Y12033D01*
X48483Y12700D02*
X47950D01*
Y12300D01*
X48216Y12433D01*
X48350D01*
X48483Y12300D01*
Y12033D01*
X48350Y11900D01*
X48083D01*
X47950Y12033D01*
X48749Y11900D02*
X49016D01*
X48883D01*
Y12700D01*
X48749Y12566D01*
X52183Y56516D02*
X52050Y56650D01*
X51783D01*
X51650Y56516D01*
Y55983D01*
X51783Y55850D01*
X52050D01*
X52183Y55983D01*
X52983Y56650D02*
X52450D01*
Y56250D01*
X52716Y56383D01*
X52850D01*
X52983Y56250D01*
Y55983D01*
X52850Y55850D01*
X52583D01*
X52450Y55983D01*
X53249Y56516D02*
X53383Y56650D01*
X53649D01*
X53783Y56516D01*
Y55983D01*
X53649Y55850D01*
X53383D01*
X53249Y55983D01*
Y56516D01*
X35384Y28933D02*
X35250Y28800D01*
Y28533D01*
X35384Y28400D01*
X35917D01*
X36050Y28533D01*
Y28800D01*
X35917Y28933D01*
X36050Y29600D02*
X35250D01*
X35650Y29200D01*
Y29733D01*
X35917Y29999D02*
X36050Y30133D01*
Y30399D01*
X35917Y30533D01*
X35384D01*
X35250Y30399D01*
Y30133D01*
X35384Y29999D01*
X35517D01*
X35650Y30133D01*
Y30533D01*
X42642Y32093D02*
X42506Y31962D01*
X42502Y31695D01*
X42634Y31560D01*
X43167Y31552D01*
X43302Y31683D01*
X43306Y31950D01*
X43175Y32085D01*
X43318Y32749D02*
X42518Y32761D01*
X42912Y32356D01*
X42920Y32889D01*
X42657Y33159D02*
X42526Y33295D01*
X42530Y33561D01*
X42665Y33692D01*
X42799Y33690D01*
X42930Y33555D01*
X43065Y33686D01*
X43199Y33684D01*
X43330Y33549D01*
X43326Y33283D01*
X43191Y33151D01*
X43057Y33153D01*
X42926Y33289D01*
X42791Y33157D01*
X42657Y33159D01*
X42926Y33289D02*
X42930Y33555D01*
X52133Y53316D02*
X52000Y53450D01*
X51733D01*
X51600Y53316D01*
Y52783D01*
X51733Y52650D01*
X52000D01*
X52133Y52783D01*
X52800Y52650D02*
Y53450D01*
X52400Y53050D01*
X52933D01*
X53199Y53450D02*
X53733D01*
Y53316D01*
X53199Y52783D01*
Y52650D01*
X80828Y7626D02*
X80696Y7492D01*
X80699Y7225D01*
X80834Y7093D01*
X81367Y7099D01*
X81499Y7233D01*
X81496Y7500D01*
X81361Y7632D01*
X81488Y8300D02*
X80688Y8291D01*
X81092Y7896D01*
X81087Y8429D01*
X80679Y9224D02*
X80815Y8959D01*
X81084Y8695D01*
X81351Y8698D01*
X81482Y8833D01*
X81480Y9099D01*
X81345Y9231D01*
X81212Y9230D01*
X81080Y9095D01*
X81084Y8695D01*
X77741Y7793D02*
X77606Y7661D01*
X77602Y7395D01*
X77734Y7259D01*
X78267Y7252D01*
X78402Y7383D01*
X78406Y7650D01*
X78274Y7785D01*
X78417Y8449D02*
X77617Y8461D01*
X78012Y8055D01*
X78019Y8588D01*
X77631Y9394D02*
X77623Y8861D01*
X78023Y8855D01*
X77893Y9123D01*
X77895Y9257D01*
X78030Y9388D01*
X78297Y9384D01*
X78428Y9249D01*
X78425Y8983D01*
X78289Y8851D01*
X82335Y7835D02*
X82201Y7702D01*
X82201Y7436D01*
X82334Y7302D01*
X82867Y7300D01*
X83000Y7433D01*
X83001Y7700D01*
X82868Y7834D01*
X83004Y8500D02*
X82204Y8502D01*
X82603Y8101D01*
X82604Y8634D01*
X83005Y8899D02*
X83006Y9166D01*
X83005Y9033D01*
X82206Y9035D01*
X82339Y8902D01*
X83999Y7702D02*
X83862Y7572D01*
X83854Y7306D01*
X83984Y7169D01*
X84517Y7154D01*
X84654Y7283D01*
X84661Y7550D01*
X84532Y7687D01*
X84684Y8349D02*
X83885Y8372D01*
X84273Y7961D01*
X84288Y8494D01*
X84029Y8768D02*
X83900Y8905D01*
X83907Y9171D01*
X84044Y9301D01*
X84577Y9286D01*
X84707Y9149D01*
X84699Y8882D01*
X84562Y8753D01*
X84029Y8768D01*
X83131Y19068D02*
X82998Y19201D01*
X82731Y19200D01*
X82598Y19066D01*
X82600Y18533D01*
X82733Y18400D01*
X83000Y18401D01*
X83133Y18535D01*
X83400Y18402D02*
X83666Y18403D01*
X83533Y18403D01*
X83531Y19202D01*
X83398Y19069D01*
X84066Y18538D02*
X84199Y18405D01*
X84466Y18405D01*
X84599Y18539D01*
X84597Y19072D01*
X84464Y19205D01*
X84197Y19204D01*
X84064Y19071D01*
X84065Y18937D01*
X84198Y18804D01*
X84598Y18806D01*
X88588Y23663D02*
X88455Y23797D01*
X88189Y23799D01*
X88054Y23666D01*
X88051Y23133D01*
X88183Y22999D01*
X88450Y22997D01*
X88584Y23130D01*
X88850Y22995D02*
X89116Y22993D01*
X88983Y22994D01*
X88988Y23794D01*
X88854Y23661D01*
X89521Y23790D02*
X90055Y23786D01*
X90054Y23653D01*
X89517Y23124D01*
X89516Y22990D01*
X87033Y17866D02*
X86900Y18000D01*
X86633D01*
X86500Y17866D01*
Y17333D01*
X86633Y17200D01*
X86900D01*
X87033Y17333D01*
X87300Y17866D02*
X87433Y18000D01*
X87700D01*
X87833Y17866D01*
Y17733D01*
X87700Y17600D01*
X87566D01*
X87700D01*
X87833Y17467D01*
Y17333D01*
X87700Y17200D01*
X87433D01*
X87300Y17333D01*
X88633Y18000D02*
X88099D01*
Y17600D01*
X88366Y17733D01*
X88499D01*
X88633Y17600D01*
Y17333D01*
X88499Y17200D01*
X88233D01*
X88099Y17333D01*
X87183Y16416D02*
X87050Y16550D01*
X86783D01*
X86650Y16416D01*
Y15883D01*
X86783Y15750D01*
X87050D01*
X87183Y15883D01*
X87450Y16416D02*
X87583Y16550D01*
X87850D01*
X87983Y16416D01*
Y16283D01*
X87850Y16150D01*
X87716D01*
X87850D01*
X87983Y16017D01*
Y15883D01*
X87850Y15750D01*
X87583D01*
X87450Y15883D01*
X88249Y16416D02*
X88383Y16550D01*
X88649D01*
X88783Y16416D01*
Y15883D01*
X88649Y15750D01*
X88383D01*
X88249Y15883D01*
Y16416D01*
X88535Y26165D02*
X88402Y26299D01*
X88135Y26299D01*
X88002Y26166D01*
X88000Y25633D01*
X88133Y25500D01*
X88400Y25499D01*
X88533Y25632D01*
X89333Y25497D02*
X88800Y25498D01*
X89334Y26030D01*
X89335Y26163D01*
X89202Y26297D01*
X88935Y26297D01*
X88801Y26164D01*
X89999Y25495D02*
X90001Y26295D01*
X89600Y25896D01*
X90134Y25895D01*
X83033Y22216D02*
X82900Y22350D01*
X82633D01*
X82500Y22216D01*
Y21683D01*
X82633Y21550D01*
X82900D01*
X83033Y21683D01*
X83833Y21550D02*
X83300D01*
X83833Y22083D01*
Y22216D01*
X83700Y22350D01*
X83433D01*
X83300Y22216D01*
X84633Y21550D02*
X84099D01*
X84633Y22083D01*
Y22216D01*
X84499Y22350D01*
X84233D01*
X84099Y22216D01*
X71033Y13166D02*
X70900Y13300D01*
X70633D01*
X70500Y13166D01*
Y12633D01*
X70633Y12500D01*
X70900D01*
X71033Y12633D01*
X71300Y13166D02*
X71433Y13300D01*
X71700D01*
X71833Y13166D01*
Y13033D01*
X71700Y12900D01*
X71566D01*
X71700D01*
X71833Y12767D01*
Y12633D01*
X71700Y12500D01*
X71433D01*
X71300Y12633D01*
X72099Y12500D02*
X72366D01*
X72233D01*
Y13300D01*
X72099Y13166D01*
X88555Y22028D02*
X88421Y22161D01*
X88155Y22160D01*
X88022Y22027D01*
X88023Y21494D01*
X88156Y21361D01*
X88423Y21361D01*
X88556Y21495D01*
X88823Y21362D02*
X89089Y21362D01*
X88956Y21362D01*
X88955Y22162D01*
X88822Y22028D01*
X90021Y22164D02*
X89755Y22030D01*
X89489Y21763D01*
X89489Y21496D01*
X89623Y21363D01*
X89889Y21364D01*
X90022Y21497D01*
X90022Y21631D01*
X89888Y21764D01*
X89489Y21763D01*
X68133Y14666D02*
X68000Y14800D01*
X67733D01*
X67600Y14666D01*
Y14133D01*
X67733Y14000D01*
X68000D01*
X68133Y14133D01*
X68933Y14000D02*
X68400D01*
X68933Y14533D01*
Y14666D01*
X68800Y14800D01*
X68533D01*
X68400Y14666D01*
X69733Y14800D02*
X69466Y14666D01*
X69199Y14400D01*
Y14133D01*
X69333Y14000D01*
X69599D01*
X69733Y14133D01*
Y14267D01*
X69599Y14400D01*
X69199D01*
X70933Y14616D02*
X70800Y14750D01*
X70533D01*
X70400Y14616D01*
Y14083D01*
X70533Y13950D01*
X70800D01*
X70933Y14083D01*
X71733Y13950D02*
X71200D01*
X71733Y14483D01*
Y14616D01*
X71600Y14750D01*
X71333D01*
X71200Y14616D01*
X71999Y14750D02*
X72533D01*
Y14616D01*
X71999Y14083D01*
Y13950D01*
X82283Y15366D02*
X82150Y15500D01*
X81883D01*
X81750Y15366D01*
Y14833D01*
X81883Y14700D01*
X82150D01*
X82283Y14833D01*
X83083Y14700D02*
X82550D01*
X83083Y15233D01*
Y15366D01*
X82950Y15500D01*
X82683D01*
X82550Y15366D01*
X83883Y15500D02*
X83349D01*
Y15100D01*
X83616Y15233D01*
X83749D01*
X83883Y15100D01*
Y14833D01*
X83749Y14700D01*
X83483D01*
X83349Y14833D01*
X83986Y10536D02*
X83852Y10403D01*
X83851Y10136D01*
X83984Y10002D01*
X84517Y10000D01*
X84650Y10133D01*
X84651Y10400D01*
X84519Y10534D01*
X83987Y10802D02*
X83854Y10936D01*
X83855Y11203D01*
X83989Y11335D01*
X84122Y11335D01*
X84255Y11201D01*
X84254Y11068D01*
X84255Y11201D01*
X84388Y11334D01*
X84522Y11333D01*
X84655Y11200D01*
X84654Y10933D01*
X84520Y10800D01*
X83856Y11602D02*
X83858Y12136D01*
X83992Y12135D01*
X84523Y11600D01*
X84656Y11599D01*
X88536Y20464D02*
X88404Y20598D01*
X88137Y20599D01*
X88003Y20466D01*
X88001Y19933D01*
X88133Y19799D01*
X88400Y19798D01*
X88534Y19931D01*
X89200Y19794D02*
X89204Y20594D01*
X88802Y20196D01*
X89335Y20193D01*
X89999Y19790D02*
X90003Y20590D01*
X89601Y20192D01*
X90135Y20189D01*
X76184Y10683D02*
X76050Y10550D01*
Y10283D01*
X76184Y10150D01*
X76717D01*
X76850Y10283D01*
Y10550D01*
X76717Y10683D01*
X76850Y11483D02*
Y10950D01*
X76317Y11483D01*
X76184D01*
X76050Y11350D01*
Y11083D01*
X76184Y10950D01*
X76850Y11749D02*
Y12016D01*
Y11883D01*
X76050D01*
X76184Y11749D01*
X70933Y11666D02*
X70800Y11800D01*
X70533D01*
X70400Y11666D01*
Y11133D01*
X70533Y11000D01*
X70800D01*
X70933Y11133D01*
X71733Y11000D02*
X71200D01*
X71733Y11533D01*
Y11666D01*
X71600Y11800D01*
X71333D01*
X71200Y11666D01*
X71999D02*
X72133Y11800D01*
X72399D01*
X72533Y11666D01*
Y11133D01*
X72399Y11000D01*
X72133D01*
X71999Y11133D01*
Y11666D01*
X82941Y23710D02*
X82810Y23845D01*
X82543Y23848D01*
X82408Y23716D01*
X82402Y23183D01*
X82533Y23048D01*
X82800Y23045D01*
X82935Y23177D01*
X83733Y23034D02*
X83200Y23040D01*
X83739Y23567D01*
X83741Y23700D01*
X83609Y23835D01*
X83343Y23838D01*
X83208Y23707D01*
X84008Y23697D02*
X84143Y23828D01*
X84409Y23825D01*
X84541Y23690D01*
X84539Y23557D01*
X84404Y23425D01*
X84271Y23427D01*
X84404Y23425D01*
X84536Y23290D01*
X84534Y23157D01*
X84399Y23025D01*
X84133Y23029D01*
X84001Y23164D01*
X78884Y23133D02*
X78750Y23000D01*
Y22733D01*
X78884Y22600D01*
X79417D01*
X79550Y22733D01*
Y23000D01*
X79417Y23133D01*
X78884Y23400D02*
X78750Y23533D01*
Y23800D01*
X78884Y23933D01*
X79017D01*
X79150Y23800D01*
Y23666D01*
Y23800D01*
X79283Y23933D01*
X79417D01*
X79550Y23800D01*
Y23533D01*
X79417Y23400D01*
X79550Y24733D02*
Y24199D01*
X79017Y24733D01*
X78884D01*
X78750Y24599D01*
Y24333D01*
X78884Y24199D01*
X82385Y10435D02*
X82251Y10302D01*
X82251Y10035D01*
X82384Y9902D01*
X82917Y9900D01*
X83050Y10033D01*
X83051Y10300D01*
X82918Y10433D01*
X82385Y10701D02*
X82252Y10835D01*
X82253Y11101D01*
X82387Y11234D01*
X82520Y11234D01*
X82653Y11101D01*
X82653Y10967D01*
X82653Y11101D01*
X82786Y11234D01*
X82920Y11233D01*
X83053Y11100D01*
X83052Y10833D01*
X82919Y10700D01*
X82255Y12034D02*
X82388Y11768D01*
X82654Y11500D01*
X82920Y11500D01*
X83054Y11633D01*
X83055Y11899D01*
X82922Y12033D01*
X82788Y12033D01*
X82655Y11900D01*
X82654Y11500D01*
X70783Y17716D02*
X70650Y17850D01*
X70383D01*
X70250Y17716D01*
Y17183D01*
X70383Y17050D01*
X70650D01*
X70783Y17183D01*
X71050Y17716D02*
X71183Y17850D01*
X71450D01*
X71583Y17716D01*
Y17583D01*
X71450Y17450D01*
X71316D01*
X71450D01*
X71583Y17317D01*
Y17183D01*
X71450Y17050D01*
X71183D01*
X71050Y17183D01*
X71849D02*
X71983Y17050D01*
X72249D01*
X72383Y17183D01*
Y17716D01*
X72249Y17850D01*
X71983D01*
X71849Y17716D01*
Y17583D01*
X71983Y17450D01*
X72383D01*
X79292Y10493D02*
X79156Y10362D01*
X79152Y10095D01*
X79284Y9960D01*
X79817Y9952D01*
X79952Y10083D01*
X79956Y10350D01*
X79825Y10485D01*
X79295Y10760D02*
X79164Y10895D01*
X79168Y11161D01*
X79303Y11293D01*
X79437Y11291D01*
X79568Y11155D01*
X79566Y11022D01*
X79568Y11155D01*
X79703Y11287D01*
X79836Y11285D01*
X79968Y11149D01*
X79964Y10883D01*
X79829Y10752D01*
X79980Y11949D02*
X79180Y11961D01*
X79574Y11555D01*
X79582Y12088D01*
X77692Y10543D02*
X77556Y10412D01*
X77552Y10145D01*
X77684Y10010D01*
X78217Y10002D01*
X78352Y10133D01*
X78356Y10400D01*
X78225Y10535D01*
X77696Y10810D02*
X77565Y10945D01*
X77569Y11212D01*
X77704Y11343D01*
X77837Y11341D01*
X77968Y11206D01*
X77966Y11072D01*
X77968Y11206D01*
X78104Y11337D01*
X78237Y11335D01*
X78368Y11199D01*
X78364Y10933D01*
X78229Y10802D01*
X77708Y11609D02*
X77577Y11745D01*
X77581Y12011D01*
X77716Y12143D01*
X77849Y12141D01*
X77981Y12005D01*
X77979Y11872D01*
X77981Y12005D01*
X78116Y12136D01*
X78249Y12134D01*
X78380Y11999D01*
X78376Y11733D01*
X78241Y11601D01*
X80851Y10455D02*
X80714Y10326D01*
X80705Y10060D01*
X80834Y9922D01*
X81367Y9904D01*
X81504Y10033D01*
X81513Y10300D01*
X81384Y10437D01*
X80860Y10721D02*
X80731Y10859D01*
X80740Y11125D01*
X80878Y11254D01*
X81011Y11250D01*
X81140Y11112D01*
X81135Y10979D01*
X81140Y11112D01*
X81277Y11241D01*
X81411Y11237D01*
X81539Y11099D01*
X81531Y10833D01*
X81393Y10704D01*
X80886Y11521D02*
X80758Y11658D01*
X80766Y11925D01*
X80904Y12053D01*
X81037Y12049D01*
X81166Y11911D01*
X81304Y12040D01*
X81437Y12036D01*
X81566Y11898D01*
X81557Y11632D01*
X81419Y11503D01*
X81286Y11507D01*
X81157Y11645D01*
X81020Y11516D01*
X80886Y11521D01*
X81157Y11645D02*
X81166Y11911D01*
X60883Y41966D02*
X60750Y42100D01*
X60483D01*
X60350Y41966D01*
Y41433D01*
X60483Y41300D01*
X60750D01*
X60883Y41433D01*
X61150Y41300D02*
X61416D01*
X61283D01*
Y42100D01*
X61150Y41966D01*
X61816D02*
X61949Y42100D01*
X62216D01*
X62349Y41966D01*
Y41833D01*
X62216Y41700D01*
X62083D01*
X62216D01*
X62349Y41567D01*
Y41433D01*
X62216Y41300D01*
X61949D01*
X61816Y41433D01*
X60783Y43566D02*
X60650Y43700D01*
X60383D01*
X60250Y43566D01*
Y43033D01*
X60383Y42900D01*
X60650D01*
X60783Y43033D01*
X61050Y42900D02*
X61316D01*
X61183D01*
Y43700D01*
X61050Y43566D01*
X62249Y42900D02*
X61716D01*
X62249Y43433D01*
Y43566D01*
X62116Y43700D01*
X61849D01*
X61716Y43566D01*
X74833Y61216D02*
X74700Y61350D01*
X74433D01*
X74300Y61216D01*
Y60683D01*
X74433Y60550D01*
X74700D01*
X74833Y60683D01*
X75100Y60550D02*
X75366D01*
X75233D01*
Y61350D01*
X75100Y61216D01*
X75766Y60550D02*
X76033D01*
X75899D01*
Y61350D01*
X75766Y61216D01*
X65442Y58343D02*
X65306Y58212D01*
X65302Y57945D01*
X65434Y57810D01*
X65967Y57802D01*
X66102Y57933D01*
X66106Y58200D01*
X65975Y58335D01*
X66112Y58600D02*
X66116Y58866D01*
X66114Y58733D01*
X65314Y58745D01*
X65446Y58610D01*
X65456Y59276D02*
X65325Y59411D01*
X65329Y59678D01*
X65464Y59809D01*
X65997Y59801D01*
X66128Y59666D01*
X66124Y59399D01*
X65989Y59268D01*
X65456Y59276D01*
X70033Y55966D02*
X69900Y56100D01*
X69633D01*
X69500Y55966D01*
Y55433D01*
X69633Y55300D01*
X69900D01*
X70033Y55433D01*
X70300D02*
X70433Y55300D01*
X70700D01*
X70833Y55433D01*
Y55966D01*
X70700Y56100D01*
X70433D01*
X70300Y55966D01*
Y55833D01*
X70433Y55700D01*
X70833D01*
X78733Y47616D02*
X78600Y47750D01*
X78333D01*
X78200Y47616D01*
Y47083D01*
X78333Y46950D01*
X78600D01*
X78733Y47083D01*
X79000Y47616D02*
X79133Y47750D01*
X79400D01*
X79533Y47616D01*
Y47483D01*
X79400Y47350D01*
X79533Y47217D01*
Y47083D01*
X79400Y46950D01*
X79133D01*
X79000Y47083D01*
Y47217D01*
X79133Y47350D01*
X79000Y47483D01*
Y47616D01*
X79133Y47350D02*
X79400D01*
X68333Y57066D02*
X68200Y57200D01*
X67933D01*
X67800Y57066D01*
Y56533D01*
X67933Y56400D01*
X68200D01*
X68333Y56533D01*
X68600Y57200D02*
X69133D01*
Y57066D01*
X68600Y56533D01*
Y56400D01*
X66183Y46766D02*
X66050Y46900D01*
X65783D01*
X65650Y46766D01*
Y46233D01*
X65783Y46100D01*
X66050D01*
X66183Y46233D01*
X66983Y46900D02*
X66716Y46766D01*
X66450Y46500D01*
Y46233D01*
X66583Y46100D01*
X66850D01*
X66983Y46233D01*
Y46367D01*
X66850Y46500D01*
X66450D01*
X79733Y54566D02*
X79600Y54700D01*
X79333D01*
X79200Y54566D01*
Y54033D01*
X79333Y53900D01*
X79600D01*
X79733Y54033D01*
X80533Y54700D02*
X80000D01*
Y54300D01*
X80266Y54433D01*
X80400D01*
X80533Y54300D01*
Y54033D01*
X80400Y53900D01*
X80133D01*
X80000Y54033D01*
X77683Y54616D02*
X77550Y54750D01*
X77283D01*
X77150Y54616D01*
Y54083D01*
X77283Y53950D01*
X77550D01*
X77683Y54083D01*
X78350Y53950D02*
Y54750D01*
X77950Y54350D01*
X78483D01*
X61483Y44916D02*
X61350Y45050D01*
X61083D01*
X60950Y44916D01*
Y44383D01*
X61083Y44250D01*
X61350D01*
X61483Y44383D01*
X61750Y44916D02*
X61883Y45050D01*
X62150D01*
X62283Y44916D01*
Y44783D01*
X62150Y44650D01*
X62016D01*
X62150D01*
X62283Y44517D01*
Y44383D01*
X62150Y44250D01*
X61883D01*
X61750Y44383D01*
X66283Y52116D02*
X66150Y52250D01*
X65883D01*
X65750Y52116D01*
Y51583D01*
X65883Y51450D01*
X66150D01*
X66283Y51583D01*
X67083Y51450D02*
X66550D01*
X67083Y51983D01*
Y52116D01*
X66950Y52250D01*
X66683D01*
X66550Y52116D01*
X72075Y38823D02*
X71944Y38687D01*
X71948Y38421D01*
X72084Y38290D01*
X72617Y38298D01*
X72748Y38433D01*
X72744Y38700D01*
X72608Y38831D01*
X72738Y39100D02*
X72733Y39366D01*
X72736Y39233D01*
X71936Y39221D01*
X72071Y39089D01*
X94700Y23700D02*
Y24233D01*
X94967Y24500D01*
X95233Y24233D01*
Y23700D01*
Y24100D01*
X94700D01*
X96033Y23700D02*
X95500D01*
X96033Y24233D01*
Y24366D01*
X95900Y24500D01*
X95633D01*
X95500Y24366D01*
D15*
X68850Y44850D02*
G03*
X68850Y44850I-100J0D01*
G01*
D16*
X74710Y20290D02*
Y20700D01*
X75120D01*
X80710Y20290D02*
Y20700D01*
X80300D02*
X80710D01*
Y14700D02*
Y15110D01*
X80300Y14700D02*
X80710D01*
X74710D02*
Y15110D01*
Y14700D02*
X75120D01*
X76030Y45770D02*
Y46250D01*
X75550Y45770D02*
X76030D01*
X75550Y53930D02*
X76030D01*
Y53450D02*
Y53930D01*
X67870D02*
X68350D01*
X67870Y53450D02*
Y53930D01*
Y45770D02*
X68350D01*
X67870D02*
Y46250D01*
D17*
X56725Y61318D02*
Y62182D01*
X63075Y61318D02*
Y62182D01*
X62440Y65636D02*
X63075Y66906D01*
X61805D02*
X63075D01*
X61805D02*
X62440Y65636D01*
D18*
X72596Y28120D02*
D03*
X74308Y28121D02*
D03*
X69492Y61193D02*
D03*
D19*
X71837Y28407D02*
D03*
X73550Y28408D02*
D03*
X70250Y60906D02*
D03*
D20*
X71069Y28153D02*
D03*
X72782Y28154D02*
D03*
X71018Y61160D02*
D03*
M02*
