G04*
G04 #@! TF.GenerationSoftware,Altium Limited,Altium Designer,19.1.6 (110)*
G04*
G04 Layer_Color=32896*
%FSLAX43Y43*%
%MOMM*%
G71*
G01*
G75*
G36*
X96172Y58822D02*
Y58619D01*
Y58416D01*
Y58212D01*
Y58009D01*
Y57806D01*
Y57603D01*
Y57400D01*
Y57196D01*
Y56993D01*
Y56790D01*
Y56587D01*
Y56384D01*
Y56180D01*
Y55977D01*
Y55774D01*
Y55571D01*
Y55368D01*
Y55164D01*
Y54961D01*
Y54758D01*
Y54555D01*
Y54352D01*
Y54148D01*
Y53945D01*
Y53742D01*
Y53539D01*
Y53336D01*
Y53132D01*
X96376D01*
Y52929D01*
X87232D01*
Y53132D01*
Y53336D01*
Y53539D01*
Y53742D01*
Y53945D01*
Y54148D01*
Y54352D01*
Y54555D01*
Y54758D01*
Y54961D01*
Y55164D01*
Y55368D01*
Y55571D01*
Y55774D01*
X87638D01*
Y55571D01*
Y55368D01*
X87841D01*
Y55164D01*
X87638D01*
Y54961D01*
Y54758D01*
Y54555D01*
X87841D01*
Y54352D01*
X87638D01*
Y54148D01*
Y53945D01*
Y53742D01*
Y53539D01*
Y53336D01*
Y53132D01*
X88248D01*
Y53336D01*
X88654D01*
Y53132D01*
X89060D01*
Y53336D01*
X90076D01*
Y53132D01*
X90889D01*
Y53336D01*
X91499D01*
Y53539D01*
Y53742D01*
X90889D01*
Y53539D01*
X90686D01*
Y53742D01*
X90483D01*
Y53945D01*
Y54148D01*
X91296D01*
Y54352D01*
Y54555D01*
Y54758D01*
X91092D01*
Y54555D01*
X90686D01*
Y54758D01*
X90483D01*
Y54961D01*
X91092D01*
Y55164D01*
X91296D01*
Y55368D01*
Y55571D01*
X90889D01*
Y55368D01*
X90483D01*
Y55571D01*
Y55774D01*
X91702D01*
Y55977D01*
X91905D01*
Y56180D01*
Y56384D01*
Y56587D01*
Y56790D01*
Y56993D01*
Y57196D01*
Y57400D01*
Y57603D01*
Y57806D01*
Y58009D01*
Y58212D01*
Y58416D01*
Y58619D01*
Y58822D01*
Y59025D01*
X92718D01*
Y58822D01*
Y58619D01*
Y58416D01*
X92515D01*
Y58619D01*
Y58822D01*
X92108D01*
Y58619D01*
Y58416D01*
X92312D01*
Y58212D01*
Y58009D01*
X92108D01*
Y57806D01*
Y57603D01*
X92515D01*
Y57400D01*
X92312D01*
Y57196D01*
Y56993D01*
X92108D01*
Y56790D01*
Y56587D01*
X92312D01*
Y56384D01*
Y56180D01*
Y55977D01*
X92515D01*
Y56180D01*
X92718D01*
Y56384D01*
X93124D01*
Y56180D01*
X93531D01*
Y56384D01*
X94750D01*
Y56180D01*
X95360D01*
Y56384D01*
X95969D01*
Y56587D01*
Y56790D01*
X95156D01*
Y56993D01*
Y57196D01*
X95766D01*
Y57400D01*
Y57603D01*
X95156D01*
Y57806D01*
Y58009D01*
X95563D01*
Y58212D01*
X95969D01*
Y58416D01*
Y58619D01*
X95563D01*
Y58416D01*
X95156D01*
Y58619D01*
Y58822D01*
X94547D01*
Y58619D01*
X94140D01*
Y58822D01*
X93937D01*
Y58619D01*
X92921D01*
Y58822D01*
Y59025D01*
X96172D01*
Y58822D01*
D02*
G37*
G36*
X94547Y58009D02*
Y57806D01*
Y57603D01*
X94140D01*
Y57806D01*
X93124D01*
Y58009D01*
X92718D01*
Y58212D01*
X93124D01*
Y58009D01*
X93531D01*
Y58212D01*
X94547D01*
Y58009D01*
D02*
G37*
G36*
X68334Y58619D02*
X68537D01*
Y58416D01*
Y58212D01*
X68334D01*
Y58009D01*
X68131D01*
Y58212D01*
X67928D01*
Y58416D01*
Y58619D01*
X68131D01*
Y58822D01*
X68334D01*
Y58619D01*
D02*
G37*
G36*
X92718Y57806D02*
Y57603D01*
X92515D01*
Y57806D01*
Y58009D01*
X92718D01*
Y57806D01*
D02*
G37*
G36*
X91499Y57603D02*
Y57400D01*
Y57196D01*
X91296D01*
Y57400D01*
Y57603D01*
Y57806D01*
X91499D01*
Y57603D01*
D02*
G37*
G36*
X87638D02*
Y57400D01*
Y57196D01*
X87435D01*
Y57400D01*
Y57603D01*
Y57806D01*
X87638D01*
Y57603D01*
D02*
G37*
G36*
X82152Y57196D02*
Y56993D01*
Y56790D01*
Y56587D01*
Y56384D01*
Y56180D01*
Y55977D01*
Y55774D01*
Y55571D01*
Y55368D01*
Y55164D01*
Y54961D01*
Y54758D01*
Y54555D01*
X81542D01*
Y54758D01*
Y54961D01*
Y55164D01*
Y55368D01*
Y55571D01*
Y55774D01*
Y55977D01*
Y56180D01*
Y56384D01*
Y56587D01*
Y56790D01*
Y56993D01*
X81136D01*
Y57196D01*
X80526D01*
Y56993D01*
X80323D01*
Y56790D01*
Y56587D01*
X80120D01*
Y56384D01*
Y56180D01*
Y55977D01*
Y55774D01*
Y55571D01*
Y55368D01*
Y55164D01*
Y54961D01*
Y54758D01*
Y54555D01*
X79713D01*
Y54758D01*
Y54961D01*
Y55164D01*
Y55368D01*
Y55571D01*
Y55774D01*
Y55977D01*
Y56180D01*
Y56384D01*
Y56587D01*
Y56790D01*
Y56993D01*
Y57196D01*
X79916D01*
Y57400D01*
X81136D01*
Y57196D01*
X81542D01*
Y57400D01*
X82152D01*
Y57196D01*
D02*
G37*
G36*
X69756D02*
Y56993D01*
X69147D01*
Y57196D01*
X68944D01*
Y57400D01*
X69756D01*
Y57196D01*
D02*
G37*
G36*
X66912D02*
X67115D01*
Y56993D01*
X66708D01*
Y57196D01*
X65692D01*
Y56993D01*
X65489D01*
Y56790D01*
Y56587D01*
X65896D01*
Y56384D01*
X65489D01*
Y56180D01*
Y55977D01*
Y55774D01*
Y55571D01*
X65692D01*
Y55368D01*
Y55164D01*
X65489D01*
Y54961D01*
Y54758D01*
Y54555D01*
X65083D01*
Y54758D01*
Y54961D01*
Y55164D01*
Y55368D01*
Y55571D01*
Y55774D01*
Y55977D01*
Y56180D01*
Y56384D01*
Y56587D01*
Y56790D01*
Y56993D01*
Y57196D01*
X65286D01*
Y57400D01*
X66912D01*
Y57196D01*
D02*
G37*
G36*
X94750Y56993D02*
X94547D01*
Y56790D01*
X92921D01*
Y56993D01*
X93734D01*
Y57196D01*
X94750D01*
Y56993D01*
D02*
G37*
G36*
X89873Y57806D02*
Y57603D01*
X89467D01*
Y57400D01*
Y57196D01*
X89670D01*
Y56993D01*
X89467D01*
Y56790D01*
X89060D01*
Y56993D01*
X89264D01*
Y57196D01*
X89060D01*
Y57400D01*
X89264D01*
Y57603D01*
Y57806D01*
Y58009D01*
X89873D01*
Y57806D01*
D02*
G37*
G36*
X92718Y56790D02*
Y56587D01*
X92515D01*
Y56790D01*
Y56993D01*
X92718D01*
Y56790D01*
D02*
G37*
G36*
X87841Y56384D02*
X87638D01*
Y56587D01*
X87841D01*
Y56384D01*
D02*
G37*
G36*
X87638Y56180D02*
X87435D01*
Y56384D01*
X87638D01*
Y56180D01*
D02*
G37*
G36*
X87841Y55774D02*
X89467D01*
Y55571D01*
X88248D01*
Y55368D01*
X87841D01*
Y55571D01*
Y55774D01*
X87638D01*
Y55977D01*
X87841D01*
Y55774D01*
D02*
G37*
G36*
X88654Y54961D02*
Y54758D01*
X88451D01*
Y54961D01*
X88248D01*
Y55164D01*
X88654D01*
Y54961D01*
D02*
G37*
G36*
X76259Y54758D02*
X76056D01*
Y54961D01*
X76259D01*
Y54758D01*
D02*
G37*
G36*
X73211Y57196D02*
X73414D01*
Y56993D01*
X73617D01*
Y56790D01*
Y56587D01*
X73820D01*
Y56384D01*
Y56180D01*
Y55977D01*
Y55774D01*
Y55571D01*
X73617D01*
Y55368D01*
Y55164D01*
X73414D01*
Y54961D01*
X73211D01*
Y54758D01*
X72804D01*
Y54555D01*
X71788D01*
Y54758D01*
X71382D01*
Y54961D01*
X71992D01*
Y54758D01*
X72601D01*
Y54961D01*
X73008D01*
Y55164D01*
Y55368D01*
X73211D01*
Y55571D01*
Y55774D01*
Y55977D01*
X73008D01*
Y56180D01*
X73211D01*
Y56384D01*
Y56587D01*
Y56790D01*
Y56993D01*
X73008D01*
Y57196D01*
X71992D01*
Y56993D01*
X71788D01*
Y56790D01*
Y56587D01*
Y56384D01*
Y56180D01*
X71382D01*
Y56384D01*
Y56587D01*
Y56790D01*
Y56993D01*
X71585D01*
Y57196D01*
X71788D01*
Y57400D01*
X73211D01*
Y57196D01*
D02*
G37*
G36*
X57361D02*
X57768D01*
Y56993D01*
X57971D01*
Y56790D01*
Y56587D01*
X58174D01*
Y56384D01*
X57971D01*
Y56180D01*
Y55977D01*
Y55774D01*
X58174D01*
Y55571D01*
X57971D01*
Y55368D01*
Y55164D01*
X57768D01*
Y54961D01*
X57564D01*
Y54758D01*
X57158D01*
Y54961D01*
X57361D01*
Y55164D01*
Y55368D01*
X57564D01*
Y55571D01*
Y55774D01*
Y55977D01*
Y56180D01*
Y56384D01*
Y56587D01*
X57361D01*
Y56790D01*
Y56993D01*
X57158D01*
Y57196D01*
X56142D01*
Y56993D01*
X55939D01*
Y56790D01*
Y56587D01*
Y56384D01*
Y56180D01*
Y55977D01*
Y55774D01*
Y55571D01*
Y55368D01*
Y55164D01*
X56142D01*
Y54961D01*
X56345D01*
Y54758D01*
X57158D01*
Y54555D01*
X56142D01*
Y54758D01*
X55939D01*
Y54961D01*
X55736D01*
Y55164D01*
X55532D01*
Y55368D01*
X55329D01*
Y55571D01*
Y55774D01*
Y55977D01*
Y56180D01*
Y56384D01*
Y56587D01*
Y56790D01*
X55532D01*
Y56993D01*
X55736D01*
Y57196D01*
X55939D01*
Y57400D01*
X57361D01*
Y57196D01*
D02*
G37*
G36*
X89670Y54961D02*
X90076D01*
Y54758D01*
Y54555D01*
X89670D01*
Y54758D01*
X89060D01*
Y54961D01*
Y55164D01*
X89670D01*
Y54961D01*
D02*
G37*
G36*
X88248Y54555D02*
X87841D01*
Y54758D01*
X88248D01*
Y54555D01*
D02*
G37*
G36*
X83371Y58416D02*
Y58212D01*
Y58009D01*
Y57806D01*
Y57603D01*
Y57400D01*
Y57196D01*
Y56993D01*
Y56790D01*
Y56587D01*
Y56384D01*
Y56180D01*
Y55977D01*
Y55774D01*
Y55571D01*
Y55368D01*
Y55164D01*
Y54961D01*
Y54758D01*
Y54555D01*
X82761D01*
Y54758D01*
Y54961D01*
Y55164D01*
Y55368D01*
Y55571D01*
Y55774D01*
Y55977D01*
Y56180D01*
Y56384D01*
Y56587D01*
Y56790D01*
Y56993D01*
Y57196D01*
Y57400D01*
Y57603D01*
Y57806D01*
Y58009D01*
Y58212D01*
Y58416D01*
Y58619D01*
X83371D01*
Y58416D01*
D02*
G37*
G36*
X79307Y57196D02*
X78494D01*
Y56993D01*
Y56790D01*
X78291D01*
Y56587D01*
Y56384D01*
Y56180D01*
Y55977D01*
Y55774D01*
Y55571D01*
Y55368D01*
Y55164D01*
Y54961D01*
Y54758D01*
Y54555D01*
X77884D01*
Y54758D01*
Y54961D01*
Y55164D01*
Y55368D01*
Y55571D01*
Y55774D01*
Y55977D01*
Y56180D01*
Y56384D01*
Y56587D01*
Y56790D01*
Y56993D01*
Y57196D01*
X78088D01*
Y57400D01*
X79307D01*
Y57196D01*
D02*
G37*
G36*
X76056D02*
X75243D01*
Y56993D01*
X75040D01*
Y56790D01*
Y56587D01*
X74836D01*
Y56384D01*
Y56180D01*
Y55977D01*
Y55774D01*
Y55571D01*
X75040D01*
Y55368D01*
Y55164D01*
X75243D01*
Y54961D01*
X75446D01*
Y54758D01*
X75852D01*
Y54555D01*
X75243D01*
Y54758D01*
X74836D01*
Y54961D01*
X74633D01*
Y55164D01*
Y55368D01*
X74430D01*
Y55571D01*
Y55774D01*
Y55977D01*
Y56180D01*
Y56384D01*
Y56587D01*
Y56790D01*
Y56993D01*
X74633D01*
Y57196D01*
X74836D01*
Y57400D01*
X76056D01*
Y57196D01*
D02*
G37*
G36*
X70772D02*
X70569D01*
Y56993D01*
Y56790D01*
Y56587D01*
Y56384D01*
Y56180D01*
Y55977D01*
Y55774D01*
Y55571D01*
Y55368D01*
Y55164D01*
Y54961D01*
Y54758D01*
Y54555D01*
X70163D01*
Y54758D01*
Y54961D01*
Y55164D01*
Y55368D01*
Y55571D01*
Y55774D01*
Y55977D01*
Y56180D01*
Y56384D01*
Y56587D01*
X69960D01*
Y56790D01*
Y56993D01*
X70163D01*
Y57196D01*
Y57400D01*
X70772D01*
Y57196D01*
D02*
G37*
G36*
X68537D02*
Y56993D01*
Y56790D01*
Y56587D01*
Y56384D01*
Y56180D01*
Y55977D01*
Y55774D01*
Y55571D01*
Y55368D01*
Y55164D01*
Y54961D01*
Y54758D01*
Y54555D01*
X67928D01*
Y54758D01*
Y54961D01*
Y55164D01*
Y55368D01*
Y55571D01*
Y55774D01*
Y55977D01*
Y56180D01*
Y56384D01*
Y56587D01*
Y56790D01*
Y56993D01*
Y57196D01*
Y57400D01*
X68537D01*
Y57196D01*
D02*
G37*
G36*
X66912Y55977D02*
X67115D01*
Y55774D01*
X67318D01*
Y55571D01*
Y55368D01*
Y55164D01*
Y54961D01*
X67115D01*
Y54758D01*
X66912D01*
Y54555D01*
X66302D01*
Y54758D01*
X66505D01*
Y54961D01*
X66708D01*
Y55164D01*
X66912D01*
Y55368D01*
Y55571D01*
Y55774D01*
X66708D01*
Y55977D01*
X66505D01*
Y56180D01*
X66912D01*
Y55977D01*
D02*
G37*
G36*
X64270Y58619D02*
Y58416D01*
Y58212D01*
Y58009D01*
Y57806D01*
Y57603D01*
Y57400D01*
Y57196D01*
Y56993D01*
Y56790D01*
Y56587D01*
Y56384D01*
Y56180D01*
Y55977D01*
Y55774D01*
Y55571D01*
Y55368D01*
Y55164D01*
Y54961D01*
Y54758D01*
Y54555D01*
X63660D01*
Y54758D01*
Y54961D01*
Y55164D01*
Y55368D01*
Y55571D01*
Y55774D01*
Y55977D01*
Y56180D01*
Y56384D01*
Y56587D01*
Y56790D01*
Y56993D01*
Y57196D01*
Y57400D01*
Y57603D01*
Y57806D01*
Y58009D01*
Y58212D01*
Y58416D01*
Y58619D01*
Y58822D01*
X64270D01*
Y58619D01*
D02*
G37*
G36*
X60206Y58416D02*
X60612D01*
Y58212D01*
X61019D01*
Y58009D01*
X61222D01*
Y57806D01*
Y57603D01*
X61425D01*
Y57400D01*
Y57196D01*
Y56993D01*
X61628D01*
Y56790D01*
Y56587D01*
Y56384D01*
X61425D01*
Y56180D01*
Y55977D01*
Y55774D01*
X61222D01*
Y55571D01*
Y55368D01*
X61019D01*
Y55164D01*
X60816D01*
Y54961D01*
X60409D01*
Y54758D01*
X60003D01*
Y54555D01*
X58784D01*
Y54758D01*
X58377D01*
Y54961D01*
X60003D01*
Y55164D01*
X60409D01*
Y55368D01*
X60612D01*
Y55571D01*
Y55774D01*
X60816D01*
Y55977D01*
Y56180D01*
X61019D01*
Y56384D01*
Y56587D01*
Y56790D01*
Y56993D01*
Y57196D01*
X60816D01*
Y57400D01*
Y57603D01*
X60612D01*
Y57806D01*
X60409D01*
Y58009D01*
X60206D01*
Y58212D01*
X59596D01*
Y58416D01*
X58987D01*
Y58212D01*
X58377D01*
Y58416D01*
X58580D01*
Y58619D01*
X60206D01*
Y58416D01*
D02*
G37*
G36*
X54720Y58619D02*
Y58416D01*
Y58212D01*
Y58009D01*
Y57806D01*
Y57603D01*
Y57400D01*
Y57196D01*
Y56993D01*
Y56790D01*
Y56587D01*
Y56384D01*
Y56180D01*
Y55977D01*
Y55774D01*
Y55571D01*
Y55368D01*
Y55164D01*
Y54961D01*
Y54758D01*
Y54555D01*
X54110D01*
Y54758D01*
Y54961D01*
Y55164D01*
Y55368D01*
Y55571D01*
Y55774D01*
Y55977D01*
Y56180D01*
Y56384D01*
Y56587D01*
Y56790D01*
Y56993D01*
Y57196D01*
Y57400D01*
Y57603D01*
Y57806D01*
Y58009D01*
Y58212D01*
Y58416D01*
Y58619D01*
Y58822D01*
X54720D01*
Y58619D01*
D02*
G37*
G36*
X53500D02*
X53297D01*
Y58416D01*
Y58212D01*
Y58009D01*
Y57806D01*
Y57603D01*
Y57400D01*
Y57196D01*
Y56993D01*
Y56790D01*
Y56587D01*
Y56384D01*
Y56180D01*
Y55977D01*
Y55774D01*
Y55571D01*
Y55368D01*
Y55164D01*
Y54961D01*
Y54758D01*
Y54555D01*
X52891D01*
Y54758D01*
Y54961D01*
Y55164D01*
Y55368D01*
Y55571D01*
Y55774D01*
Y55977D01*
Y56180D01*
Y56384D01*
Y56587D01*
Y56790D01*
Y56993D01*
Y57196D01*
Y57400D01*
Y57603D01*
Y57806D01*
Y58009D01*
Y58212D01*
Y58416D01*
Y58619D01*
Y58822D01*
X53500D01*
Y58619D01*
D02*
G37*
G36*
X51672Y57196D02*
X51875D01*
Y56993D01*
X52078D01*
Y56790D01*
X52281D01*
Y56587D01*
Y56384D01*
Y56180D01*
Y55977D01*
Y55774D01*
Y55571D01*
Y55368D01*
X52078D01*
Y55164D01*
X51875D01*
Y54961D01*
Y54758D01*
X51468D01*
Y54555D01*
X50452D01*
Y54758D01*
X51062D01*
Y54961D01*
X51468D01*
Y55164D01*
Y55368D01*
X51672D01*
Y55571D01*
Y55774D01*
Y55977D01*
Y56180D01*
Y56384D01*
Y56587D01*
Y56790D01*
Y56993D01*
X51468D01*
Y57196D01*
X50452D01*
Y56993D01*
X50249D01*
Y56790D01*
Y56587D01*
Y56384D01*
X50452D01*
Y56180D01*
X49843D01*
Y56384D01*
Y56587D01*
Y56790D01*
X50046D01*
Y56993D01*
Y57196D01*
X50249D01*
Y57400D01*
X51672D01*
Y57196D01*
D02*
G37*
G36*
X48624D02*
X48827D01*
Y56993D01*
X49030D01*
Y56790D01*
X49233D01*
Y56587D01*
Y56384D01*
Y56180D01*
Y55977D01*
Y55774D01*
Y55571D01*
Y55368D01*
X49030D01*
Y55164D01*
Y54961D01*
X48827D01*
Y54758D01*
X48420D01*
Y54555D01*
X47811D01*
Y54758D01*
X48217D01*
Y54961D01*
X48420D01*
Y55164D01*
X48624D01*
Y55368D01*
Y55571D01*
Y55774D01*
Y55977D01*
Y56180D01*
Y56384D01*
Y56587D01*
Y56790D01*
Y56993D01*
X48420D01*
Y57196D01*
X47404D01*
Y57400D01*
X48624D01*
Y57196D01*
D02*
G37*
G36*
X45372D02*
X45576D01*
Y56993D01*
X45779D01*
Y56790D01*
Y56587D01*
Y56384D01*
X45982D01*
Y56180D01*
Y55977D01*
Y55774D01*
Y55571D01*
X45779D01*
Y55368D01*
Y55164D01*
X45576D01*
Y54961D01*
X45372D01*
Y54758D01*
X44966D01*
Y54555D01*
X43950D01*
Y54758D01*
X44560D01*
Y54961D01*
X44966D01*
Y55164D01*
X45169D01*
Y55368D01*
X45372D01*
Y55571D01*
Y55774D01*
Y55977D01*
Y56180D01*
Y56384D01*
Y56587D01*
Y56790D01*
Y56993D01*
X45169D01*
Y57196D01*
X44153D01*
Y56993D01*
X43950D01*
Y56790D01*
Y56587D01*
Y56384D01*
Y56180D01*
X43340D01*
Y56384D01*
X43544D01*
Y56587D01*
Y56790D01*
Y56993D01*
X43747D01*
Y57196D01*
X43950D01*
Y57400D01*
X45372D01*
Y57196D01*
D02*
G37*
G36*
X88248Y53945D02*
X88044D01*
Y54148D01*
X88248D01*
Y53945D01*
D02*
G37*
G36*
X88654Y54148D02*
Y53945D01*
X89060D01*
Y54148D01*
X90076D01*
Y53945D01*
X89873D01*
Y53742D01*
X89670D01*
Y53945D01*
X89467D01*
Y53742D01*
X88451D01*
Y53945D01*
Y54148D01*
X88248D01*
Y54352D01*
X88654D01*
Y54148D01*
D02*
G37*
G36*
X88044Y53742D02*
Y53539D01*
X87841D01*
Y53742D01*
Y53945D01*
X88044D01*
Y53742D01*
D02*
G37*
G36*
X77072Y57196D02*
Y56993D01*
Y56790D01*
Y56587D01*
Y56384D01*
Y56180D01*
Y55977D01*
Y55774D01*
Y55571D01*
Y55368D01*
Y55164D01*
Y54961D01*
Y54758D01*
Y54555D01*
Y54352D01*
Y54148D01*
Y53945D01*
Y53742D01*
Y53539D01*
Y53336D01*
Y53132D01*
X76665D01*
Y53336D01*
Y53539D01*
Y53742D01*
Y53945D01*
Y54148D01*
Y54352D01*
Y54555D01*
Y54758D01*
Y54961D01*
X76259D01*
Y55164D01*
X76462D01*
Y55368D01*
Y55571D01*
X76665D01*
Y55774D01*
Y55977D01*
Y56180D01*
Y56384D01*
Y56587D01*
X76462D01*
Y56790D01*
X76259D01*
Y56993D01*
X76665D01*
Y57196D01*
Y57400D01*
X77072D01*
Y57196D01*
D02*
G37*
G36*
X46998D02*
X47404D01*
Y56993D01*
X47201D01*
Y56790D01*
Y56587D01*
X46998D01*
Y56384D01*
Y56180D01*
Y55977D01*
Y55774D01*
Y55571D01*
Y55368D01*
X47201D01*
Y55164D01*
X47404D01*
Y54961D01*
X46998D01*
Y54758D01*
Y54555D01*
Y54352D01*
Y54148D01*
Y53945D01*
X47201D01*
Y53742D01*
X47404D01*
Y53539D01*
X47811D01*
Y53336D01*
X48420D01*
Y53539D01*
X49030D01*
Y53336D01*
X48624D01*
Y53132D01*
X47608D01*
Y53336D01*
X46998D01*
Y53539D01*
X46795D01*
Y53742D01*
Y53945D01*
X46592D01*
Y54148D01*
Y54352D01*
Y54555D01*
Y54758D01*
X46388D01*
Y54961D01*
X46592D01*
Y55164D01*
Y55368D01*
Y55571D01*
Y55774D01*
Y55977D01*
Y56180D01*
Y56384D01*
Y56587D01*
Y56790D01*
Y56993D01*
Y57196D01*
X46388D01*
Y57400D01*
X46998D01*
Y57196D01*
D02*
G37*
G36*
X93937Y51710D02*
Y51507D01*
Y51304D01*
Y51100D01*
Y50897D01*
X93734D01*
Y51100D01*
Y51304D01*
Y51507D01*
Y51710D01*
Y51913D01*
X93937D01*
Y51710D01*
D02*
G37*
G36*
X96985Y51304D02*
X97188D01*
Y51100D01*
Y50897D01*
Y50694D01*
X96782D01*
Y50897D01*
Y51100D01*
X96579D01*
Y51304D01*
X96376D01*
Y51507D01*
X96985D01*
Y51304D01*
D02*
G37*
G36*
X87232D02*
X86825D01*
Y51100D01*
Y50897D01*
X86622D01*
Y50694D01*
X86419D01*
Y50897D01*
X86216D01*
Y51100D01*
Y51304D01*
X86622D01*
Y51507D01*
X87232D01*
Y51304D01*
D02*
G37*
G36*
X89873Y50897D02*
Y50694D01*
Y50491D01*
Y50288D01*
X89670D01*
Y50491D01*
Y50694D01*
Y50897D01*
Y51100D01*
X89873D01*
Y50897D01*
D02*
G37*
G36*
X93734Y50084D02*
Y49881D01*
Y49678D01*
X93531D01*
Y49881D01*
Y50084D01*
Y50288D01*
X93734D01*
Y50084D01*
D02*
G37*
G36*
X94750Y49678D02*
Y49475D01*
X94547D01*
Y49678D01*
Y49881D01*
X94750D01*
Y49678D01*
D02*
G37*
G36*
X92718Y49475D02*
Y49272D01*
X92312D01*
Y49475D01*
X91905D01*
Y49678D01*
X92718D01*
Y49475D01*
D02*
G37*
G36*
X91499D02*
X91296D01*
Y49272D01*
X90889D01*
Y49475D01*
X90686D01*
Y49678D01*
X91499D01*
Y49475D01*
D02*
G37*
G36*
X88044Y48052D02*
Y47849D01*
X88248D01*
Y47646D01*
X87841D01*
Y47849D01*
X87638D01*
Y48052D01*
X87435D01*
Y48256D01*
X88044D01*
Y48052D01*
D02*
G37*
G36*
X95969Y48256D02*
X96172D01*
Y48052D01*
X95766D01*
Y47849D01*
Y47646D01*
X95563D01*
Y47443D01*
X95360D01*
Y47646D01*
X95156D01*
Y47849D01*
X95360D01*
Y48052D01*
X95563D01*
Y48256D01*
X95766D01*
Y48459D01*
X95969D01*
Y48256D01*
D02*
G37*
G36*
X48937Y39624D02*
Y39421D01*
X48734D01*
Y39624D01*
Y39827D01*
X48937D01*
Y39624D01*
D02*
G37*
G36*
X47718D02*
Y39421D01*
X47514D01*
Y39624D01*
Y39827D01*
X47718D01*
Y39624D01*
D02*
G37*
G36*
X46498D02*
Y39421D01*
X46092D01*
Y39624D01*
Y39827D01*
X46498D01*
Y39624D01*
D02*
G37*
G36*
X50766Y37592D02*
Y37389D01*
X50562D01*
Y37592D01*
Y37795D01*
X50766D01*
Y37592D01*
D02*
G37*
G36*
X49546D02*
Y37389D01*
X49343D01*
Y37592D01*
X49140D01*
Y37795D01*
X49546D01*
Y37592D01*
D02*
G37*
G36*
X48124D02*
Y37389D01*
X47921D01*
Y37592D01*
Y37795D01*
X48124D01*
Y37592D01*
D02*
G37*
G36*
X46905D02*
Y37389D01*
X46702D01*
Y37592D01*
Y37795D01*
X46905D01*
Y37592D01*
D02*
G37*
G36*
X45686D02*
Y37389D01*
X45482D01*
Y37592D01*
Y37795D01*
X45686D01*
Y37592D01*
D02*
G37*
G36*
X44466D02*
Y37389D01*
X44060D01*
Y37592D01*
Y37795D01*
X44466D01*
Y37592D01*
D02*
G37*
G36*
X43044D02*
Y37389D01*
X42841D01*
Y37592D01*
Y37795D01*
X43044D01*
Y37592D01*
D02*
G37*
G36*
X41825D02*
Y37389D01*
X41622D01*
Y37592D01*
Y37795D01*
X41825D01*
Y37592D01*
D02*
G37*
G36*
X52798Y35560D02*
Y35357D01*
X52594D01*
Y35560D01*
Y35763D01*
X52798D01*
Y35560D01*
D02*
G37*
G36*
X51578D02*
Y35357D01*
X51375D01*
Y35560D01*
Y35763D01*
X51578D01*
Y35560D01*
D02*
G37*
G36*
X50156D02*
Y35357D01*
X49953D01*
Y35560D01*
Y35763D01*
X50156D01*
Y35560D01*
D02*
G37*
G36*
X46498D02*
Y35357D01*
X46092D01*
Y35560D01*
Y35763D01*
X46498D01*
Y35560D01*
D02*
G37*
G36*
X39996D02*
Y35357D01*
X39793D01*
Y35560D01*
Y35763D01*
X39996D01*
Y35560D01*
D02*
G37*
G36*
X38777D02*
Y35357D01*
X38574D01*
Y35560D01*
Y35763D01*
X38777D01*
Y35560D01*
D02*
G37*
G36*
X37558D02*
Y35357D01*
X37354D01*
Y35560D01*
Y35763D01*
X37558D01*
Y35560D01*
D02*
G37*
G36*
X50562Y36779D02*
Y36576D01*
Y36373D01*
X50766D01*
Y36170D01*
X48937D01*
Y35966D01*
Y35763D01*
Y35560D01*
Y35357D01*
Y35154D01*
X49546D01*
Y34950D01*
X48937D01*
Y34747D01*
Y34544D01*
Y34341D01*
Y34138D01*
Y33934D01*
X49546D01*
Y33731D01*
X48937D01*
Y33528D01*
Y33325D01*
Y33122D01*
Y32918D01*
Y32715D01*
X48327D01*
Y32512D01*
X47921D01*
Y32715D01*
Y32918D01*
X47514D01*
Y33122D01*
X47921D01*
Y33325D01*
Y33528D01*
Y33731D01*
Y33934D01*
Y34138D01*
X47514D01*
Y34341D01*
X47921D01*
Y34544D01*
Y34747D01*
Y34950D01*
Y35154D01*
Y35357D01*
X47514D01*
Y35560D01*
Y35763D01*
X47921D01*
Y35966D01*
Y36170D01*
X46702D01*
Y36373D01*
Y36576D01*
Y36779D01*
X46092D01*
Y36982D01*
X50562D01*
Y36779D01*
D02*
G37*
G36*
X45076D02*
Y36576D01*
Y36373D01*
X45686D01*
Y36170D01*
X45076D01*
Y35966D01*
Y35763D01*
Y35560D01*
Y35357D01*
Y35154D01*
X45686D01*
Y34950D01*
X45076D01*
Y34747D01*
Y34544D01*
Y34341D01*
Y34138D01*
Y33934D01*
X45686D01*
Y33731D01*
X45076D01*
Y33528D01*
Y33325D01*
Y33122D01*
Y32918D01*
Y32715D01*
X44466D01*
Y32512D01*
X44060D01*
Y32715D01*
X44263D01*
Y32918D01*
X43654D01*
Y33122D01*
X44263D01*
Y33325D01*
Y33528D01*
Y33731D01*
Y33934D01*
X43857D01*
Y34138D01*
X43044D01*
Y33934D01*
Y33731D01*
X42841D01*
Y33934D01*
Y34138D01*
X41825D01*
Y33934D01*
Y33731D01*
X41622D01*
Y33934D01*
Y34138D01*
X41012D01*
Y34341D01*
Y34544D01*
Y34747D01*
X41215D01*
Y34950D01*
Y35154D01*
Y35357D01*
X41012D01*
Y35560D01*
Y35763D01*
Y35966D01*
Y36170D01*
X41418D01*
Y36373D01*
Y36576D01*
X42231D01*
Y36779D01*
X42434D01*
Y36982D01*
X45076D01*
Y36779D01*
D02*
G37*
G36*
X56049Y32512D02*
Y32309D01*
X55846D01*
Y32512D01*
Y32715D01*
X56049D01*
Y32512D01*
D02*
G37*
G36*
X54830D02*
Y32309D01*
X54626D01*
Y32512D01*
Y32715D01*
X54830D01*
Y32512D01*
D02*
G37*
G36*
X53610D02*
Y32309D01*
X53001D01*
Y32512D01*
Y32715D01*
X53610D01*
Y32512D01*
D02*
G37*
G36*
X51985D02*
Y32309D01*
X51782D01*
Y32512D01*
Y32715D01*
X51985D01*
Y32512D01*
D02*
G37*
G36*
X50766D02*
Y32309D01*
X50562D01*
Y32512D01*
Y32715D01*
X50766D01*
Y32512D01*
D02*
G37*
G36*
X49546D02*
Y32309D01*
X49140D01*
Y32512D01*
Y32715D01*
X49546D01*
Y32512D01*
D02*
G37*
G36*
X46905D02*
Y32309D01*
X46702D01*
Y32512D01*
Y32715D01*
X46905D01*
Y32512D01*
D02*
G37*
G36*
X45686D02*
Y32309D01*
X45482D01*
Y32512D01*
X45279D01*
Y32715D01*
X45686D01*
Y32512D01*
D02*
G37*
G36*
X43044D02*
Y32309D01*
X42841D01*
Y32512D01*
Y32715D01*
X43044D01*
Y32512D01*
D02*
G37*
G36*
X41825D02*
Y32309D01*
X41622D01*
Y32512D01*
Y32715D01*
X41825D01*
Y32512D01*
D02*
G37*
G36*
X40606D02*
Y32309D01*
X40402D01*
Y32512D01*
Y32715D01*
X40606D01*
Y32512D01*
D02*
G37*
G36*
X39386D02*
Y32309D01*
X38980D01*
Y32512D01*
Y32715D01*
X39386D01*
Y32512D01*
D02*
G37*
G36*
X37964D02*
Y32309D01*
X37761D01*
Y32512D01*
Y32715D01*
X37964D01*
Y32512D01*
D02*
G37*
G36*
X36745D02*
Y32309D01*
X36542D01*
Y32512D01*
Y32715D01*
X36745D01*
Y32512D01*
D02*
G37*
G36*
X35526D02*
Y32309D01*
X35322D01*
Y32512D01*
Y32715D01*
X35526D01*
Y32512D01*
D02*
G37*
G36*
X34103D02*
Y32309D01*
X33900D01*
Y32512D01*
Y32715D01*
X34103D01*
Y32512D01*
D02*
G37*
%LPC*%
G36*
X94547Y55774D02*
X93937D01*
Y55571D01*
X92921D01*
Y55368D01*
X92515D01*
Y55164D01*
Y54961D01*
Y54758D01*
X92718D01*
Y54555D01*
Y54352D01*
X92921D01*
Y54148D01*
Y53945D01*
X93124D01*
Y53742D01*
Y53539D01*
Y53336D01*
X93328D01*
Y53132D01*
X93937D01*
Y53336D01*
X94547D01*
Y53539D01*
X95156D01*
Y53742D01*
X95360D01*
Y53945D01*
Y54148D01*
X95563D01*
Y54352D01*
Y54555D01*
Y54758D01*
Y54961D01*
Y55164D01*
Y55368D01*
Y55571D01*
X94547D01*
Y55774D01*
D02*
G37*
%LPD*%
G36*
X94344Y54961D02*
Y54758D01*
X94953D01*
Y54555D01*
Y54352D01*
X94750D01*
Y54148D01*
X94344D01*
Y53945D01*
X94140D01*
Y53742D01*
X93937D01*
Y53945D01*
X93734D01*
Y54148D01*
X93531D01*
Y54352D01*
X93328D01*
Y54555D01*
Y54758D01*
X93124D01*
Y54961D01*
X92921D01*
Y55164D01*
X93531D01*
Y54961D01*
X93734D01*
Y55164D01*
X94344D01*
Y54961D01*
D02*
G37*
%LPC*%
G36*
X44263Y36170D02*
X42028D01*
Y35966D01*
Y35763D01*
X42638D01*
Y35560D01*
Y35357D01*
X42028D01*
Y35154D01*
Y34950D01*
Y34747D01*
X42231D01*
Y34544D01*
X42841D01*
Y34747D01*
Y34950D01*
Y35154D01*
X43044D01*
Y34950D01*
Y34747D01*
X43247D01*
Y34544D01*
X44060D01*
Y34747D01*
X44263D01*
Y34950D01*
Y35154D01*
Y35357D01*
X43654D01*
Y35560D01*
Y35763D01*
X44263D01*
Y35966D01*
Y36170D01*
D02*
G37*
%LPD*%
M02*
