G04*
G04 #@! TF.GenerationSoftware,Altium Limited,Altium Designer,19.1.6 (110)*
G04*
G04 Layer_Physical_Order=1*
G04 Layer_Color=255*
%FSLAX43Y43*%
%MOMM*%
G71*
G01*
G75*
%ADD10C,0.200*%
%ADD13C,0.203*%
%ADD14C,0.254*%
%ADD15C,0.300*%
%ADD16C,0.127*%
%ADD17C,0.152*%
%ADD21R,1.100X2.200*%
%ADD22R,1.000X1.200*%
%ADD23R,4.000X4.000*%
%ADD24R,0.910X0.220*%
%ADD25R,0.220X0.910*%
%ADD26R,0.900X0.700*%
%ADD27R,0.950X0.850*%
%ADD28R,0.700X0.900*%
%ADD29R,0.900X0.425*%
%ADD30R,0.300X0.800*%
%ADD31R,5.080X2.413*%
%ADD32R,5.080X2.286*%
%ADD33R,0.760X0.720*%
G04:AMPARAMS|DCode=34|XSize=0.55mm|YSize=0.8mm|CornerRadius=0.05mm|HoleSize=0mm|Usage=FLASHONLY|Rotation=270.000|XOffset=0mm|YOffset=0mm|HoleType=Round|Shape=RoundedRectangle|*
%AMROUNDEDRECTD34*
21,1,0.550,0.701,0,0,270.0*
21,1,0.451,0.800,0,0,270.0*
1,1,0.099,-0.351,-0.226*
1,1,0.099,-0.351,0.226*
1,1,0.099,0.351,0.226*
1,1,0.099,0.351,-0.226*
%
%ADD34ROUNDEDRECTD34*%
%ADD35R,0.850X0.950*%
%ADD36R,0.950X0.700*%
%ADD37R,0.400X0.950*%
%ADD38R,1.300X0.350*%
%ADD39R,0.350X2.300*%
%ADD40R,0.750X0.522*%
%ADD41R,0.700X0.950*%
%ADD42R,1.000X1.000*%
%ADD43R,0.300X0.350*%
%ADD44R,0.350X0.300*%
%ADD45R,0.500X0.350*%
%ADD46R,1.600X2.500*%
%ADD47R,0.850X0.450*%
%ADD48R,1.100X1.700*%
%ADD49R,0.600X0.350*%
%ADD50C,0.148*%
%ADD51R,3.500X4.400*%
%ADD52R,0.950X0.450*%
%ADD53R,1.250X1.000*%
%ADD54R,6.400X6.400*%
%ADD55R,0.970X0.220*%
%ADD56R,0.220X0.970*%
%ADD57R,0.300X0.300*%
%ADD58R,0.600X0.500*%
%ADD59R,0.720X0.760*%
%ADD60R,0.850X0.750*%
%ADD61R,1.390X0.990*%
%ADD62R,0.500X0.600*%
%ADD63R,0.762X2.794*%
%ADD64R,0.600X0.300*%
%ADD65R,0.300X0.600*%
%ADD66R,1.220X0.400*%
%ADD67O,1.220X0.400*%
%ADD118C,0.635*%
%ADD119C,0.508*%
%ADD120C,0.600*%
%ADD121C,0.500*%
%ADD122C,0.400*%
%ADD123C,0.305*%
%ADD124C,0.866*%
%ADD125C,0.215*%
%ADD126R,0.950X1.200*%
%ADD127R,0.950X1.200*%
%ADD128R,1.200X0.950*%
%ADD129R,1.200X0.950*%
%ADD130C,1.625*%
%ADD131C,1.200*%
%ADD132R,1.200X1.200*%
%ADD133C,4.000*%
%ADD134C,0.500*%
%ADD135C,0.600*%
G36*
X34742Y67522D02*
X34747Y67523D01*
X34752Y67522D01*
X89300D01*
Y67321D01*
X89261Y67314D01*
X89186Y67264D01*
X89136Y67189D01*
X89119Y67100D01*
Y54300D01*
X89136Y54211D01*
X89186Y54136D01*
X89261Y54086D01*
X89300Y54079D01*
Y52693D01*
X88767D01*
X88559Y52652D01*
X88383Y52534D01*
X88326Y52450D01*
X88050D01*
Y52390D01*
X87923Y52351D01*
X87834Y52484D01*
X87658Y52602D01*
X87450Y52643D01*
X86350D01*
X86264Y52626D01*
X84783D01*
X84575Y52585D01*
X84399Y52467D01*
X84281Y52291D01*
X84274Y52254D01*
X84177D01*
Y51850D01*
X83923D01*
Y52254D01*
X83646D01*
Y52239D01*
X83636Y52223D01*
X83519Y52145D01*
X83463Y52156D01*
X77134D01*
X77085Y52240D01*
X77078Y52280D01*
X77541Y52742D01*
X77550Y52756D01*
X77814Y53020D01*
X77864Y53095D01*
X77881Y53183D01*
Y53250D01*
X77864Y53339D01*
X77814Y53414D01*
X77739Y53464D01*
X77650Y53481D01*
X77561Y53464D01*
X77486Y53414D01*
X77436Y53339D01*
X77426Y53287D01*
X77331Y53192D01*
X77204Y53245D01*
Y53435D01*
X78303Y54533D01*
X78354Y54609D01*
X78371Y54697D01*
Y55050D01*
X78715D01*
Y55344D01*
X79125D01*
Y55050D01*
X79520D01*
X79700Y55014D01*
X79880Y55050D01*
X80275D01*
Y56100D01*
X79907D01*
X79883Y56119D01*
X79926Y56246D01*
X80429D01*
Y56798D01*
X79700D01*
Y56925D01*
X79573D01*
Y57604D01*
X78971D01*
Y57604D01*
X78869Y57604D01*
Y57604D01*
X78267D01*
Y56925D01*
X78140D01*
Y56798D01*
X77411D01*
Y56415D01*
X77284Y56363D01*
X77200Y56447D01*
X77133Y56492D01*
X77091Y56500D01*
X77050Y56541D01*
Y57200D01*
X76000D01*
Y56304D01*
X75854D01*
Y56598D01*
X75175D01*
Y56852D01*
X75854D01*
Y57354D01*
X75714D01*
X75708Y57481D01*
X75714Y57486D01*
X75764Y57561D01*
X75781Y57650D01*
X75764Y57739D01*
X75714Y57814D01*
X75639Y57864D01*
X75550Y57881D01*
X75461Y57864D01*
X75386Y57814D01*
X75309Y57737D01*
X75259Y57662D01*
X75242Y57573D01*
Y57354D01*
X74496D01*
Y57116D01*
X74369Y57048D01*
X74265Y57118D01*
X74050Y57161D01*
X73835Y57118D01*
X73653Y56997D01*
X73532Y56815D01*
X73489Y56600D01*
X73509Y56500D01*
X73008Y55999D01*
X72992Y56000D01*
X72881Y56040D01*
Y57500D01*
X73545D01*
Y57864D01*
X73835D01*
Y57650D01*
X74985D01*
Y58700D01*
X73835D01*
Y58326D01*
X73545D01*
Y58690D01*
X71955D01*
Y57945D01*
X71828Y57877D01*
X71819Y57883D01*
Y58227D01*
X71815Y58249D01*
Y58750D01*
X71115D01*
Y58000D01*
X71071Y57920D01*
X71015Y57883D01*
X70912D01*
X70854Y57941D01*
Y58700D01*
X69704D01*
Y58601D01*
X69294D01*
Y58700D01*
X68144D01*
Y58601D01*
X67734D01*
Y58700D01*
X67530D01*
X67516Y58719D01*
X67580Y58846D01*
X67888D01*
Y58846D01*
X67990D01*
Y58846D01*
X68592D01*
Y59525D01*
X68846D01*
Y58846D01*
X69448D01*
Y58846D01*
X69550Y58846D01*
Y58846D01*
X70152D01*
Y59525D01*
X70406D01*
Y58846D01*
X71008D01*
Y58900D01*
X71115Y58950D01*
X71135Y58950D01*
X71336D01*
X71465Y58924D01*
X71594Y58950D01*
X71815D01*
Y59002D01*
X72572D01*
X72614Y59010D01*
X73545D01*
Y60200D01*
X71955D01*
Y59853D01*
X71542D01*
X71379Y59821D01*
X71273Y59750D01*
X71135D01*
X71115Y59750D01*
X71008Y59800D01*
Y60204D01*
X70481D01*
Y61046D01*
X71004D01*
Y61673D01*
X70250D01*
X69496D01*
Y61046D01*
X70019D01*
Y60204D01*
X69550D01*
Y60204D01*
X69448Y60204D01*
Y60204D01*
X68920D01*
X68914Y60214D01*
X68839Y60264D01*
X68750Y60281D01*
X68661Y60264D01*
X68586Y60214D01*
X68580Y60204D01*
X67990D01*
Y60204D01*
X67888D01*
Y60204D01*
X67286D01*
Y59525D01*
X67032D01*
Y60204D01*
X66724D01*
X66672Y60331D01*
X66841Y60500D01*
X67650D01*
Y61400D01*
X66550D01*
Y60791D01*
X66253Y60494D01*
X66209Y60427D01*
X66193Y60348D01*
X66193Y60348D01*
Y58327D01*
X66066Y58275D01*
X65913Y58428D01*
X65918Y58435D01*
X65961Y58650D01*
X65918Y58865D01*
X65797Y59047D01*
X65615Y59168D01*
X65400Y59211D01*
X65185Y59168D01*
X65003Y59047D01*
X64937Y58947D01*
X64847D01*
X64665Y59068D01*
X64450Y59111D01*
X64235Y59068D01*
X64085Y58967D01*
X63958Y59015D01*
Y61656D01*
X63958Y61656D01*
X63927Y61812D01*
X63838Y61944D01*
X63838Y61944D01*
X62921Y62862D01*
Y65279D01*
X61959D01*
Y62285D01*
X62344D01*
X63142Y61487D01*
Y58195D01*
X63035Y58034D01*
X62988Y57800D01*
X63035Y57566D01*
X63167Y57367D01*
X63366Y57235D01*
X63600Y57188D01*
X63834Y57235D01*
X64033Y57367D01*
X64165Y57566D01*
X64212Y57800D01*
X64188Y57922D01*
X64188Y57924D01*
X64298Y58020D01*
X64450Y57989D01*
X64665Y58032D01*
X64672Y58037D01*
X64856Y57853D01*
X64856Y57853D01*
X64923Y57808D01*
X65002Y57793D01*
X65002Y57793D01*
X65350D01*
X65486Y57657D01*
Y54534D01*
X65359Y54481D01*
X65145Y54695D01*
X65079Y54740D01*
X65000Y54756D01*
X65000Y54756D01*
X62985D01*
X62667Y55074D01*
Y58221D01*
X62921D01*
Y61215D01*
X61959D01*
Y58383D01*
X61832Y58331D01*
X61651Y58512D01*
Y61215D01*
X60689D01*
Y58240D01*
X60381D01*
Y58480D01*
X60418Y58535D01*
X60461Y58750D01*
X60418Y58965D01*
X60381Y59020D01*
Y61215D01*
X59419D01*
Y59020D01*
X59382Y58965D01*
X59339Y58750D01*
X59382Y58535D01*
X59405Y58501D01*
X59387Y58409D01*
X59259Y58364D01*
X59111Y58512D01*
Y61215D01*
X58149D01*
Y58383D01*
X58022Y58331D01*
X57841Y58512D01*
Y61215D01*
X56879D01*
Y58221D01*
X57550D01*
X58235Y57536D01*
X58235Y57536D01*
X58302Y57492D01*
X58380Y57476D01*
X58380Y57476D01*
X60211D01*
X60287Y57371D01*
X60182Y57215D01*
X60139Y57000D01*
X60182Y56785D01*
X60303Y56603D01*
X60485Y56482D01*
X60700Y56439D01*
X60915Y56482D01*
X61097Y56603D01*
X61218Y56785D01*
X61261Y57000D01*
X61218Y57215D01*
X61097Y57397D01*
X60915Y57518D01*
X60737Y57553D01*
X60588Y57702D01*
X60641Y57829D01*
X61252D01*
X61549Y57533D01*
Y53424D01*
X61549Y53424D01*
X61565Y53346D01*
X61609Y53279D01*
X61946Y52942D01*
Y51566D01*
X61819Y51498D01*
X61714Y51568D01*
X61500Y51611D01*
X61285Y51568D01*
X61103Y51446D01*
X60982Y51264D01*
X60939Y51050D01*
X60982Y50835D01*
X61103Y50653D01*
X61285Y50532D01*
X61500Y50489D01*
X61714Y50532D01*
X61884Y50645D01*
X62142Y50387D01*
X62118Y50300D01*
X62093Y50257D01*
X62029Y50245D01*
X61977Y50210D01*
X61964Y50218D01*
X61750Y50261D01*
X61535Y50218D01*
X61353Y50096D01*
X61232Y49915D01*
X61189Y49700D01*
X61232Y49485D01*
X61334Y49332D01*
X61289Y49205D01*
X61070D01*
X61068Y49215D01*
X60946Y49396D01*
X60764Y49518D01*
X60550Y49561D01*
X60335Y49518D01*
X60153Y49396D01*
X60032Y49215D01*
X59989Y49000D01*
X60032Y48785D01*
X60153Y48603D01*
X60335Y48482D01*
X60550Y48439D01*
X60764Y48482D01*
X60946Y48603D01*
X61068Y48785D01*
X61070Y48794D01*
X61483D01*
X61724Y48553D01*
X61724Y48553D01*
X61791Y48508D01*
X61870Y48493D01*
X61870Y48493D01*
X62251D01*
X62304Y48366D01*
X61355Y47417D01*
X61351Y47411D01*
X61350Y47411D01*
X61135Y47368D01*
X60953Y47247D01*
X60832Y47065D01*
X60789Y46850D01*
X60832Y46635D01*
X60918Y46506D01*
X60854Y46379D01*
X60527D01*
Y45777D01*
X61079D01*
Y46229D01*
X61206Y46318D01*
X61350Y46289D01*
X61565Y46332D01*
X61747Y46453D01*
X61868Y46635D01*
X61911Y46850D01*
X61868Y47065D01*
X61754Y47235D01*
X62119Y47600D01*
X62257Y47559D01*
X62282Y47435D01*
X62403Y47253D01*
X62546Y47158D01*
Y46577D01*
X63225D01*
Y46323D01*
X62546D01*
Y45721D01*
X62546D01*
X62546Y45619D01*
X62546D01*
Y45017D01*
X63225D01*
Y44763D01*
X62546D01*
Y44161D01*
X62546D01*
X62546Y44058D01*
X62546D01*
Y43456D01*
X63225D01*
X63904D01*
Y43708D01*
X64031Y43780D01*
X64050Y43769D01*
Y42754D01*
X65100D01*
Y43144D01*
X65460D01*
Y42750D01*
X66910D01*
Y43144D01*
X68074D01*
X68126Y43017D01*
X67164Y42056D01*
X66910D01*
Y42450D01*
X65460D01*
Y42056D01*
X65100D01*
Y42344D01*
X64050D01*
Y41207D01*
X63904D01*
Y41642D01*
X63352D01*
Y41040D01*
X63432D01*
X63481Y40923D01*
X63055Y40497D01*
X63010Y40430D01*
X62994Y40352D01*
X62994Y40352D01*
Y39354D01*
X62867Y39315D01*
X62847Y39347D01*
X62665Y39468D01*
X62450Y39511D01*
X62235Y39468D01*
X62053Y39347D01*
X61932Y39165D01*
X61889Y38950D01*
X61932Y38735D01*
X62053Y38553D01*
X62235Y38432D01*
X62244Y38430D01*
Y38129D01*
X62244Y38129D01*
X62260Y38050D01*
X62305Y37983D01*
X62660Y37628D01*
X62607Y37501D01*
X60290D01*
X60062Y37729D01*
X60111Y37846D01*
X60323D01*
Y38423D01*
X59846D01*
Y38111D01*
X59729Y38062D01*
X59444Y38347D01*
X59400Y38376D01*
Y39100D01*
X58500D01*
Y38754D01*
X57275D01*
Y38875D01*
X56225Y38875D01*
X56200Y38992D01*
Y39108D01*
X56225Y39225D01*
X56327Y39225D01*
X57275D01*
Y39295D01*
X57409D01*
X57503Y39153D01*
X57685Y39032D01*
X57900Y38989D01*
X58115Y39032D01*
X58297Y39153D01*
X58418Y39335D01*
X58420Y39346D01*
X58455Y39370D01*
X58861Y39775D01*
X59600D01*
Y40925D01*
X59590D01*
X59529Y41052D01*
X59618Y41185D01*
X59661Y41400D01*
X59618Y41615D01*
X59497Y41797D01*
X59315Y41918D01*
X59100Y41961D01*
X58885Y41918D01*
X58703Y41797D01*
X58582Y41615D01*
X58539Y41400D01*
X58582Y41185D01*
X58671Y41052D01*
X58610Y40925D01*
X58550D01*
Y40185D01*
X58310Y39945D01*
X58297Y39947D01*
X58115Y40068D01*
X57900Y40111D01*
X57685Y40068D01*
X57503Y39947D01*
X57409Y39805D01*
X57275D01*
Y39875D01*
X56225Y39875D01*
X56200Y39992D01*
Y40108D01*
X56225Y40225D01*
X56327Y40225D01*
X57275D01*
Y40875D01*
X57156D01*
Y41220D01*
X57215Y41232D01*
X57397Y41353D01*
X57518Y41535D01*
X57561Y41750D01*
X57518Y41965D01*
X57397Y42147D01*
X57215Y42268D01*
X57000Y42311D01*
X56785Y42268D01*
X56603Y42147D01*
X56482Y41965D01*
X56439Y41750D01*
X56482Y41535D01*
X56603Y41353D01*
X56744Y41259D01*
Y40875D01*
X56317D01*
X56200Y40900D01*
X56108Y40900D01*
X54492D01*
X54400Y40900D01*
X54283Y40875D01*
X53786D01*
X53706Y40991D01*
Y41130D01*
X53715Y41132D01*
X53897Y41253D01*
X54018Y41435D01*
X54061Y41650D01*
X54018Y41865D01*
X53897Y42047D01*
X53715Y42168D01*
X53500Y42211D01*
X53285Y42168D01*
X53103Y42047D01*
X52982Y41865D01*
X52939Y41650D01*
X52982Y41435D01*
X53103Y41253D01*
X53285Y41132D01*
X53294Y41130D01*
Y40900D01*
X53294Y40900D01*
X53310Y40821D01*
X53321Y40805D01*
Y40673D01*
X53321Y40673D01*
X53325Y40654D01*
Y40225D01*
X54285Y40225D01*
X54354Y40098D01*
X54312Y40029D01*
X53977D01*
Y39550D01*
X53723D01*
Y40029D01*
X53171D01*
Y39756D01*
X52850D01*
X52771Y39740D01*
X52705Y39695D01*
X52705Y39695D01*
X52660Y39629D01*
X52644Y39550D01*
X52660Y39471D01*
X52705Y39405D01*
X52771Y39360D01*
X52850Y39344D01*
X52850Y39344D01*
X53171D01*
Y39116D01*
X53057Y39040D01*
X53015Y39068D01*
X52800Y39111D01*
X52585Y39068D01*
X52403Y38947D01*
X52282Y38765D01*
X52239Y38550D01*
X52272Y38383D01*
X51470Y37580D01*
X51414Y37498D01*
X51395Y37400D01*
Y37050D01*
X50900D01*
Y35750D01*
X51088D01*
Y35300D01*
X50950D01*
Y33800D01*
X51561D01*
X53456Y31906D01*
X53800Y31763D01*
X55249D01*
X55348Y31463D01*
X55193Y31307D01*
X55081Y31038D01*
X54700Y31195D01*
X54279Y31021D01*
X54105Y30600D01*
X54279Y30179D01*
X54700Y30005D01*
X55121Y30179D01*
X55148Y30182D01*
X55376Y30180D01*
X55445Y30050D01*
X55538Y29825D01*
X55549Y29799D01*
X55800Y29695D01*
X55915Y29743D01*
X56150Y29645D01*
X56209Y29670D01*
X56524Y29539D01*
X58400D01*
Y29475D01*
X59850D01*
Y29521D01*
X60348D01*
Y30250D01*
Y30979D01*
X59850D01*
Y31025D01*
X59848D01*
X59664Y31325D01*
X59695Y31400D01*
X59521Y31821D01*
X59260Y31929D01*
X58594Y32594D01*
X58250Y32737D01*
X54002D01*
X53649Y33090D01*
X53705Y33242D01*
X53796Y33367D01*
X54100D01*
Y33325D01*
X55300D01*
Y33346D01*
X55623D01*
Y34450D01*
X55877D01*
Y33346D01*
X56200D01*
Y33325D01*
X56771D01*
X56800Y33313D01*
X56829Y33325D01*
X57400D01*
Y33963D01*
X58350D01*
Y33675D01*
X59800D01*
Y33721D01*
X60298D01*
Y34450D01*
X60425D01*
Y34577D01*
X61104D01*
Y35179D01*
X60392D01*
X60268Y35479D01*
X60539Y35750D01*
X61150D01*
Y36861D01*
X72291D01*
X72309Y36836D01*
X72156Y36536D01*
X65983D01*
X65676Y36409D01*
X63741Y34474D01*
X63614Y34167D01*
Y33514D01*
X63741Y33207D01*
X64000Y32948D01*
Y31737D01*
Y30937D01*
X65500D01*
Y30937D01*
X65700D01*
Y30937D01*
X67200D01*
Y31791D01*
X67770D01*
X68085Y31475D01*
Y31040D01*
X68085D01*
Y30820D01*
X67991Y30559D01*
X67804Y30529D01*
Y30529D01*
X67252D01*
Y29800D01*
Y29071D01*
X67716D01*
X67830Y28782D01*
X67131Y28083D01*
X66854Y28198D01*
Y28236D01*
X66774Y28427D01*
Y29071D01*
X66998D01*
Y29800D01*
Y30529D01*
X66500D01*
Y30575D01*
X65050D01*
Y29025D01*
X65476D01*
Y28599D01*
X65142Y28461D01*
X64791Y28109D01*
X64601Y27650D01*
Y24500D01*
X64791Y24041D01*
X66100Y22732D01*
Y22350D01*
X66151D01*
Y20512D01*
X65901Y20345D01*
X65900Y20345D01*
X65479Y20171D01*
X65305Y19750D01*
X65171Y19549D01*
X63114D01*
X62654Y19359D01*
X61281Y17986D01*
X61004Y18101D01*
Y18123D01*
X60452D01*
Y17454D01*
X60539Y17244D01*
X60291Y16996D01*
X60101Y16536D01*
Y16169D01*
X59991Y16059D01*
X59801Y15600D01*
X59991Y15141D01*
X60450Y14951D01*
X60909Y15141D01*
X60918Y15150D01*
X61585D01*
X61667Y15068D01*
Y13949D01*
X61367Y13715D01*
X61250Y13745D01*
X61193Y13883D01*
X60810Y14041D01*
X59990D01*
X59607Y13883D01*
X59546Y13734D01*
X57954Y12142D01*
X57654Y12266D01*
Y12323D01*
X57177D01*
Y11746D01*
X57180D01*
X57424Y11479D01*
X57400Y11380D01*
X57399Y11379D01*
X57152D01*
Y10650D01*
Y9921D01*
X57611D01*
Y7427D01*
X57746Y7100D01*
X58100Y6746D01*
Y6000D01*
X58100D01*
Y4500D01*
X59300D01*
X59400Y4500D01*
Y4500D01*
X59600D01*
Y4500D01*
X60646D01*
X60846Y4200D01*
X60805Y4100D01*
X60979Y3679D01*
X61400Y3505D01*
X61821Y3679D01*
X61995Y4100D01*
X61954Y4200D01*
X62150Y4500D01*
X62396Y4546D01*
Y4546D01*
X62873D01*
Y5250D01*
X63000D01*
Y5377D01*
X63604D01*
Y5946D01*
Y6523D01*
X63000D01*
Y6777D01*
X63604D01*
Y7354D01*
X63650Y7375D01*
Y8925D01*
X63700Y8950D01*
Y10450D01*
X63512D01*
Y11050D01*
X63930D01*
Y11511D01*
X64230Y11639D01*
X64400Y11499D01*
Y10450D01*
X64350Y10375D01*
X64350D01*
Y8825D01*
X65963D01*
Y8438D01*
X64971Y7447D01*
X64965Y7433D01*
X64375D01*
Y6311D01*
X64421D01*
Y6177D01*
X65050D01*
Y5923D01*
X64421D01*
Y5535D01*
X64769D01*
X64936Y5286D01*
X64786Y4925D01*
X66990D01*
X66840Y5286D01*
X67007Y5535D01*
X67355D01*
Y5923D01*
X66726D01*
Y6177D01*
X67355D01*
Y6311D01*
X67401D01*
Y6585D01*
X68424Y7608D01*
X68600Y8032D01*
Y8608D01*
X68881Y8871D01*
X69188D01*
Y9600D01*
X69442D01*
Y8871D01*
X69719D01*
X70000Y8825D01*
X70275Y8825D01*
X71450D01*
Y8871D01*
X71948D01*
Y9600D01*
X72202D01*
Y8871D01*
X72754D01*
Y9357D01*
X72806Y9636D01*
X73054Y9636D01*
X73433D01*
Y10490D01*
X73687D01*
Y9636D01*
X74060D01*
Y9590D01*
X75650D01*
Y8385D01*
X75650Y8350D01*
X75696Y8069D01*
Y7627D01*
X76400D01*
Y7373D01*
X75696D01*
Y6994D01*
X75692Y6943D01*
X75644Y6851D01*
X75476Y6704D01*
X74967D01*
Y6025D01*
X74840D01*
Y5898D01*
X74111D01*
Y5400D01*
X74065D01*
Y3950D01*
X74200D01*
Y2615D01*
X74631D01*
X74656Y2556D01*
X74956Y2256D01*
X75300Y2113D01*
X77150D01*
X77494Y2256D01*
X78649Y3410D01*
X78918Y3390D01*
X79086Y3125D01*
X79055Y3050D01*
X79229Y2629D01*
X79311Y2595D01*
X79479Y2371D01*
X79419Y2226D01*
X79305Y1950D01*
X79479Y1529D01*
X79900Y1355D01*
X80321Y1529D01*
X80495Y1950D01*
X80321Y2371D01*
X80239Y2405D01*
X80071Y2629D01*
X80131Y2774D01*
X80245Y3050D01*
X80071Y3471D01*
X79721Y3616D01*
X79560Y3807D01*
X79504Y3909D01*
Y4326D01*
X79400Y4575D01*
X79504Y4824D01*
Y5275D01*
X79561Y5360D01*
X79741Y5487D01*
X79950Y5401D01*
X80357Y5569D01*
X80393Y5568D01*
X80620Y5334D01*
X80596Y5275D01*
Y4824D01*
X80700Y4575D01*
X80596Y4326D01*
Y3875D01*
X80707Y3607D01*
X80975Y3496D01*
X81676D01*
X81943Y3607D01*
X81997Y3738D01*
X82075D01*
X82419Y3881D01*
X82689Y4150D01*
X83300D01*
Y4150D01*
X83300Y4150D01*
X83581Y4196D01*
X84023D01*
Y4900D01*
X84150D01*
Y5027D01*
X84754D01*
Y5450D01*
X84800D01*
Y6840D01*
X84997D01*
Y8190D01*
Y8986D01*
X85301Y9290D01*
X85436Y9617D01*
Y10973D01*
X85436Y10973D01*
X85301Y11300D01*
X84997Y11604D01*
Y12400D01*
X84061D01*
X83668Y12794D01*
X83782Y13071D01*
X84054D01*
Y13673D01*
X83375D01*
Y13800D01*
X83248D01*
Y14529D01*
X82750D01*
Y14575D01*
X82189D01*
Y15740D01*
X82098Y15959D01*
X82254Y16259D01*
X86530D01*
Y15640D01*
X88870D01*
X88910Y15600D01*
Y15600D01*
X89810D01*
Y15646D01*
X89883D01*
Y16300D01*
X90137D01*
Y15646D01*
X90210D01*
Y15600D01*
X91110D01*
Y16838D01*
X93660D01*
Y16188D01*
X99340D01*
Y19074D01*
X93660D01*
Y18425D01*
X90968D01*
X90667Y18300D01*
X90210D01*
Y18254D01*
X90137D01*
Y17600D01*
X89883D01*
Y18254D01*
X89810D01*
Y18300D01*
X88910D01*
X88870Y18220D01*
X86530D01*
Y17541D01*
X83405D01*
X83235Y17807D01*
X83341Y18025D01*
X83648D01*
Y18071D01*
X84146D01*
Y18800D01*
X84272D01*
Y18927D01*
X84951D01*
Y19228D01*
X84958Y19525D01*
X85233Y19525D01*
X86408D01*
Y19571D01*
X86906D01*
Y20300D01*
X87033D01*
Y20427D01*
X87712D01*
Y20832D01*
X87714Y21131D01*
X87714Y21328D01*
Y21733D01*
X87035D01*
Y21987D01*
X87714D01*
Y22589D01*
X87714D01*
X87714Y22692D01*
X87714D01*
Y23294D01*
X87035D01*
Y23548D01*
X87714D01*
Y24150D01*
X87714D01*
Y24252D01*
X87714D01*
Y24854D01*
X87035D01*
Y24981D01*
X86908D01*
Y25710D01*
X86410D01*
Y25756D01*
X86299D01*
Y26450D01*
X86109Y26909D01*
X85424Y27594D01*
X84965Y27785D01*
X83557D01*
X83356Y28085D01*
X83445Y28300D01*
X83271Y28721D01*
X82850Y28895D01*
X82429Y28721D01*
X82171Y28721D01*
X81750Y28895D01*
X81546Y28811D01*
X81470Y28808D01*
X81250Y29100D01*
Y30249D01*
X81395Y30600D01*
X81221Y31021D01*
X81281Y31321D01*
X81421Y31379D01*
X81595Y31800D01*
X81421Y32221D01*
X81000Y32395D01*
X80900Y32462D01*
Y32887D01*
Y33912D01*
X79586D01*
Y33948D01*
X79459Y34256D01*
X79135Y34580D01*
Y36332D01*
X79435Y36456D01*
X79800Y36305D01*
X80221Y36479D01*
X80395Y36900D01*
X80496Y37050D01*
X80331D01*
X80318Y37115D01*
X80197Y37297D01*
X80015Y37418D01*
X79800Y37461D01*
X79585Y37418D01*
X79403Y37297D01*
X79282Y37115D01*
X79269Y37050D01*
X78905D01*
Y43199D01*
X78905Y43199D01*
X78890Y43278D01*
X78845Y43345D01*
X78845Y43345D01*
X78560Y43630D01*
Y44489D01*
X78687Y44528D01*
X78703Y44503D01*
X78885Y44382D01*
X79100Y44339D01*
X79314Y44382D01*
X79496Y44503D01*
X79618Y44685D01*
X79661Y44900D01*
X79618Y45115D01*
X79496Y45296D01*
X79314Y45418D01*
X79100Y45461D01*
X79012Y45443D01*
X78913Y45524D01*
Y46646D01*
X79040Y46698D01*
X79531Y46208D01*
X79489Y46000D01*
X79532Y45785D01*
X79653Y45603D01*
X79835Y45482D01*
X80050Y45439D01*
X80264Y45482D01*
X80446Y45603D01*
X80568Y45785D01*
X80694Y45770D01*
Y45520D01*
X80685Y45518D01*
X80503Y45396D01*
X80382Y45215D01*
X80339Y45000D01*
X80382Y44785D01*
X80503Y44603D01*
X80685Y44482D01*
X80900Y44439D01*
X81114Y44482D01*
X81296Y44603D01*
X81418Y44785D01*
X81461Y45000D01*
X81418Y45215D01*
X81296Y45396D01*
X81114Y45518D01*
X81105Y45520D01*
Y46071D01*
X81090Y46150D01*
X81045Y46217D01*
X81045Y46217D01*
X80694Y46568D01*
X80735Y46706D01*
X80864Y46732D01*
X81046Y46853D01*
X81168Y47035D01*
X81211Y47250D01*
X81168Y47465D01*
X81121Y47534D01*
X81181Y47646D01*
X81279D01*
Y48084D01*
X81289Y48086D01*
X81364Y48136D01*
X81414Y48211D01*
X81431Y48300D01*
X81414Y48389D01*
X81364Y48464D01*
X81289Y48514D01*
X81279Y48516D01*
Y49004D01*
X80677D01*
Y48325D01*
X80423D01*
Y49004D01*
X79821D01*
X79821Y49004D01*
X79703Y49026D01*
X79565Y49118D01*
X79537Y49124D01*
X79488Y49241D01*
X79518Y49285D01*
X79561Y49500D01*
X79518Y49715D01*
X79397Y49897D01*
X79215Y50018D01*
X79172Y50026D01*
X79132Y50142D01*
X79176Y50246D01*
X79304Y50277D01*
X79727Y49853D01*
X79727Y49853D01*
X79794Y49808D01*
X79873Y49793D01*
X79975Y49720D01*
Y49150D01*
X80496D01*
X80550Y49139D01*
X80604Y49150D01*
X81125D01*
Y50200D01*
X80792D01*
X80765Y50218D01*
X80657Y50240D01*
X80654Y50242D01*
X80608Y50379D01*
X80695Y50508D01*
X80738Y50723D01*
X80695Y50938D01*
X80574Y51120D01*
X80392Y51241D01*
X80177Y51284D01*
X79962Y51241D01*
X79780Y51120D01*
X79659Y50938D01*
X79616Y50723D01*
X79499Y50663D01*
X78745Y51417D01*
X78797Y51544D01*
X83059D01*
Y51477D01*
X83463D01*
Y51350D01*
X83590D01*
Y50946D01*
X83923D01*
Y51350D01*
X84177D01*
Y50946D01*
X84510D01*
Y51350D01*
X84637D01*
Y51477D01*
X85041D01*
Y51540D01*
X85686D01*
Y51197D01*
X86300D01*
X86914D01*
Y51557D01*
X87450D01*
X87658Y51598D01*
X87834Y51716D01*
X87923Y51849D01*
X88050Y51810D01*
Y51750D01*
X88406D01*
X88559Y51648D01*
X88767Y51607D01*
X89300D01*
Y50371D01*
X89261Y50364D01*
X89186Y50314D01*
X89136Y50239D01*
X89119Y50150D01*
X89126Y50112D01*
X89119Y50075D01*
Y37250D01*
X89133Y37177D01*
X89123Y37142D01*
X89058Y37050D01*
X81598D01*
X88971Y37050D01*
X89023Y36923D01*
X89173Y36773D01*
X89500Y36638D01*
X99500D01*
X99621Y36688D01*
X99921Y36488D01*
X99922Y3500D01*
X99922Y3499D01*
X99922Y3499D01*
X99922Y3483D01*
X99922Y3260D01*
X99866Y2833D01*
X99755Y2418D01*
X99591Y2020D01*
X99377Y1647D01*
X99116Y1305D01*
X98813Y1000D01*
X98473Y736D01*
X98101Y520D01*
X97705Y353D01*
X97290Y239D01*
X96864Y180D01*
X96650Y178D01*
X34602Y178D01*
X34378Y182D01*
X33934Y246D01*
X33503Y368D01*
X33091Y546D01*
X32706Y775D01*
X32354Y1053D01*
X32041Y1375D01*
X31773Y1734D01*
X31554Y2126D01*
X31388Y2542D01*
X31278Y2977D01*
X31225Y3423D01*
X31228Y3647D01*
X31228Y3649D01*
X31228Y3651D01*
Y37050D01*
Y64191D01*
X31229Y64197D01*
X31230Y64209D01*
X31227Y64228D01*
X31228Y64233D01*
X31236Y64467D01*
X31310Y64906D01*
X31440Y65331D01*
X31624Y65737D01*
X31860Y66114D01*
X32144Y66458D01*
X32469Y66762D01*
X32832Y67021D01*
X33225Y67230D01*
X33642Y67386D01*
X34076Y67486D01*
X34519Y67529D01*
X34742Y67522D01*
D02*
G37*
G36*
X68144Y57650D02*
X68478D01*
X68486Y57611D01*
X68536Y57536D01*
X68886Y57186D01*
X68948Y57145D01*
X68964Y57075D01*
X68967Y57006D01*
X68953Y56997D01*
X68832Y56815D01*
X68796Y56633D01*
X68678Y56559D01*
X68665Y56568D01*
X68450Y56611D01*
X68235Y56568D01*
X68053Y56447D01*
X67932Y56265D01*
X67889Y56050D01*
X67932Y55835D01*
X68053Y55653D01*
X68235Y55532D01*
X68450Y55489D01*
X68572Y55513D01*
X68575Y55512D01*
X68670Y55403D01*
X68639Y55250D01*
X68682Y55035D01*
X68727Y54968D01*
X68667Y54856D01*
X66985D01*
X66604Y55237D01*
Y57650D01*
X66843D01*
X66866Y57635D01*
X67100Y57588D01*
X67334Y57635D01*
X67357Y57650D01*
X67734D01*
Y57749D01*
X68144D01*
Y57650D01*
D02*
G37*
G36*
X75846Y55802D02*
X76525D01*
Y55548D01*
X75846D01*
Y55046D01*
X76119D01*
Y54750D01*
X76136Y54661D01*
X76186Y54586D01*
X76261Y54536D01*
X76350Y54519D01*
X76439Y54536D01*
X76514Y54586D01*
X76564Y54661D01*
X76581Y54750D01*
Y55046D01*
X76996D01*
Y54380D01*
X76449Y53833D01*
X76405Y53766D01*
X76402Y53753D01*
X76389Y53687D01*
X76389Y53687D01*
Y53500D01*
X76149Y53260D01*
X75404D01*
Y53304D01*
X75360D01*
Y54340D01*
X75356D01*
Y55200D01*
X75700D01*
Y56096D01*
X75846D01*
Y55802D01*
D02*
G37*
G36*
X68540Y45360D02*
X68434Y45310D01*
X68335Y45290D01*
X68153Y45169D01*
X68032Y44987D01*
X67989Y44772D01*
X68032Y44557D01*
X68153Y44376D01*
X68335Y44254D01*
X68550Y44211D01*
X68664Y44234D01*
X68726Y44117D01*
X68165Y43556D01*
X66910D01*
Y43950D01*
X65460D01*
Y43556D01*
X65100D01*
Y43904D01*
X64710D01*
X64665Y44031D01*
X64768Y44185D01*
X64794Y44315D01*
X65100D01*
Y45086D01*
X65148Y45118D01*
X65770Y45739D01*
X68540D01*
Y45360D01*
D02*
G37*
G36*
X73250Y42189D02*
X73333Y42206D01*
X73431Y42125D01*
Y41300D01*
X74581D01*
Y41399D01*
X74991D01*
Y41300D01*
X76141D01*
Y41449D01*
X76368D01*
X76400Y41374D01*
X76476Y41342D01*
X77676D01*
X77788Y41251D01*
Y40950D01*
X77676Y40858D01*
X77661Y40858D01*
X76476D01*
X76422Y40836D01*
X76295Y40888D01*
Y41154D01*
X75693D01*
Y40475D01*
X75439D01*
Y41154D01*
X74837D01*
Y41154D01*
X74735D01*
Y41154D01*
X74133D01*
Y40475D01*
X73879D01*
Y41154D01*
X73277D01*
Y41154D01*
X73175D01*
Y41154D01*
X72573D01*
Y40475D01*
X72319D01*
Y41154D01*
X71717D01*
Y40850D01*
X71610Y40800D01*
X70527D01*
X70400Y40800D01*
X70383Y40800D01*
X69720D01*
X69668Y40927D01*
X69945Y41205D01*
X69945Y41205D01*
X69990Y41271D01*
X70006Y41350D01*
Y41400D01*
X70400D01*
Y41400D01*
X70510Y41400D01*
Y41400D01*
X71610D01*
Y41619D01*
X71871D01*
Y41300D01*
X73021D01*
Y42105D01*
X73148Y42209D01*
X73250Y42189D01*
D02*
G37*
G36*
X67936Y40477D02*
X68640D01*
Y40223D01*
X67936D01*
Y39746D01*
X68134D01*
X68202Y39619D01*
X68132Y39515D01*
X68120Y39456D01*
X67225D01*
X66186Y40495D01*
X66119Y40540D01*
X66040Y40555D01*
X66040Y40555D01*
X64820D01*
X64818Y40565D01*
X64748Y40669D01*
X64816Y40796D01*
X67936D01*
Y40477D01*
D02*
G37*
G36*
X66995Y39105D02*
X66995Y39105D01*
X67062Y39060D01*
X67140Y39044D01*
X67140Y39044D01*
X68159D01*
X68253Y38903D01*
X68435Y38782D01*
X68650Y38739D01*
X68865Y38782D01*
X69047Y38903D01*
X69168Y39085D01*
X69174Y39118D01*
X69254Y39146D01*
X69310Y39149D01*
X69355Y39105D01*
X69421Y39060D01*
X69500Y39044D01*
X69579Y39060D01*
X69645Y39105D01*
X69690Y39171D01*
X69706Y39250D01*
X69690Y39329D01*
X69649Y39390D01*
Y39601D01*
X69633Y39680D01*
X69589Y39746D01*
X69552Y39783D01*
X69601Y39900D01*
X69946D01*
Y38637D01*
X69163Y37854D01*
X63716D01*
X63648Y37981D01*
X63718Y38085D01*
X63761Y38300D01*
X63718Y38515D01*
X63597Y38697D01*
X63415Y38818D01*
X63406Y38820D01*
Y39139D01*
X63533Y39184D01*
X63685Y39082D01*
X63900Y39039D01*
X64115Y39082D01*
X64297Y39203D01*
X64418Y39385D01*
X64461Y39600D01*
X64418Y39813D01*
X64514Y39832D01*
X64696Y39953D01*
X64818Y40135D01*
X64820Y40144D01*
X65955D01*
X66995Y39105D01*
D02*
G37*
G36*
X58500Y38000D02*
X59179D01*
X59198Y37996D01*
X59213D01*
X60032Y37177D01*
X60000Y37070D01*
X59985Y37050D01*
X56892Y37050D01*
X56865Y37068D01*
X56650Y37111D01*
X56435Y37068D01*
X56408Y37050D01*
X51905D01*
Y37294D01*
X52633Y38022D01*
X52800Y37989D01*
X53015Y38032D01*
X53197Y38153D01*
X53213Y38179D01*
X53325Y38225D01*
X53325Y38225D01*
X53325Y38225D01*
X54283D01*
X54400Y38200D01*
X54492Y38200D01*
X56108D01*
X56200Y38200D01*
X56317Y38225D01*
X57275D01*
Y38346D01*
X58500D01*
Y38000D01*
D02*
G37*
G36*
X70510Y39900D02*
X70527Y39900D01*
X71008D01*
X71084Y39825D01*
X71110Y39693D01*
X71202Y39555D01*
X71476Y39281D01*
X71614Y39189D01*
X71777Y39157D01*
X76509D01*
X76672Y39189D01*
X76810Y39281D01*
X77123Y39595D01*
X77150Y39589D01*
X77364Y39632D01*
X77454Y39692D01*
X77661D01*
X77676Y39692D01*
X77788Y39601D01*
Y37050D01*
X74721D01*
X74718Y37065D01*
X74597Y37247D01*
X74415Y37368D01*
X74200Y37411D01*
X73985Y37368D01*
X73803Y37247D01*
X73770Y37197D01*
X73647D01*
X73465Y37318D01*
X73250Y37361D01*
X73035Y37318D01*
X73028Y37313D01*
X72900Y37441D01*
X72833Y37485D01*
X72755Y37501D01*
X72755Y37501D01*
X69571D01*
X69518Y37628D01*
X70297Y38406D01*
X70297Y38406D01*
X70341Y38473D01*
X70357Y38552D01*
Y39784D01*
X70484Y39900D01*
X70510Y39900D01*
D02*
G37*
G36*
X54305Y35652D02*
X54243Y35575D01*
X54100D01*
Y34718D01*
X53879Y34563D01*
X53820Y34546D01*
X53750Y34594D01*
Y35300D01*
X52450D01*
Y35300D01*
X52362D01*
X52108Y35488D01*
X52259Y35750D01*
X52400D01*
Y35750D01*
X53700D01*
Y36015D01*
X54212D01*
X54305Y35652D01*
D02*
G37*
G36*
X78265Y34858D02*
Y34400D01*
X78343Y34212D01*
X78181Y33912D01*
X77700D01*
Y33747D01*
X77544Y33695D01*
X77389Y33843D01*
Y33978D01*
X75931D01*
Y33626D01*
X75931D01*
X75885Y33360D01*
X75885D01*
Y32310D01*
X75885D01*
Y32090D01*
X75885D01*
Y31040D01*
X75885Y31040D01*
Y30820D01*
X75885D01*
X75885Y30740D01*
Y29770D01*
X76038D01*
X76205Y29521D01*
X76155Y29400D01*
X76264Y29137D01*
X76079Y28837D01*
X70689D01*
Y29188D01*
X70546Y29533D01*
X70545Y29533D01*
X70757Y29746D01*
X72633D01*
Y32073D01*
X70756D01*
Y29747D01*
X70544Y29535D01*
X69645Y30434D01*
X69635Y30458D01*
Y30820D01*
X69635D01*
Y31040D01*
X69635D01*
Y32010D01*
X69635Y32090D01*
X69635D01*
Y32310D01*
X69635D01*
Y33280D01*
X69635Y33360D01*
X69635D01*
Y33580D01*
X69635D01*
Y34314D01*
X70756D01*
Y32327D01*
X74764D01*
Y34314D01*
X75931D01*
Y34232D01*
X77389D01*
Y34413D01*
X77456Y34441D01*
X77988Y34973D01*
X78265Y34858D01*
D02*
G37*
G36*
X75300Y27750D02*
Y27234D01*
X75000Y27033D01*
X74850Y27095D01*
X74604Y26993D01*
X74304Y27188D01*
Y27387D01*
X73550D01*
Y27641D01*
X74304D01*
Y27863D01*
X75047D01*
X75300Y27750D01*
D02*
G37*
G36*
X74850Y24951D02*
X75271D01*
Y24502D01*
X76000D01*
Y24248D01*
X75271D01*
Y23750D01*
X75225D01*
Y23340D01*
X75179Y23321D01*
X75079Y23081D01*
X74728Y23008D01*
X74727Y23009D01*
X74419Y23136D01*
X74300D01*
Y23600D01*
X74300D01*
Y23800D01*
X74300D01*
Y24854D01*
X74530Y25025D01*
X74650Y25033D01*
X74850Y24951D01*
D02*
G37*
G36*
X68627Y22296D02*
X69217D01*
X69229Y22296D01*
X69229Y22296D01*
X69496Y22346D01*
Y22346D01*
X69949D01*
X70115Y22097D01*
X70055Y21950D01*
X70066Y21922D01*
X69992Y21812D01*
X69750Y21673D01*
X69450Y21654D01*
X69350Y21695D01*
X68929Y21521D01*
X68755Y21100D01*
X68838Y20899D01*
X68829Y20571D01*
X68655Y20150D01*
X68829Y19729D01*
X68916Y19368D01*
X68805Y19100D01*
X68979Y18679D01*
X69095Y18319D01*
X69005Y18100D01*
X69078Y17922D01*
X69146Y17662D01*
X68917Y17549D01*
X68729Y17471D01*
X68555Y17050D01*
X68616Y16902D01*
X68396Y16650D01*
X67445D01*
X67200Y16650D01*
X66909Y16629D01*
X66602D01*
Y15900D01*
X66348D01*
Y16629D01*
X65850D01*
Y16675D01*
X64635D01*
X64471Y17071D01*
X64050Y17245D01*
X63629Y17071D01*
X63615Y17036D01*
X62593D01*
X62468Y17336D01*
X63383Y18251D01*
X66800D01*
X67259Y18441D01*
X67449Y18900D01*
Y22112D01*
X67452Y22116D01*
X67749Y22303D01*
X67771Y22296D01*
Y22296D01*
X67878Y22296D01*
X68373D01*
Y22975D01*
X68627D01*
Y22296D01*
D02*
G37*
G36*
X73172Y17140D02*
X73052Y16985D01*
X72750D01*
Y17438D01*
X73038D01*
X73172Y17140D01*
D02*
G37*
G36*
X64400Y15930D02*
Y15125D01*
X64400D01*
X64400Y15050D01*
X64400D01*
X64400Y14825D01*
Y13800D01*
X64400Y13550D01*
X64400D01*
X64400Y13500D01*
X64400D01*
Y13162D01*
X64106D01*
X63965Y13373D01*
X63474D01*
X63430Y13391D01*
X63020D01*
Y13500D01*
X62893D01*
Y13991D01*
X62610D01*
X62536Y14041D01*
Y14987D01*
X62627Y15014D01*
X62905Y14900D01*
X63079Y14479D01*
X63500Y14305D01*
X63921Y14479D01*
X64095Y14900D01*
X63921Y15321D01*
X63654Y15431D01*
Y15900D01*
X63954Y16094D01*
X64050Y16055D01*
X64151Y16096D01*
X64400Y15930D01*
D02*
G37*
G36*
X59413Y11898D02*
X59513Y11705D01*
X59449Y11550D01*
X59607Y11167D01*
X59793Y11091D01*
Y10485D01*
X59440D01*
Y10439D01*
X58942D01*
Y9710D01*
X58688D01*
Y10439D01*
X58535D01*
Y11416D01*
X59074Y11955D01*
X59413Y11898D01*
D02*
G37*
%LPC*%
G36*
X76227Y66202D02*
Y64077D01*
X78352D01*
X78321Y64392D01*
X78192Y64817D01*
X77983Y65208D01*
X77702Y65552D01*
X77358Y65833D01*
X76967Y66043D01*
X76542Y66171D01*
X76227Y66202D01*
D02*
G37*
G36*
X75973D02*
X75658Y66171D01*
X75233Y66043D01*
X74842Y65833D01*
X74498Y65552D01*
X74217Y65208D01*
X74007Y64817D01*
X73879Y64392D01*
X73848Y64077D01*
X75973D01*
Y66202D01*
D02*
G37*
G36*
X61805Y65433D02*
X61297D01*
Y63909D01*
X61805D01*
Y65433D01*
D02*
G37*
G36*
X57995D02*
X57487D01*
Y63909D01*
X57995D01*
Y65433D01*
D02*
G37*
G36*
X59773D02*
X59265D01*
Y63909D01*
X59773D01*
Y65433D01*
D02*
G37*
G36*
X57233D02*
X56725D01*
Y63909D01*
X57233D01*
Y65433D01*
D02*
G37*
G36*
X49177Y65652D02*
Y63527D01*
X51302D01*
X51271Y63842D01*
X51143Y64267D01*
X50933Y64658D01*
X50652Y65002D01*
X50308Y65283D01*
X49917Y65493D01*
X49492Y65621D01*
X49177Y65652D01*
D02*
G37*
G36*
X48923D02*
X48608Y65621D01*
X48183Y65493D01*
X47792Y65283D01*
X47448Y65002D01*
X47167Y64658D01*
X46958Y64267D01*
X46829Y63842D01*
X46798Y63527D01*
X48923D01*
Y65652D01*
D02*
G37*
G36*
X70850Y64100D02*
X69650D01*
Y63227D01*
X69104Y62681D01*
X67650D01*
Y62900D01*
X66550D01*
Y62000D01*
X67650D01*
Y62219D01*
X69200D01*
X69289Y62236D01*
X69364Y62286D01*
X69379Y62301D01*
X69496Y62253D01*
Y61927D01*
X70123D01*
Y62554D01*
X69797D01*
X69749Y62671D01*
X69977Y62900D01*
X70850D01*
Y64100D01*
D02*
G37*
G36*
X59111Y65279D02*
X58149D01*
Y62285D01*
X59111D01*
Y65279D01*
D02*
G37*
G36*
X61805Y63655D02*
X61297D01*
Y62131D01*
X61805D01*
Y63655D01*
D02*
G37*
G36*
X61043Y65433D02*
X60027D01*
Y63782D01*
Y62131D01*
X61043D01*
Y63782D01*
Y65433D01*
D02*
G37*
G36*
X59773Y63655D02*
X59265D01*
Y62131D01*
X59773D01*
Y63655D01*
D02*
G37*
G36*
X57995D02*
X57487D01*
Y62131D01*
X57995D01*
Y63655D01*
D02*
G37*
G36*
X57233D02*
X56725D01*
Y62131D01*
X57233D01*
Y63655D01*
D02*
G37*
G36*
X71004Y62554D02*
X70377D01*
Y61927D01*
X71004D01*
Y62554D01*
D02*
G37*
G36*
X78352Y63823D02*
X76227D01*
Y61698D01*
X76542Y61729D01*
X76967Y61857D01*
X77358Y62067D01*
X77702Y62348D01*
X77983Y62692D01*
X78192Y63083D01*
X78321Y63508D01*
X78352Y63823D01*
D02*
G37*
G36*
X75973D02*
X73848D01*
X73879Y63508D01*
X74007Y63083D01*
X74217Y62692D01*
X74498Y62348D01*
X74842Y62067D01*
X75233Y61857D01*
X75658Y61729D01*
X75973Y61698D01*
Y63823D01*
D02*
G37*
G36*
X51302Y63273D02*
X49177D01*
Y61148D01*
X49492Y61179D01*
X49917Y61307D01*
X50308Y61517D01*
X50652Y61798D01*
X50933Y62142D01*
X51143Y62533D01*
X51271Y62958D01*
X51302Y63273D01*
D02*
G37*
G36*
X48923D02*
X46798D01*
X46829Y62958D01*
X46958Y62533D01*
X47167Y62142D01*
X47448Y61798D01*
X47792Y61517D01*
X48183Y61307D01*
X48608Y61179D01*
X48923Y61148D01*
Y63273D01*
D02*
G37*
G36*
X75139Y60204D02*
X74537D01*
Y59652D01*
X75139D01*
Y60204D01*
D02*
G37*
G36*
X74283D02*
X73681D01*
Y59652D01*
X74283D01*
Y60204D01*
D02*
G37*
G36*
X39327Y60145D02*
Y59427D01*
X40045D01*
X40032Y59523D01*
X39946Y59731D01*
X39809Y59909D01*
X39631Y60046D01*
X39423Y60132D01*
X39327Y60145D01*
D02*
G37*
G36*
X39073D02*
X38977Y60132D01*
X38769Y60046D01*
X38591Y59909D01*
X38454Y59731D01*
X38368Y59523D01*
X38355Y59427D01*
X39073D01*
Y60145D01*
D02*
G37*
G36*
X75139Y59398D02*
X74537D01*
Y58846D01*
X75139D01*
Y59398D01*
D02*
G37*
G36*
X74283D02*
X73681D01*
Y58846D01*
X74283D01*
Y59398D01*
D02*
G37*
G36*
X37200Y60056D02*
X37004Y60031D01*
X36930Y60000D01*
X36500D01*
Y59570D01*
X36469Y59496D01*
X36444Y59300D01*
X36469Y59104D01*
X36500Y59030D01*
Y58600D01*
X36930D01*
X37004Y58569D01*
X37200Y58544D01*
X37396Y58569D01*
X37470Y58600D01*
X37900D01*
Y59030D01*
X37931Y59104D01*
X37956Y59300D01*
X37931Y59496D01*
X37900Y59570D01*
Y60000D01*
X37470D01*
X37396Y60031D01*
X37200Y60056D01*
D02*
G37*
G36*
X40045Y59173D02*
X39327D01*
Y58455D01*
X39423Y58468D01*
X39631Y58554D01*
X39809Y58691D01*
X39946Y58869D01*
X40032Y59077D01*
X40045Y59173D01*
D02*
G37*
G36*
X39073D02*
X38355D01*
X38368Y59077D01*
X38454Y58869D01*
X38591Y58691D01*
X38769Y58554D01*
X38977Y58468D01*
X39073Y58455D01*
Y59173D01*
D02*
G37*
G36*
X46423Y57854D02*
X45946D01*
Y57277D01*
X46423D01*
Y57854D01*
D02*
G37*
G36*
X80429Y57604D02*
X79827D01*
Y57052D01*
X80429D01*
Y57604D01*
D02*
G37*
G36*
X78013Y57604D02*
X77411D01*
Y57052D01*
X78013D01*
Y57604D01*
D02*
G37*
G36*
X37200Y58056D02*
X37004Y58031D01*
X36822Y57955D01*
X36665Y57835D01*
X36545Y57678D01*
X36469Y57496D01*
X36444Y57300D01*
X36464Y57141D01*
X35262Y55938D01*
X35173Y55806D01*
X35142Y55650D01*
X35142Y55650D01*
Y37050D01*
X34901D01*
Y26100D01*
X35091Y25641D01*
X35365Y25527D01*
Y25202D01*
X35141Y25109D01*
X34951Y24650D01*
Y22700D01*
X35141Y22241D01*
X36342Y21039D01*
X36326Y21000D01*
X36611Y20311D01*
X37031Y20137D01*
X37031Y19813D01*
X36646Y19654D01*
X36428Y19127D01*
X37300D01*
Y18873D01*
X36428D01*
X36646Y18346D01*
X37031Y18187D01*
X37031Y17863D01*
X36611Y17689D01*
X36326Y17000D01*
X36611Y16311D01*
X36970Y16162D01*
Y15838D01*
X36611Y15689D01*
X36326Y15000D01*
X36611Y14311D01*
X36970Y14162D01*
Y13838D01*
X36611Y13689D01*
X36326Y13000D01*
X36611Y12311D01*
X36970Y12162D01*
Y11838D01*
X36611Y11689D01*
X36326Y11000D01*
X36611Y10311D01*
X36970Y10162D01*
Y9838D01*
X36611Y9689D01*
X36326Y9000D01*
X36611Y8311D01*
X37300Y8026D01*
X37989Y8311D01*
X38138Y8670D01*
X38462D01*
X38611Y8311D01*
X39300Y8026D01*
X39989Y8311D01*
X40274Y9000D01*
X39989Y9689D01*
X39630Y9838D01*
Y10162D01*
X39989Y10311D01*
X40274Y11000D01*
X39989Y11689D01*
X39569Y11863D01*
X39569Y12187D01*
X39954Y12346D01*
X40172Y12873D01*
X39300D01*
Y13127D01*
X40172D01*
X39954Y13654D01*
X39569Y13813D01*
X39569Y14137D01*
X39989Y14311D01*
X40274Y15000D01*
X39989Y15689D01*
X39630Y15838D01*
Y16162D01*
X39989Y16311D01*
X40274Y17000D01*
X39989Y17689D01*
X39630Y17838D01*
Y18162D01*
X39989Y18311D01*
X40274Y19000D01*
X39989Y19689D01*
X39630Y19838D01*
Y20162D01*
X39989Y20311D01*
X40274Y21000D01*
X39989Y21689D01*
X39569Y21863D01*
X39569Y22187D01*
X39954Y22346D01*
X40172Y22873D01*
X39300D01*
Y23000D01*
X39173D01*
Y23872D01*
X38646Y23654D01*
X38500Y23300D01*
X38200Y23360D01*
Y23900D01*
X37949D01*
Y27700D01*
X38249Y27867D01*
X38350Y27825D01*
X39550D01*
X39780Y27921D01*
X39875Y28150D01*
Y28272D01*
X40175Y28433D01*
X40175Y28432D01*
Y28150D01*
X40270Y27920D01*
X40500Y27825D01*
X41700D01*
X41930Y27920D01*
X42121Y28096D01*
X42723D01*
Y28775D01*
X42850D01*
Y28902D01*
X43579D01*
Y29400D01*
X43625D01*
Y30850D01*
X42075D01*
X41930Y30979D01*
X41930Y30980D01*
X41799Y31034D01*
Y31500D01*
X41609Y31959D01*
X41150Y32149D01*
X40691Y31959D01*
X40501Y31500D01*
Y31075D01*
X40500D01*
X40270Y30980D01*
X40175Y30750D01*
Y30150D01*
X39875D01*
Y30750D01*
X39780Y30980D01*
X39550Y31075D01*
X38350D01*
X38120Y30980D01*
X38027Y30754D01*
X37427D01*
Y30075D01*
X37300D01*
Y29948D01*
X36571D01*
Y29450D01*
X36525D01*
Y28000D01*
X36651D01*
Y24065D01*
X36501Y24022D01*
X36249Y24252D01*
Y24650D01*
X36059Y25109D01*
X35785Y25223D01*
Y25548D01*
X36009Y25641D01*
X36199Y26100D01*
Y37050D01*
X35958D01*
Y55481D01*
X37041Y56564D01*
X37200Y56544D01*
X37396Y56569D01*
X37578Y56645D01*
X37735Y56765D01*
X37855Y56922D01*
X37931Y57104D01*
X37956Y57300D01*
X37931Y57496D01*
X37855Y57678D01*
X37735Y57835D01*
X37578Y57955D01*
X37396Y58031D01*
X37200Y58056D01*
D02*
G37*
G36*
X47250Y57976D02*
X47087Y57943D01*
X46954Y57854D01*
X46677D01*
Y57150D01*
Y56446D01*
X47154D01*
Y56895D01*
X47284Y56982D01*
X47551Y57249D01*
X47643Y57387D01*
X47676Y57550D01*
X47643Y57713D01*
X47551Y57851D01*
X47413Y57943D01*
X47250Y57976D01*
D02*
G37*
G36*
X46423Y57023D02*
X45946D01*
Y56446D01*
X46423D01*
Y57023D01*
D02*
G37*
G36*
X50654Y56879D02*
X50102D01*
Y56150D01*
X49848D01*
Y56879D01*
X49296D01*
Y56158D01*
X49296Y56156D01*
X49281Y56140D01*
X49169Y56094D01*
X49150Y56113D01*
Y56725D01*
X48100D01*
Y56227D01*
X47591Y55718D01*
X47167D01*
X47005Y55686D01*
X46932Y55637D01*
X46774D01*
X46660Y55590D01*
X46613Y55475D01*
Y55024D01*
X46660Y54910D01*
X46774Y54863D01*
X46953D01*
X46962Y54857D01*
X46983Y54723D01*
X46930Y54687D01*
X46774D01*
X46764Y54683D01*
X46392D01*
X46265Y54768D01*
X46050Y54811D01*
X45835Y54768D01*
X45653Y54647D01*
X45532Y54465D01*
X45489Y54250D01*
X45532Y54035D01*
X45653Y53853D01*
X45835Y53732D01*
X46050Y53689D01*
X46265Y53732D01*
X46414Y53832D01*
X46671D01*
X46696Y53705D01*
X46660Y53690D01*
X46613Y53576D01*
Y53125D01*
X46660Y53010D01*
X46774Y52963D01*
X47011D01*
X47087Y52887D01*
X47087Y52887D01*
X47219Y52798D01*
X47375Y52767D01*
X47375Y52767D01*
X48100D01*
Y52425D01*
X49150D01*
Y53116D01*
X49162Y53175D01*
X49150Y53234D01*
Y53575D01*
X49004D01*
X48983Y53608D01*
X48958Y53624D01*
Y54500D01*
X48950Y54539D01*
Y54853D01*
X49077Y54892D01*
X49193Y54814D01*
X49244Y54804D01*
X49550Y54498D01*
Y54000D01*
X50450D01*
Y55100D01*
X50152D01*
X49948Y55304D01*
X49997Y55421D01*
X50654D01*
Y55724D01*
X50850D01*
X51013Y55757D01*
X51151Y55849D01*
X51243Y55987D01*
X51276Y56150D01*
X51243Y56313D01*
X51151Y56451D01*
X51013Y56543D01*
X50850Y56576D01*
X50654D01*
Y56879D01*
D02*
G37*
G36*
X37327Y56145D02*
Y55427D01*
X38045D01*
X38032Y55523D01*
X37946Y55731D01*
X37809Y55909D01*
X37631Y56046D01*
X37423Y56132D01*
X37327Y56145D01*
D02*
G37*
G36*
X37073D02*
X36977Y56132D01*
X36769Y56046D01*
X36591Y55909D01*
X36454Y55731D01*
X36368Y55523D01*
X36355Y55427D01*
X37073D01*
Y56145D01*
D02*
G37*
G36*
X38045Y55173D02*
X37327D01*
Y54455D01*
X37423Y54468D01*
X37631Y54554D01*
X37809Y54691D01*
X37946Y54869D01*
X38032Y55077D01*
X38045Y55173D01*
D02*
G37*
G36*
X37073D02*
X36355D01*
X36368Y55077D01*
X36454Y54869D01*
X36591Y54691D01*
X36769Y54554D01*
X36977Y54468D01*
X37073Y54455D01*
Y55173D01*
D02*
G37*
G36*
X49848Y53729D02*
X49296D01*
Y53127D01*
X49848D01*
Y53729D01*
D02*
G37*
G36*
X39200Y54056D02*
X39004Y54031D01*
X38822Y53955D01*
X38665Y53835D01*
X38545Y53678D01*
X38469Y53496D01*
X38444Y53300D01*
X38469Y53104D01*
X38545Y52922D01*
X38665Y52765D01*
X38822Y52645D01*
X39004Y52569D01*
X39200Y52544D01*
X39396Y52569D01*
X39578Y52645D01*
X39735Y52765D01*
X39855Y52922D01*
X39931Y53104D01*
X39956Y53300D01*
X39931Y53496D01*
X39855Y53678D01*
X39735Y53835D01*
X39578Y53955D01*
X39396Y54031D01*
X39200Y54056D01*
D02*
G37*
G36*
X37200D02*
X37004Y54031D01*
X36822Y53955D01*
X36665Y53835D01*
X36545Y53678D01*
X36469Y53496D01*
X36444Y53300D01*
X36469Y53104D01*
X36545Y52922D01*
X36665Y52765D01*
X36822Y52645D01*
X37004Y52569D01*
X37200Y52544D01*
X37396Y52569D01*
X37578Y52645D01*
X37735Y52765D01*
X37855Y52922D01*
X37931Y53104D01*
X37956Y53300D01*
X37931Y53496D01*
X37855Y53678D01*
X37735Y53835D01*
X37578Y53955D01*
X37396Y54031D01*
X37200Y54056D01*
D02*
G37*
G36*
X50654Y53729D02*
X50102D01*
Y53000D01*
Y52271D01*
X50654D01*
Y52574D01*
X50750D01*
X50913Y52607D01*
X51051Y52699D01*
X51143Y52837D01*
X51176Y53000D01*
X51143Y53163D01*
X51051Y53301D01*
X50913Y53393D01*
X50750Y53426D01*
X50654D01*
Y53729D01*
D02*
G37*
G36*
X49848Y52873D02*
X49296D01*
Y52271D01*
X49848D01*
Y52873D01*
D02*
G37*
G36*
X60750Y53211D02*
X60535Y53168D01*
X60353Y53047D01*
X60232Y52865D01*
X60189Y52650D01*
X60232Y52435D01*
X60353Y52253D01*
X60535Y52132D01*
X60750Y52089D01*
X60965Y52132D01*
X61147Y52253D01*
X61268Y52435D01*
X61311Y52650D01*
X61268Y52865D01*
X61147Y53047D01*
X60965Y53168D01*
X60750Y53211D01*
D02*
G37*
G36*
X39200Y58056D02*
X39004Y58031D01*
X38822Y57955D01*
X38665Y57835D01*
X38545Y57678D01*
X38469Y57496D01*
X38444Y57300D01*
X38469Y57104D01*
X38545Y56922D01*
X38665Y56765D01*
X38792Y56668D01*
Y55932D01*
X38665Y55835D01*
X38545Y55678D01*
X38469Y55496D01*
X38444Y55300D01*
X38469Y55104D01*
X38545Y54922D01*
X38665Y54765D01*
X38822Y54645D01*
X39004Y54569D01*
X39200Y54544D01*
X39359Y54564D01*
X40862Y53062D01*
X40862Y53062D01*
X40994Y52973D01*
X41150Y52942D01*
X44142D01*
Y52630D01*
X44032Y52465D01*
X43989Y52250D01*
X44032Y52035D01*
X44153Y51853D01*
X44335Y51732D01*
X44550Y51689D01*
X44765Y51732D01*
X44947Y51853D01*
X45068Y52035D01*
X45111Y52250D01*
X45068Y52465D01*
X44958Y52630D01*
Y52976D01*
X45040Y53010D01*
X45087Y53125D01*
Y53576D01*
X45040Y53690D01*
X44983Y53714D01*
Y53936D01*
X45040Y53960D01*
X45087Y54075D01*
Y54526D01*
X45040Y54640D01*
X44926Y54687D01*
X44678D01*
X44608Y54701D01*
Y54831D01*
X44665Y54842D01*
X44738Y54857D01*
X44747Y54863D01*
X44926D01*
X45040Y54910D01*
X45087Y55024D01*
Y55475D01*
X45040Y55590D01*
X45001Y55606D01*
Y56399D01*
X45202Y56600D01*
X45500D01*
Y57700D01*
X44600D01*
Y57202D01*
X44274Y56876D01*
X44182Y56738D01*
X44149Y56575D01*
Y55606D01*
X44110Y55590D01*
X44063Y55475D01*
Y55024D01*
X44110Y54910D01*
X44225Y54863D01*
X44403D01*
X44412Y54857D01*
X44542Y54831D01*
Y54701D01*
X44472Y54687D01*
X44225D01*
X44110Y54640D01*
X44063Y54526D01*
Y54075D01*
X44110Y53960D01*
X44167Y53936D01*
Y53758D01*
X41319D01*
X39936Y55141D01*
X39956Y55300D01*
X39931Y55496D01*
X39855Y55678D01*
X39735Y55835D01*
X39608Y55932D01*
Y56668D01*
X39735Y56765D01*
X39855Y56922D01*
X39931Y57104D01*
X39956Y57300D01*
X39931Y57496D01*
X39855Y57678D01*
X39735Y57835D01*
X39578Y57955D01*
X39396Y58031D01*
X39200Y58056D01*
D02*
G37*
G36*
X85041Y51223D02*
X84764D01*
Y50946D01*
X85041D01*
Y51223D01*
D02*
G37*
G36*
X83336D02*
X83059D01*
Y50946D01*
X83336D01*
Y51223D01*
D02*
G37*
G36*
X39200Y52056D02*
X39004Y52031D01*
X38822Y51955D01*
X38665Y51835D01*
X38545Y51678D01*
X38469Y51496D01*
X38444Y51300D01*
X38469Y51104D01*
X38545Y50922D01*
X38665Y50765D01*
X38822Y50645D01*
X39004Y50569D01*
X39200Y50544D01*
X39396Y50569D01*
X39578Y50645D01*
X39735Y50765D01*
X39855Y50922D01*
X39931Y51104D01*
X39956Y51300D01*
X39931Y51496D01*
X39855Y51678D01*
X39735Y51835D01*
X39578Y51955D01*
X39396Y52031D01*
X39200Y52056D01*
D02*
G37*
G36*
X86914Y50943D02*
X86427D01*
Y50436D01*
X86914D01*
Y50943D01*
D02*
G37*
G36*
X86173D02*
X85686D01*
Y50436D01*
X86173D01*
Y50943D01*
D02*
G37*
G36*
X58000Y51111D02*
X57785Y51068D01*
X57603Y50947D01*
X57482Y50765D01*
X57439Y50550D01*
X57456Y50468D01*
X56855Y49867D01*
X47361D01*
X47350Y49878D01*
Y50213D01*
X46250D01*
Y49588D01*
X46996D01*
X47036Y49540D01*
X46975Y49412D01*
X46250D01*
Y48787D01*
X47227D01*
X47247Y48787D01*
X47313Y48660D01*
X47280Y48612D01*
X46250D01*
Y47987D01*
X46982D01*
X47045Y47861D01*
X47009Y47812D01*
X46250D01*
Y47188D01*
X47350D01*
Y47522D01*
X48224Y48396D01*
X52384D01*
X52452Y48269D01*
X52382Y48165D01*
X52339Y47950D01*
X52382Y47735D01*
X52503Y47553D01*
X52685Y47432D01*
X52900Y47389D01*
X53115Y47432D01*
X53297Y47553D01*
X53418Y47735D01*
X53461Y47950D01*
X53418Y48165D01*
X53348Y48269D01*
X53416Y48396D01*
X57552D01*
X57584Y48390D01*
X58598D01*
X58785Y48203D01*
X58785Y48203D01*
X58851Y48158D01*
X58930Y48143D01*
X59018D01*
X59098Y48045D01*
X59089Y48000D01*
X59132Y47785D01*
X59253Y47603D01*
X59435Y47482D01*
X59650Y47439D01*
X59865Y47482D01*
X60047Y47603D01*
X60168Y47785D01*
X60211Y48000D01*
X60168Y48215D01*
X60047Y48397D01*
X59865Y48518D01*
X59712Y48548D01*
X59648Y48679D01*
X59648Y48681D01*
X59718Y48785D01*
X59761Y49000D01*
X59718Y49215D01*
X59596Y49396D01*
X59414Y49518D01*
X59200Y49561D01*
X58985Y49518D01*
X58803Y49396D01*
X58682Y49215D01*
X58670Y49154D01*
X58277D01*
X58238Y49281D01*
X58347Y49353D01*
X58468Y49535D01*
X58511Y49750D01*
X58468Y49965D01*
X58359Y50128D01*
X58397Y50153D01*
X58518Y50335D01*
X58561Y50550D01*
X58518Y50765D01*
X58397Y50947D01*
X58215Y51068D01*
X58000Y51111D01*
D02*
G37*
G36*
X37200Y52056D02*
X37004Y52031D01*
X36822Y51955D01*
X36665Y51835D01*
X36545Y51678D01*
X36469Y51496D01*
X36444Y51300D01*
X36469Y51104D01*
X36545Y50922D01*
X36665Y50765D01*
X36822Y50645D01*
X37004Y50569D01*
X37200Y50544D01*
X37396Y50569D01*
X37568Y50641D01*
X38203Y50006D01*
X38203Y50006D01*
X38270Y49962D01*
X38348Y49946D01*
X38348Y49946D01*
X38459D01*
X38522Y49819D01*
X38454Y49731D01*
X38368Y49523D01*
X38355Y49427D01*
X40045D01*
X40032Y49523D01*
X39946Y49731D01*
X39878Y49819D01*
X39941Y49946D01*
X44526D01*
X44550Y49922D01*
Y49588D01*
X45650D01*
Y50213D01*
X44841D01*
X44756Y50297D01*
X44689Y50341D01*
X44611Y50357D01*
X44611Y50357D01*
X38434D01*
X37859Y50932D01*
X37931Y51104D01*
X37956Y51300D01*
X37931Y51496D01*
X37855Y51678D01*
X37735Y51835D01*
X37578Y51955D01*
X37396Y52031D01*
X37200Y52056D01*
D02*
G37*
G36*
Y50056D02*
X37004Y50031D01*
X36822Y49955D01*
X36665Y49835D01*
X36545Y49678D01*
X36469Y49496D01*
X36444Y49300D01*
X36469Y49104D01*
X36545Y48922D01*
X36665Y48765D01*
X36822Y48645D01*
X37004Y48569D01*
X37200Y48544D01*
X37396Y48569D01*
X37568Y48641D01*
X37906Y48303D01*
X37973Y48258D01*
X38052Y48243D01*
X38052Y48243D01*
X41529D01*
X41529Y48243D01*
X41608Y48258D01*
X41674Y48303D01*
X42266Y48894D01*
X44550D01*
Y48787D01*
X45650D01*
Y49412D01*
X44550D01*
Y49306D01*
X42181D01*
X42181Y49306D01*
X42102Y49290D01*
X42035Y49245D01*
X42035Y49245D01*
X41444Y48654D01*
X39941D01*
X39878Y48781D01*
X39946Y48869D01*
X40032Y49077D01*
X40045Y49173D01*
X38355D01*
X38368Y49077D01*
X38454Y48869D01*
X38522Y48781D01*
X38459Y48654D01*
X38137D01*
X37859Y48932D01*
X37931Y49104D01*
X37956Y49300D01*
X37931Y49496D01*
X37855Y49678D01*
X37735Y49835D01*
X37578Y49955D01*
X37396Y50031D01*
X37200Y50056D01*
D02*
G37*
G36*
X45650Y48612D02*
X44550D01*
Y48506D01*
X43131D01*
X43131Y48506D01*
X43053Y48490D01*
X42986Y48445D01*
X42986Y48445D01*
X41146Y46606D01*
X39736D01*
X39693Y46733D01*
X39735Y46765D01*
X39855Y46922D01*
X39931Y47104D01*
X39956Y47300D01*
X39931Y47496D01*
X39855Y47678D01*
X39735Y47835D01*
X39578Y47955D01*
X39396Y48031D01*
X39200Y48056D01*
X39004Y48031D01*
X38822Y47955D01*
X38665Y47835D01*
X38545Y47678D01*
X38469Y47496D01*
X38444Y47300D01*
X38469Y47104D01*
X38545Y46922D01*
X38665Y46765D01*
X38708Y46733D01*
X38664Y46606D01*
X38185D01*
X37859Y46932D01*
X37931Y47104D01*
X37956Y47300D01*
X37931Y47496D01*
X37855Y47678D01*
X37735Y47835D01*
X37578Y47955D01*
X37396Y48031D01*
X37200Y48056D01*
X37004Y48031D01*
X36822Y47955D01*
X36665Y47835D01*
X36545Y47678D01*
X36469Y47496D01*
X36444Y47300D01*
X36469Y47104D01*
X36545Y46922D01*
X36665Y46765D01*
X36822Y46645D01*
X37004Y46569D01*
X37200Y46544D01*
X37396Y46569D01*
X37568Y46641D01*
X37955Y46255D01*
X38021Y46210D01*
X38100Y46194D01*
X38100Y46194D01*
X41231D01*
X41231Y46194D01*
X41310Y46210D01*
X41377Y46255D01*
X43216Y48094D01*
X44550D01*
Y47987D01*
X45650D01*
Y48612D01*
D02*
G37*
G36*
Y47812D02*
X44550D01*
Y47706D01*
X43756D01*
X43756Y47706D01*
X43678Y47690D01*
X43611Y47645D01*
X40471Y44506D01*
X39574D01*
X39548Y44633D01*
X39578Y44645D01*
X39735Y44765D01*
X39855Y44922D01*
X39931Y45104D01*
X39956Y45300D01*
X39931Y45496D01*
X39855Y45678D01*
X39735Y45835D01*
X39578Y45955D01*
X39396Y46031D01*
X39200Y46056D01*
X39004Y46031D01*
X38822Y45955D01*
X38665Y45835D01*
X38545Y45678D01*
X38469Y45496D01*
X38444Y45300D01*
X38469Y45104D01*
X38545Y44922D01*
X38665Y44765D01*
X38822Y44645D01*
X38852Y44633D01*
X38826Y44506D01*
X38285D01*
X37859Y44932D01*
X37931Y45104D01*
X37956Y45300D01*
X37931Y45496D01*
X37855Y45678D01*
X37735Y45835D01*
X37578Y45955D01*
X37396Y46031D01*
X37200Y46056D01*
X37004Y46031D01*
X36822Y45955D01*
X36665Y45835D01*
X36545Y45678D01*
X36469Y45496D01*
X36444Y45300D01*
X36469Y45104D01*
X36545Y44922D01*
X36665Y44765D01*
X36822Y44645D01*
X37004Y44569D01*
X37200Y44544D01*
X37396Y44569D01*
X37568Y44641D01*
X38055Y44155D01*
X38055Y44155D01*
X38121Y44110D01*
X38200Y44094D01*
X40556D01*
X40556Y44094D01*
X40635Y44110D01*
X40702Y44155D01*
X43841Y47294D01*
X44550D01*
Y47188D01*
X45650D01*
Y47812D01*
D02*
G37*
G36*
X55050Y48211D02*
X54835Y48168D01*
X54653Y48047D01*
X54532Y47865D01*
X54489Y47650D01*
X54532Y47435D01*
X54537Y47428D01*
X53853Y46744D01*
X53808Y46677D01*
X53793Y46598D01*
X53793Y46598D01*
Y45619D01*
X53793Y45619D01*
X53808Y45540D01*
X53853Y45474D01*
X54024Y45303D01*
X54024Y45303D01*
X54090Y45258D01*
X54150Y45247D01*
Y45127D01*
X54150Y45100D01*
Y45000D01*
X54150Y44973D01*
Y44504D01*
X53996D01*
Y44281D01*
X53475D01*
X53475Y44281D01*
X53396Y44265D01*
X53375Y44251D01*
X53321Y44240D01*
X53255Y44195D01*
X53210Y44129D01*
X53194Y44050D01*
X53210Y43971D01*
X53255Y43905D01*
X53321Y43860D01*
X53400Y43844D01*
X53450D01*
X53450Y43844D01*
X53529Y43860D01*
X53543Y43869D01*
X53996D01*
Y43646D01*
X54373D01*
Y44075D01*
X54500D01*
Y44202D01*
X55004D01*
Y44220D01*
X55121Y44268D01*
X55470Y43920D01*
X55553Y43864D01*
X55650Y43845D01*
X55750D01*
Y43800D01*
X56450D01*
Y44296D01*
X56604D01*
Y44507D01*
X57288D01*
Y44307D01*
X57288Y44307D01*
X57303Y44228D01*
X57348Y44161D01*
X57405Y44105D01*
X57471Y44060D01*
X57550Y44044D01*
X57629Y44060D01*
X57695Y44105D01*
X57740Y44171D01*
X57755Y44250D01*
X57740Y44329D01*
X57699Y44390D01*
Y44650D01*
X57683Y44729D01*
X57638Y44796D01*
X57638Y44796D01*
X57576Y44858D01*
X57510Y44902D01*
X57431Y44918D01*
X57431Y44918D01*
X56604D01*
Y45095D01*
X56760D01*
X56760Y45095D01*
X58525D01*
Y45075D01*
X59575D01*
Y45443D01*
X59594Y45467D01*
X59721Y45423D01*
Y44921D01*
X60273D01*
Y45650D01*
Y46379D01*
X59721D01*
Y45877D01*
X59594Y45833D01*
X59575Y45857D01*
Y46225D01*
X58525D01*
Y45830D01*
X58489Y45650D01*
X58452Y45605D01*
X56760D01*
X56760Y45605D01*
X56604D01*
Y45819D01*
X56895D01*
X56895Y45819D01*
X56973Y45835D01*
X57040Y45880D01*
X57295Y46135D01*
X57340Y46202D01*
X57355Y46280D01*
Y46650D01*
X57340Y46729D01*
X57295Y46795D01*
X57229Y46840D01*
X57150Y46855D01*
X57071Y46840D01*
X57005Y46795D01*
X56960Y46729D01*
X56944Y46650D01*
Y46365D01*
X56810Y46231D01*
X56604D01*
Y46454D01*
X56227D01*
Y46025D01*
X56100D01*
Y45898D01*
X55596D01*
Y45644D01*
X55552Y45635D01*
X55470Y45580D01*
X54968Y45079D01*
X54850Y45140D01*
Y45623D01*
X54850Y45650D01*
X54850D01*
Y45750D01*
X54850D01*
Y46009D01*
X55698Y46857D01*
X55735Y46832D01*
X55950Y46789D01*
X56164Y46832D01*
X56346Y46953D01*
X56468Y47135D01*
X56511Y47350D01*
X56468Y47564D01*
X56346Y47746D01*
X56164Y47868D01*
X55950Y47911D01*
X55735Y47868D01*
X55668Y47823D01*
X55568Y47865D01*
X55447Y48047D01*
X55265Y48168D01*
X55050Y48211D01*
D02*
G37*
G36*
X55973Y46454D02*
X55596D01*
Y46152D01*
X55973D01*
Y46454D01*
D02*
G37*
G36*
X45650Y46400D02*
X44750D01*
Y45707D01*
X42602D01*
X42602Y45707D01*
X42523Y45692D01*
X42456Y45647D01*
X42456Y45647D01*
X40365Y43556D01*
X39741D01*
X39647Y43697D01*
X39465Y43818D01*
X39250Y43861D01*
X39035Y43818D01*
X38853Y43697D01*
X38732Y43515D01*
X38689Y43300D01*
X38732Y43085D01*
X38853Y42903D01*
X39035Y42782D01*
X39250Y42739D01*
X39465Y42782D01*
X39647Y42903D01*
X39768Y43085D01*
X39780Y43144D01*
X40450D01*
X40450Y43144D01*
X40529Y43160D01*
X40595Y43205D01*
X42687Y45296D01*
X44952D01*
X44952Y45296D01*
X44971Y45300D01*
X45650D01*
Y46400D01*
D02*
G37*
G36*
X61079Y45523D02*
X60527D01*
Y44921D01*
X61079D01*
Y45523D01*
D02*
G37*
G36*
X45650Y44940D02*
X44750D01*
Y44612D01*
X44638Y44552D01*
X44615Y44568D01*
X44400Y44611D01*
X44185Y44568D01*
X44003Y44447D01*
X43882Y44265D01*
X43839Y44050D01*
X43882Y43835D01*
X44003Y43653D01*
X44185Y43532D01*
X44400Y43489D01*
X44615Y43532D01*
X44797Y43653D01*
X44918Y43835D01*
X44919Y43840D01*
X45650D01*
Y44940D01*
D02*
G37*
G36*
X55004Y43948D02*
X54627D01*
Y43646D01*
X55004D01*
Y43948D01*
D02*
G37*
G36*
X47150Y46400D02*
X46250D01*
Y45300D01*
X46292D01*
Y44940D01*
X46250D01*
Y43840D01*
X46250D01*
X46298Y43713D01*
X46232Y43615D01*
X46189Y43400D01*
X46232Y43185D01*
X46353Y43003D01*
X46535Y42882D01*
X46750Y42839D01*
X46965Y42882D01*
X47147Y43003D01*
X47268Y43185D01*
X47311Y43400D01*
X47268Y43615D01*
X47158Y43780D01*
Y44340D01*
X47150Y44379D01*
Y44940D01*
X47108D01*
Y45300D01*
X47150D01*
Y46400D01*
D02*
G37*
G36*
X63904Y43202D02*
X63225D01*
X62546D01*
Y42600D01*
X62546D01*
Y42498D01*
X62546D01*
Y41896D01*
X63225D01*
X63904D01*
Y42498D01*
X63904D01*
Y42600D01*
X63904D01*
Y43202D01*
D02*
G37*
G36*
X63098Y41642D02*
X62546D01*
Y41040D01*
X63098D01*
Y41642D01*
D02*
G37*
G36*
X61104Y41079D02*
X60552D01*
Y40477D01*
X61104D01*
Y41079D01*
D02*
G37*
G36*
X60298D02*
X59746D01*
Y40477D01*
X60298D01*
Y41079D01*
D02*
G37*
G36*
X61104Y40223D02*
X60425D01*
X59746D01*
Y39621D01*
X60077D01*
Y39254D01*
X59846D01*
Y38677D01*
X60450D01*
X61054D01*
Y39254D01*
X60798D01*
Y39621D01*
X61104D01*
Y40223D01*
D02*
G37*
G36*
X61054Y38423D02*
X60577D01*
Y37846D01*
X61054D01*
Y38423D01*
D02*
G37*
G36*
X81050Y38711D02*
X80835Y38668D01*
X80653Y38547D01*
X80532Y38365D01*
X80489Y38150D01*
X80532Y37935D01*
X80653Y37753D01*
X80835Y37632D01*
X81050Y37589D01*
X81265Y37632D01*
X81447Y37753D01*
X81568Y37935D01*
X81611Y38150D01*
X81568Y38365D01*
X81447Y38547D01*
X81265Y38668D01*
X81050Y38711D01*
D02*
G37*
G36*
X61104Y34323D02*
X60552D01*
Y33721D01*
X61104D01*
Y34323D01*
D02*
G37*
G36*
X61154Y30979D02*
X60602D01*
Y30377D01*
X61154D01*
Y30979D01*
D02*
G37*
G36*
X37173Y30754D02*
X36571D01*
Y30202D01*
X37173D01*
Y30754D01*
D02*
G37*
G36*
X61154Y30123D02*
X60602D01*
Y29521D01*
X61154D01*
Y30123D01*
D02*
G37*
G36*
X43579Y28648D02*
X42977D01*
Y28096D01*
X43579D01*
Y28648D01*
D02*
G37*
G36*
X56400Y28845D02*
X55979Y28671D01*
X55853Y28368D01*
X54843Y27357D01*
X54715Y27049D01*
Y26700D01*
X54675D01*
Y25862D01*
X54403Y25732D01*
X54250Y25795D01*
X54050Y25712D01*
X53750Y25900D01*
Y25900D01*
X52485D01*
X52450Y25900D01*
X52169Y25854D01*
X51727D01*
Y25150D01*
X51600D01*
Y25023D01*
X50996D01*
Y24529D01*
X50996Y24446D01*
X50996Y24146D01*
Y23627D01*
X51675D01*
Y23500D01*
X51802D01*
Y22771D01*
X52300D01*
Y22725D01*
X53750D01*
Y24100D01*
X53750Y24400D01*
Y24487D01*
X54050Y24688D01*
X54250Y24605D01*
X54365Y24652D01*
X54665Y24452D01*
Y21536D01*
X54629Y21521D01*
X54629Y21520D01*
X54304D01*
X54221Y21721D01*
X53800Y21895D01*
X53750Y21929D01*
Y22050D01*
X52485D01*
X52450Y22050D01*
X52169Y22004D01*
X51727D01*
Y21300D01*
X51473D01*
Y22004D01*
X51049D01*
X50996Y22004D01*
X50749Y22133D01*
Y22350D01*
X50559Y22809D01*
X50100Y22999D01*
X49641Y22809D01*
X49451Y22350D01*
Y22051D01*
X49151Y21942D01*
X48950Y22025D01*
X47750D01*
X47520Y21930D01*
X47223Y21995D01*
X47150Y22025D01*
X45950D01*
X45749Y21942D01*
X45449Y22051D01*
Y22600D01*
X45259Y23059D01*
X44800Y23249D01*
X44341Y23059D01*
X44151Y22600D01*
Y21750D01*
X44025D01*
Y20300D01*
X44071D01*
Y19802D01*
X44800D01*
Y19675D01*
X44927D01*
Y18996D01*
X45529D01*
X45720Y18870D01*
X45950Y18775D01*
X47150D01*
X47223Y18805D01*
X47455Y18856D01*
X47726Y18676D01*
Y15700D01*
X47625D01*
Y14250D01*
X47671D01*
Y13752D01*
X48400D01*
X49129D01*
Y14250D01*
X49175D01*
Y14326D01*
X50475D01*
X50734Y14131D01*
X50700Y13885D01*
X50393Y13757D01*
X50190Y13554D01*
X50123Y13527D01*
X49988Y13200D01*
X50027Y13105D01*
X50005Y13050D01*
X50179Y12629D01*
X50600Y12455D01*
X50697Y12495D01*
X50946Y12328D01*
Y12275D01*
X51057Y12007D01*
X51075Y11999D01*
Y11340D01*
X51251Y10916D01*
X51600Y10567D01*
Y9865D01*
X53050D01*
Y9911D01*
X53548D01*
Y10640D01*
Y11369D01*
X53050D01*
Y11415D01*
X52448D01*
X52275Y11588D01*
Y11999D01*
X52293Y12007D01*
X52318Y12068D01*
X52387Y12097D01*
X53272Y12982D01*
X53296Y12981D01*
X53536Y12821D01*
X53496Y12726D01*
Y12275D01*
X53607Y12007D01*
X53874Y11896D01*
X54575D01*
X54600Y11906D01*
X54667Y11862D01*
X54900Y11700D01*
X54950Y11425D01*
X54950D01*
Y10644D01*
X54901Y10525D01*
Y9700D01*
X54901Y9700D01*
X55091Y9241D01*
X55550Y9051D01*
X56009Y9241D01*
X56009Y9241D01*
X56199Y9700D01*
Y9875D01*
X56400D01*
Y9921D01*
X56898D01*
Y10650D01*
Y11379D01*
X56448D01*
X56405Y11532D01*
X56622Y11746D01*
X56923D01*
Y12450D01*
Y13154D01*
X56481D01*
X56200Y13200D01*
X56165Y13200D01*
X54970D01*
X54954Y13224D01*
Y13675D01*
X55057Y13830D01*
X55375D01*
X55796Y14004D01*
X58721Y16929D01*
X58895Y17350D01*
X59168Y17475D01*
X59700D01*
Y17521D01*
X60198D01*
Y18250D01*
X60325D01*
Y18377D01*
X61004D01*
Y18796D01*
X61004Y18979D01*
X61004Y19244D01*
Y19673D01*
X60400D01*
Y19800D01*
X60273D01*
Y20504D01*
X59831D01*
X59550Y20550D01*
X59515Y20550D01*
X59086D01*
Y20598D01*
X58959Y20906D01*
X58957Y20908D01*
X58995Y21000D01*
X58885Y21265D01*
X59069Y21565D01*
X61981D01*
X62079Y21329D01*
X62500Y21155D01*
X62921Y21329D01*
X63012Y21549D01*
X63366Y21619D01*
X63404Y21581D01*
X63529Y21279D01*
X63950Y21105D01*
X64371Y21279D01*
X64545Y21700D01*
X64371Y22121D01*
X63950Y22295D01*
X63928Y22286D01*
X63506Y22709D01*
X63198Y22836D01*
X61104D01*
Y23352D01*
X60425D01*
Y23606D01*
X61104D01*
Y24208D01*
X61104D01*
Y24311D01*
X61104D01*
Y24913D01*
X60425D01*
Y25167D01*
X61104D01*
Y25769D01*
X61104D01*
X61104Y25871D01*
X61104D01*
Y26473D01*
X60425D01*
Y26600D01*
X60298D01*
Y27329D01*
X59800D01*
Y27375D01*
X58350D01*
Y26737D01*
X56650D01*
X56561Y26700D01*
X56175D01*
Y26679D01*
X56175D01*
Y26279D01*
X56163Y26250D01*
X56023D01*
Y26679D01*
X55818D01*
X55694Y26979D01*
X56379Y27663D01*
X56400Y27655D01*
X56821Y27829D01*
X56995Y28250D01*
X56821Y28671D01*
X56400Y28845D01*
D02*
G37*
G36*
X61104Y27329D02*
X60552D01*
Y26727D01*
X61104D01*
Y27329D01*
D02*
G37*
G36*
X51473Y25854D02*
X50996D01*
Y25277D01*
X51473D01*
Y25854D01*
D02*
G37*
G36*
X87714Y25710D02*
X87162D01*
Y25108D01*
X87714D01*
Y25710D01*
D02*
G37*
G36*
X39427Y23872D02*
Y23127D01*
X40172D01*
X39954Y23654D01*
X39427Y23872D01*
D02*
G37*
G36*
X51548Y23373D02*
X50996D01*
Y22771D01*
X51548D01*
Y23373D01*
D02*
G37*
G36*
X99294Y23473D02*
X96627D01*
Y22140D01*
X99294D01*
Y23473D01*
D02*
G37*
G36*
X96373D02*
X93706D01*
Y22140D01*
X96373D01*
Y23473D01*
D02*
G37*
G36*
X99294Y21886D02*
X96627D01*
Y20552D01*
X99294D01*
Y21886D01*
D02*
G37*
G36*
X96373D02*
X93706D01*
Y20552D01*
X96373D01*
Y21886D01*
D02*
G37*
G36*
X60527Y20504D02*
Y19927D01*
X61004D01*
Y20504D01*
X60527D01*
D02*
G37*
G36*
X87712Y20173D02*
X87160D01*
Y19571D01*
X87712D01*
Y20173D01*
D02*
G37*
G36*
X44673Y19548D02*
X44071D01*
Y18996D01*
X44673D01*
Y19548D01*
D02*
G37*
G36*
X84951Y18673D02*
X84399D01*
Y18071D01*
X84951D01*
Y18673D01*
D02*
G37*
G36*
X84054Y14529D02*
X83502D01*
Y13927D01*
X84054D01*
Y14529D01*
D02*
G37*
G36*
X99294Y14710D02*
X96627D01*
Y13377D01*
X99294D01*
Y14710D01*
D02*
G37*
G36*
X96373D02*
X93706D01*
Y13377D01*
X96373D01*
Y14710D01*
D02*
G37*
G36*
X49129Y13498D02*
X48527D01*
Y12946D01*
X49129D01*
Y13498D01*
D02*
G37*
G36*
X48273D02*
X47671D01*
Y12946D01*
X48273D01*
Y13498D01*
D02*
G37*
G36*
X57177Y13154D02*
Y12577D01*
X57654D01*
Y13154D01*
X57177D01*
D02*
G37*
G36*
X99294Y13123D02*
X96627D01*
Y11790D01*
X99294D01*
Y13123D01*
D02*
G37*
G36*
X96373D02*
X93706D01*
Y11790D01*
X96373D01*
Y13123D01*
D02*
G37*
G36*
X54354Y11369D02*
X53802D01*
Y10767D01*
X54354D01*
Y11369D01*
D02*
G37*
G36*
Y10513D02*
X53802D01*
Y9911D01*
X54354D01*
Y10513D01*
D02*
G37*
G36*
X72054Y7654D02*
X71277D01*
Y7352D01*
X72054D01*
Y7654D01*
D02*
G37*
G36*
X74713Y6704D02*
X74111D01*
Y6152D01*
X74713D01*
Y6704D01*
D02*
G37*
G36*
X72704Y7004D02*
X72402D01*
Y5727D01*
X72704D01*
Y7004D01*
D02*
G37*
G36*
X48727Y7423D02*
Y5277D01*
X50873D01*
X50723Y6029D01*
X50225Y6775D01*
X49479Y7273D01*
X48727Y7423D01*
D02*
G37*
G36*
X48473D02*
X47721Y7273D01*
X46975Y6775D01*
X46477Y6029D01*
X46327Y5277D01*
X48473D01*
Y7423D01*
D02*
G37*
G36*
X63604Y5123D02*
X63127D01*
Y4546D01*
X63604D01*
Y5123D01*
D02*
G37*
G36*
X72704Y5473D02*
X72402D01*
Y4196D01*
X72704D01*
Y5473D01*
D02*
G37*
G36*
X69898D02*
X69596D01*
Y4196D01*
X69898D01*
Y5473D01*
D02*
G37*
G36*
X84754Y4773D02*
X84277D01*
Y4196D01*
X84754D01*
Y4773D01*
D02*
G37*
G36*
X71023Y7654D02*
X70246D01*
Y7050D01*
X70225D01*
Y7004D01*
X69596D01*
Y5727D01*
X70025D01*
Y5600D01*
X70152D01*
Y4196D01*
X70246D01*
Y4102D01*
X71150D01*
X72054D01*
Y4150D01*
X72075D01*
Y4196D01*
X72148D01*
Y5600D01*
Y7004D01*
X72075D01*
Y7050D01*
X72054D01*
Y7098D01*
X71150D01*
Y7225D01*
X71023D01*
Y7654D01*
D02*
G37*
G36*
X66990Y4671D02*
X66015D01*
Y3696D01*
X66704Y3982D01*
X66990Y4671D01*
D02*
G37*
G36*
X65761D02*
X64786D01*
X65072Y3982D01*
X65761Y3696D01*
Y4671D01*
D02*
G37*
G36*
X72054Y3848D02*
X71277D01*
Y3546D01*
X72054D01*
Y3848D01*
D02*
G37*
G36*
X71023D02*
X70246D01*
Y3546D01*
X71023D01*
Y3848D01*
D02*
G37*
G36*
X50873Y5023D02*
X48727D01*
Y2877D01*
X49479Y3027D01*
X50225Y3525D01*
X50723Y4271D01*
X50873Y5023D01*
D02*
G37*
G36*
X48473D02*
X46327D01*
X46477Y4271D01*
X46975Y3525D01*
X47721Y3027D01*
X48473Y2877D01*
Y5023D01*
D02*
G37*
%LPD*%
G36*
X56567Y24243D02*
Y23634D01*
X56267Y23506D01*
X56085Y23628D01*
Y24037D01*
X56175Y24300D01*
X56510D01*
X56567Y24243D01*
D02*
G37*
G36*
X57595Y25017D02*
X57930Y24878D01*
X58350D01*
Y24265D01*
X58350D01*
Y24254D01*
X58350D01*
Y22836D01*
X57578D01*
X57432Y22983D01*
X57393Y23077D01*
X57436Y23182D01*
Y24423D01*
X57309Y24731D01*
X57248Y24791D01*
X57270Y24911D01*
X57585Y25020D01*
X57595Y25017D01*
D02*
G37*
G36*
X54300Y19450D02*
X54346D01*
Y19027D01*
X54900D01*
Y18850D01*
X54346D01*
Y18850D01*
X54300D01*
Y18415D01*
X54167Y18282D01*
X54050Y18233D01*
X53750Y18434D01*
Y18975D01*
X53750D01*
Y19025D01*
X53750D01*
Y19463D01*
X54300D01*
Y19450D01*
D02*
G37*
G36*
X50996Y20661D02*
Y20596D01*
X50996Y20296D01*
Y19927D01*
X51675D01*
Y19673D01*
X50996D01*
Y19071D01*
X50996D01*
Y18929D01*
X50996D01*
Y18327D01*
X51675D01*
Y18200D01*
X51802D01*
Y17471D01*
X52300D01*
Y17425D01*
X52413D01*
Y17400D01*
X52556Y17056D01*
X52661Y16950D01*
X52537Y16650D01*
X51600D01*
Y16399D01*
X51250D01*
X50791Y16209D01*
X50206Y15624D01*
X49175D01*
Y15700D01*
X49024D01*
Y18806D01*
X49180Y18870D01*
X49275Y19100D01*
Y19112D01*
X49284Y19116D01*
X50559Y20391D01*
X50696Y20721D01*
X50996Y20661D01*
D02*
G37*
G36*
X56600Y18950D02*
Y18850D01*
Y18804D01*
X56177D01*
Y18250D01*
Y17696D01*
X56423D01*
Y18250D01*
X56600D01*
Y17950D01*
X56677D01*
Y17696D01*
X56954D01*
Y17715D01*
X57200Y17913D01*
X57597D01*
X57721Y17613D01*
X55128Y15020D01*
X54646D01*
X54400Y15150D01*
X54400Y15262D01*
Y16513D01*
X54490D01*
X54834Y16656D01*
X55269Y17091D01*
X55326Y17227D01*
X55676Y17577D01*
X55744Y17606D01*
X55776Y17637D01*
X55807Y17650D01*
X56000D01*
Y17696D01*
X56000D01*
Y18010D01*
X56037Y18100D01*
X56037Y18100D01*
Y18250D01*
X56000Y18340D01*
Y18804D01*
X56000D01*
Y18850D01*
X55500D01*
Y18850D01*
X55454D01*
Y18996D01*
Y19450D01*
X56600D01*
Y18950D01*
D02*
G37*
%LPC*%
G36*
X51548Y18073D02*
X50996D01*
Y17471D01*
X51548D01*
Y18073D01*
D02*
G37*
G36*
X74764Y32073D02*
X72887D01*
Y29746D01*
X74764D01*
Y32073D01*
D02*
G37*
G36*
X63430Y13991D02*
X63147D01*
Y13627D01*
X63869D01*
X63777Y13847D01*
X63430Y13991D01*
D02*
G37*
%LPD*%
D10*
X54225Y12500D02*
X55500D01*
X55550Y12450D01*
X53100Y34450D02*
Y34550D01*
X56750Y38550D02*
X58950D01*
X58950Y38550D01*
X53100Y34450D02*
X53750Y33800D01*
X54700D01*
X70100Y24450D02*
X70200D01*
X69850Y24700D02*
X70100Y24450D01*
X69850Y24700D02*
Y25060D01*
X68800Y26110D02*
X69850Y25060D01*
X68675Y26110D02*
X68800D01*
D13*
X76310Y16300D02*
X77710Y17700D01*
X77891Y20619D02*
Y21950D01*
X81973Y22677D02*
X82246Y22404D01*
X72075Y12819D02*
X72129D01*
X68750Y53658D02*
Y54130D01*
X50450Y13200D02*
X50700Y13450D01*
X80227Y49998D02*
X80550Y49675D01*
X64683Y51958D02*
X64737Y51904D01*
X64575Y43529D02*
X64629D01*
X64575Y41969D02*
X64629D01*
X67802Y53030D02*
Y53050D01*
X81000Y31800D02*
X81000Y31800D01*
X80150Y31800D02*
X81000D01*
X81600Y21850D02*
X81893Y21557D01*
Y19762D02*
Y21557D01*
X81050Y21350D02*
X81540Y20860D01*
X79100Y21750D02*
X79105Y21745D01*
X77700Y21950D02*
X77891D01*
X76160Y22915D02*
X77048Y22027D01*
Y21680D02*
Y22027D01*
Y21680D02*
X77502Y21227D01*
X76350Y21700D02*
X76400D01*
X75902Y20558D02*
Y21219D01*
X74419Y22702D02*
X75902Y21219D01*
X75510Y20600D02*
Y20945D01*
X74153Y22302D02*
X75510Y20945D01*
X59221Y48348D02*
X59570Y48000D01*
X58930Y48348D02*
X59221D01*
X58683Y48595D02*
X58930Y48348D01*
X57584Y48595D02*
X58683D01*
X57577Y48602D02*
X57584Y48595D01*
X59570Y48000D02*
X59650D01*
X47958Y48955D02*
X57724D01*
X57508Y49308D02*
X57950Y49750D01*
X47812Y49308D02*
X57508D01*
X57724Y48955D02*
X57730Y48948D01*
X48139Y48602D02*
X57577D01*
X56940Y49661D02*
X57828Y50550D01*
X47276Y49661D02*
X56940D01*
X57828Y50550D02*
X58000D01*
X57730Y48948D02*
X59148D01*
X59200Y49000D01*
X56100Y27500D02*
X57150D01*
X55650Y27050D02*
X56100Y27500D01*
X56350Y23850D02*
Y23930D01*
X55650Y23280D02*
Y24750D01*
X55100Y21150D02*
Y24702D01*
X56850Y22950D02*
X57398Y22402D01*
X56850Y22950D02*
Y23030D01*
X55100Y24702D02*
X55148Y24750D01*
X55150D01*
X55850Y23000D02*
Y23080D01*
X55050Y21100D02*
X55100Y21150D01*
X56150Y24130D02*
X56350Y23930D01*
X55650Y23280D02*
X55850Y23080D01*
X55050Y21100D02*
X55107Y21043D01*
X56850Y23030D02*
X57002Y23182D01*
X56675Y24750D02*
X57002Y24423D01*
Y23182D02*
Y24423D01*
X56150Y24130D02*
Y24750D01*
X56898Y25202D02*
X57750Y24350D01*
X56698Y25202D02*
X56898D01*
X54250Y29700D02*
X55450D01*
X55500Y31000D02*
X56000Y31500D01*
X57398Y22402D02*
X63198D01*
X63900Y21700D01*
X69349Y20249D02*
X70389D01*
X69250Y20150D02*
X69349Y20249D01*
X72129Y12819D02*
X74810Y15500D01*
X73959Y13259D02*
X74650Y13950D01*
X75981D01*
X78310Y13790D02*
X79400Y12700D01*
X78310Y13790D02*
Y14800D01*
X79346Y13352D02*
X79670D01*
X78700Y13997D02*
X79346Y13352D01*
X79545Y13705D02*
X79816D01*
X79110Y14140D02*
X79545Y13705D01*
X79110Y14140D02*
Y14800D01*
X56400Y26950D02*
X57900D01*
X56198Y26748D02*
X56400Y26950D01*
X56198Y26298D02*
Y26748D01*
X77993Y36493D02*
Y42885D01*
X77602Y36102D02*
X77993Y36493D01*
X65983Y36102D02*
X77602D01*
X79152Y33361D02*
Y33948D01*
X78700Y34400D02*
X79152Y33948D01*
X78700Y34400D02*
Y43199D01*
X78347Y35947D02*
Y43053D01*
X77148Y34748D02*
X78347Y35947D01*
X65098Y33961D02*
Y34248D01*
X64987Y33850D02*
X65098Y33961D01*
X65748Y32419D02*
Y34167D01*
X65098Y34248D02*
X66250Y35400D01*
X65748Y34167D02*
X66330Y34748D01*
X64048Y34167D02*
X65983Y36102D01*
X64048Y33514D02*
Y34167D01*
X66250Y35400D02*
X69200D01*
X56094Y36550D02*
X56650D01*
X54898Y35354D02*
X56094Y36550D01*
X60205Y37295D02*
X72755D01*
X59298Y38202D02*
X60205Y37295D01*
X72755D02*
X73250Y36800D01*
X42602Y45502D02*
X44952D01*
X40450Y43350D02*
X42602Y45502D01*
X39300Y43350D02*
X40450D01*
X47038Y49900D02*
X47276Y49661D01*
X47659Y49155D02*
X47812Y49308D01*
X46855Y49155D02*
X47659D01*
X47303Y48300D02*
X47958Y48955D01*
X46800Y48300D02*
X47303D01*
X70750Y43618D02*
Y45945D01*
X68250Y43350D02*
X69550Y44650D01*
X66185Y43350D02*
X68250D01*
X67249Y41850D02*
X69950Y44551D01*
X66185Y41850D02*
X67249D01*
X75948Y44930D02*
X77993Y42885D01*
X75150Y45229D02*
Y45945D01*
X76871Y48650D02*
X78708Y46813D01*
Y45293D02*
Y46813D01*
Y45293D02*
X79100Y44901D01*
Y44900D02*
Y44901D01*
X78355Y43544D02*
X78700Y43199D01*
X62450Y38129D02*
X62930Y37648D01*
X62450Y38129D02*
Y38950D01*
X60700Y57000D02*
Y57300D01*
X60318Y57682D02*
X60700Y57300D01*
X58380Y57682D02*
X60318D01*
X61870Y48698D02*
X62808D01*
X61568Y49000D02*
X61870Y48698D01*
X60550Y49000D02*
X61568D01*
X61753Y49700D02*
X62107Y50055D01*
X61750Y49700D02*
X61753D01*
X61500Y51012D02*
X61619Y50893D01*
X61500Y51012D02*
Y51050D01*
X61755Y53424D02*
Y57618D01*
Y53424D02*
X62151Y53028D01*
Y51168D02*
Y53028D01*
X62108Y53570D02*
Y57764D01*
Y53570D02*
X62505Y53174D01*
Y51315D02*
Y53174D01*
X61619Y50893D02*
X61927D01*
X62538Y49350D02*
X62675D01*
X63438Y49348D02*
X65550D01*
X63189Y49100D02*
X63438Y49348D01*
X63189Y49080D02*
Y49100D01*
X62808Y48698D02*
X63189Y49080D01*
X63604Y48995D02*
X65404D01*
X62910Y48301D02*
X63604Y48995D01*
X63750Y48050D02*
X64270Y47530D01*
X62675Y49350D02*
X63027Y49701D01*
X65550Y49348D02*
X66248Y48650D01*
X62530Y48301D02*
X62910D01*
X61381Y46850D02*
X61500Y46969D01*
X61350Y46850D02*
X61381D01*
X61500Y46969D02*
Y47272D01*
X57360Y58702D02*
X58380Y57682D01*
X61338Y58035D02*
X61755Y57618D01*
X59297Y58035D02*
X61338D01*
X58630Y58702D02*
X59297Y58035D01*
X61170Y58702D02*
X62108Y57764D01*
X62107Y50055D02*
X65845D01*
X62440Y59718D02*
X62461Y59697D01*
Y54989D02*
Y59697D01*
Y54989D02*
X62900Y54550D01*
X66398Y55152D02*
Y60348D01*
Y55152D02*
X66900Y54650D01*
X66045Y54504D02*
Y58005D01*
Y54504D02*
X66056Y54493D01*
Y53522D02*
Y54493D01*
Y53522D02*
X66580Y52998D01*
X65692Y54357D02*
Y57742D01*
Y54357D02*
X65703Y54346D01*
Y53376D02*
Y54346D01*
Y53376D02*
X66467Y52612D01*
X64575Y51850D02*
X64683Y51958D01*
X68806Y54650D02*
X69142Y54314D01*
X66900Y54650D02*
X68806D01*
X65400Y58650D02*
X66045Y58005D01*
X65436Y57998D02*
X65692Y57742D01*
X64450Y58550D02*
X65002Y57998D01*
X65436D01*
X63353Y47177D02*
X65104D01*
X62880Y47650D02*
X63353Y47177D01*
X62800Y47650D02*
X62880D01*
X68550Y44772D02*
Y44794D01*
X68640Y42640D02*
X70350Y44350D01*
X71605Y43400D02*
X72350Y42655D01*
X71605Y43400D02*
Y44546D01*
X71958Y43546D02*
Y45937D01*
Y43546D02*
X72654Y42850D01*
X72348Y44152D02*
X72807Y43693D01*
X71250Y42800D02*
X71252Y42802D01*
X70543Y43657D02*
X70600Y43600D01*
X71252Y42802D02*
Y44399D01*
X69550Y44650D02*
Y45945D01*
X69950Y44551D02*
Y45945D01*
X70350Y44350D02*
Y45945D01*
X72348Y44152D02*
Y45943D01*
X73000Y44500D02*
X73150Y44650D01*
X71150Y44501D02*
Y45945D01*
Y44501D02*
X71252Y44399D01*
X71550Y44600D02*
X71605Y44546D01*
X71550Y44600D02*
Y45750D01*
X71550Y45750D02*
X71550Y45750D01*
X71550Y45750D02*
Y45945D01*
X68550Y44794D02*
X69142Y45386D01*
X68640Y41850D02*
Y42640D01*
X64270Y47530D02*
X65251D01*
X64750Y48200D02*
X64775Y48175D01*
X63027Y49701D02*
X65699D01*
X62403Y50417D02*
X66033D01*
X62550Y50770D02*
X66020D01*
X65773Y51123D02*
X66201Y51551D01*
X62696Y51123D02*
X65773D01*
X66846Y50546D02*
X66926D01*
X67263Y51050D02*
X68045D01*
X67116Y51197D02*
X67263Y51050D01*
X66447Y51197D02*
X67116D01*
X67354Y51458D02*
X68037D01*
X67262Y51551D02*
X67354Y51458D01*
X66201Y51551D02*
X67262D01*
X67454Y51858D02*
X68037D01*
X67408Y51904D02*
X67454Y51858D01*
X64737Y51904D02*
X67408D01*
X67600Y52212D02*
X67982D01*
X67555Y52257D02*
X67600Y52212D01*
X66043Y52257D02*
X67555D01*
X68007Y52612D02*
X68045Y52650D01*
X66467Y52612D02*
X68007D01*
X62930Y37648D02*
X69248D01*
X70152Y38552D01*
Y40102D01*
X69903Y40350D02*
X70152Y40102D01*
X69850Y40350D02*
X69903D01*
X68600Y39250D02*
X68650Y39300D01*
X69443Y39307D02*
X69500Y39250D01*
X64300Y40350D02*
X66040D01*
X63850Y41002D02*
X69452D01*
X63200Y40352D02*
X63850Y41002D01*
X63200Y38300D02*
Y40352D01*
X66040Y40350D02*
X67140Y39250D01*
X78001Y43398D02*
X78347Y43053D01*
X76100Y43000D02*
Y44279D01*
X75150Y45229D02*
X76100Y44279D01*
X80030Y46000D02*
X80050D01*
X80900Y45000D02*
Y46071D01*
X80075Y46897D02*
X80900Y46071D01*
X79632Y46897D02*
X80075D01*
X79779Y47250D02*
X80650D01*
X79100Y44900D02*
X79170D01*
X78001Y43398D02*
Y46453D01*
X77300Y45950D02*
Y46655D01*
X76648Y45248D02*
Y46808D01*
X75950Y45900D02*
Y45950D01*
Y46642D01*
X76414Y47042D02*
X76648Y46808D01*
X75941Y46650D02*
X75950Y46642D01*
X76613Y47842D02*
X78001Y46453D01*
X76704Y48250D02*
X78355Y46600D01*
X78943Y49557D02*
X79000Y49500D01*
X75855Y50650D02*
X77377D01*
X79293Y48657D02*
X79350Y48600D01*
X77178Y49850D02*
X79779Y47250D01*
X77079Y49450D02*
X79632Y46897D01*
X76979Y49050D02*
X80030Y46000D01*
X78355Y43544D02*
Y46600D01*
X76514Y47442D02*
X77300Y46655D01*
X75863Y47042D02*
X76414D01*
X80550Y49675D02*
Y49700D01*
X78871Y48657D02*
X79293D01*
X77278Y50250D02*
X78871Y48657D01*
X76600Y45200D02*
X76648Y45248D01*
X75948Y44930D02*
Y45898D01*
X75100Y43950D02*
Y44030D01*
X74350Y43400D02*
Y45945D01*
X75948Y45898D02*
X75950Y45900D01*
X75855Y48250D02*
X76704D01*
X74750Y42900D02*
Y43000D01*
X75863Y47842D02*
X76613D01*
X75855Y47850D02*
X75863Y47842D01*
X74750Y44380D02*
X75100Y44030D01*
X74350Y43400D02*
X74750Y43000D01*
X75943Y48650D02*
X76871D01*
X78473Y51398D02*
X79873Y49998D01*
X77905Y51045D02*
X78600Y50350D01*
X77377Y50650D02*
X78471Y49557D01*
X75900Y49450D02*
X77079D01*
X75855Y49050D02*
X76979D01*
X75863Y47442D02*
X76514D01*
X69350Y56600D02*
X70350Y55600D01*
X69502Y55948D02*
X69950Y55500D01*
X69067Y55948D02*
X69502D01*
X69005Y56011D02*
X69067Y55948D01*
X68489Y56011D02*
X69005D01*
X69200Y55170D02*
Y55250D01*
Y55170D02*
X69550Y54819D01*
X68450Y56050D02*
X68489Y56011D01*
X66398Y60348D02*
X67000Y60950D01*
X67100D01*
X39250Y43300D02*
X39300Y43350D01*
X44952Y45502D02*
X45200Y45750D01*
Y45850D01*
X44400Y44050D02*
X44952D01*
X45200Y44298D01*
Y44390D01*
X59198Y38202D02*
X59298D01*
X58950Y38450D02*
X59198Y38202D01*
X58950Y38450D02*
Y38550D01*
X75855Y46650D02*
X75941D01*
X46800Y49900D02*
X47038D01*
X73193Y42807D02*
X73250Y42750D01*
X72993Y42807D02*
X73193D01*
X54575Y46025D02*
X55900Y47350D01*
X55950D01*
X57150Y46280D02*
Y46650D01*
X56895Y46025D02*
X57150Y46280D01*
X39200Y47400D02*
X39250Y47450D01*
X39200Y47300D02*
Y47400D01*
X60400Y45650D02*
X60450D01*
X57431Y44713D02*
X57493Y44650D01*
Y44307D02*
Y44650D01*
Y44307D02*
X57550Y44250D01*
X61500Y47272D02*
X62530Y48301D01*
X61927Y50893D02*
X62403Y50417D01*
X62151Y51168D02*
X62550Y50770D01*
X62505Y51315D02*
X62696Y51123D01*
X47038Y47500D02*
X48139Y48602D01*
X46800Y47500D02*
X47038D01*
X46800Y49100D02*
X46855Y49155D01*
X64600Y46650D02*
X68045D01*
X65231Y47050D02*
X68045D01*
X65104Y47177D02*
X65231Y47050D01*
X67802Y53050D02*
X68045D01*
X67783Y53012D02*
X67802Y53030D01*
X67456Y53012D02*
X67783D01*
X67442Y52998D02*
X67456Y53012D01*
X66580Y52998D02*
X67442D01*
X66850Y53650D02*
X68742D01*
X65404Y48995D02*
X66149Y48250D01*
X68045D01*
X66248Y48650D02*
X68045D01*
X66350Y49050D02*
X68045D01*
X65699Y49701D02*
X66350Y49050D01*
X66450Y49450D02*
X68045D01*
X65845Y50055D02*
X66450Y49450D01*
X67116Y49894D02*
X67472Y50250D01*
X66556Y49894D02*
X67116D01*
X66033Y50417D02*
X66556Y49894D01*
X66020Y50770D02*
X66447Y51197D01*
X69950Y53755D02*
Y55500D01*
X70350Y53755D02*
Y55600D01*
X70450Y56420D02*
Y56500D01*
X70750Y53755D02*
Y56120D01*
X37200Y45300D02*
X38200Y44300D01*
X40556D01*
X43756Y47500D01*
X45100D01*
X38100Y46400D02*
X41231D01*
X38052Y48448D02*
X41529D01*
X38348Y50152D02*
X44611D01*
X37200Y51300D02*
X38348Y50152D01*
X41529Y48448D02*
X42181Y49100D01*
X37200Y49300D02*
X38052Y48448D01*
X44611Y50152D02*
X44862Y49900D01*
X37200Y47300D02*
X38100Y46400D01*
X41231D02*
X43131Y48300D01*
X45100D01*
X42181Y49100D02*
X45100D01*
X44862Y49900D02*
X45100D01*
X81051Y11675D02*
X81076D01*
X76750Y13150D02*
X77110Y13510D01*
X77910Y13256D02*
X79491Y11675D01*
X77910Y13256D02*
Y14800D01*
X73643Y20107D02*
X73700Y20050D01*
X72438Y20360D02*
X73698Y19100D01*
X72438Y21160D02*
X73491Y20107D01*
X73643D01*
X77502Y20608D02*
Y21227D01*
X78710Y14007D02*
Y14800D01*
X73698Y19100D02*
X74810D01*
X78700Y13997D02*
X78710Y14007D01*
X77891Y21950D02*
X77891Y21950D01*
X77508Y30295D02*
X78212Y31000D01*
X76660Y30295D02*
X77508D01*
X69800Y41350D02*
Y41800D01*
X69850Y41850D01*
X69452Y41002D02*
X69800Y41350D01*
X69443Y39307D02*
Y39601D01*
X69148Y39896D02*
X69443Y39601D01*
X69148Y39896D02*
Y39941D01*
X68740Y40350D02*
X69148Y39941D01*
X68640Y40350D02*
X68740D01*
X67140Y39250D02*
X68600D01*
X62250Y22000D02*
X62500Y21750D01*
X56750Y22000D02*
X62250D01*
X55650Y17250D02*
X55650Y17250D01*
X55650D01*
X56045Y17645D01*
X53100Y21300D02*
X53800D01*
X53100Y21300D02*
X53100Y21300D01*
X65251Y47530D02*
X65330Y47450D01*
X50700Y13450D02*
X51675D01*
X54000Y19250D02*
X54100D01*
X54250Y19400D02*
X54900D01*
X54100Y19250D02*
X54250Y19400D01*
X54200Y17700D02*
X54900Y18400D01*
X56500Y17250D02*
X56525Y17275D01*
X56650Y36550D02*
X58950D01*
X53800Y34750D02*
Y35500D01*
Y34750D02*
X54095Y34455D01*
X54695D01*
X54700Y34450D01*
X63900Y21700D02*
X63950D01*
X69400Y19100D02*
Y19200D01*
X58450Y20800D02*
Y20950D01*
X58400Y21000D02*
X58450Y20950D01*
Y20800D02*
X58652Y20598D01*
Y20048D02*
Y20598D01*
Y20048D02*
X58900Y19800D01*
X58950Y36550D02*
X59000Y36500D01*
X53100Y36450D02*
X54600D01*
X53050Y36500D02*
X53100Y36450D01*
X57200Y18900D02*
X58100D01*
X81550Y22000D02*
X81600Y21950D01*
X82246Y19572D02*
Y22404D01*
X73798Y22702D02*
X74419D01*
X77100Y18800D02*
X77110Y18810D01*
Y20550D01*
X80850Y19908D02*
Y20500D01*
X80841Y19900D02*
X80850Y19908D01*
X80610Y19900D02*
X80841D01*
X69600Y18100D02*
X69602D01*
X70262Y18760D01*
X69400Y19200D02*
X69745Y19545D01*
X72598Y22302D02*
X74153D01*
X73550Y22950D02*
X73798Y22702D01*
X71950Y22950D02*
X72598Y22302D01*
X73298Y18700D02*
X74810D01*
X72438Y19560D02*
X73298Y18700D01*
X73050Y15800D02*
X73389D01*
X73050Y17200D02*
X73130D01*
X72898Y18300D02*
X74810D01*
X72438Y18760D02*
X72898Y18300D01*
X72200Y18760D02*
X72438D01*
X73130Y17200D02*
X73430Y17500D01*
X55500Y30700D02*
Y31000D01*
Y30700D02*
X55650Y30550D01*
X55450Y29700D02*
X55800Y30050D01*
X56112Y44713D02*
X57431D01*
X54500Y46025D02*
X54575D01*
X53998Y45619D02*
Y46598D01*
X55050Y47650D01*
X53998Y45619D02*
X54169Y45448D01*
X54427D01*
X54500Y45375D01*
X57800Y35250D02*
X57850D01*
X56950Y41700D02*
X57000Y41750D01*
X56950Y40673D02*
Y41700D01*
X56827Y40550D02*
X56950Y40673D01*
X56750Y40550D02*
X56827D01*
X53500Y40900D02*
Y41650D01*
Y40900D02*
X53527Y40873D01*
Y40673D02*
Y40873D01*
Y40673D02*
X53650Y40550D01*
X53850D01*
X56769Y33000D02*
X57100D01*
X56198Y33571D02*
X56769Y33000D01*
X56198Y33571D02*
Y34002D01*
X55750Y34450D02*
X56198Y34002D01*
X54898Y35173D02*
Y35354D01*
X54825Y35100D02*
X54898Y35173D01*
X54700Y35100D02*
X54825D01*
X57650D02*
X57800Y35250D01*
X56800Y35100D02*
X57650D01*
X56850Y30750D02*
X57450D01*
X56528Y30428D02*
X56850Y30750D01*
X56524Y30428D02*
X56528D01*
X55150Y27049D02*
X56350Y28250D01*
X55150Y26250D02*
Y27049D01*
X56350Y28250D02*
X56400D01*
X55650Y26250D02*
Y27050D01*
X53400Y44050D02*
X53450D01*
X53475Y44075D01*
X54500D01*
X56100Y46025D02*
X56895D01*
X56100Y44725D02*
X56112Y44713D01*
X52850Y39550D02*
X52850Y39550D01*
X53850D01*
X56150Y26250D02*
X56198Y26298D01*
X54569Y26150D02*
X54969Y25750D01*
X53950Y26150D02*
X54569D01*
X54969Y25750D02*
X55150D01*
X55150Y25750D01*
X56650Y25250D02*
X56698Y25202D01*
X56650Y24750D02*
X56675D01*
X56050Y21200D02*
X56050Y21200D01*
Y20050D02*
Y21200D01*
Y20050D02*
X56050Y20050D01*
X55107Y20643D02*
Y21043D01*
Y20643D02*
X55550Y20200D01*
Y20050D02*
Y20200D01*
X58100Y18900D02*
X58900Y19700D01*
Y19800D01*
X56525Y17275D02*
Y18225D01*
X56550Y18250D01*
X56045Y17645D02*
Y18245D01*
X56050Y18250D01*
X54900Y18900D02*
Y19400D01*
X77900Y5050D02*
X78775D01*
X74840Y3375D02*
X74850Y3365D01*
X74840Y3375D02*
Y4675D01*
X64002Y16602D02*
X64050Y16650D01*
X62252Y16602D02*
X64002D01*
X61898Y16248D02*
X62252Y16602D01*
X61798Y16248D02*
X61898D01*
X61550Y16000D02*
X61798Y16248D01*
X61550Y15900D02*
Y16000D01*
X61400Y5150D02*
X61500Y5250D01*
X61400Y4100D02*
Y5150D01*
X60400Y12200D02*
X61621D01*
X61370Y12950D02*
X61450D01*
X61307Y12888D02*
X61370Y12950D01*
X60438Y12888D02*
X61307D01*
X60400Y12850D02*
X60438Y12888D01*
X61621Y12200D02*
X62102Y12680D01*
Y15248D01*
X61550Y15800D02*
X62102Y15248D01*
X61550Y15800D02*
Y15900D01*
X70402Y10886D02*
X70720Y11204D01*
X76400Y21700D02*
X76710Y21390D01*
X79105Y20605D02*
Y21745D01*
X76710Y20600D02*
Y21390D01*
X76400Y9000D02*
X76400Y9000D01*
X77800Y4950D02*
X77900Y5050D01*
X64150Y5900D02*
X64207Y5957D01*
X64957D01*
X65050Y6050D01*
X68700D02*
X69200Y5550D01*
X66726Y6050D02*
X68700D01*
X69315Y9650D02*
X70402Y10737D01*
Y10886D01*
X69315Y9600D02*
Y9650D01*
X69200Y5550D02*
X69975D01*
X70025Y5600D01*
X72993Y4007D02*
X73037Y3963D01*
X72893Y4007D02*
X72993D01*
X72275Y4625D02*
X72893Y4007D01*
X72275Y4625D02*
Y5600D01*
X71162Y3963D02*
X73037D01*
X71150Y3975D02*
X71162Y3963D01*
X70798Y3975D02*
X71150D01*
X70725Y4048D02*
X70798Y3975D01*
X70725Y4048D02*
Y4925D01*
X72920Y7400D02*
X73000D01*
X72745Y7225D02*
X72920Y7400D01*
X71150Y7225D02*
X72745D01*
X69350Y21100D02*
X69380Y21130D01*
X68742Y53650D02*
X68750Y53658D01*
X67982Y52212D02*
X68027Y52257D01*
X68038D01*
X62900Y54550D02*
X65000D01*
X65350Y52950D02*
Y54200D01*
X65000Y54550D02*
X65350Y54200D01*
Y52950D02*
X66043Y52257D01*
X68200Y28537D02*
X69387D01*
X69380Y21130D02*
X70470D01*
X69745Y19545D02*
X70485D01*
X72396Y40475D02*
X72446D01*
X80150Y31800D02*
X80150Y31800D01*
X69494Y28600D02*
X69501Y28608D01*
X69450Y28600D02*
X69494D01*
X69387Y28537D02*
X69450Y28600D01*
X66830Y27167D02*
X68200Y28537D01*
X66232Y27167D02*
X66830D01*
X66125Y27060D02*
X66232Y27167D01*
X65305Y48175D02*
X65630Y47850D01*
X64775Y48175D02*
X65305D01*
X64575Y45090D02*
X64629D01*
X65003Y45263D02*
X65685Y45945D01*
X64898Y45263D02*
X65003D01*
X64629Y44994D02*
X64898Y45263D01*
X64629Y44890D02*
Y44994D01*
X65685Y45945D02*
X68750D01*
X57360Y58702D02*
Y59718D01*
X65330Y47450D02*
X68045D01*
X65630Y47850D02*
X68045D01*
X68038Y52257D02*
X68045Y52250D01*
X67472Y50250D02*
X68045D01*
X66926Y50546D02*
X67030Y50650D01*
X58630Y58702D02*
Y59718D01*
X59900Y58750D02*
Y59718D01*
X61170Y58702D02*
Y59718D01*
X68037Y51458D02*
X68045Y51450D01*
X76572Y50658D02*
X76605Y50692D01*
X75863Y50658D02*
X76572D01*
X75855Y50650D02*
X75863Y50658D01*
X67950Y32225D02*
X68610Y31565D01*
X66475Y32225D02*
X67950D01*
X66330Y34748D02*
X77148D01*
X80400Y31000D02*
X80800Y30600D01*
X79050Y29660D02*
Y30637D01*
X78687Y31000D02*
X79050Y30637D01*
X79448Y30602D02*
Y31839D01*
Y30602D02*
X80400Y29650D01*
X78687Y32600D02*
X79448Y31839D01*
X77145Y32600D02*
X78450D01*
X78687D01*
X68610Y34105D02*
X68860D01*
X68355Y33850D02*
X68610Y34105D01*
X66450Y33850D02*
X68355D01*
X64750D02*
X64987D01*
X64048Y33514D02*
X64512Y33050D01*
X64750D01*
X65629Y32300D02*
X65748Y32419D01*
X64800Y32300D02*
X65629D01*
X64750Y32250D02*
X64800Y32300D01*
X79152Y33361D02*
X79912Y32600D01*
X80150D01*
Y31000D02*
X80400D01*
Y29650D02*
X80500D01*
X78212Y31000D02*
X78450D01*
X78687D01*
X66450Y32250D02*
X66475Y32225D01*
X68610Y31565D02*
X68860D01*
X66450Y33050D02*
X66557Y32943D01*
X68753D01*
X68860Y32835D01*
X76660D02*
X76910D01*
X77145Y32600D01*
X76660Y31565D02*
X76910D01*
X77145Y31800D01*
X78450D01*
X71060Y41850D02*
X71085Y41825D01*
X69850Y41850D02*
X71060D01*
X68037Y51858D02*
X68045Y51850D01*
X69550Y53755D02*
Y54819D01*
X69142Y53763D02*
Y54314D01*
Y53763D02*
X69150Y53755D01*
X71150Y54650D02*
X71300Y54800D01*
X67030Y50650D02*
X68045D01*
X74750Y44380D02*
Y45945D01*
X73950Y45908D02*
Y45945D01*
Y45608D02*
Y45908D01*
X73942Y45600D02*
X73950Y45608D01*
X73558Y45900D02*
X73942D01*
X73950Y45908D01*
X73550D02*
X73558Y45900D01*
X73550Y45908D02*
Y45945D01*
X73150Y44650D02*
Y45945D01*
X72348Y45943D02*
X72350Y45945D01*
X71085Y41825D02*
X72446D01*
X71950Y45945D02*
X71958Y45937D01*
X72950Y42850D02*
X72993Y42807D01*
X72654Y42850D02*
X72950D01*
X72350Y41921D02*
Y42655D01*
Y41921D02*
X72446Y41825D01*
X71550Y45945D02*
X71550Y45945D01*
X64629Y41769D02*
X64710Y41850D01*
X66185D01*
X64629Y43329D02*
X64650Y43350D01*
X66185D01*
X68750Y45945D02*
Y46243D01*
X68742Y46252D02*
X68750Y46243D01*
X69142Y45386D02*
Y45937D01*
X69150Y45945D01*
X64575Y46450D02*
X64575Y46450D01*
X70450Y56420D02*
X70750Y56120D01*
X71150Y53755D02*
Y54650D01*
X70827Y57678D02*
X71050D01*
X70329Y58175D02*
X70827Y57678D01*
X70279Y58175D02*
X70329D01*
X71050Y57678D02*
X71800Y56927D01*
Y54750D02*
Y56927D01*
X71558Y54508D02*
X71800Y54750D01*
X71558Y53763D02*
Y54508D01*
X71550Y53755D02*
X71558Y53763D01*
X71958Y54408D02*
X72200Y54650D01*
X71958Y53763D02*
Y54408D01*
X71950Y53755D02*
X71958Y53763D01*
X72650Y54550D02*
X72742Y54458D01*
Y53763D02*
Y54458D01*
Y53763D02*
X72750Y53755D01*
X73900Y56600D02*
X74050D01*
X73150Y55850D02*
X73900Y56600D01*
X73150Y53755D02*
Y55850D01*
X74100Y55650D02*
X74150D01*
X73550Y55100D02*
X74100Y55650D01*
X73550Y53755D02*
Y55100D01*
X73958Y54314D02*
X74434Y54790D01*
X74482D01*
X75150Y53755D02*
Y55650D01*
X73958Y53763D02*
Y54314D01*
X73950Y53755D02*
X73958Y53763D01*
X77202Y54294D02*
Y56154D01*
X76594Y53687D02*
X77202Y54294D01*
X76594Y53414D02*
Y53687D01*
X76230Y53050D02*
X76594Y53414D01*
X75863Y52658D02*
X76558D01*
X79873Y49998D02*
X80227D01*
X76752Y51398D02*
X78473D01*
X75855Y50250D02*
X77278D01*
X75885Y49850D02*
X77178D01*
X76605Y51045D02*
X77905D01*
X78471Y49557D02*
X78943D01*
X75900Y49450D02*
X75900Y49450D01*
X75900D02*
X75900Y49450D01*
X75855Y49450D02*
X75900D01*
X75855Y47450D02*
X75863Y47442D01*
X75855Y47050D02*
X75863Y47042D01*
X76601Y51050D02*
X76605Y51045D01*
X75855Y51050D02*
X76601D01*
X75855Y51450D02*
X76700D01*
X75855Y51850D02*
X77100D01*
X75855Y51850D02*
X75855Y51850D01*
X76700Y51450D02*
X76752Y51398D01*
X75855Y51050D02*
X75855Y51050D01*
X75855Y52650D02*
X75863Y52658D01*
X75855Y53050D02*
X76230D01*
X77054Y56302D02*
X77202Y56154D01*
X76998Y56302D02*
X77054D01*
X76575Y56725D02*
X76998Y56302D01*
X76525Y56725D02*
X76575D01*
X75150Y55650D02*
X75175Y55675D01*
X81540Y19909D02*
Y20860D01*
X81139Y19508D02*
X81540Y19909D01*
X81239Y19108D02*
X81893Y19762D01*
X81374Y18700D02*
X82246Y19572D01*
X72200Y21160D02*
X72438D01*
X70470Y21130D02*
X70500Y21160D01*
X70389Y20249D02*
X70500Y20360D01*
X70485Y19545D02*
X70500Y19560D01*
X70262Y18760D02*
X70500D01*
X81600Y21850D02*
Y21950D01*
X79105Y20605D02*
X79110Y20600D01*
X80610Y18700D02*
X81374D01*
X81250Y12770D02*
X83076D01*
X84172Y11675D01*
X84222D01*
X79962Y14058D02*
X81250Y12770D01*
X79731Y14058D02*
X79962D01*
X79518Y14271D02*
X79731Y14058D01*
X79518Y14271D02*
Y14792D01*
X79510Y14800D02*
X79518Y14792D01*
X80613Y12613D02*
X80874Y12352D01*
X81935D01*
X82612Y11675D01*
X82662D01*
X80613Y12613D02*
Y12908D01*
X79816Y13705D02*
X80613Y12908D01*
X79670Y13352D02*
X80199Y12823D01*
Y12527D02*
Y12823D01*
Y12527D02*
X81051Y11675D01*
X79491Y11675D02*
X79541D01*
X77110Y13510D02*
Y14800D01*
X75259Y10988D02*
X75684D01*
X76370Y11675D02*
X76420D01*
X75684Y10988D02*
X76370Y11675D01*
X74860Y10590D02*
X75259Y10988D01*
X74860Y10490D02*
Y10590D01*
X76098Y11997D02*
Y13448D01*
Y11997D02*
X76420Y11675D01*
X76098Y13448D02*
X76702Y14052D01*
Y14792D01*
X76710Y14800D01*
X75981Y13950D02*
X76302Y14271D01*
X73959Y12588D02*
Y13259D01*
X73560Y12190D02*
X73959Y12588D01*
X73560Y12090D02*
Y12190D01*
X73053Y11582D02*
X73560Y12090D01*
X72398Y11582D02*
X73053D01*
X72075Y11259D02*
X72398Y11582D01*
X72075Y11209D02*
Y11259D01*
X76302Y14271D02*
Y14792D01*
X76310Y14800D01*
X72075Y11209D02*
X72116Y11250D01*
X71850Y22950D02*
X71950D01*
X75902Y20558D02*
X75910Y20550D01*
X72200Y20360D02*
X72438D01*
X72200Y19560D02*
X72438D01*
X73389Y15800D02*
X74281Y16692D01*
X74810Y16300D02*
X76310D01*
X74281Y16692D02*
X74802D01*
X74810Y16700D01*
X73430Y17500D02*
X74810D01*
X77502Y20608D02*
X77510Y20600D01*
X77891Y20619D02*
X77910Y20600D01*
X80618Y19108D02*
X81239D01*
X80610Y19100D02*
X80618Y19108D01*
Y19508D02*
X81139D01*
X80610Y19500D02*
X80618Y19508D01*
D14*
X72350Y50250D02*
Y53755D01*
X62770Y13350D02*
X63833D01*
X80373Y22788D02*
X80635Y23050D01*
X81727Y14098D02*
X82025Y13800D01*
X77710Y22925D02*
Y23075D01*
X77515Y25753D02*
X77688Y25579D01*
X82650Y6200D02*
Y7553D01*
X62770Y12700D02*
X65000D01*
X80373Y21374D02*
Y22788D01*
X79910Y20911D02*
X80373Y21374D01*
X79969Y21646D02*
Y22316D01*
X79506Y21183D02*
X79969Y21646D01*
X77710Y22925D02*
X78423Y22212D01*
Y21470D02*
Y22212D01*
Y21470D02*
X78697Y21195D01*
Y20613D02*
Y21195D01*
X73350Y21650D02*
X73600Y21400D01*
X71635Y21650D02*
X73350D01*
X72550Y16465D02*
Y16500D01*
X72025Y15940D02*
X72550Y16465D01*
X72025Y15890D02*
Y15940D01*
X67100Y62450D02*
X69200D01*
X70250Y63500D01*
X63200Y51850D02*
X63225D01*
X73927Y41904D02*
Y45615D01*
X73942Y45600D01*
X74400Y59535D02*
Y59850D01*
Y59535D02*
X74410Y59525D01*
X68719Y59525D02*
X68750Y59556D01*
X68719Y59525D02*
X68719Y59525D01*
X68750Y59556D02*
Y60050D01*
X70250Y59554D02*
X70279Y59525D01*
X70250Y59554D02*
Y61800D01*
X73927Y41904D02*
X74006Y41825D01*
X78066Y9000D02*
X79150D01*
X81051Y8915D02*
X81101D01*
X80386Y8250D02*
X81051Y8915D01*
X71400Y18125D02*
Y21414D01*
X79506Y20928D02*
Y21183D01*
X79910Y20600D02*
Y20911D01*
X77510Y12096D02*
Y14800D01*
Y12096D02*
X77931Y11675D01*
X50450Y13200D02*
X50600Y13050D01*
X58073Y11608D02*
X59965Y13500D01*
X58073Y7427D02*
Y11608D01*
X59965Y13500D02*
X60400D01*
X58073Y7427D02*
X58750Y6750D01*
X58815Y8150D02*
Y9710D01*
X58750Y8150D02*
X58815D01*
X79359Y22926D02*
X79969Y22316D01*
X72885Y14677D02*
X74107Y15900D01*
X72425Y17900D02*
X74810D01*
X72025Y17500D02*
X72425Y17900D01*
X79927Y14550D02*
X80700D01*
X58750Y6650D02*
Y6750D01*
X62250Y12200D02*
X63020D01*
X61550Y11500D02*
X62250Y12200D01*
X63020D02*
X63020Y12200D01*
X64585Y12023D02*
X65827D01*
X64408Y12200D02*
X64585Y12023D01*
X63020Y12200D02*
X64408D01*
X61550Y9700D02*
Y11500D01*
X62925Y8150D02*
X63050Y8275D01*
Y9700D01*
X63020Y11550D02*
X63050Y11520D01*
Y9700D02*
Y11520D01*
X58815Y8150D02*
X58815Y8150D01*
X61500Y9650D02*
X61550Y9700D01*
X61500Y8225D02*
Y9650D01*
X63833Y13350D02*
X64033Y13550D01*
X64200D01*
X60250Y5250D02*
X60250Y5250D01*
X61500D01*
X63204Y5454D02*
X63704D01*
X63000Y5250D02*
X63204Y5454D01*
X63704D02*
X64150Y5900D01*
X60165Y8100D02*
Y8150D01*
X59867Y7802D02*
X60165Y8100D01*
X59802Y7802D02*
X59867D01*
X58750Y6750D02*
X59802Y7802D01*
X60250Y6650D02*
X60250Y6650D01*
X61500D01*
X63000D02*
X63223Y6427D01*
X63623D02*
X64150Y5900D01*
X63223Y6427D02*
X63623D01*
X63000Y6700D02*
Y6800D01*
X61500Y8225D02*
X61575Y8150D01*
X61500Y6750D02*
Y6850D01*
X61723Y7073D01*
X61898D01*
X62925Y8100D01*
Y8150D01*
X65000Y12700D02*
X65050Y12750D01*
X65050Y14300D02*
X65050Y14300D01*
Y12750D02*
Y14300D01*
Y12750D02*
X65050Y12750D01*
X66550Y11200D02*
Y11300D01*
X65827Y12023D02*
X66550Y11300D01*
X65050Y14300D02*
Y15825D01*
X65125Y15900D01*
X65050Y9625D02*
Y11200D01*
Y9625D02*
X65075Y9600D01*
X67900Y11100D02*
Y11200D01*
X67677Y10877D02*
X67900Y11100D01*
X67652Y10877D02*
X67677D01*
X66425Y9650D02*
X67652Y10877D01*
X66425Y9600D02*
Y9650D01*
X65298Y7120D02*
X66425Y8247D01*
X65298Y7006D02*
Y7120D01*
X65164Y6872D02*
X65298Y7006D01*
X65050Y6872D02*
X65164D01*
X66425Y8247D02*
Y9600D01*
X71400Y21414D02*
X71635Y21650D01*
X78716Y8250D02*
X80386D01*
X78031Y7565D02*
X78716Y8250D01*
X71465Y27141D02*
X71838Y27514D01*
X71417Y27141D02*
X71465D01*
X70251Y25975D02*
X71417Y27141D01*
X70201Y25975D02*
X70251D01*
X77516Y34166D02*
X77750Y34400D01*
X76721Y34166D02*
X77516D01*
X76660Y34105D02*
X76721Y34166D01*
X69050Y57350D02*
X70700D01*
X71300Y54800D02*
Y56750D01*
X70700Y57350D02*
X71300Y56750D01*
X68700Y57700D02*
X69050Y57350D01*
X75473Y57573D02*
X75550Y57650D01*
X75473Y56973D02*
Y57573D01*
X75225Y56725D02*
X75473Y56973D01*
X75175Y56725D02*
X75225D01*
X80575Y48300D02*
X81200D01*
X80550Y48325D02*
X80575Y48300D01*
X68700Y57700D02*
Y58156D01*
X68719Y59525D02*
X70279D01*
X76726Y52254D02*
X77377Y52906D01*
Y52910D01*
X77650Y53183D01*
Y53250D01*
X67159Y59525D02*
X68719D01*
X71588Y57676D02*
Y58227D01*
X71465Y58350D02*
X71588Y58227D01*
Y57676D02*
X72200Y57063D01*
Y54650D02*
Y57063D01*
X74330Y58095D02*
X74410Y58175D01*
X72750Y58095D02*
X74330D01*
X72650Y57995D02*
X72750Y58095D01*
X72650Y54550D02*
Y57995D01*
X76973Y53530D02*
X78140Y54697D01*
Y55575D01*
X76391Y52254D02*
X76726D01*
X76385Y52261D02*
X76391Y52254D01*
X75866Y52261D02*
X76385D01*
X76973Y53073D02*
Y53530D01*
X76558Y52658D02*
X76973Y53073D01*
X75855Y52250D02*
X75866Y52261D01*
X71950Y49850D02*
X72350Y50250D01*
X78140Y55575D02*
X79700D01*
X76350Y54750D02*
Y55500D01*
X76525Y55675D01*
X81756Y18227D02*
X81823D01*
X80610Y17500D02*
X82250D01*
X71400Y18125D02*
X72025Y17500D01*
Y17450D02*
Y17500D01*
X71838Y25814D02*
X71850Y25801D01*
Y24450D02*
Y25801D01*
X73550Y25814D02*
X73550Y25814D01*
Y24450D02*
Y25814D01*
X69350Y12750D02*
X69350Y12750D01*
X69375D01*
X82700Y17950D02*
Y18577D01*
X82250Y17500D02*
X82700Y17950D01*
X81180Y16287D02*
X81727Y15740D01*
X80623Y16287D02*
X81180D01*
X82000Y13800D02*
X82025D01*
X82025Y13800D01*
X81727Y14098D02*
Y15740D01*
X80610Y16300D02*
X80623Y16287D01*
X79910Y14567D02*
X79927Y14550D01*
X79910Y14567D02*
Y14800D01*
X82650Y7550D02*
X82661Y7561D01*
Y7565D01*
X84150Y7493D02*
X84222Y7565D01*
X84150Y6200D02*
Y7493D01*
X82650Y7553D02*
X82661Y7565D01*
X84222Y11675D02*
X84272D01*
X84974Y10973D01*
Y9617D02*
Y10973D01*
X84272Y8915D02*
X84974Y9617D01*
X84222Y8915D02*
X84272D01*
X84222Y8915D02*
X84222Y8915D01*
X82661Y8915D02*
X84222D01*
X77981Y7565D02*
X78031D01*
X81036Y7500D02*
X81101Y7565D01*
X79550Y7500D02*
X81036D01*
X77981Y8915D02*
X78066Y9000D01*
X77515Y25753D02*
Y25878D01*
X74107Y15900D02*
X74810D01*
X72323Y14677D02*
X72885D01*
X72025Y14379D02*
X72323Y14677D01*
X72025Y14329D02*
Y14379D01*
X73330Y16523D02*
X73907Y17100D01*
X72573Y16523D02*
X73330D01*
X72550Y16500D02*
X72573Y16523D01*
X73907Y17100D02*
X74810D01*
X78350Y23835D02*
Y25163D01*
X77933Y25579D02*
X78350Y25163D01*
X77688Y25579D02*
X77933D01*
X82700Y18577D02*
X82923Y18800D01*
X78350Y23835D02*
X78965Y23220D01*
X79030D01*
Y23205D02*
Y23220D01*
Y23205D02*
X79160Y23075D01*
X78697Y20613D02*
X78710Y20600D01*
X81683Y18300D02*
X81756Y18227D01*
X80938Y18300D02*
X81683D01*
X80610Y17500D02*
Y17900D01*
X85685Y21810D02*
Y21860D01*
X82925Y23450D02*
X82925Y23450D01*
X82923Y21858D02*
X82925Y21860D01*
D15*
X56750Y39550D02*
X58275D01*
X56100Y45400D02*
X56150Y45350D01*
X55650Y45400D02*
X56100D01*
X69110Y30295D02*
X69290Y30115D01*
Y30100D02*
Y30115D01*
X55000Y44750D02*
X55650Y44100D01*
X56075D01*
X56100Y44075D01*
X56760Y45350D02*
X59000D01*
X56760Y45350D02*
X56760Y45350D01*
X56100Y44075D02*
X56175D01*
X53037Y19813D02*
Y19867D01*
X55500Y18050D02*
X55550Y18100D01*
X55400Y17950D02*
X55500Y18050D01*
X53300Y17000D02*
X54490D01*
X54925Y17435D01*
Y17515D01*
X55360Y17950D01*
X55400D01*
X53175Y19950D02*
X54700D01*
X54750Y19900D01*
X52900Y17400D02*
X53300Y17000D01*
X55500Y18010D02*
Y18050D01*
X52800Y38550D02*
X52800Y38550D01*
X51650Y37400D02*
X52800Y38550D01*
X52800Y38550D02*
X53850D01*
X58250Y32250D02*
X59100Y31400D01*
X53800Y32250D02*
X58250D01*
X51600Y34450D02*
X53800Y32250D01*
X51600Y34450D02*
Y34550D01*
X51650Y36600D02*
Y37400D01*
X51550Y36500D02*
X51650Y36600D01*
X56705Y20555D02*
X57200Y21050D01*
X56705Y20355D02*
Y20555D01*
X56550Y20200D02*
X56705Y20355D01*
X59050Y35500D02*
X59088Y35538D01*
X59638D01*
X60500Y36400D01*
Y36500D01*
X51575Y34575D02*
X51600Y34550D01*
X51575Y34575D02*
Y36475D01*
X51550Y36500D02*
X51575Y36475D01*
X59100Y31400D02*
X59113Y31387D01*
Y30262D02*
Y31387D01*
Y30262D02*
X59125Y30250D01*
X59075Y34450D02*
X59075Y34450D01*
X59063Y34463D02*
X59075Y34450D01*
X59050Y35500D02*
X59063Y35487D01*
Y34463D02*
Y35487D01*
X59088Y41388D02*
X59100Y41400D01*
X59088Y40362D02*
Y41388D01*
X59075Y40350D02*
X59088Y40362D01*
X57200Y18400D02*
X58825D01*
X56150Y45350D02*
X56760D01*
X56800Y34450D02*
X59075D01*
X56524Y30026D02*
X58901D01*
X59125Y30250D01*
X55000Y44750D02*
X55650Y45400D01*
X54525Y44750D02*
X55000D01*
X54500Y44725D02*
X54525Y44750D01*
X58275Y39550D02*
X58750Y40025D01*
X58800D01*
X59075Y40300D01*
Y40350D01*
X56800Y33800D02*
Y34450D01*
X59075Y23479D02*
Y25040D01*
X58800Y25365D02*
X59075Y25090D01*
Y26600D01*
Y25040D02*
Y25090D01*
Y25040D02*
X59075Y25040D01*
X59075Y26600D02*
X59075Y26600D01*
X59075Y26550D02*
Y26600D01*
X58775Y26250D02*
X59075Y26550D01*
X56650Y26250D02*
X58775D01*
X57930Y25365D02*
X58800D01*
X57545Y25750D02*
X57930Y25365D01*
X56650Y25750D02*
X57545D01*
X54450Y25250D02*
X55150D01*
X58300Y17350D02*
Y17525D01*
X58975Y18200D01*
Y18250D01*
X53025Y19800D02*
X53037Y19813D01*
X56550Y20050D02*
Y20200D01*
X58825Y18400D02*
X58975Y18250D01*
X52900Y17400D02*
Y18075D01*
X53025Y18200D01*
X55550Y18100D02*
Y18250D01*
X54750Y19900D02*
X54900D01*
X78775Y6000D02*
X79900D01*
X79950Y6050D01*
X81325Y4100D02*
X81450Y4225D01*
X82075D01*
X82650Y4800D01*
Y4900D01*
X75000Y2900D02*
Y3215D01*
X74850Y3365D02*
X75000Y3215D01*
Y2900D02*
X75300Y2600D01*
X77150D01*
X78650Y4100D01*
X78775D01*
X76350Y3365D02*
Y4625D01*
X76400Y4675D01*
X76450D02*
X77775Y6000D01*
X76400Y4675D02*
X76450D01*
X77775Y6000D02*
X78775D01*
X70201Y28350D02*
Y29188D01*
X69290Y30100D02*
X70201Y29188D01*
X77760Y28350D02*
X77910Y28200D01*
X70201Y28350D02*
X77760D01*
X77910Y28200D02*
X78490D01*
X78640Y28350D02*
X78860D01*
X78490Y28200D02*
X78640Y28350D01*
X78860D02*
X79050Y28160D01*
X66100Y26085D02*
X66125Y26110D01*
X66100Y25150D02*
Y26085D01*
Y25150D02*
X66750Y24500D01*
X66850D01*
X68325D01*
X68500Y24325D01*
X70062Y27185D02*
X70201Y27325D01*
X68800Y27185D02*
X70062D01*
X68675Y27060D02*
X68800Y27185D01*
X68675Y27060D02*
Y28010D01*
X70201Y27325D02*
Y28350D01*
X79050Y28160D02*
X79055Y28155D01*
X80495D01*
X80500Y28150D01*
X68860Y30295D02*
X69110D01*
D16*
X67999Y52697D02*
X68045Y52650D01*
X71550Y4800D02*
X71575Y4825D01*
Y4925D01*
X71550Y6050D02*
X71575Y6075D01*
Y6275D01*
D17*
X55650Y30550D02*
X55650D01*
X55800Y30400D01*
D21*
X90550Y52150D02*
D03*
X96450D02*
D03*
D22*
X73560Y12190D02*
D03*
Y10490D02*
D03*
X74860D02*
D03*
Y12190D02*
D03*
D23*
X77710Y17700D02*
D03*
D24*
X74810Y15500D02*
D03*
Y15900D02*
D03*
Y16300D02*
D03*
Y16700D02*
D03*
Y17100D02*
D03*
Y17500D02*
D03*
Y17900D02*
D03*
Y18300D02*
D03*
Y18700D02*
D03*
Y19100D02*
D03*
Y19500D02*
D03*
Y19900D02*
D03*
X80610D02*
D03*
Y19500D02*
D03*
Y19100D02*
D03*
Y18700D02*
D03*
Y18300D02*
D03*
Y17900D02*
D03*
Y17500D02*
D03*
Y17100D02*
D03*
Y16700D02*
D03*
Y16300D02*
D03*
Y15900D02*
D03*
Y15500D02*
D03*
D25*
X75510Y20600D02*
D03*
X75910Y20550D02*
D03*
X76310Y20600D02*
D03*
X76710D02*
D03*
X77110D02*
D03*
X77510D02*
D03*
X77910D02*
D03*
X78310D02*
D03*
X78710D02*
D03*
X79110D02*
D03*
X79510D02*
D03*
X79910D02*
D03*
Y14800D02*
D03*
X79510D02*
D03*
X79110D02*
D03*
X78710D02*
D03*
X78310D02*
D03*
X77910D02*
D03*
X77510D02*
D03*
X77110D02*
D03*
X76710D02*
D03*
X76310D02*
D03*
X75910D02*
D03*
X75510D02*
D03*
D26*
X73550Y22950D02*
D03*
Y24450D02*
D03*
X71850Y22950D02*
D03*
Y24450D02*
D03*
X70200Y24450D02*
D03*
Y22950D02*
D03*
X66850Y23000D02*
D03*
Y24500D02*
D03*
X79150Y25650D02*
D03*
Y27150D02*
D03*
X80650Y25635D02*
D03*
Y27135D02*
D03*
X79550Y9000D02*
D03*
Y7500D02*
D03*
X76400Y7500D02*
D03*
Y9000D02*
D03*
X79050Y28160D02*
D03*
Y29660D02*
D03*
X76050Y27100D02*
D03*
Y25600D02*
D03*
X80500Y28150D02*
D03*
Y29650D02*
D03*
X71060Y40350D02*
D03*
Y41850D02*
D03*
X69850Y40350D02*
D03*
Y41850D02*
D03*
X68640Y41850D02*
D03*
Y40350D02*
D03*
X67100Y62450D02*
D03*
Y60950D02*
D03*
D27*
X79160Y24425D02*
D03*
Y23075D02*
D03*
X80660D02*
D03*
Y24425D02*
D03*
X77560Y24375D02*
D03*
Y23025D02*
D03*
X68500Y22975D02*
D03*
Y24325D02*
D03*
X84222Y11675D02*
D03*
Y10325D02*
D03*
X82662Y10325D02*
D03*
Y11675D02*
D03*
X81101Y10325D02*
D03*
Y11675D02*
D03*
X79541Y10325D02*
D03*
Y11675D02*
D03*
X77981Y10325D02*
D03*
Y11675D02*
D03*
X76420Y10325D02*
D03*
Y11675D02*
D03*
X84222Y8915D02*
D03*
Y7565D02*
D03*
X82661Y7565D02*
D03*
Y8915D02*
D03*
X81101Y7565D02*
D03*
Y8915D02*
D03*
X77981Y7565D02*
D03*
Y8915D02*
D03*
X76400Y6025D02*
D03*
Y4675D02*
D03*
X74840Y6025D02*
D03*
Y4675D02*
D03*
X48400Y13625D02*
D03*
Y14975D02*
D03*
X44800Y19675D02*
D03*
Y21025D02*
D03*
X75566Y40475D02*
D03*
Y41825D02*
D03*
X74006Y40475D02*
D03*
Y41825D02*
D03*
X72446Y40475D02*
D03*
Y41825D02*
D03*
X80550Y48325D02*
D03*
Y49675D02*
D03*
X79700Y56925D02*
D03*
Y55575D02*
D03*
X78140Y56925D02*
D03*
Y55575D02*
D03*
X74410Y59525D02*
D03*
Y58175D02*
D03*
X70279Y59525D02*
D03*
Y58175D02*
D03*
X68719Y59525D02*
D03*
Y58175D02*
D03*
X67159Y59525D02*
D03*
Y58175D02*
D03*
X42850Y28775D02*
D03*
Y30125D02*
D03*
X37300Y30075D02*
D03*
Y28725D02*
D03*
X70201Y25975D02*
D03*
Y27325D02*
D03*
X76000Y23025D02*
D03*
Y24375D02*
D03*
D28*
X82800Y24850D02*
D03*
X84300D02*
D03*
X82800Y26150D02*
D03*
X84300D02*
D03*
X84150Y6200D02*
D03*
X82650D02*
D03*
X84150Y4900D02*
D03*
X82650D02*
D03*
X67850Y15900D02*
D03*
X69350D02*
D03*
X65050Y14300D02*
D03*
X66550D02*
D03*
X66550Y12750D02*
D03*
X65050D02*
D03*
X67900Y11200D02*
D03*
X69400D02*
D03*
X65050Y11200D02*
D03*
X66550D02*
D03*
X76350Y3365D02*
D03*
X74850D02*
D03*
X61550Y9700D02*
D03*
X63050D02*
D03*
X61500Y6650D02*
D03*
X63000D02*
D03*
X60250Y6650D02*
D03*
X58750D02*
D03*
X63000Y5250D02*
D03*
X61500D02*
D03*
X58750Y5250D02*
D03*
X60250D02*
D03*
X53100Y21300D02*
D03*
X51600D02*
D03*
X52250Y15900D02*
D03*
X53750D02*
D03*
X57050Y12450D02*
D03*
X55550D02*
D03*
X53100Y25150D02*
D03*
X51600D02*
D03*
X61550Y15900D02*
D03*
X63050D02*
D03*
X60400Y19800D02*
D03*
X58900D02*
D03*
X60500Y36500D02*
D03*
X59000D02*
D03*
X58950Y38550D02*
D03*
X60450D02*
D03*
X64550Y53800D02*
D03*
X63050D02*
D03*
X46700Y45850D02*
D03*
X45200D02*
D03*
X46700Y44390D02*
D03*
X45200D02*
D03*
X48500Y54550D02*
D03*
X50000D02*
D03*
X46550Y57150D02*
D03*
X45050D02*
D03*
X51600Y34550D02*
D03*
X53100D02*
D03*
X51550Y36500D02*
D03*
X53050D02*
D03*
D29*
X70500Y21160D02*
D03*
X70500Y20360D02*
D03*
Y19560D02*
D03*
Y18760D02*
D03*
X72200D02*
D03*
Y19560D02*
D03*
Y20360D02*
D03*
Y21160D02*
D03*
X66450Y33850D02*
D03*
Y33050D02*
D03*
Y32250D02*
D03*
Y31450D02*
D03*
X64750D02*
D03*
Y32250D02*
D03*
Y33050D02*
D03*
X64750Y33850D02*
D03*
X80150Y33400D02*
D03*
Y32600D02*
D03*
Y31800D02*
D03*
Y31000D02*
D03*
X78450D02*
D03*
Y31800D02*
D03*
Y32600D02*
D03*
X78450Y33400D02*
D03*
X46800Y49900D02*
D03*
Y49100D02*
D03*
Y48300D02*
D03*
Y47500D02*
D03*
X45100D02*
D03*
Y48300D02*
D03*
Y49100D02*
D03*
X45100Y49900D02*
D03*
D30*
X90660Y17600D02*
D03*
X90010D02*
D03*
X89360D02*
D03*
Y16300D02*
D03*
X90010D02*
D03*
X90660D02*
D03*
D31*
X96500Y22013D02*
D03*
Y13250D02*
D03*
D32*
Y17632D02*
D03*
D33*
X88190Y17560D02*
D03*
X87210D02*
D03*
X88190Y16300D02*
D03*
X87210D02*
D03*
D34*
X81325Y4100D02*
D03*
Y5050D02*
D03*
Y6000D02*
D03*
X78775D02*
D03*
Y5050D02*
D03*
Y4100D02*
D03*
X51675Y12500D02*
D03*
Y13450D02*
D03*
Y14400D02*
D03*
X54225D02*
D03*
Y13450D02*
D03*
Y12500D02*
D03*
X66125Y26110D02*
D03*
Y27060D02*
D03*
Y28010D02*
D03*
X68675D02*
D03*
Y27060D02*
D03*
Y26110D02*
D03*
X47125Y55250D02*
D03*
Y54300D02*
D03*
Y53350D02*
D03*
X44575D02*
D03*
Y54300D02*
D03*
Y55250D02*
D03*
D35*
X72025Y17450D02*
D03*
X70675D02*
D03*
X70675Y15890D02*
D03*
X72025D02*
D03*
X65125Y15900D02*
D03*
X66475D02*
D03*
X70675Y14329D02*
D03*
X72025D02*
D03*
X69265Y14350D02*
D03*
X67915D02*
D03*
X70725Y12769D02*
D03*
X72075D02*
D03*
X70725Y11209D02*
D03*
X72075D02*
D03*
X72075Y9600D02*
D03*
X70725D02*
D03*
X69315Y9600D02*
D03*
X67965D02*
D03*
X65075Y9600D02*
D03*
X66425D02*
D03*
X62925Y8150D02*
D03*
X61575D02*
D03*
X58815Y9710D02*
D03*
X60165D02*
D03*
X58815Y8150D02*
D03*
X60165D02*
D03*
X53025Y19800D02*
D03*
X51675D02*
D03*
X53025Y18200D02*
D03*
X51675D02*
D03*
X57025Y10650D02*
D03*
X55675D02*
D03*
X53675Y10640D02*
D03*
X52325D02*
D03*
X53025Y23500D02*
D03*
X51675D02*
D03*
X60325Y18250D02*
D03*
X58975D02*
D03*
X59075Y26600D02*
D03*
X60425D02*
D03*
X59075Y25040D02*
D03*
X60425D02*
D03*
X59075Y23479D02*
D03*
X60425D02*
D03*
X59125Y30250D02*
D03*
X60475D02*
D03*
X59075Y34450D02*
D03*
X60425D02*
D03*
X59075Y40350D02*
D03*
X60425D02*
D03*
X67125Y29800D02*
D03*
X65775D02*
D03*
X59050Y45650D02*
D03*
X60400D02*
D03*
X63225Y46450D02*
D03*
X64575D02*
D03*
X63225Y44890D02*
D03*
X64575D02*
D03*
X63225Y43329D02*
D03*
X64575D02*
D03*
X63225Y41769D02*
D03*
X64575D02*
D03*
X63225Y51850D02*
D03*
X64575D02*
D03*
X49975Y53000D02*
D03*
X48625D02*
D03*
X49975Y56150D02*
D03*
X48625D02*
D03*
X87033Y20300D02*
D03*
X85683D02*
D03*
X87035Y21860D02*
D03*
X85685D02*
D03*
X83375Y13800D02*
D03*
X82025D02*
D03*
X87035Y24981D02*
D03*
X85685D02*
D03*
X84275Y23450D02*
D03*
X82925D02*
D03*
X84275Y21860D02*
D03*
X82925D02*
D03*
X84272Y18800D02*
D03*
X82923D02*
D03*
X84273Y20300D02*
D03*
X82923D02*
D03*
X87035Y23421D02*
D03*
X85685D02*
D03*
D36*
X67725Y12750D02*
D03*
X69375D02*
D03*
D37*
X70725Y6275D02*
D03*
X71575D02*
D03*
Y4925D02*
D03*
X70725D02*
D03*
D38*
X71150Y7225D02*
D03*
Y3975D02*
D03*
D39*
X72275Y5600D02*
D03*
X70025D02*
D03*
D40*
X65050Y6872D02*
D03*
X66726D02*
D03*
X65050Y6050D02*
D03*
X66726D02*
D03*
D41*
X48350Y19575D02*
D03*
Y21225D02*
D03*
X46550Y19575D02*
D03*
Y21225D02*
D03*
X77076Y41925D02*
D03*
Y40275D02*
D03*
X38950Y30275D02*
D03*
Y28625D02*
D03*
X41100Y30275D02*
D03*
Y28625D02*
D03*
X77550Y27375D02*
D03*
Y25725D02*
D03*
D42*
X71838Y27514D02*
D03*
Y25814D02*
D03*
X73550Y27514D02*
D03*
Y25814D02*
D03*
X70250Y61800D02*
D03*
Y63500D02*
D03*
D43*
X55650Y26250D02*
D03*
X56150D02*
D03*
Y24750D02*
D03*
X55650D02*
D03*
D44*
X56650Y26250D02*
D03*
Y25750D02*
D03*
Y25250D02*
D03*
Y24750D02*
D03*
X55150D02*
D03*
Y25250D02*
D03*
Y25750D02*
D03*
Y26250D02*
D03*
D45*
X56100Y44075D02*
D03*
Y44725D02*
D03*
Y45375D02*
D03*
Y46025D02*
D03*
X54500D02*
D03*
Y45375D02*
D03*
Y44725D02*
D03*
Y44075D02*
D03*
D46*
X55300Y39550D02*
D03*
D47*
X56750Y40550D02*
D03*
Y39550D02*
D03*
Y38550D02*
D03*
X53850D02*
D03*
Y39550D02*
D03*
Y40550D02*
D03*
D48*
X55750Y34450D02*
D03*
D49*
X56800Y35100D02*
D03*
Y34450D02*
D03*
Y33800D02*
D03*
X54700D02*
D03*
Y34450D02*
D03*
Y35100D02*
D03*
D50*
X55800Y30050D02*
D03*
Y30400D02*
D03*
X56150Y30050D02*
D03*
Y30400D02*
D03*
X56500Y30050D02*
D03*
Y30400D02*
D03*
D51*
X72760Y32200D02*
D03*
D52*
X68860Y30295D02*
D03*
Y31565D02*
D03*
Y32835D02*
D03*
Y34105D02*
D03*
X76660D02*
D03*
Y32835D02*
D03*
Y31565D02*
D03*
Y30295D02*
D03*
D53*
X66185Y41850D02*
D03*
Y43350D02*
D03*
D54*
X71950Y49850D02*
D03*
D55*
X68045Y46650D02*
D03*
Y47050D02*
D03*
Y47450D02*
D03*
Y47850D02*
D03*
Y48250D02*
D03*
Y48650D02*
D03*
Y49050D02*
D03*
Y49450D02*
D03*
Y49850D02*
D03*
Y50250D02*
D03*
Y50650D02*
D03*
Y51050D02*
D03*
Y51450D02*
D03*
Y51850D02*
D03*
Y52250D02*
D03*
Y52650D02*
D03*
Y53050D02*
D03*
X75855D02*
D03*
Y52650D02*
D03*
Y52250D02*
D03*
Y51850D02*
D03*
Y51450D02*
D03*
Y51050D02*
D03*
Y50650D02*
D03*
Y50250D02*
D03*
Y49850D02*
D03*
Y49450D02*
D03*
Y49050D02*
D03*
Y48650D02*
D03*
Y48250D02*
D03*
Y47850D02*
D03*
Y47450D02*
D03*
Y47050D02*
D03*
Y46650D02*
D03*
D56*
X68750Y53755D02*
D03*
X69150D02*
D03*
X69550D02*
D03*
X69950D02*
D03*
X70350D02*
D03*
X70750D02*
D03*
X71150D02*
D03*
X71550D02*
D03*
X71950D02*
D03*
X72350D02*
D03*
X72750D02*
D03*
X73150D02*
D03*
X73550D02*
D03*
X73950D02*
D03*
X74350D02*
D03*
X74750D02*
D03*
X75150D02*
D03*
Y45945D02*
D03*
X74750D02*
D03*
X74350D02*
D03*
X73950D02*
D03*
X73550D02*
D03*
X73150D02*
D03*
X72750D02*
D03*
X72350D02*
D03*
X71950D02*
D03*
X71550D02*
D03*
X71150D02*
D03*
X70750D02*
D03*
X70350D02*
D03*
X69950D02*
D03*
X69550D02*
D03*
X69150D02*
D03*
X68750D02*
D03*
D57*
X84637Y51350D02*
D03*
X84050D02*
D03*
X83463D02*
D03*
Y51850D02*
D03*
X84050D02*
D03*
X84637D02*
D03*
D58*
X88450Y52100D02*
D03*
X87450D02*
D03*
D59*
X86300Y51070D02*
D03*
Y52050D02*
D03*
D60*
X76525Y55675D02*
D03*
X75175D02*
D03*
X76525Y56725D02*
D03*
X75175D02*
D03*
D61*
X72750Y59605D02*
D03*
Y58095D02*
D03*
D62*
X71465Y58350D02*
D03*
Y59350D02*
D03*
D63*
X57360Y59718D02*
D03*
Y63782D02*
D03*
X58630Y59718D02*
D03*
Y63782D02*
D03*
X59900Y59718D02*
D03*
Y63782D02*
D03*
X61170Y59718D02*
D03*
Y63782D02*
D03*
X62440Y59718D02*
D03*
Y63782D02*
D03*
D64*
X54900Y19900D02*
D03*
Y19400D02*
D03*
Y18900D02*
D03*
Y18400D02*
D03*
X57200D02*
D03*
Y18900D02*
D03*
Y19400D02*
D03*
Y19900D02*
D03*
D65*
X55550Y18250D02*
D03*
X56050D02*
D03*
X56550D02*
D03*
Y20050D02*
D03*
X56050D02*
D03*
X55550D02*
D03*
D66*
X63020Y11550D02*
D03*
D67*
Y12200D02*
D03*
Y12850D02*
D03*
Y13500D02*
D03*
X60400Y11550D02*
D03*
Y12200D02*
D03*
Y12850D02*
D03*
Y13500D02*
D03*
D118*
X78140Y56925D02*
X79700D01*
X81101Y10325D02*
X82662D01*
X77981Y10325D02*
X79541D01*
X74840Y6025D02*
X76400D01*
X63225Y43329D02*
Y44890D01*
X72446Y40475D02*
X74006D01*
X46050Y54250D02*
X46058Y54258D01*
X47082D01*
X85685Y21810D02*
Y23421D01*
X64050Y52720D02*
X64155Y52825D01*
X64562Y51862D02*
Y52825D01*
X63246Y43350D02*
X63250D01*
X63225Y43329D02*
X63246Y43350D01*
X63225Y41769D02*
Y43329D01*
X76509Y39582D02*
X77076Y40150D01*
X71777Y39582D02*
X76509D01*
X71503Y39856D02*
X71777Y39582D01*
X74840Y6040D02*
X74850Y6050D01*
X49975Y53000D02*
X50750D01*
X49975Y53000D02*
X49975Y53000D01*
X63225Y44890D02*
Y46450D01*
X46983Y57283D02*
X47250Y57550D01*
X46583Y57283D02*
X46983D01*
X46550Y57250D02*
X46583Y57283D01*
X46550Y57150D02*
Y57250D01*
X47082Y54258D02*
X47125Y54300D01*
X49975Y56150D02*
X50850D01*
X48625D02*
X48733Y56042D01*
Y55831D02*
Y56042D01*
Y55831D02*
X49356Y55208D01*
X49442D01*
X50000Y54650D01*
Y54550D02*
Y54650D01*
X47125Y55250D02*
X47167Y55292D01*
X47767D01*
X48468Y55993D01*
X48518D01*
X48625Y56100D01*
Y56150D01*
X45050Y57050D02*
Y57150D01*
X44575Y56575D02*
X45050Y57050D01*
X44575Y55250D02*
Y56575D01*
X78140Y56940D02*
X78150Y56950D01*
X78140Y56925D02*
Y56940D01*
X74950Y12280D02*
Y12400D01*
X74860Y12190D02*
X74950Y12280D01*
X74006Y40475D02*
X75566D01*
X63225Y46450D02*
X63225Y46450D01*
X66518Y14332D02*
Y15857D01*
Y14332D02*
X66550Y14300D01*
X70720Y11204D02*
X70725Y11209D01*
X69404Y11204D02*
X70720D01*
X69400Y11200D02*
X69404Y11204D01*
X84150Y4900D02*
X84950D01*
X74840Y6025D02*
Y6040D01*
X76400Y7500D02*
X76400Y7500D01*
X76400Y6025D02*
Y7500D01*
X76400Y6025D02*
X76400Y6025D01*
X64575Y44890D02*
Y45090D01*
Y46396D01*
X64562Y52825D02*
Y53787D01*
X64155Y52825D02*
X64562D01*
Y51862D02*
X64575Y51850D01*
X64550Y53800D02*
X64562Y53787D01*
X67100Y58200D02*
X67134D01*
X67159Y58175D01*
X79700Y56925D02*
X79700Y56925D01*
X78140Y56925D02*
X78140Y56925D01*
X63225Y43329D02*
X63225Y43329D01*
X63225Y44890D02*
X63225Y44890D01*
X71503Y39856D02*
Y40007D01*
X71160Y40350D02*
X71503Y40007D01*
X71060Y40350D02*
X71160D01*
X77076Y41908D02*
Y41925D01*
X77044Y41875D02*
X77076Y41908D01*
X75616Y41875D02*
X77044D01*
X75566Y41825D02*
X75616Y41875D01*
X74006Y41825D02*
X75566D01*
X64575Y44890D02*
X64575Y44890D01*
Y46396D02*
X64575Y46396D01*
X72572Y59428D02*
X72750Y59605D01*
X71542Y59428D02*
X72572D01*
X71465Y59350D02*
X71542Y59428D01*
X67159Y58175D02*
X68719D01*
X68719Y58175D02*
X70279D01*
X70279Y58175D01*
X73550Y27514D02*
X73550Y27514D01*
X71838Y27514D02*
X73550D01*
X71838Y27514D02*
X71838Y27514D01*
X70675Y17450D02*
X70675Y17450D01*
X70670Y15895D02*
X70675Y15890D01*
X69355Y15895D02*
X70670D01*
X69350Y15900D02*
X69355Y15895D01*
X69265Y14350D02*
X69318Y14403D01*
Y15867D01*
X69350Y15900D01*
X67725Y12750D02*
X67787D01*
X67820Y12783D01*
Y14255D01*
X67915Y14350D01*
X70675Y14329D02*
X70700Y14304D01*
Y12794D02*
Y14304D01*
X84250Y20300D02*
X84272D01*
X84273Y20300D01*
X84275Y23450D02*
X84287Y23462D01*
X84300Y26150D02*
X84300Y26150D01*
X84300Y26150D02*
X84300Y26150D01*
X84300D02*
X84300D01*
X84275Y23450D02*
X84300D01*
X83400Y13800D02*
X83400Y13800D01*
X83375Y13800D02*
X83400D01*
X73560Y10490D02*
X73743Y10307D01*
X73550Y10500D02*
X73560Y10490D01*
X75078Y9422D02*
X75450Y9050D01*
X74167Y9422D02*
X75078D01*
X73743Y9846D02*
X74167Y9422D01*
X73743Y9846D02*
Y10307D01*
X75450Y8350D02*
Y9050D01*
Y8350D02*
X76300Y7500D01*
X76400D01*
X77981Y10331D02*
X78000Y10350D01*
X77981Y10325D02*
Y10331D01*
X84225Y10325D02*
X84250Y10300D01*
X84222Y10325D02*
X84225D01*
X82650Y10300D02*
X82662Y10312D01*
Y10325D01*
X76420Y10325D02*
X76420Y10325D01*
X77981D01*
X77981Y10325D01*
X79541D02*
X79541Y10325D01*
X79541Y10325D01*
X81101D01*
X81101Y10325D01*
X81101Y10325D01*
X82662D02*
X82662Y10325D01*
X82662Y10325D01*
X84222D01*
X84222Y10325D01*
X70725Y11209D02*
Y12769D01*
X70700Y12794D02*
X70725Y12769D01*
X70675Y14329D02*
Y15890D01*
X70675Y15890D01*
Y17450D01*
X87033Y20300D02*
X87034Y20301D01*
Y21859D01*
X87035Y21860D01*
X87035Y21860D02*
X87035Y21860D01*
X87035Y21860D02*
Y23421D01*
X87035Y23421D02*
X87035Y23421D01*
X87035Y23421D02*
Y24981D01*
X84272Y18800D02*
X84273Y18800D01*
Y20300D01*
X84273Y20300D01*
X84274Y20301D01*
Y21859D01*
X84275Y21860D01*
X84275Y21860D01*
Y23450D01*
X84275Y23450D01*
X84287Y23462D02*
Y24838D01*
X84300Y24850D01*
X84300Y24850D01*
Y26150D01*
X85685Y21810D02*
X85685Y21810D01*
X85685Y23421D02*
X85685Y23421D01*
X85685Y23421D02*
Y24981D01*
D119*
X80585Y24400D02*
X80635Y24450D01*
X79185D02*
X79235Y24400D01*
X76000D02*
X76012Y24388D01*
X73500Y10450D02*
X73550Y10500D01*
X81700Y6250D02*
Y6550D01*
X81450Y6000D02*
X81700Y6250D01*
X81325Y6000D02*
X81450D01*
X53650Y10200D02*
Y10615D01*
X53675Y10640D01*
X42850Y28650D02*
X42850Y28650D01*
Y28775D01*
X37250Y30100D02*
X37275Y30075D01*
X37300D01*
X48400Y13500D02*
X48400Y13500D01*
Y13625D01*
X44800Y19600D02*
X44800Y19600D01*
Y19675D01*
X51638Y19838D02*
X51675Y19800D01*
X51638Y19838D02*
Y21263D01*
X51600Y21300D02*
X51638Y21263D01*
X60325Y18250D02*
X60362Y18288D01*
X60200Y18125D02*
X60325Y18250D01*
X60200Y17350D02*
Y18125D01*
X51675Y12500D02*
X51696Y12521D01*
X51963D01*
X52934Y13491D01*
Y14984D01*
X53750Y15800D01*
Y15900D01*
X51675Y11340D02*
X52325Y10690D01*
Y10640D02*
Y10690D01*
X51675Y11340D02*
Y12500D01*
X57746Y12646D02*
X57950Y12850D01*
X57146Y12646D02*
X57746D01*
X57050Y12550D02*
X57146Y12646D01*
X57050Y12450D02*
Y12550D01*
X57025Y10650D02*
X57038Y10662D01*
Y12438D01*
X57050Y12450D01*
X52500Y26150D02*
X53950D01*
X51600Y25250D02*
X52500Y26150D01*
X51600Y25150D02*
Y25250D01*
X60425Y40350D02*
X60437Y40338D01*
Y38562D02*
Y40338D01*
Y38562D02*
X60450Y38550D01*
X60500Y34450D02*
X60500Y34450D01*
X60425Y34450D02*
X60500D01*
X60500Y30150D02*
Y30225D01*
X60475Y30250D02*
X60500Y30225D01*
X60425Y26600D02*
X60425Y26600D01*
X60425Y25040D02*
Y26600D01*
X60425Y25040D02*
X60425Y25040D01*
X60425Y23479D02*
Y25040D01*
X51600Y25150D02*
X51638Y25113D01*
Y23538D02*
Y25113D01*
Y23538D02*
X51675Y23500D01*
X60362Y18288D02*
Y19763D01*
X60400Y19800D01*
X51750Y17100D02*
Y18125D01*
X51675Y18200D02*
X51750Y18125D01*
X51675Y18200D02*
Y19800D01*
X81325Y5050D02*
Y6000D01*
X58750Y5200D02*
Y5250D01*
X58750Y5250D02*
X58750Y5250D01*
X66550Y12750D02*
X66550D01*
X67965Y9600D02*
X68000Y9565D01*
X67965Y9600D02*
X67965Y9600D01*
X68000Y8032D02*
Y9565D01*
X66840Y6872D02*
X68000Y8032D01*
X66726Y6872D02*
X66840D01*
X67950Y9600D02*
X67965D01*
X70725Y6475D02*
X70750Y6500D01*
X70725Y6275D02*
Y6475D01*
X72875Y10450D02*
X73500D01*
X72075Y9650D02*
X72875Y10450D01*
X72075Y9600D02*
Y9650D01*
X75950Y24350D02*
X75975Y24375D01*
X76000D01*
X80350Y24400D02*
X80585D01*
X79235D02*
X80350D01*
X79160Y24425D02*
X79185Y24450D01*
X80635D02*
X80660Y24425D01*
X76012Y24388D02*
X77548D01*
X77560Y24375D01*
D120*
X82923Y20300D02*
Y21858D01*
X77600Y27452D02*
X77853Y27200D01*
X77298Y27150D02*
X77600Y27452D01*
X48550Y53075D02*
Y53175D01*
Y53075D02*
X48625Y53000D01*
X46700Y45850D02*
X46700Y45850D01*
X46700Y44390D02*
Y45850D01*
X46700Y44390D02*
X46700Y44390D01*
X46750Y43400D02*
X46750Y43400D01*
X46750Y43400D02*
Y44340D01*
X46700Y44390D02*
X46750Y44340D01*
X41150Y53350D02*
X44575D01*
X44550Y52250D02*
Y53325D01*
X44575Y53350D01*
X44575D01*
X39200Y55300D02*
Y57300D01*
Y55300D02*
X41150Y53350D01*
X44575D02*
Y54300D01*
X48550Y53175D02*
Y54500D01*
X47375Y53175D02*
X48550D01*
X48500Y54550D02*
X48550Y54500D01*
X47125Y53350D02*
X47200D01*
X47375Y53175D01*
X48350Y19575D02*
X48825D01*
X50100Y20850D01*
Y22350D01*
X35550Y26100D02*
Y55650D01*
X37200Y57300D01*
X51100Y15600D02*
X51250Y15750D01*
X50475Y14975D02*
X51100Y15600D01*
X47700Y20450D02*
X48350Y21100D01*
X47584Y20450D02*
X47700D01*
X47484Y20350D02*
X47584Y20450D01*
X47200Y20350D02*
X47484D01*
X46550Y19700D02*
X47200Y20350D01*
X41150Y30325D02*
Y31500D01*
X41100Y30275D02*
X41150Y30325D01*
X44800Y21025D02*
Y22600D01*
Y21025D02*
X44800Y21025D01*
X35600Y22700D02*
Y24650D01*
Y22700D02*
X37300Y21000D01*
Y23000D02*
Y28725D01*
X48400Y14975D02*
X50475D01*
X48375Y15000D02*
X48400Y14975D01*
X48375Y15000D02*
Y19550D01*
X48350Y19575D02*
X48375Y19550D01*
X48350Y21100D02*
Y21225D01*
X46550Y19575D02*
Y19700D01*
Y21175D02*
Y21225D01*
X46500Y21125D02*
X46550Y21175D01*
X44900Y21125D02*
X46500D01*
X44800Y21025D02*
X44900Y21125D01*
X42775Y30200D02*
X42850Y30125D01*
X41150Y30200D02*
X42775D01*
X41100Y30250D02*
X41150Y30200D01*
X41100Y30250D02*
Y30275D01*
Y28625D02*
Y28750D01*
X40450Y29400D02*
X41100Y28750D01*
X40334Y29400D02*
X40450D01*
X40234Y29500D02*
X40334Y29400D01*
X39600Y29500D02*
X40234D01*
X38950Y30150D02*
X39600Y29500D01*
X38950Y30150D02*
Y30275D01*
Y28625D02*
Y28625D01*
X38900Y28675D02*
X38950Y28625D01*
X37350Y28675D02*
X38900D01*
X37300Y28725D02*
X37350Y28675D01*
X63114Y18900D02*
X66800D01*
X60750Y16536D02*
X63114Y18900D01*
X60750Y15900D02*
Y16536D01*
X60450Y15600D02*
X60750Y15900D01*
X51775Y15325D02*
X52200Y15750D01*
X51250D02*
X52200D01*
X52250Y15800D01*
Y15900D01*
X55550Y9700D02*
X55550Y9700D01*
Y10525D01*
X55675Y10650D01*
X51775Y14425D02*
Y15325D01*
X51750Y14400D02*
X51775Y14425D01*
X51675Y14400D02*
X51750D01*
X66750Y23000D02*
X66850D01*
X65250Y24500D02*
X66750Y23000D01*
X65250Y24500D02*
Y27650D01*
X66800Y18900D02*
Y22950D01*
X66850Y23000D01*
X63550Y57850D02*
X63600Y57800D01*
X63550Y57850D02*
Y61656D01*
X62440Y62766D02*
X63550Y61656D01*
X62440Y62766D02*
Y63782D01*
X65775Y29750D02*
Y29800D01*
Y29750D02*
X66125Y29400D01*
Y28010D02*
Y29400D01*
X65250Y27650D02*
X65601Y28001D01*
X66116D01*
X66125Y28010D01*
X74850Y25600D02*
X76050D01*
X76050Y25600D01*
X77853Y27200D02*
X79100D01*
X81598Y23600D02*
X82800D01*
X81198Y23200D02*
X81598Y23600D01*
X80785Y23200D02*
X81198D01*
X77600Y27452D02*
Y27577D01*
X76100Y27150D02*
X77298D01*
X76050Y27100D02*
X76100Y27150D01*
X85650Y25016D02*
Y26450D01*
Y25016D02*
X85685Y24981D01*
X84965Y27135D02*
X85650Y26450D01*
X80650Y27135D02*
X84965D01*
X80643Y27143D02*
X80650Y27135D01*
X79157Y27143D02*
X80643D01*
X80635Y23050D02*
X80660Y23075D01*
X82800Y23600D02*
X82925Y23475D01*
Y23450D02*
Y23475D01*
X80660Y23075D02*
X80785Y23200D01*
X82923Y18800D02*
Y20300D01*
X82925Y21860D02*
Y23450D01*
D121*
X55375Y14425D02*
X58300Y17350D01*
X54250Y14425D02*
X55375D01*
X54225Y14400D02*
X54250Y14425D01*
X54225Y13450D02*
Y14400D01*
X70188Y22962D02*
X70200Y22950D01*
X68512Y22962D02*
X70188D01*
X70200Y22950D02*
X70200D01*
X57350Y64850D02*
X57360Y64840D01*
Y63782D02*
Y64840D01*
X59900Y64800D02*
X59950Y64850D01*
X59900Y63782D02*
Y64800D01*
X61170Y64820D02*
X61200Y64850D01*
X61170Y63782D02*
Y64820D01*
X68195Y30920D02*
X71480D01*
X72760Y32200D01*
X67125Y29850D02*
X68195Y30920D01*
X67125Y29800D02*
Y29850D01*
X68500Y22975D02*
X68512Y22962D01*
D122*
X53025Y18200D02*
Y19800D01*
X77100Y51850D02*
X83463D01*
X77100Y51850D02*
X77100Y51850D01*
D123*
X60326Y11550D02*
X60400D01*
X60282Y11506D02*
X60326Y11550D01*
X60282Y9828D02*
Y11506D01*
X60165Y9710D02*
X60282Y9828D01*
D124*
X86350Y52100D02*
X87450D01*
X84783Y52083D02*
X86267D01*
X88767Y52150D02*
X90550D01*
X90968Y17632D02*
X96500D01*
D125*
X86730Y17100D02*
X87190Y17560D01*
X80610Y17100D02*
X86730D01*
X80610Y16700D02*
X86790D01*
X87190Y16300D02*
X87210D01*
X86790Y16700D02*
X87190Y16300D01*
Y17560D02*
X87210D01*
X89360Y16300D02*
X89360Y16300D01*
X88190Y16300D02*
X89360D01*
X89320Y17560D02*
X89360Y17600D01*
X88190Y17560D02*
X89320D01*
D126*
X69375Y12750D02*
D03*
D127*
X67725Y12750D02*
D03*
D128*
X48350Y21225D02*
D03*
Y19575D02*
D03*
X77076Y40275D02*
D03*
Y41925D02*
D03*
X77550Y27375D02*
D03*
D129*
X46550Y21225D02*
D03*
Y19575D02*
D03*
X38950Y28625D02*
D03*
Y30275D02*
D03*
X41100Y28625D02*
D03*
Y30275D02*
D03*
X77550Y25725D02*
D03*
D130*
X65888Y4798D02*
D03*
D131*
X39300Y9000D02*
D03*
Y11000D02*
D03*
Y13000D02*
D03*
Y15000D02*
D03*
Y17000D02*
D03*
Y19000D02*
D03*
Y21000D02*
D03*
Y23000D02*
D03*
X37300Y9000D02*
D03*
Y11000D02*
D03*
Y13000D02*
D03*
Y15000D02*
D03*
Y17000D02*
D03*
Y19000D02*
D03*
Y21000D02*
D03*
X37200Y57300D02*
D03*
Y55300D02*
D03*
Y53300D02*
D03*
Y51300D02*
D03*
Y49300D02*
D03*
Y47300D02*
D03*
Y45300D02*
D03*
X39200Y59300D02*
D03*
Y57300D02*
D03*
Y55300D02*
D03*
Y53300D02*
D03*
Y51300D02*
D03*
Y49300D02*
D03*
Y47300D02*
D03*
Y45300D02*
D03*
D132*
X37300Y23000D02*
D03*
X37200Y59300D02*
D03*
D133*
X48600Y5150D02*
D03*
X49050Y63400D02*
D03*
X76100Y63950D02*
D03*
D134*
X46050Y54250D02*
D03*
X69850Y42850D02*
D03*
X40550Y45600D02*
D03*
X81750Y28300D02*
D03*
X81000Y31800D02*
D03*
X82034Y22647D02*
D03*
X81050Y21350D02*
D03*
X79100Y21750D02*
D03*
X77700Y21950D02*
D03*
X76350Y21700D02*
D03*
X75600Y22900D02*
D03*
X57950Y49750D02*
D03*
X57150Y27500D02*
D03*
X56350Y23850D02*
D03*
X56850Y22950D02*
D03*
X55850Y23000D02*
D03*
X57750Y24350D02*
D03*
X54250Y29700D02*
D03*
X56000Y31500D02*
D03*
X79350Y60371D02*
D03*
Y61788D02*
D03*
Y63206D02*
D03*
Y64624D02*
D03*
Y66041D02*
D03*
X81450Y65991D02*
D03*
Y64574D02*
D03*
Y63156D02*
D03*
Y61738D02*
D03*
Y60321D02*
D03*
Y58903D02*
D03*
Y57485D02*
D03*
Y56068D02*
D03*
Y54650D02*
D03*
X82200Y41833D02*
D03*
Y45392D02*
D03*
Y47171D02*
D03*
Y48950D02*
D03*
Y43612D02*
D03*
Y40054D02*
D03*
Y38275D02*
D03*
X79807Y58267D02*
D03*
X76850Y57650D02*
D03*
X65307Y60217D02*
D03*
X68257Y66317D02*
D03*
X55457Y61567D02*
D03*
X58050Y54950D02*
D03*
X57307Y57317D02*
D03*
X81000Y2800D02*
D03*
X69157Y8117D02*
D03*
X64907D02*
D03*
X58307Y14467D02*
D03*
X56007Y13617D02*
D03*
X45157Y12617D02*
D03*
X49557Y16767D02*
D03*
X50257Y19367D02*
D03*
X37157Y33017D02*
D03*
Y38217D02*
D03*
Y40017D02*
D03*
Y41867D02*
D03*
X48857Y47817D02*
D03*
X51350Y47750D02*
D03*
X54000D02*
D03*
X61100Y54900D02*
D03*
X54600Y50900D02*
D03*
X41657Y62167D02*
D03*
X32950Y34683D02*
D03*
Y38242D02*
D03*
Y40021D02*
D03*
Y41800D02*
D03*
Y36462D02*
D03*
Y32904D02*
D03*
Y31125D02*
D03*
Y29346D02*
D03*
X83700Y36446D02*
D03*
X86150D02*
D03*
X83700Y38225D02*
D03*
X88500D02*
D03*
X86150Y40004D02*
D03*
X83700D02*
D03*
X86150Y45342D02*
D03*
X83700Y43562D02*
D03*
X88500Y45342D02*
D03*
X86150Y47121D02*
D03*
X88500Y41783D02*
D03*
X86150D02*
D03*
X88500Y43562D02*
D03*
X86150Y48900D02*
D03*
X83700D02*
D03*
Y47121D02*
D03*
X34900Y66417D02*
D03*
X38329D02*
D03*
X41757D02*
D03*
X45186D02*
D03*
X48614D02*
D03*
X52043D02*
D03*
X55471D02*
D03*
X58900D02*
D03*
X55121Y2267D02*
D03*
X51693D02*
D03*
X48264D02*
D03*
X44836D02*
D03*
X41407D02*
D03*
X37979D02*
D03*
X34550D02*
D03*
X86400Y34667D02*
D03*
X88100D02*
D03*
X90100D02*
D03*
X92000D02*
D03*
X93900Y32887D02*
D03*
X96050D02*
D03*
X98150D02*
D03*
X86350Y31108D02*
D03*
X88050D02*
D03*
X90050D02*
D03*
X92000D02*
D03*
X93850D02*
D03*
X96000D02*
D03*
X98200D02*
D03*
Y29329D02*
D03*
X96000D02*
D03*
X93850D02*
D03*
X92000D02*
D03*
X90050D02*
D03*
X88050D02*
D03*
X86350D02*
D03*
X98200Y27550D02*
D03*
X96000D02*
D03*
X93850D02*
D03*
X92000D02*
D03*
X90050D02*
D03*
X88050D02*
D03*
X86350D02*
D03*
X86550Y2050D02*
D03*
X88250D02*
D03*
X90250D02*
D03*
X92200D02*
D03*
X94050Y2100D02*
D03*
X96200D02*
D03*
X98350D02*
D03*
X86550Y4300D02*
D03*
X88250D02*
D03*
X90250D02*
D03*
X92200D02*
D03*
X94050Y4325D02*
D03*
X96200D02*
D03*
X98350Y4312D02*
D03*
X88500Y36446D02*
D03*
X62450Y38950D02*
D03*
X60700Y57000D02*
D03*
X59200Y49000D02*
D03*
X61500Y51050D02*
D03*
X61750Y49700D02*
D03*
X60550Y49000D02*
D03*
X62538Y49350D02*
D03*
X63750Y48050D02*
D03*
X61350Y46850D02*
D03*
X60750Y52650D02*
D03*
X63200Y51850D02*
D03*
X72350Y52700D02*
D03*
X69750Y49150D02*
D03*
X72079Y48758D02*
D03*
X74550Y50300D02*
D03*
X69200Y52650D02*
D03*
X74350Y52450D02*
D03*
X74300Y47500D02*
D03*
X69550D02*
D03*
X64250Y44400D02*
D03*
X63050Y46600D02*
D03*
X68550Y44772D02*
D03*
X72807Y43693D02*
D03*
X71250Y42800D02*
D03*
X70600Y43600D02*
D03*
X73000Y44500D02*
D03*
X64750Y48200D02*
D03*
X66846Y50546D02*
D03*
X63250Y43350D02*
D03*
X68650Y39300D02*
D03*
X69500Y39250D02*
D03*
X64300Y40350D02*
D03*
X63900Y39600D02*
D03*
X63200Y38300D02*
D03*
X77150Y40150D02*
D03*
X75800Y40450D02*
D03*
X76100Y43000D02*
D03*
X80050Y46000D02*
D03*
X80650Y47250D02*
D03*
X79100Y44900D02*
D03*
X77300Y45950D02*
D03*
X75950D02*
D03*
X80900Y45000D02*
D03*
X79000Y49500D02*
D03*
X79350Y48600D02*
D03*
X80550Y49700D02*
D03*
X76600Y45200D02*
D03*
X75100Y43950D02*
D03*
X78600Y50350D02*
D03*
X79050Y53250D02*
D03*
X79700Y55575D02*
D03*
X69350Y56600D02*
D03*
X69200Y55250D02*
D03*
X74850Y6050D02*
D03*
X50750Y53000D02*
D03*
X47250Y57550D02*
D03*
X46750Y43400D02*
D03*
X44550Y52250D02*
D03*
X50850Y56150D02*
D03*
X78150Y56950D02*
D03*
X74400Y59850D02*
D03*
X68750Y60050D02*
D03*
X39250Y43300D02*
D03*
X44400Y44050D02*
D03*
X73250Y36800D02*
D03*
X76900Y43000D02*
D03*
X74750Y42900D02*
D03*
X73250Y42750D02*
D03*
X55950Y47350D02*
D03*
X57150Y46650D02*
D03*
X60450Y45650D02*
D03*
X57550Y44250D02*
D03*
X62800Y47650D02*
D03*
X59650Y48000D02*
D03*
X58000Y50550D02*
D03*
X66850Y53650D02*
D03*
X68450Y56050D02*
D03*
X70450Y56500D02*
D03*
X74200Y36850D02*
D03*
X79150Y9000D02*
D03*
X79160Y17750D02*
D03*
X81076Y11675D02*
D03*
X81051Y8915D02*
D03*
X79050Y16450D02*
D03*
X74950Y12400D02*
D03*
X73600Y21400D02*
D03*
X76300Y17650D02*
D03*
X76750Y13150D02*
D03*
X73700Y20050D02*
D03*
X77810Y17700D02*
D03*
X81700Y6550D02*
D03*
X77700Y29450D02*
D03*
X76750Y29400D02*
D03*
X78750Y25850D02*
D03*
X84100Y15700D02*
D03*
X85250D02*
D03*
X83000D02*
D03*
X79650Y3050D02*
D03*
X79900Y1950D02*
D03*
X53650Y10200D02*
D03*
X51100Y15600D02*
D03*
X62500Y21750D02*
D03*
X56750Y22000D02*
D03*
X53037Y19867D02*
D03*
X55650Y17250D02*
D03*
X55050Y21100D02*
D03*
X53800Y21300D02*
D03*
X42850Y28650D02*
D03*
X37250Y30100D02*
D03*
X48400Y13500D02*
D03*
X44800Y19600D02*
D03*
X53025Y23500D02*
D03*
X62950Y15800D02*
D03*
X63500Y14900D02*
D03*
X60200Y17350D02*
D03*
X50600Y13050D02*
D03*
X60450Y15600D02*
D03*
X54000Y19250D02*
D03*
X54200Y17700D02*
D03*
X56500Y17250D02*
D03*
X55550Y9700D02*
D03*
X57950Y12850D02*
D03*
X52900Y47950D02*
D03*
X52800Y38550D02*
D03*
X53800Y35500D02*
D03*
X53100Y34450D02*
D03*
X81050Y38150D02*
D03*
X63950Y21700D02*
D03*
X57200Y21050D02*
D03*
X58750Y8150D02*
D03*
X82850Y28300D02*
D03*
X69400Y19100D02*
D03*
X58400Y21000D02*
D03*
X59100Y31400D02*
D03*
X59050Y35500D02*
D03*
X59100Y41400D02*
D03*
X59050Y45650D02*
D03*
X60425Y40350D02*
D03*
X60500Y34450D02*
D03*
Y30150D02*
D03*
X60425Y25040D02*
D03*
X81700Y50700D02*
D03*
X82650D02*
D03*
X82800Y26150D02*
D03*
Y24850D02*
D03*
X81550Y22000D02*
D03*
X77100Y18800D02*
D03*
X79150D02*
D03*
X80850Y20500D02*
D03*
X72025Y15890D02*
D03*
X69150Y17050D02*
D03*
X69600Y18100D02*
D03*
X73050Y15800D02*
D03*
Y17200D02*
D03*
X80700Y14550D02*
D03*
X54700Y30600D02*
D03*
X55050Y47650D02*
D03*
X56650Y36550D02*
D03*
X57850Y35250D02*
D03*
X57000Y41750D02*
D03*
X53500Y41650D02*
D03*
X57100Y33000D02*
D03*
X54600Y36450D02*
D03*
X57450Y30750D02*
D03*
X56400Y28250D02*
D03*
X53100Y25100D02*
D03*
X54250Y25200D02*
D03*
X53400Y44050D02*
D03*
X57900Y39550D02*
D03*
X52850D02*
D03*
X57900Y26950D02*
D03*
X53950Y26150D02*
D03*
X59075Y25040D02*
D03*
X51750Y17100D02*
D03*
X58300Y17350D02*
D03*
X56050Y21200D02*
D03*
X64050Y16650D02*
D03*
X65900Y19750D02*
D03*
X58750Y5200D02*
D03*
X61400Y4100D02*
D03*
X61450Y12950D02*
D03*
X60165Y9710D02*
D03*
X66475Y15900D02*
D03*
X64200Y13550D02*
D03*
X66550Y12750D02*
D03*
X76400Y9000D02*
D03*
X74850Y26500D02*
D03*
X77800Y4950D02*
D03*
X84950Y4900D02*
D03*
X64150Y5900D02*
D03*
X67950Y9600D02*
D03*
X69200Y5550D02*
D03*
X73050Y3950D02*
D03*
X73000Y7400D02*
D03*
X70750Y6500D02*
D03*
X79800Y36900D02*
D03*
X70450Y23300D02*
D03*
X70650Y21950D02*
D03*
X69350Y21100D02*
D03*
X69250Y20150D02*
D03*
X65400Y58650D02*
D03*
X64450Y58550D02*
D03*
X69000Y29400D02*
D03*
X71550Y4800D02*
D03*
X70725Y9600D02*
D03*
X71550Y6050D02*
D03*
X63000Y53600D02*
D03*
X69501Y28608D02*
D03*
X59900Y58750D02*
D03*
X57350Y64850D02*
D03*
X59950D02*
D03*
X61200D02*
D03*
X69200Y35400D02*
D03*
X80800Y30600D02*
D03*
X77750Y34400D02*
D03*
X72760Y32200D02*
D03*
X75550Y57650D02*
D03*
X72450Y40450D02*
D03*
X81200Y48300D02*
D03*
X74050Y56600D02*
D03*
X74150Y55650D02*
D03*
X74482Y54790D02*
D03*
X83850Y54550D02*
D03*
Y55968D02*
D03*
Y57385D02*
D03*
Y58803D02*
D03*
Y60221D02*
D03*
Y61638D02*
D03*
Y63056D02*
D03*
Y64474D02*
D03*
Y65891D02*
D03*
X86150Y55259D02*
D03*
Y56676D02*
D03*
Y58094D02*
D03*
Y59512D02*
D03*
Y60929D02*
D03*
Y62347D02*
D03*
Y63765D02*
D03*
Y65182D02*
D03*
Y66600D02*
D03*
X83700Y45342D02*
D03*
Y41783D02*
D03*
X86150Y43562D02*
D03*
Y38225D02*
D03*
X88500Y40004D02*
D03*
Y47121D02*
D03*
Y48900D02*
D03*
X88600Y66600D02*
D03*
Y65182D02*
D03*
Y63765D02*
D03*
Y62347D02*
D03*
Y60929D02*
D03*
Y59512D02*
D03*
Y58094D02*
D03*
Y56676D02*
D03*
Y55259D02*
D03*
X88650Y53300D02*
D03*
X87400Y53150D02*
D03*
X86300Y49900D02*
D03*
X86150Y53200D02*
D03*
X84750Y53150D02*
D03*
X83500Y53100D02*
D03*
X82750Y52850D02*
D03*
X81750D02*
D03*
X88650Y50300D02*
D03*
X88100Y51050D02*
D03*
X87450Y50300D02*
D03*
X84550Y50400D02*
D03*
X83450D02*
D03*
X80177Y50723D02*
D03*
X77650Y53250D02*
D03*
X80350D02*
D03*
X76350Y54750D02*
D03*
X98350Y6525D02*
D03*
X96200Y6550D02*
D03*
X94050D02*
D03*
X92200Y6550D02*
D03*
X90250D02*
D03*
X88250D02*
D03*
X86550D02*
D03*
X98350Y8738D02*
D03*
X96200Y8775D02*
D03*
X94050D02*
D03*
X92200Y8800D02*
D03*
X90250D02*
D03*
X88250D02*
D03*
X86550D02*
D03*
X98350Y10950D02*
D03*
X96200Y11000D02*
D03*
X94050D02*
D03*
X86550Y11050D02*
D03*
X88250D02*
D03*
X90250D02*
D03*
X92200D02*
D03*
X86550Y12475D02*
D03*
X88250D02*
D03*
X90250D02*
D03*
X92200D02*
D03*
X86550Y13900D02*
D03*
X92200D02*
D03*
X90250D02*
D03*
X88250D02*
D03*
X85050D02*
D03*
X98250Y13250D02*
D03*
X94750Y13200D02*
D03*
X98650Y15500D02*
D03*
X96500Y15450D02*
D03*
X96450Y19800D02*
D03*
X98400Y21860D02*
D03*
X94750Y22890D02*
D03*
X98850Y19800D02*
D03*
X97950Y24950D02*
D03*
X96000D02*
D03*
X94100D02*
D03*
X92250Y20830D02*
D03*
X92200Y21860D02*
D03*
X92250Y23920D02*
D03*
X92300Y24950D02*
D03*
X90400Y21860D02*
D03*
X90450Y23920D02*
D03*
X90500Y24950D02*
D03*
X88450D02*
D03*
Y23920D02*
D03*
Y21860D02*
D03*
Y20830D02*
D03*
X93050Y16350D02*
D03*
X92150D02*
D03*
X91700Y15900D02*
D03*
X91100Y15150D02*
D03*
X90050Y15100D02*
D03*
X89100Y15150D02*
D03*
X88100Y15200D02*
D03*
X87150D02*
D03*
X86200Y15250D02*
D03*
X92950Y19000D02*
D03*
X91900D02*
D03*
X90850Y18950D02*
D03*
X89850Y18800D02*
D03*
X88900Y18750D02*
D03*
X88000Y18700D02*
D03*
X87050D02*
D03*
X86150Y18650D02*
D03*
X85500Y18050D02*
D03*
X90350Y20830D02*
D03*
X96510Y22890D02*
D03*
Y13200D02*
D03*
X81823Y18227D02*
D03*
X75950Y24350D02*
D03*
X76460Y16250D02*
D03*
X73550Y27514D02*
D03*
X67850Y15800D02*
D03*
X70725Y11209D02*
D03*
X72100Y12750D02*
D03*
X69350D02*
D03*
X67915Y14350D02*
D03*
X84250Y20300D02*
D03*
X80700Y25650D02*
D03*
X80350Y24400D02*
D03*
X82000Y13800D02*
D03*
X84300Y26150D02*
D03*
Y23450D02*
D03*
X83400Y13800D02*
D03*
X78000Y10350D02*
D03*
X84250Y10300D02*
D03*
X82650D02*
D03*
Y7550D02*
D03*
X79400Y12700D02*
D03*
X76420Y10325D02*
D03*
X73550Y10500D02*
D03*
X85688Y20270D02*
D03*
D135*
X48550Y53175D02*
D03*
X50100Y22350D02*
D03*
X35550Y26100D02*
D03*
X79150Y27150D02*
D03*
X41150Y31500D02*
D03*
X44800Y22600D02*
D03*
X35600Y24650D02*
D03*
X64050Y52800D02*
D03*
X83000Y20350D02*
D03*
X80300Y23100D02*
D03*
X66800Y18900D02*
D03*
X79950Y6050D02*
D03*
X63600Y57800D02*
D03*
X74850Y25600D02*
D03*
X67100Y58200D02*
D03*
X72025Y14329D02*
D03*
X77626Y23100D02*
D03*
M02*
