G04*
G04 #@! TF.GenerationSoftware,Altium Limited,Altium Designer,19.1.6 (110)*
G04*
G04 Layer_Physical_Order=4*
G04 Layer_Color=16711680*
%FSLAX43Y43*%
%MOMM*%
G71*
G01*
G75*
%ADD10C,0.200*%
%ADD13C,0.203*%
%ADD14C,0.254*%
%ADD15C,0.300*%
%ADD31R,5.080X2.413*%
%ADD118C,0.635*%
%ADD119C,0.508*%
%ADD120C,0.600*%
%ADD130C,1.625*%
%ADD131C,1.200*%
%ADD132R,1.200X1.200*%
%ADD133C,4.000*%
%ADD134C,0.500*%
%ADD135C,0.600*%
G36*
X34742Y67522D02*
X34747Y67523D01*
X34752Y67522D01*
X89100D01*
Y36750D01*
X99921D01*
X99922Y3500D01*
X99922Y3499D01*
X99922Y3499D01*
X99922Y3483D01*
X99922Y3260D01*
X99866Y2833D01*
X99755Y2418D01*
X99591Y2020D01*
X99377Y1647D01*
X99116Y1305D01*
X98813Y1000D01*
X98473Y736D01*
X98101Y520D01*
X97705Y353D01*
X97290Y239D01*
X96864Y180D01*
X96650Y178D01*
X34602Y178D01*
X34378Y182D01*
X33934Y246D01*
X33503Y368D01*
X33091Y546D01*
X32706Y775D01*
X32354Y1053D01*
X32041Y1375D01*
X31773Y1734D01*
X31554Y2126D01*
X31388Y2542D01*
X31278Y2977D01*
X31225Y3423D01*
X31228Y3647D01*
X31228Y3649D01*
X31228Y3651D01*
Y64191D01*
X31229Y64197D01*
X31230Y64209D01*
X31227Y64228D01*
X31228Y64233D01*
X31236Y64467D01*
X31310Y64906D01*
X31440Y65331D01*
X31624Y65737D01*
X31860Y66114D01*
X32144Y66458D01*
X32469Y66762D01*
X32832Y67021D01*
X33225Y67230D01*
X33642Y67386D01*
X34076Y67486D01*
X34519Y67529D01*
X34742Y67522D01*
D02*
G37*
%LPC*%
G36*
X76227Y66202D02*
Y64077D01*
X78352D01*
X78321Y64392D01*
X78192Y64817D01*
X77983Y65208D01*
X77702Y65552D01*
X77358Y65833D01*
X76967Y66043D01*
X76542Y66171D01*
X76227Y66202D01*
D02*
G37*
G36*
X75973D02*
X75658Y66171D01*
X75233Y66043D01*
X74842Y65833D01*
X74498Y65552D01*
X74217Y65208D01*
X74007Y64817D01*
X73879Y64392D01*
X73848Y64077D01*
X75973D01*
Y66202D01*
D02*
G37*
G36*
X49177Y65652D02*
Y63527D01*
X51302D01*
X51271Y63842D01*
X51143Y64267D01*
X50933Y64658D01*
X50652Y65002D01*
X50308Y65283D01*
X49917Y65493D01*
X49492Y65621D01*
X49177Y65652D01*
D02*
G37*
G36*
X48923D02*
X48608Y65621D01*
X48183Y65493D01*
X47792Y65283D01*
X47448Y65002D01*
X47167Y64658D01*
X46958Y64267D01*
X46829Y63842D01*
X46798Y63527D01*
X48923D01*
Y65652D01*
D02*
G37*
G36*
X78352Y63823D02*
X76227D01*
Y61698D01*
X76542Y61729D01*
X76967Y61857D01*
X77358Y62067D01*
X77702Y62348D01*
X77983Y62692D01*
X78192Y63083D01*
X78321Y63508D01*
X78352Y63823D01*
D02*
G37*
G36*
X75973D02*
X73848D01*
X73879Y63508D01*
X74007Y63083D01*
X74217Y62692D01*
X74498Y62348D01*
X74842Y62067D01*
X75233Y61857D01*
X75658Y61729D01*
X75973Y61698D01*
Y63823D01*
D02*
G37*
G36*
X51302Y63273D02*
X49177D01*
Y61148D01*
X49492Y61179D01*
X49917Y61307D01*
X50308Y61517D01*
X50652Y61798D01*
X50933Y62142D01*
X51143Y62533D01*
X51271Y62958D01*
X51302Y63273D01*
D02*
G37*
G36*
X48923D02*
X46798D01*
X46829Y62958D01*
X46958Y62533D01*
X47167Y62142D01*
X47448Y61798D01*
X47792Y61517D01*
X48183Y61307D01*
X48608Y61179D01*
X48923Y61148D01*
Y63273D01*
D02*
G37*
G36*
X39073Y60145D02*
X38977Y60132D01*
X38769Y60046D01*
X38591Y59909D01*
X38454Y59731D01*
X38368Y59523D01*
X38355Y59427D01*
X39073D01*
Y60145D01*
D02*
G37*
G36*
X37200Y60056D02*
X37004Y60031D01*
X36930Y60000D01*
X36500D01*
Y59570D01*
X36469Y59496D01*
X36444Y59300D01*
X36469Y59104D01*
X36500Y59030D01*
Y58600D01*
X36930D01*
X37004Y58569D01*
X37200Y58544D01*
X37396Y58569D01*
X37470Y58600D01*
X37900D01*
Y59030D01*
X37931Y59104D01*
X37956Y59300D01*
X37931Y59496D01*
X37900Y59570D01*
Y60000D01*
X37470D01*
X37396Y60031D01*
X37200Y60056D01*
D02*
G37*
G36*
X39327Y60145D02*
Y59300D01*
X39200D01*
Y59173D01*
X38355D01*
X38368Y59077D01*
X38454Y58869D01*
X38591Y58691D01*
X38637Y58656D01*
X38689Y58313D01*
X38674Y58269D01*
X38152Y57747D01*
X38089Y57732D01*
X37770Y57789D01*
X37735Y57835D01*
X37578Y57955D01*
X37396Y58031D01*
X37200Y58056D01*
X37004Y58031D01*
X36822Y57955D01*
X36665Y57835D01*
X36545Y57678D01*
X36469Y57496D01*
X36444Y57300D01*
X36469Y57104D01*
X36545Y56922D01*
X36665Y56765D01*
X36822Y56645D01*
X37004Y56569D01*
X37200Y56544D01*
X37396Y56569D01*
X37578Y56645D01*
X37613Y56672D01*
X37913Y56524D01*
Y56207D01*
X37631Y56046D01*
X37423Y56132D01*
X37327Y56145D01*
Y55300D01*
Y54455D01*
X37423Y54468D01*
X37732Y54271D01*
X37746Y54174D01*
X37524Y53977D01*
X37396Y54031D01*
X37200Y54056D01*
X37004Y54031D01*
X36822Y53955D01*
X36665Y53835D01*
X36545Y53678D01*
X36469Y53496D01*
X36444Y53300D01*
X36469Y53104D01*
X36545Y52922D01*
X36665Y52765D01*
X36822Y52645D01*
X37004Y52569D01*
X37200Y52544D01*
X37396Y52569D01*
X37578Y52645D01*
X37735Y52765D01*
X37855Y52922D01*
X37931Y53104D01*
X37956Y53300D01*
X37931Y53496D01*
X37859Y53668D01*
X38264Y54074D01*
X38264Y54074D01*
X38309Y54140D01*
X38325Y54219D01*
Y54716D01*
X38625Y54818D01*
X38665Y54765D01*
X38822Y54645D01*
X39004Y54569D01*
X39200Y54544D01*
X39396Y54569D01*
X39578Y54645D01*
X39735Y54765D01*
X39855Y54922D01*
X39931Y55104D01*
X39956Y55300D01*
X39931Y55496D01*
X39855Y55678D01*
X39735Y55835D01*
X39578Y55955D01*
X39396Y56031D01*
X39200Y56056D01*
X39004Y56031D01*
X38822Y55955D01*
X38665Y55835D01*
X38625Y55782D01*
X38325Y55884D01*
Y56716D01*
X38625Y56818D01*
X38665Y56765D01*
X38822Y56645D01*
X39004Y56569D01*
X39200Y56544D01*
X39396Y56569D01*
X39578Y56645D01*
X39735Y56765D01*
X39855Y56922D01*
X39931Y57104D01*
X39956Y57300D01*
X39931Y57496D01*
X39855Y57678D01*
X39735Y57835D01*
X39722Y57844D01*
X39787Y58094D01*
X39819Y58148D01*
X39879Y58160D01*
X39945Y58205D01*
X40937Y59196D01*
X59176D01*
X59248Y59115D01*
X59368Y58896D01*
X59339Y58750D01*
X59382Y58535D01*
X59503Y58353D01*
X59685Y58232D01*
X59900Y58189D01*
X60115Y58232D01*
X60297Y58353D01*
X60418Y58535D01*
X60461Y58750D01*
X60432Y58893D01*
X60556Y59116D01*
X60626Y59193D01*
X63885D01*
X63956Y59089D01*
X64018Y58893D01*
X63932Y58765D01*
X63906Y58634D01*
X63883Y58547D01*
X63611Y58410D01*
X63600Y58412D01*
X63366Y58365D01*
X63167Y58233D01*
X63035Y58034D01*
X62988Y57800D01*
X63035Y57566D01*
X63167Y57367D01*
X63192Y57351D01*
Y54369D01*
X62968Y54185D01*
X62906Y54227D01*
X62750Y54258D01*
X62750Y54258D01*
X50164D01*
X50164Y54258D01*
X50007Y54227D01*
X49875Y54138D01*
X49320Y53583D01*
X48999D01*
X48983Y53608D01*
X48784Y53740D01*
X48550Y53787D01*
X48316Y53740D01*
X48117Y53608D01*
X47985Y53409D01*
X47938Y53175D01*
X47963Y53052D01*
X47686Y52905D01*
X46563Y54028D01*
X46568Y54035D01*
X46611Y54250D01*
X46568Y54465D01*
X46447Y54647D01*
X46265Y54768D01*
X46050Y54811D01*
X45835Y54768D01*
X45653Y54647D01*
X45532Y54465D01*
X45489Y54250D01*
X45532Y54035D01*
X45653Y53853D01*
X45835Y53732D01*
X46050Y53689D01*
X46265Y53732D01*
X46272Y53737D01*
X47806Y52203D01*
X47806Y52203D01*
X47873Y52159D01*
X47952Y52143D01*
X47952Y52143D01*
X55424D01*
X55424Y52143D01*
X55503Y52159D01*
X55569Y52203D01*
X55811Y52444D01*
X56691D01*
X56755Y52350D01*
X56806Y52144D01*
X53124Y48462D01*
X53115Y48468D01*
X52900Y48511D01*
X52685Y48468D01*
X52503Y48347D01*
X52382Y48165D01*
X52339Y47950D01*
X52382Y47735D01*
X52503Y47553D01*
X52685Y47432D01*
X52900Y47389D01*
X53115Y47432D01*
X53297Y47553D01*
X53418Y47735D01*
X53461Y47950D01*
X53418Y48165D01*
X53412Y48174D01*
X57088Y51849D01*
X60346D01*
X60403Y51812D01*
X60481Y51796D01*
X60481Y51796D01*
X60580D01*
X60705Y51496D01*
X59964Y50756D01*
X58520D01*
X58518Y50765D01*
X58397Y50947D01*
X58215Y51068D01*
X58000Y51111D01*
X57785Y51068D01*
X57603Y50947D01*
X57482Y50765D01*
X57439Y50550D01*
X57482Y50335D01*
X57591Y50172D01*
X57553Y50147D01*
X57432Y49965D01*
X57389Y49750D01*
X57432Y49535D01*
X57553Y49353D01*
X57735Y49232D01*
X57950Y49189D01*
X58165Y49232D01*
X58315Y49332D01*
X58386Y49347D01*
X58424Y49341D01*
X58434Y49336D01*
X58641Y49008D01*
X58639Y49000D01*
X58682Y48785D01*
X58803Y48603D01*
X58985Y48482D01*
X59132Y48215D01*
X59089Y48000D01*
X59118Y47854D01*
X59031Y47696D01*
X58837Y47653D01*
X58673Y47671D01*
X58544Y47800D01*
X58477Y47845D01*
X58399Y47860D01*
X58399Y47860D01*
X56734D01*
X56734Y47860D01*
X56655Y47845D01*
X56588Y47800D01*
X56301Y47777D01*
X56164Y47868D01*
X55950Y47911D01*
X55735Y47868D01*
X55668Y47823D01*
X55568Y47865D01*
X55447Y48047D01*
X55265Y48168D01*
X55050Y48211D01*
X54835Y48168D01*
X54653Y48047D01*
X54532Y47865D01*
X54489Y47650D01*
X54532Y47435D01*
X54653Y47253D01*
X54835Y47132D01*
X54986Y47102D01*
X55535Y46553D01*
X55601Y46508D01*
X55624Y46504D01*
X55595Y46204D01*
X45086D01*
X40356Y50935D01*
Y52350D01*
X40340Y52429D01*
X40295Y52495D01*
X40295Y52495D01*
X39859Y52932D01*
X39931Y53104D01*
X39956Y53300D01*
X39931Y53496D01*
X39855Y53678D01*
X39735Y53835D01*
X39578Y53955D01*
X39396Y54031D01*
X39200Y54056D01*
X39004Y54031D01*
X38822Y53955D01*
X38665Y53835D01*
X38545Y53678D01*
X38469Y53496D01*
X38444Y53300D01*
X38469Y53104D01*
X38545Y52922D01*
X38665Y52765D01*
X38822Y52645D01*
X39004Y52569D01*
X39200Y52544D01*
X39396Y52569D01*
X39568Y52641D01*
X39897Y52313D01*
X39904Y52246D01*
X39878Y52055D01*
X39598Y51940D01*
X39578Y51955D01*
X39396Y52031D01*
X39200Y52056D01*
X39004Y52031D01*
X38822Y51955D01*
X38665Y51835D01*
X38545Y51678D01*
X38469Y51496D01*
X38444Y51300D01*
X38469Y51104D01*
X38545Y50922D01*
X38665Y50765D01*
X38822Y50645D01*
X39004Y50569D01*
X39200Y50544D01*
X39396Y50569D01*
X39568Y50641D01*
X42404Y47806D01*
X42279Y47506D01*
X39927D01*
X39855Y47678D01*
X39735Y47835D01*
X39578Y47955D01*
X39396Y48031D01*
X39200Y48056D01*
X39004Y48031D01*
X38822Y47955D01*
X38665Y47835D01*
X38545Y47678D01*
X38469Y47496D01*
X38444Y47300D01*
X38469Y47104D01*
X38541Y46932D01*
X38055Y46445D01*
X38010Y46379D01*
X37994Y46300D01*
X37994Y46300D01*
Y45989D01*
X37852Y45905D01*
X37694Y45866D01*
X37578Y45955D01*
X37396Y46031D01*
X37200Y46056D01*
X37004Y46031D01*
X36822Y45955D01*
X36665Y45835D01*
X36545Y45678D01*
X36469Y45496D01*
X36444Y45300D01*
X36469Y45104D01*
X36545Y44922D01*
X36665Y44765D01*
X36822Y44645D01*
X37004Y44569D01*
X37200Y44544D01*
X37396Y44569D01*
X37578Y44645D01*
X37735Y44765D01*
X37779Y44823D01*
X37839Y44850D01*
X38076Y44871D01*
X38152Y44853D01*
X38926Y44079D01*
X38872Y43709D01*
X38853Y43697D01*
X38732Y43515D01*
X38689Y43300D01*
X38732Y43085D01*
X38853Y42903D01*
X39035Y42782D01*
X39250Y42739D01*
X39465Y42782D01*
X39647Y42903D01*
X39768Y43085D01*
X39811Y43300D01*
X39768Y43515D01*
X39748Y43544D01*
X39909Y43844D01*
X43880D01*
X43882Y43835D01*
X44003Y43653D01*
X44185Y43532D01*
X44400Y43489D01*
X44615Y43532D01*
X44797Y43653D01*
X44918Y43835D01*
X44961Y44050D01*
X44918Y44265D01*
X44830Y44396D01*
X44887Y44583D01*
X44963Y44696D01*
X57735D01*
X58284Y44147D01*
X58284Y44147D01*
X58351Y44102D01*
X58429Y44086D01*
X63162D01*
X63162Y44086D01*
X63241Y44102D01*
X63307Y44147D01*
X63413Y44252D01*
X63710Y44190D01*
X63747Y44162D01*
X63853Y44003D01*
X64035Y43882D01*
X64250Y43839D01*
X64257Y43841D01*
X67271Y40827D01*
X67409Y40734D01*
X67572Y40702D01*
X68673D01*
X70093Y39281D01*
X70232Y39189D01*
X70394Y39157D01*
X76159D01*
X76322Y39189D01*
X76460Y39281D01*
X76861Y39682D01*
X76935Y39632D01*
X77150Y39589D01*
X77364Y39632D01*
X77546Y39753D01*
X77668Y39935D01*
X77711Y40150D01*
X77668Y40365D01*
X77546Y40546D01*
X77364Y40668D01*
X77150Y40711D01*
X76935Y40668D01*
X76797Y40576D01*
X76727D01*
X76564Y40543D01*
X76426Y40451D01*
X75983Y40008D01*
X70571D01*
X69388Y41191D01*
X69512Y41491D01*
X74468D01*
X74468Y41491D01*
X74547Y41507D01*
X74614Y41551D01*
X75481Y42419D01*
X75561Y42485D01*
X75835Y42496D01*
X75880Y42485D01*
X75885Y42482D01*
X76100Y42439D01*
X76314Y42482D01*
X76503Y42603D01*
X76685Y42482D01*
X76900Y42439D01*
X77115Y42482D01*
X77297Y42603D01*
X77418Y42785D01*
X77420Y42794D01*
X78500D01*
X78500Y42794D01*
X78579Y42810D01*
X78645Y42855D01*
X80247Y44456D01*
X80247Y44456D01*
X80247Y44456D01*
X80288Y44480D01*
X80522Y44538D01*
X80600Y44539D01*
X80685Y44482D01*
X80900Y44439D01*
X81114Y44482D01*
X81296Y44603D01*
X81418Y44785D01*
X81461Y45000D01*
X81418Y45215D01*
X81296Y45396D01*
X81114Y45518D01*
X80900Y45561D01*
X80760Y45533D01*
X80585Y45727D01*
X80562Y45776D01*
X80568Y45785D01*
X80611Y46000D01*
X80568Y46215D01*
X80446Y46396D01*
X80388Y46435D01*
X80505Y46718D01*
X80650Y46689D01*
X80864Y46732D01*
X81046Y46853D01*
X81168Y47035D01*
X81211Y47250D01*
X81168Y47465D01*
X81046Y47646D01*
X80864Y47768D01*
X80650Y47811D01*
X80435Y47768D01*
X80253Y47646D01*
X80132Y47465D01*
X80089Y47250D01*
X80132Y47035D01*
X80253Y46853D01*
X80311Y46815D01*
X80194Y46532D01*
X80050Y46561D01*
X79835Y46518D01*
X79653Y46396D01*
X79532Y46215D01*
X79489Y46000D01*
X79532Y45785D01*
X79653Y45603D01*
X79706Y45568D01*
X79712Y45309D01*
X79496Y45296D01*
X79314Y45418D01*
X79100Y45461D01*
X78913Y45729D01*
Y47869D01*
X79041Y47991D01*
X79091Y48028D01*
X79136Y48050D01*
X79204Y48068D01*
X79350Y48039D01*
X79565Y48082D01*
X79747Y48203D01*
X79868Y48385D01*
X79911Y48600D01*
X79868Y48815D01*
X79747Y48997D01*
X79705Y49025D01*
X79518Y49285D01*
X79561Y49500D01*
X79518Y49715D01*
X79397Y49897D01*
X79215Y50018D01*
X79158Y50335D01*
X79161Y50350D01*
X79118Y50564D01*
X78996Y50746D01*
X78814Y50868D01*
X78600Y50911D01*
X78385Y50868D01*
X78203Y50746D01*
X78082Y50564D01*
X78052Y50413D01*
X77869Y50318D01*
X77746Y50295D01*
X76698Y51343D01*
X76631Y51387D01*
X76553Y51403D01*
X76553Y51403D01*
X67308D01*
X67147Y51703D01*
X67178Y51749D01*
X72803D01*
X72881Y51765D01*
X72947Y51809D01*
X73544Y52406D01*
X73544Y52406D01*
X73588Y52472D01*
X73604Y52550D01*
X73604Y52550D01*
Y54540D01*
X73614Y54561D01*
X73656Y54586D01*
X73964Y54575D01*
X74086Y54393D01*
X74268Y54272D01*
X74482Y54229D01*
X74697Y54272D01*
X74879Y54393D01*
X75000Y54575D01*
X75043Y54790D01*
X75000Y55005D01*
X74879Y55187D01*
X74868Y55194D01*
X74668Y55435D01*
X74711Y55650D01*
X74668Y55865D01*
X74547Y56047D01*
X74447Y56113D01*
Y56203D01*
X74568Y56385D01*
X74611Y56600D01*
X74568Y56815D01*
X74447Y56997D01*
X74265Y57118D01*
X74050Y57161D01*
X73835Y57118D01*
X73828Y57113D01*
X71397Y59544D01*
X71330Y59588D01*
X71252Y59604D01*
X71252Y59604D01*
X60186D01*
X60170Y59607D01*
X60170Y59607D01*
X40852D01*
X40852Y59607D01*
X40773Y59591D01*
X40706Y59547D01*
X40706Y59547D01*
X40349Y59190D01*
X40127Y59275D01*
X40058Y59323D01*
X40032Y59523D01*
X39946Y59731D01*
X39809Y59909D01*
X39631Y60046D01*
X39423Y60132D01*
X39327Y60145D01*
D02*
G37*
G36*
X60700Y57561D02*
X60485Y57518D01*
X60303Y57397D01*
X60182Y57215D01*
X60139Y57000D01*
X60182Y56785D01*
X60303Y56603D01*
X60485Y56482D01*
X60700Y56439D01*
X60915Y56482D01*
X61097Y56603D01*
X61218Y56785D01*
X61261Y57000D01*
X61218Y57215D01*
X61097Y57397D01*
X60915Y57518D01*
X60700Y57561D01*
D02*
G37*
G36*
X37073Y56145D02*
X36977Y56132D01*
X36769Y56046D01*
X36591Y55909D01*
X36454Y55731D01*
X36368Y55523D01*
X36355Y55427D01*
X37073D01*
Y56145D01*
D02*
G37*
G36*
X79700Y56136D02*
X79485Y56093D01*
X79303Y55972D01*
X79182Y55790D01*
X79139Y55575D01*
X79182Y55360D01*
X79303Y55178D01*
X79485Y55057D01*
X79700Y55014D01*
X79915Y55057D01*
X80096Y55178D01*
X80218Y55360D01*
X80261Y55575D01*
X80218Y55790D01*
X80096Y55972D01*
X79915Y56093D01*
X79700Y56136D01*
D02*
G37*
G36*
X37073Y55173D02*
X36355D01*
X36368Y55077D01*
X36454Y54869D01*
X36591Y54691D01*
X36769Y54554D01*
X36977Y54468D01*
X37073Y54455D01*
Y55173D01*
D02*
G37*
G36*
X44550Y52811D02*
X44335Y52768D01*
X44153Y52647D01*
X44032Y52465D01*
X43989Y52250D01*
X44032Y52035D01*
X44153Y51853D01*
X44335Y51732D01*
X44550Y51689D01*
X44765Y51732D01*
X44947Y51853D01*
X45068Y52035D01*
X45111Y52250D01*
X45068Y52465D01*
X44947Y52647D01*
X44765Y52768D01*
X44550Y52811D01*
D02*
G37*
G36*
X37200Y52056D02*
X37004Y52031D01*
X36822Y51955D01*
X36665Y51835D01*
X36545Y51678D01*
X36469Y51496D01*
X36444Y51300D01*
X36469Y51104D01*
X36545Y50922D01*
X36665Y50765D01*
X36822Y50645D01*
X37004Y50569D01*
X37200Y50544D01*
X37396Y50569D01*
X37578Y50645D01*
X37735Y50765D01*
X37855Y50922D01*
X37931Y51104D01*
X37956Y51300D01*
X37931Y51496D01*
X37855Y51678D01*
X37735Y51835D01*
X37578Y51955D01*
X37396Y52031D01*
X37200Y52056D01*
D02*
G37*
G36*
X39327Y50145D02*
Y49427D01*
X40045D01*
X40032Y49523D01*
X39946Y49731D01*
X39809Y49909D01*
X39631Y50046D01*
X39423Y50132D01*
X39327Y50145D01*
D02*
G37*
G36*
X39073D02*
X38977Y50132D01*
X38769Y50046D01*
X38591Y49909D01*
X38454Y49731D01*
X38368Y49523D01*
X38355Y49427D01*
X39073D01*
Y50145D01*
D02*
G37*
G36*
X80177Y51284D02*
X79962Y51241D01*
X79780Y51120D01*
X79659Y50938D01*
X79616Y50723D01*
X79659Y50508D01*
X79780Y50326D01*
X79962Y50205D01*
X80032Y49915D01*
X79989Y49700D01*
X80032Y49485D01*
X80153Y49303D01*
X80335Y49182D01*
X80550Y49139D01*
X80765Y49182D01*
X80947Y49303D01*
X81068Y49485D01*
X81111Y49700D01*
X81068Y49915D01*
X80947Y50097D01*
X80765Y50218D01*
X80695Y50508D01*
X80738Y50723D01*
X80695Y50938D01*
X80574Y51120D01*
X80392Y51241D01*
X80177Y51284D01*
D02*
G37*
G36*
X37200Y50056D02*
X37004Y50031D01*
X36822Y49955D01*
X36665Y49835D01*
X36545Y49678D01*
X36469Y49496D01*
X36444Y49300D01*
X36469Y49104D01*
X36545Y48922D01*
X36665Y48765D01*
X36822Y48645D01*
X37004Y48569D01*
X37200Y48544D01*
X37396Y48569D01*
X37578Y48645D01*
X37735Y48765D01*
X37855Y48922D01*
X37931Y49104D01*
X37956Y49300D01*
X37931Y49496D01*
X37855Y49678D01*
X37735Y49835D01*
X37578Y49955D01*
X37396Y50031D01*
X37200Y50056D01*
D02*
G37*
G36*
X40045Y49173D02*
X39327D01*
Y48455D01*
X39423Y48468D01*
X39631Y48554D01*
X39809Y48691D01*
X39946Y48869D01*
X40032Y49077D01*
X40045Y49173D01*
D02*
G37*
G36*
X39073D02*
X38355D01*
X38368Y49077D01*
X38454Y48869D01*
X38591Y48691D01*
X38769Y48554D01*
X38977Y48468D01*
X39073Y48455D01*
Y49173D01*
D02*
G37*
G36*
X37200Y48056D02*
X37004Y48031D01*
X36822Y47955D01*
X36665Y47835D01*
X36545Y47678D01*
X36469Y47496D01*
X36444Y47300D01*
X36469Y47104D01*
X36545Y46922D01*
X36665Y46765D01*
X36822Y46645D01*
X37004Y46569D01*
X37200Y46544D01*
X37396Y46569D01*
X37578Y46645D01*
X37735Y46765D01*
X37855Y46922D01*
X37931Y47104D01*
X37956Y47300D01*
X37931Y47496D01*
X37855Y47678D01*
X37735Y47835D01*
X37578Y47955D01*
X37396Y48031D01*
X37200Y48056D01*
D02*
G37*
G36*
X46750Y43961D02*
X46535Y43918D01*
X46353Y43797D01*
X46232Y43615D01*
X46189Y43400D01*
X46232Y43185D01*
X46353Y43003D01*
X46535Y42882D01*
X46750Y42839D01*
X46965Y42882D01*
X47147Y43003D01*
X47268Y43185D01*
X47311Y43400D01*
X47268Y43615D01*
X47147Y43797D01*
X46965Y43918D01*
X46750Y43961D01*
D02*
G37*
G36*
X57000Y42311D02*
X56785Y42268D01*
X56603Y42147D01*
X56482Y41965D01*
X56439Y41750D01*
X56482Y41535D01*
X56603Y41353D01*
X56785Y41232D01*
X57000Y41189D01*
X57215Y41232D01*
X57397Y41353D01*
X57518Y41535D01*
X57561Y41750D01*
X57518Y41965D01*
X57397Y42147D01*
X57215Y42268D01*
X57000Y42311D01*
D02*
G37*
G36*
X53500Y42211D02*
X53285Y42168D01*
X53103Y42047D01*
X52982Y41865D01*
X52939Y41650D01*
X52982Y41435D01*
X53103Y41253D01*
X53285Y41132D01*
X53500Y41089D01*
X53715Y41132D01*
X53897Y41253D01*
X54018Y41435D01*
X54061Y41650D01*
X54018Y41865D01*
X53897Y42047D01*
X53715Y42168D01*
X53500Y42211D01*
D02*
G37*
G36*
X59100Y41961D02*
X58885Y41918D01*
X58703Y41797D01*
X58582Y41615D01*
X58539Y41400D01*
X58582Y41185D01*
X58703Y41003D01*
X58885Y40882D01*
X59100Y40839D01*
X59315Y40882D01*
X59497Y41003D01*
X59618Y41185D01*
X59661Y41400D01*
X59618Y41615D01*
X59497Y41797D01*
X59315Y41918D01*
X59100Y41961D01*
D02*
G37*
G36*
X57900Y40111D02*
X57685Y40068D01*
X57503Y39947D01*
X57382Y39765D01*
X57339Y39550D01*
X57372Y39383D01*
X56794Y38805D01*
X53291D01*
X53197Y38947D01*
X53015Y39068D01*
X52800Y39111D01*
X52585Y39068D01*
X52403Y38947D01*
X52282Y38765D01*
X52239Y38550D01*
X52282Y38335D01*
X52403Y38153D01*
X52585Y38032D01*
X52800Y37989D01*
X53015Y38032D01*
X53197Y38153D01*
X53291Y38295D01*
X56900D01*
X56998Y38315D01*
X57080Y38370D01*
X57733Y39022D01*
X57900Y38989D01*
X58115Y39032D01*
X58297Y39153D01*
X58418Y39335D01*
X58461Y39550D01*
X58418Y39765D01*
X58297Y39947D01*
X58115Y40068D01*
X57900Y40111D01*
D02*
G37*
G36*
X68650Y39861D02*
X68435Y39818D01*
X68253Y39697D01*
X68132Y39515D01*
X68089Y39300D01*
X68132Y39085D01*
X68253Y38903D01*
X68435Y38782D01*
X68650Y38739D01*
X68865Y38782D01*
X69047Y38903D01*
X69168Y39085D01*
X69211Y39300D01*
X69168Y39515D01*
X69047Y39697D01*
X68865Y39818D01*
X68650Y39861D01*
D02*
G37*
G36*
X62450Y39511D02*
X62235Y39468D01*
X62053Y39347D01*
X61932Y39165D01*
X61889Y38950D01*
X61932Y38735D01*
X62053Y38553D01*
X62235Y38432D01*
X62450Y38389D01*
X62639Y38300D01*
X62682Y38085D01*
X62803Y37903D01*
X62985Y37782D01*
X63200Y37739D01*
X63415Y37782D01*
X63597Y37903D01*
X63718Y38085D01*
X63761Y38300D01*
X63718Y38515D01*
X63597Y38697D01*
X63415Y38818D01*
X63200Y38861D01*
X63011Y38950D01*
X62968Y39165D01*
X62847Y39347D01*
X62665Y39468D01*
X62450Y39511D01*
D02*
G37*
G36*
X64300Y40911D02*
X64085Y40868D01*
X63903Y40746D01*
X63782Y40565D01*
X63739Y40350D01*
X63781Y40137D01*
X63685Y40118D01*
X63503Y39997D01*
X63382Y39815D01*
X63339Y39600D01*
X63382Y39385D01*
X63503Y39203D01*
X63685Y39082D01*
X63900Y39039D01*
X64115Y39082D01*
X64122Y39087D01*
X65305Y37905D01*
X65371Y37860D01*
X65450Y37844D01*
X65450Y37844D01*
X80593D01*
X80653Y37753D01*
X80835Y37632D01*
X81050Y37589D01*
X81265Y37632D01*
X81447Y37753D01*
X81568Y37935D01*
X81611Y38150D01*
X81568Y38365D01*
X81447Y38547D01*
X81265Y38668D01*
X81050Y38711D01*
X80835Y38668D01*
X80653Y38547D01*
X80532Y38365D01*
X80510Y38256D01*
X65535D01*
X64413Y39378D01*
X64418Y39385D01*
X64461Y39600D01*
X64418Y39813D01*
X64514Y39832D01*
X64696Y39953D01*
X64818Y40135D01*
X64861Y40350D01*
X64818Y40565D01*
X64696Y40746D01*
X64514Y40868D01*
X64300Y40911D01*
D02*
G37*
G36*
X79800Y37461D02*
X79585Y37418D01*
X79403Y37297D01*
X79282Y37115D01*
X79270Y37056D01*
X74720D01*
X74718Y37065D01*
X74597Y37247D01*
X74415Y37368D01*
X74200Y37411D01*
X73985Y37368D01*
X73803Y37247D01*
X73770Y37197D01*
X73647D01*
X73465Y37318D01*
X73250Y37361D01*
X73035Y37318D01*
X72853Y37197D01*
X72732Y37015D01*
X72689Y36800D01*
X72732Y36585D01*
X72853Y36403D01*
X73035Y36282D01*
X73250Y36239D01*
X73465Y36282D01*
X73647Y36403D01*
X73680Y36453D01*
X73803D01*
X73985Y36332D01*
X74200Y36289D01*
X74415Y36332D01*
X74597Y36453D01*
X74718Y36635D01*
X74720Y36644D01*
X79309D01*
X79403Y36503D01*
X79585Y36382D01*
X79800Y36339D01*
X80015Y36382D01*
X80197Y36503D01*
X80318Y36685D01*
X80361Y36900D01*
X80318Y37115D01*
X80197Y37297D01*
X80015Y37418D01*
X79800Y37461D01*
D02*
G37*
G36*
X56650Y37111D02*
X56435Y37068D01*
X56253Y36947D01*
X56132Y36765D01*
X56089Y36550D01*
X56132Y36335D01*
X56152Y36306D01*
X55992Y36006D01*
X55635D01*
X55153Y36487D01*
X55118Y36665D01*
X54997Y36847D01*
X54815Y36968D01*
X54600Y37011D01*
X54385Y36968D01*
X54203Y36847D01*
X54082Y36665D01*
X54039Y36450D01*
X54082Y36235D01*
X54203Y36053D01*
X54385Y35932D01*
X54600Y35889D01*
X54815Y35932D01*
X54997Y36053D01*
X55005Y36054D01*
X55405Y35655D01*
X55405Y35655D01*
X55471Y35610D01*
X55550Y35594D01*
X55550Y35594D01*
X57075D01*
X57093Y35585D01*
X57306Y35332D01*
X57289Y35250D01*
X57332Y35035D01*
X57453Y34853D01*
X57635Y34732D01*
X57850Y34689D01*
X58065Y34732D01*
X58247Y34853D01*
X58353Y35013D01*
X58488Y35054D01*
X58684Y35083D01*
X58835Y34982D01*
X59050Y34939D01*
X59265Y34982D01*
X59447Y35103D01*
X59568Y35285D01*
X59611Y35500D01*
X59568Y35715D01*
X59447Y35897D01*
X59265Y36018D01*
X59050Y36061D01*
X58835Y36018D01*
X58653Y35897D01*
X58547Y35737D01*
X58412Y35696D01*
X58216Y35667D01*
X58065Y35768D01*
X57850Y35811D01*
X57635Y35768D01*
X57628Y35763D01*
X57445Y35945D01*
X57379Y35990D01*
X57300Y36006D01*
X57300Y36006D01*
X57148Y36306D01*
X57168Y36335D01*
X57211Y36550D01*
X57168Y36765D01*
X57047Y36947D01*
X56865Y37068D01*
X56650Y37111D01*
D02*
G37*
G36*
X69200Y35961D02*
X68985Y35918D01*
X68803Y35797D01*
X68682Y35615D01*
X68639Y35400D01*
X68682Y35185D01*
X68803Y35003D01*
X68985Y34882D01*
X69200Y34839D01*
X69415Y34882D01*
X69597Y35003D01*
X69718Y35185D01*
X69761Y35400D01*
X69718Y35615D01*
X69597Y35797D01*
X69415Y35918D01*
X69200Y35961D01*
D02*
G37*
G36*
X53100Y35011D02*
X52885Y34968D01*
X52703Y34847D01*
X52582Y34665D01*
X52539Y34450D01*
X52582Y34235D01*
X52703Y34053D01*
X52885Y33932D01*
X53100Y33889D01*
X53315Y33932D01*
X53497Y34053D01*
X53618Y34235D01*
X53661Y34450D01*
X53618Y34665D01*
X53497Y34847D01*
X53315Y34968D01*
X53100Y35011D01*
D02*
G37*
G36*
X81000Y32361D02*
X80785Y32318D01*
X80603Y32197D01*
X80482Y32015D01*
X80480Y32006D01*
X78229D01*
X78228Y32006D01*
X78150Y31990D01*
X78083Y31945D01*
X75743Y29606D01*
X69520D01*
X69518Y29615D01*
X69397Y29797D01*
X69215Y29918D01*
X69000Y29961D01*
X68785Y29918D01*
X68603Y29797D01*
X68482Y29615D01*
X68439Y29400D01*
X68482Y29185D01*
X68603Y29003D01*
X68785Y28882D01*
X68941Y28608D01*
X68983Y28393D01*
X69105Y28211D01*
X69287Y28090D01*
X69501Y28047D01*
X69716Y28090D01*
X69898Y28211D01*
X70020Y28393D01*
X70049Y28543D01*
X72478D01*
X72602Y28243D01*
X65565Y21206D01*
X64642D01*
X64473Y21477D01*
X64472Y21506D01*
X64511Y21700D01*
X64468Y21915D01*
X64347Y22097D01*
X64165Y22218D01*
X63950Y22261D01*
X63735Y22218D01*
X63553Y22097D01*
X63432Y21915D01*
X63389Y21700D01*
X63216Y21498D01*
X63056Y21725D01*
X63061Y21750D01*
X63018Y21965D01*
X62897Y22147D01*
X62715Y22268D01*
X62500Y22311D01*
X62285Y22268D01*
X62103Y22147D01*
X61982Y21965D01*
X61939Y21750D01*
X61982Y21535D01*
X62002Y21506D01*
X61841Y21206D01*
X58920D01*
X58918Y21215D01*
X58797Y21397D01*
X58615Y21518D01*
X58480Y21545D01*
X58372Y21769D01*
X58361Y21851D01*
X59255Y22745D01*
X59311Y22827D01*
X59330Y22925D01*
Y24549D01*
X59472Y24643D01*
X59593Y24825D01*
X59636Y25040D01*
X59593Y25254D01*
X59472Y25436D01*
X59290Y25558D01*
X59075Y25601D01*
X58860Y25558D01*
X58706Y25455D01*
X54741D01*
X54647Y25597D01*
X54465Y25718D01*
X54250Y25761D01*
X54035Y25718D01*
X53853Y25597D01*
X53822Y25549D01*
X53512Y25499D01*
X53467Y25516D01*
X53315Y25618D01*
X53100Y25661D01*
X52885Y25618D01*
X52703Y25497D01*
X52582Y25315D01*
X52539Y25100D01*
X52582Y24885D01*
X52703Y24703D01*
X52885Y24582D01*
X53100Y24539D01*
X53200Y24559D01*
X53403Y24356D01*
X53403Y24356D01*
X53470Y24312D01*
X53548Y24296D01*
X53548Y24296D01*
X56535D01*
X56796Y24035D01*
Y23500D01*
X56635Y23468D01*
X56583Y23433D01*
X56300Y23402D01*
X56163Y23452D01*
X56065Y23518D01*
X55850Y23561D01*
X55635Y23518D01*
X55628Y23513D01*
X55495Y23645D01*
X55429Y23690D01*
X55350Y23706D01*
X55350Y23706D01*
X53545D01*
X53543Y23715D01*
X53422Y23897D01*
X53240Y24018D01*
X53025Y24061D01*
X52810Y24018D01*
X52628Y23897D01*
X52507Y23715D01*
X52464Y23500D01*
X52507Y23285D01*
X52628Y23103D01*
X52810Y22982D01*
X53025Y22939D01*
X53240Y22982D01*
X53422Y23103D01*
X53543Y23285D01*
X53545Y23294D01*
X55052D01*
X55290Y23005D01*
X55289Y23000D01*
X55332Y22785D01*
X55419Y22656D01*
X55359Y22464D01*
X55286Y22356D01*
X53600D01*
X53521Y22340D01*
X53455Y22295D01*
X53455Y22295D01*
X52365Y21206D01*
X40027D01*
X39955Y21378D01*
X39835Y21535D01*
X39678Y21655D01*
X39496Y21731D01*
X39300Y21756D01*
X39104Y21731D01*
X38922Y21655D01*
X38765Y21535D01*
X38645Y21378D01*
X38569Y21196D01*
X38544Y21000D01*
X38569Y20804D01*
X38645Y20622D01*
X38765Y20465D01*
X38922Y20345D01*
X39104Y20269D01*
X39300Y20244D01*
X39496Y20269D01*
X39678Y20345D01*
X39835Y20465D01*
X39955Y20622D01*
X40027Y20794D01*
X52328D01*
X52454Y20496D01*
X52241Y20282D01*
X52196Y20216D01*
X52180Y20137D01*
X52180Y20137D01*
Y19364D01*
X52180Y19364D01*
X52196Y19285D01*
X52241Y19219D01*
X53659Y17800D01*
X53639Y17700D01*
X53682Y17485D01*
X53803Y17303D01*
X53985Y17182D01*
X54200Y17139D01*
X54415Y17182D01*
X54469Y17218D01*
X54806Y16881D01*
X54682Y16581D01*
X50600D01*
X50511Y16564D01*
X50436Y16514D01*
X50186Y16264D01*
X50136Y16189D01*
X50119Y16100D01*
Y13319D01*
X50082Y13265D01*
X50039Y13050D01*
X50082Y12835D01*
X50203Y12653D01*
X50385Y12532D01*
X50600Y12489D01*
X50815Y12532D01*
X50997Y12653D01*
X51118Y12835D01*
X51161Y13050D01*
X51151Y13098D01*
X51428Y13245D01*
X54993Y9680D01*
X55032Y9485D01*
X55153Y9303D01*
X55335Y9182D01*
X55550Y9139D01*
X55765Y9182D01*
X55947Y9303D01*
X56068Y9485D01*
X56111Y9700D01*
X56068Y9915D01*
X55947Y10097D01*
X55765Y10218D01*
X55570Y10257D01*
X51558Y14269D01*
Y15192D01*
X60070D01*
X60235Y15082D01*
X60450Y15039D01*
X60665Y15082D01*
X60847Y15203D01*
X60929Y15327D01*
X61170Y15397D01*
X61277Y15403D01*
X61894Y14786D01*
X61969Y14736D01*
X62057Y14719D01*
X62975D01*
X62982Y14685D01*
X63103Y14503D01*
X63285Y14382D01*
X63500Y14339D01*
X63714Y14382D01*
X63896Y14503D01*
X64018Y14685D01*
X64061Y14900D01*
X64018Y15115D01*
X63896Y15297D01*
X63714Y15418D01*
X63500Y15461D01*
X63285Y15418D01*
X63103Y15297D01*
X63026Y15181D01*
X62153D01*
X60894Y16441D01*
X61026Y16714D01*
X61408Y17096D01*
X63326D01*
X63398Y17015D01*
X63518Y16796D01*
X63489Y16650D01*
X63532Y16435D01*
X63653Y16253D01*
X63835Y16132D01*
X64050Y16089D01*
X64265Y16132D01*
X64447Y16253D01*
X64568Y16435D01*
X64611Y16650D01*
X64582Y16796D01*
X64702Y17015D01*
X64774Y17096D01*
X67463D01*
X67905Y16654D01*
X67882Y16530D01*
X67787Y16348D01*
X67635Y16318D01*
X67453Y16197D01*
X67332Y16015D01*
X67289Y15800D01*
X67332Y15585D01*
X67453Y15403D01*
X67635Y15282D01*
X67850Y15239D01*
X68065Y15282D01*
X68247Y15403D01*
X68368Y15585D01*
X68408Y15788D01*
X69947D01*
X70036Y15806D01*
X70111Y15856D01*
X70392Y16137D01*
X71207D01*
X71464Y15890D01*
X71507Y15675D01*
X71628Y15493D01*
X71810Y15372D01*
X71899Y15193D01*
X71791Y14895D01*
X71592Y14762D01*
X71588Y14755D01*
X68298D01*
X68129Y14868D01*
X67915Y14911D01*
X67700Y14868D01*
X67518Y14747D01*
X67397Y14565D01*
X67354Y14350D01*
X67397Y14135D01*
X67518Y13953D01*
X67700Y13832D01*
X67915Y13789D01*
X68129Y13832D01*
X68237Y13904D01*
X71588D01*
X71592Y13897D01*
X71791Y13764D01*
X72025Y13718D01*
X72259Y13764D01*
X72424Y13874D01*
X76304D01*
X76395Y13574D01*
X76353Y13547D01*
X76232Y13365D01*
X76189Y13150D01*
X76232Y12935D01*
X76237Y12928D01*
X75624Y12314D01*
X75579Y12248D01*
X75563Y12169D01*
X75563Y12169D01*
Y9631D01*
X75563Y9631D01*
X75579Y9552D01*
X75624Y9486D01*
X75887Y9222D01*
X75882Y9215D01*
X75839Y9000D01*
X75576Y8785D01*
X75499Y8778D01*
X74422Y9855D01*
X74304Y9933D01*
X74166Y9961D01*
X71145D01*
X71122Y9997D01*
X70940Y10118D01*
X70725Y10161D01*
X70510Y10118D01*
X70328Y9997D01*
X70305Y9961D01*
X68370D01*
X68347Y9997D01*
X68165Y10118D01*
X67950Y10161D01*
X67735Y10118D01*
X67553Y9997D01*
X67530Y9961D01*
X66911D01*
Y12330D01*
X66947Y12353D01*
X67068Y12535D01*
X67111Y12750D01*
X67068Y12965D01*
X66947Y13147D01*
X66765Y13268D01*
X66550Y13311D01*
X66335Y13268D01*
X66153Y13147D01*
X66032Y12965D01*
X65989Y12750D01*
X66032Y12535D01*
X66153Y12353D01*
X66189Y12330D01*
Y9961D01*
X60659D01*
X60561Y10107D01*
X60379Y10228D01*
X60165Y10271D01*
X59950Y10228D01*
X59768Y10107D01*
X59647Y9925D01*
X59604Y9710D01*
X59647Y9496D01*
X59768Y9314D01*
X59789Y9300D01*
Y6350D01*
X59080Y5641D01*
X58965Y5718D01*
X58750Y5761D01*
X58535Y5718D01*
X58353Y5597D01*
X58232Y5415D01*
X58189Y5200D01*
X58232Y4985D01*
X58353Y4803D01*
X58535Y4682D01*
X58750Y4639D01*
X58965Y4682D01*
X59147Y4803D01*
X59173Y4844D01*
X59288Y4867D01*
X59405Y4945D01*
X60405Y5945D01*
X60483Y6062D01*
X60511Y6200D01*
Y9239D01*
X67530D01*
X67553Y9203D01*
X67735Y9082D01*
X67950Y9039D01*
X68165Y9082D01*
X68347Y9203D01*
X68370Y9239D01*
X70305D01*
X70328Y9203D01*
X70389Y9163D01*
Y6920D01*
X70353Y6897D01*
X70232Y6715D01*
X70189Y6500D01*
X70232Y6285D01*
X70353Y6103D01*
X70535Y5982D01*
X70750Y5939D01*
X71032Y5835D01*
X71153Y5653D01*
X71246Y5592D01*
X71256Y5561D01*
Y5289D01*
X71246Y5258D01*
X71153Y5197D01*
X71032Y5015D01*
X70989Y4800D01*
X71032Y4585D01*
X71153Y4403D01*
X71335Y4282D01*
X71550Y4239D01*
X71764Y4282D01*
X71946Y4403D01*
X72068Y4585D01*
X72111Y4800D01*
X72068Y5015D01*
X71946Y5197D01*
X71854Y5258D01*
X71844Y5289D01*
Y5561D01*
X71854Y5592D01*
X71946Y5653D01*
X72068Y5835D01*
X72111Y6050D01*
X72068Y6265D01*
X71946Y6447D01*
X71764Y6568D01*
X71550Y6611D01*
X71268Y6715D01*
X71147Y6897D01*
X71111Y6920D01*
Y9196D01*
X71122Y9203D01*
X71145Y9239D01*
X74017D01*
X76607Y6649D01*
X76724Y6571D01*
X76862Y6543D01*
X79197D01*
X79337Y6350D01*
X79377Y6243D01*
X79338Y6050D01*
X79385Y5816D01*
X79517Y5617D01*
X79716Y5485D01*
X79950Y5438D01*
X80184Y5485D01*
X80383Y5617D01*
X80515Y5816D01*
X80533Y5908D01*
X80606Y6072D01*
X80840Y6189D01*
X81280D01*
X81303Y6153D01*
X81485Y6032D01*
X81700Y5989D01*
X81914Y6032D01*
X82096Y6153D01*
X82218Y6335D01*
X82261Y6550D01*
X82218Y6765D01*
X82155Y6858D01*
X82372Y7075D01*
X82435Y7032D01*
X82650Y6989D01*
X82865Y7032D01*
X83047Y7153D01*
X83168Y7335D01*
X83211Y7550D01*
X83168Y7765D01*
X83047Y7947D01*
X82881Y8057D01*
Y9343D01*
X82864Y9431D01*
X82814Y9506D01*
X81985Y10335D01*
Y11955D01*
X81967Y12044D01*
X81917Y12119D01*
X80931Y13105D01*
Y14043D01*
X81097Y14153D01*
X81218Y14335D01*
X81261Y14550D01*
X81253Y14588D01*
X81505Y14834D01*
X81574Y14817D01*
Y14153D01*
X81482Y14015D01*
X81439Y13800D01*
X81482Y13585D01*
X81603Y13403D01*
X81785Y13282D01*
X82000Y13239D01*
X82215Y13282D01*
X82397Y13403D01*
X82518Y13585D01*
X82561Y13800D01*
X82518Y14015D01*
X82426Y14153D01*
Y15425D01*
Y16874D01*
X83301Y17749D01*
X83393Y17887D01*
X83426Y18050D01*
Y19913D01*
X83432Y19917D01*
X83565Y20116D01*
X83612Y20350D01*
X83573Y20546D01*
X83603Y20637D01*
X83751Y20846D01*
X84785D01*
X85165Y20465D01*
X85127Y20270D01*
X85169Y20056D01*
X85291Y19874D01*
X85473Y19752D01*
X85688Y19710D01*
X85902Y19752D01*
X86084Y19874D01*
X86206Y20056D01*
X86248Y20270D01*
X86206Y20485D01*
X86084Y20667D01*
X85902Y20788D01*
X85688Y20831D01*
X85493Y20792D01*
X85045Y21241D01*
X84969Y21291D01*
X84881Y21308D01*
X82649D01*
X82560Y21291D01*
X82316Y21388D01*
X82258Y21438D01*
X82249Y21487D01*
X83695Y22933D01*
X83695Y22933D01*
X83740Y23000D01*
X83756Y23079D01*
Y26450D01*
X83740Y26529D01*
X83695Y26595D01*
X83695Y26595D01*
X82837Y27454D01*
X82838Y27479D01*
X82955Y27760D01*
X83065Y27782D01*
X83247Y27903D01*
X83368Y28085D01*
X83411Y28300D01*
X83368Y28515D01*
X83247Y28697D01*
X83065Y28818D01*
X82850Y28861D01*
X82708Y28833D01*
X82345Y29195D01*
X82279Y29240D01*
X82200Y29256D01*
X82200Y29256D01*
X80500D01*
X80421Y29240D01*
X80355Y29195D01*
X80355Y29195D01*
X79760Y28601D01*
X77788D01*
X77758Y28901D01*
X77915Y28932D01*
X78097Y29053D01*
X78218Y29235D01*
X78261Y29450D01*
X78218Y29665D01*
X78097Y29847D01*
X77973Y29929D01*
X77913Y30136D01*
X77978Y30239D01*
X78148Y30394D01*
X80280D01*
X80282Y30385D01*
X80403Y30203D01*
X80585Y30082D01*
X80800Y30039D01*
X81015Y30082D01*
X81197Y30203D01*
X81318Y30385D01*
X81361Y30600D01*
X81318Y30815D01*
X81211Y30975D01*
X81212Y31071D01*
X81262Y31314D01*
X81397Y31403D01*
X81518Y31585D01*
X81561Y31800D01*
X81518Y32015D01*
X81397Y32197D01*
X81215Y32318D01*
X81000Y32361D01*
D02*
G37*
G36*
X41150Y32112D02*
X40916Y32065D01*
X40717Y31933D01*
X40585Y31734D01*
X40538Y31500D01*
X40585Y31266D01*
X40717Y31067D01*
X40916Y30935D01*
X41150Y30888D01*
X41384Y30935D01*
X41583Y31067D01*
X41715Y31266D01*
X41762Y31500D01*
X41715Y31734D01*
X41583Y31933D01*
X41384Y32065D01*
X41150Y32112D01*
D02*
G37*
G36*
X59100Y31961D02*
X58885Y31918D01*
X58703Y31797D01*
X58582Y31615D01*
X58539Y31400D01*
X58582Y31185D01*
X58703Y31003D01*
X58885Y30882D01*
X59100Y30839D01*
X59315Y30882D01*
X59497Y31003D01*
X59618Y31185D01*
X59661Y31400D01*
X59618Y31615D01*
X59497Y31797D01*
X59315Y31918D01*
X59100Y31961D01*
D02*
G37*
G36*
X56000Y32061D02*
X55785Y32018D01*
X55603Y31896D01*
X55482Y31715D01*
X55439Y31500D01*
X55482Y31285D01*
X55603Y31103D01*
X55509Y30806D01*
X55220D01*
X55218Y30815D01*
X55097Y30997D01*
X54915Y31118D01*
X54700Y31161D01*
X54485Y31118D01*
X54303Y30997D01*
X54182Y30815D01*
X54139Y30600D01*
X54182Y30385D01*
X54303Y30203D01*
X54485Y30082D01*
X54700Y30039D01*
X54915Y30082D01*
X55097Y30203D01*
X55218Y30385D01*
X55220Y30394D01*
X57026D01*
X57053Y30353D01*
X57235Y30232D01*
X57450Y30189D01*
X57665Y30232D01*
X57847Y30353D01*
X57968Y30535D01*
X58011Y30750D01*
X57968Y30965D01*
X57847Y31147D01*
X57665Y31268D01*
X57450Y31311D01*
X57235Y31268D01*
X57053Y31147D01*
X56932Y30965D01*
X56900Y30806D01*
X56491D01*
X56396Y31103D01*
X56518Y31285D01*
X56561Y31500D01*
X56518Y31715D01*
X56396Y31896D01*
X56214Y32018D01*
X56000Y32061D01*
D02*
G37*
G36*
X56400Y28811D02*
X56185Y28768D01*
X56003Y28647D01*
X55882Y28465D01*
X55839Y28250D01*
X55882Y28035D01*
X56003Y27853D01*
X56185Y27732D01*
X56400Y27689D01*
X56615Y27732D01*
X56797Y27853D01*
X56918Y28035D01*
X56961Y28250D01*
X56918Y28465D01*
X56797Y28647D01*
X56615Y28768D01*
X56400Y28811D01*
D02*
G37*
G36*
X39427Y23845D02*
Y23127D01*
X40145D01*
X40132Y23223D01*
X40046Y23431D01*
X39909Y23609D01*
X39731Y23746D01*
X39523Y23832D01*
X39427Y23845D01*
D02*
G37*
G36*
X39173D02*
X39077Y23832D01*
X38869Y23746D01*
X38691Y23609D01*
X38554Y23431D01*
X38468Y23223D01*
X38455Y23127D01*
X39173D01*
Y23845D01*
D02*
G37*
G36*
X37300Y23756D02*
X37104Y23731D01*
X37030Y23700D01*
X36600D01*
Y23270D01*
X36569Y23196D01*
X36544Y23000D01*
X36569Y22804D01*
X36600Y22730D01*
Y22300D01*
X37030D01*
X37104Y22269D01*
X37300Y22244D01*
X37496Y22269D01*
X37570Y22300D01*
X38000D01*
Y22730D01*
X38031Y22804D01*
X38056Y23000D01*
X38031Y23196D01*
X38000Y23270D01*
Y23700D01*
X37570D01*
X37496Y23731D01*
X37300Y23756D01*
D02*
G37*
G36*
X40145Y22873D02*
X39427D01*
Y22155D01*
X39523Y22168D01*
X39731Y22254D01*
X39909Y22391D01*
X40046Y22569D01*
X40132Y22777D01*
X40145Y22873D01*
D02*
G37*
G36*
X39173D02*
X38455D01*
X38468Y22777D01*
X38554Y22569D01*
X38691Y22391D01*
X38869Y22254D01*
X39077Y22168D01*
X39173Y22155D01*
Y22873D01*
D02*
G37*
G36*
X99294Y23473D02*
X96627D01*
Y22140D01*
X99294D01*
Y23473D01*
D02*
G37*
G36*
X96373D02*
X93706D01*
Y22140D01*
X96373D01*
Y23473D01*
D02*
G37*
G36*
X35550Y26712D02*
X35316Y26665D01*
X35117Y26533D01*
X34985Y26334D01*
X34938Y26100D01*
X34985Y25866D01*
X35117Y25667D01*
X35316Y25535D01*
X35375Y25523D01*
Y25217D01*
X35366Y25215D01*
X35167Y25083D01*
X35035Y24884D01*
X34988Y24650D01*
X35035Y24416D01*
X35167Y24217D01*
X35366Y24085D01*
X35600Y24038D01*
X35834Y24085D01*
X36033Y24217D01*
X36049Y24242D01*
X42681D01*
X44211Y22713D01*
X44188Y22600D01*
X44235Y22366D01*
X44367Y22167D01*
X44566Y22035D01*
X44800Y21988D01*
X45034Y22035D01*
X45233Y22167D01*
X45365Y22366D01*
X45412Y22600D01*
X45365Y22834D01*
X45233Y23033D01*
X45034Y23165D01*
X44881Y23196D01*
X43138Y24938D01*
X43006Y25027D01*
X42850Y25058D01*
X42850Y25058D01*
X36049D01*
X36033Y25083D01*
X35834Y25215D01*
X35775Y25227D01*
Y25510D01*
X35942Y25640D01*
X35983Y25667D01*
X35989Y25677D01*
X36009Y25692D01*
X46331D01*
X49519Y22504D01*
X49488Y22350D01*
X49535Y22116D01*
X49667Y21917D01*
X49866Y21785D01*
X50100Y21738D01*
X50334Y21785D01*
X50533Y21917D01*
X50665Y22116D01*
X50712Y22350D01*
X50665Y22584D01*
X50533Y22783D01*
X50334Y22915D01*
X50244Y22933D01*
X46788Y26388D01*
X46656Y26477D01*
X46500Y26508D01*
X46500Y26508D01*
X35999D01*
X35983Y26533D01*
X35784Y26665D01*
X35550Y26712D01*
D02*
G37*
G36*
X99294Y21886D02*
X96627D01*
Y20552D01*
X99294D01*
Y21886D01*
D02*
G37*
G36*
X96373D02*
X93706D01*
Y20552D01*
X96373D01*
Y21886D01*
D02*
G37*
G36*
X37300Y21756D02*
X37104Y21731D01*
X36922Y21655D01*
X36765Y21535D01*
X36645Y21378D01*
X36569Y21196D01*
X36544Y21000D01*
X36569Y20804D01*
X36645Y20622D01*
X36765Y20465D01*
X36922Y20345D01*
X37104Y20269D01*
X37300Y20244D01*
X37496Y20269D01*
X37678Y20345D01*
X37835Y20465D01*
X37955Y20622D01*
X38031Y20804D01*
X38056Y21000D01*
X38031Y21196D01*
X37955Y21378D01*
X37835Y21535D01*
X37678Y21655D01*
X37496Y21731D01*
X37300Y21756D01*
D02*
G37*
G36*
X37427Y19845D02*
Y19127D01*
X38145D01*
X38132Y19223D01*
X38046Y19431D01*
X37909Y19609D01*
X37731Y19746D01*
X37523Y19832D01*
X37427Y19845D01*
D02*
G37*
G36*
X37173D02*
X37077Y19832D01*
X36869Y19746D01*
X36691Y19609D01*
X36554Y19431D01*
X36468Y19223D01*
X36455Y19127D01*
X37173D01*
Y19845D01*
D02*
G37*
G36*
X39300Y19756D02*
X39104Y19731D01*
X38922Y19655D01*
X38765Y19535D01*
X38645Y19378D01*
X38569Y19196D01*
X38544Y19000D01*
X38569Y18804D01*
X38645Y18622D01*
X38765Y18465D01*
X38922Y18345D01*
X39104Y18269D01*
X39300Y18244D01*
X39496Y18269D01*
X39678Y18345D01*
X39835Y18465D01*
X39955Y18622D01*
X40031Y18804D01*
X40056Y19000D01*
X40031Y19196D01*
X39955Y19378D01*
X39835Y19535D01*
X39678Y19655D01*
X39496Y19731D01*
X39300Y19756D01*
D02*
G37*
G36*
X38145Y18873D02*
X37427D01*
Y18155D01*
X37523Y18168D01*
X37731Y18254D01*
X37909Y18391D01*
X38046Y18569D01*
X38132Y18777D01*
X38145Y18873D01*
D02*
G37*
G36*
X37173D02*
X36455D01*
X36468Y18777D01*
X36554Y18569D01*
X36691Y18391D01*
X36869Y18254D01*
X37077Y18168D01*
X37173Y18155D01*
Y18873D01*
D02*
G37*
G36*
X37300Y17756D02*
X37104Y17731D01*
X36922Y17655D01*
X36765Y17535D01*
X36645Y17378D01*
X36569Y17196D01*
X36544Y17000D01*
X36569Y16804D01*
X36645Y16622D01*
X36765Y16465D01*
X36922Y16345D01*
X37104Y16269D01*
X37300Y16244D01*
X37496Y16269D01*
X37678Y16345D01*
X37835Y16465D01*
X37955Y16622D01*
X38031Y16804D01*
X38056Y17000D01*
X38031Y17196D01*
X37955Y17378D01*
X37835Y17535D01*
X37678Y17655D01*
X37496Y17731D01*
X37300Y17756D01*
D02*
G37*
G36*
X39300D02*
X39104Y17731D01*
X38922Y17655D01*
X38765Y17535D01*
X38645Y17378D01*
X38569Y17196D01*
X38544Y17000D01*
X38569Y16804D01*
X38645Y16622D01*
X38765Y16465D01*
X38922Y16345D01*
X39104Y16269D01*
X39300Y16244D01*
X39496Y16269D01*
X39668Y16341D01*
X40450Y15559D01*
X40450Y15559D01*
X40517Y15515D01*
X40562Y15506D01*
X40533Y15206D01*
X40027D01*
X39955Y15378D01*
X39835Y15535D01*
X39678Y15655D01*
X39496Y15731D01*
X39300Y15756D01*
X39104Y15731D01*
X38922Y15655D01*
X38765Y15535D01*
X38645Y15378D01*
X38569Y15196D01*
X38544Y15000D01*
X38569Y14804D01*
X38645Y14622D01*
X38765Y14465D01*
X38922Y14345D01*
X39104Y14269D01*
X39300Y14244D01*
X39496Y14269D01*
X39678Y14345D01*
X39835Y14465D01*
X39955Y14622D01*
X40027Y14794D01*
X44315D01*
X56608Y2501D01*
X56608Y2501D01*
X56675Y2457D01*
X56753Y2441D01*
X56753Y2441D01*
X79047D01*
X79372Y2116D01*
X79339Y1950D01*
X79382Y1735D01*
X79503Y1553D01*
X79685Y1432D01*
X79900Y1389D01*
X80115Y1432D01*
X80297Y1553D01*
X80418Y1735D01*
X80461Y1950D01*
X80418Y2165D01*
X80297Y2347D01*
X80212Y2403D01*
X80117Y2546D01*
X80126Y2772D01*
X80168Y2835D01*
X80211Y3050D01*
X80168Y3265D01*
X80047Y3447D01*
X79865Y3568D01*
X79650Y3611D01*
X79435Y3568D01*
X79253Y3447D01*
X79132Y3265D01*
X79120Y3206D01*
X57035D01*
X44391Y15850D01*
X44324Y15894D01*
X44245Y15910D01*
X44245Y15910D01*
X40681D01*
X39959Y16632D01*
X40031Y16804D01*
X40056Y17000D01*
X40031Y17196D01*
X39955Y17378D01*
X39835Y17535D01*
X39678Y17655D01*
X39496Y17731D01*
X39300Y17756D01*
D02*
G37*
G36*
X37300Y15756D02*
X37104Y15731D01*
X36922Y15655D01*
X36765Y15535D01*
X36645Y15378D01*
X36569Y15196D01*
X36544Y15000D01*
X36569Y14804D01*
X36645Y14622D01*
X36765Y14465D01*
X36922Y14345D01*
X37104Y14269D01*
X37300Y14244D01*
X37496Y14269D01*
X37678Y14345D01*
X37835Y14465D01*
X37955Y14622D01*
X38031Y14804D01*
X38056Y15000D01*
X38031Y15196D01*
X37955Y15378D01*
X37835Y15535D01*
X37678Y15655D01*
X37496Y15731D01*
X37300Y15756D01*
D02*
G37*
G36*
X99294Y14710D02*
X96627D01*
Y13377D01*
X99294D01*
Y14710D01*
D02*
G37*
G36*
X96373D02*
X93706D01*
Y13377D01*
X96373D01*
Y14710D01*
D02*
G37*
G36*
X39427Y13845D02*
Y13127D01*
X40145D01*
X40132Y13223D01*
X40046Y13431D01*
X39909Y13609D01*
X39731Y13746D01*
X39523Y13832D01*
X39427Y13845D01*
D02*
G37*
G36*
X39173D02*
X39077Y13832D01*
X38869Y13746D01*
X38691Y13609D01*
X38554Y13431D01*
X38468Y13223D01*
X38455Y13127D01*
X39173D01*
Y13845D01*
D02*
G37*
G36*
X72100Y13311D02*
X71885Y13268D01*
X71703Y13147D01*
X71593Y12981D01*
X69857D01*
X69747Y13147D01*
X69565Y13268D01*
X69350Y13311D01*
X69135Y13268D01*
X68953Y13147D01*
X68832Y12965D01*
X68789Y12750D01*
X68832Y12535D01*
X68953Y12353D01*
X69135Y12232D01*
X69350Y12189D01*
X69565Y12232D01*
X69747Y12353D01*
X69857Y12519D01*
X71593D01*
X71703Y12353D01*
X71885Y12232D01*
X72100Y12189D01*
X72315Y12232D01*
X72497Y12353D01*
X72618Y12535D01*
X72661Y12750D01*
X72618Y12965D01*
X72497Y13147D01*
X72315Y13268D01*
X72100Y13311D01*
D02*
G37*
G36*
X61450Y13511D02*
X61235Y13468D01*
X61053Y13347D01*
X60932Y13165D01*
X60889Y12950D01*
X60932Y12735D01*
X61053Y12553D01*
X61235Y12432D01*
X61450Y12389D01*
X61665Y12432D01*
X61847Y12553D01*
X61968Y12735D01*
X62011Y12950D01*
X61968Y13165D01*
X61847Y13347D01*
X61665Y13468D01*
X61450Y13511D01*
D02*
G37*
G36*
X37300Y13756D02*
X37104Y13731D01*
X36922Y13655D01*
X36765Y13535D01*
X36645Y13378D01*
X36569Y13196D01*
X36544Y13000D01*
X36569Y12804D01*
X36645Y12622D01*
X36765Y12465D01*
X36922Y12345D01*
X37104Y12269D01*
X37300Y12244D01*
X37496Y12269D01*
X37678Y12345D01*
X37835Y12465D01*
X37955Y12622D01*
X38031Y12804D01*
X38056Y13000D01*
X38031Y13196D01*
X37955Y13378D01*
X37835Y13535D01*
X37678Y13655D01*
X37496Y13731D01*
X37300Y13756D01*
D02*
G37*
G36*
X40145Y12873D02*
X39427D01*
Y12155D01*
X39523Y12168D01*
X39731Y12254D01*
X39909Y12391D01*
X40046Y12569D01*
X40132Y12777D01*
X40145Y12873D01*
D02*
G37*
G36*
X39173D02*
X38455D01*
X38468Y12777D01*
X38554Y12569D01*
X38691Y12391D01*
X38869Y12254D01*
X39077Y12168D01*
X39173Y12155D01*
Y12873D01*
D02*
G37*
G36*
X99294Y13123D02*
X96627D01*
Y11790D01*
X99294D01*
Y13123D01*
D02*
G37*
G36*
X96373D02*
X93706D01*
Y11790D01*
X96373D01*
Y13123D01*
D02*
G37*
G36*
X39300Y11756D02*
X39104Y11731D01*
X38922Y11655D01*
X38765Y11535D01*
X38645Y11378D01*
X38569Y11196D01*
X38544Y11000D01*
X38569Y10804D01*
X38645Y10622D01*
X38765Y10465D01*
X38922Y10345D01*
X39104Y10269D01*
X39300Y10244D01*
X39496Y10269D01*
X39678Y10345D01*
X39835Y10465D01*
X39955Y10622D01*
X40031Y10804D01*
X40056Y11000D01*
X40031Y11196D01*
X39955Y11378D01*
X39835Y11535D01*
X39678Y11655D01*
X39496Y11731D01*
X39300Y11756D01*
D02*
G37*
G36*
X37300D02*
X37104Y11731D01*
X36922Y11655D01*
X36765Y11535D01*
X36645Y11378D01*
X36569Y11196D01*
X36544Y11000D01*
X36569Y10804D01*
X36645Y10622D01*
X36765Y10465D01*
X36922Y10345D01*
X37104Y10269D01*
X37300Y10244D01*
X37496Y10269D01*
X37678Y10345D01*
X37835Y10465D01*
X37955Y10622D01*
X38031Y10804D01*
X38056Y11000D01*
X38031Y11196D01*
X37955Y11378D01*
X37835Y11535D01*
X37678Y11655D01*
X37496Y11731D01*
X37300Y11756D01*
D02*
G37*
G36*
X39300Y9756D02*
X39104Y9731D01*
X38922Y9655D01*
X38765Y9535D01*
X38645Y9378D01*
X38569Y9196D01*
X38544Y9000D01*
X38569Y8804D01*
X38645Y8622D01*
X38765Y8465D01*
X38922Y8345D01*
X39104Y8269D01*
X39300Y8244D01*
X39496Y8269D01*
X39678Y8345D01*
X39835Y8465D01*
X39955Y8622D01*
X40031Y8804D01*
X40056Y9000D01*
X40031Y9196D01*
X39955Y9378D01*
X39835Y9535D01*
X39678Y9655D01*
X39496Y9731D01*
X39300Y9756D01*
D02*
G37*
G36*
X37300D02*
X37104Y9731D01*
X36922Y9655D01*
X36765Y9535D01*
X36645Y9378D01*
X36569Y9196D01*
X36544Y9000D01*
X36569Y8804D01*
X36645Y8622D01*
X36765Y8465D01*
X36922Y8345D01*
X37104Y8269D01*
X37300Y8244D01*
X37496Y8269D01*
X37678Y8345D01*
X37835Y8465D01*
X37955Y8622D01*
X38031Y8804D01*
X38056Y9000D01*
X38031Y9196D01*
X37955Y9378D01*
X37835Y9535D01*
X37678Y9655D01*
X37496Y9731D01*
X37300Y9756D01*
D02*
G37*
G36*
X48727Y7402D02*
Y5277D01*
X50852D01*
X50821Y5592D01*
X50693Y6017D01*
X50483Y6408D01*
X50202Y6752D01*
X49858Y7033D01*
X49467Y7242D01*
X49042Y7371D01*
X48727Y7402D01*
D02*
G37*
G36*
X48473D02*
X48158Y7371D01*
X47733Y7242D01*
X47342Y7033D01*
X46998Y6752D01*
X46717Y6408D01*
X46507Y6017D01*
X46379Y5592D01*
X46348Y5277D01*
X48473D01*
Y7402D01*
D02*
G37*
G36*
X66015Y5857D02*
Y4925D01*
X66947D01*
X66927Y5076D01*
X66820Y5336D01*
X66649Y5559D01*
X66426Y5730D01*
X66166Y5837D01*
X66015Y5857D01*
D02*
G37*
G36*
X65761D02*
X65610Y5837D01*
X65350Y5730D01*
X65127Y5559D01*
X64956Y5336D01*
X64849Y5076D01*
X64829Y4925D01*
X65761D01*
Y5857D01*
D02*
G37*
G36*
X77800Y5511D02*
X77585Y5468D01*
X77403Y5347D01*
X77282Y5165D01*
X77239Y4950D01*
X77282Y4735D01*
X77403Y4553D01*
X77585Y4432D01*
X77800Y4389D01*
X78015Y4432D01*
X78197Y4553D01*
X78318Y4735D01*
X78361Y4950D01*
X78318Y5165D01*
X78197Y5347D01*
X78015Y5468D01*
X77800Y5511D01*
D02*
G37*
G36*
X66947Y4671D02*
X66015D01*
Y3739D01*
X66166Y3759D01*
X66426Y3866D01*
X66649Y4037D01*
X66820Y4260D01*
X66927Y4520D01*
X66947Y4671D01*
D02*
G37*
G36*
X65761D02*
X64829D01*
X64849Y4520D01*
X64956Y4260D01*
X65127Y4037D01*
X65350Y3866D01*
X65610Y3759D01*
X65761Y3739D01*
Y4671D01*
D02*
G37*
G36*
X61400Y4661D02*
X61185Y4618D01*
X61003Y4497D01*
X60882Y4315D01*
X60839Y4100D01*
X60882Y3885D01*
X61003Y3703D01*
X61185Y3582D01*
X61400Y3539D01*
X61615Y3582D01*
X61797Y3703D01*
X61918Y3885D01*
X61961Y4100D01*
X61918Y4315D01*
X61797Y4497D01*
X61615Y4618D01*
X61400Y4661D01*
D02*
G37*
G36*
X50852Y5023D02*
X48727D01*
Y2898D01*
X49042Y2929D01*
X49467Y3057D01*
X49858Y3267D01*
X50202Y3548D01*
X50483Y3892D01*
X50693Y4283D01*
X50821Y4708D01*
X50852Y5023D01*
D02*
G37*
G36*
X48473D02*
X46348D01*
X46379Y4708D01*
X46507Y4283D01*
X46717Y3892D01*
X46998Y3548D01*
X47342Y3267D01*
X47733Y3057D01*
X48158Y2929D01*
X48473Y2898D01*
Y5023D01*
D02*
G37*
%LPD*%
G36*
X73537Y56822D02*
X73532Y56815D01*
X73489Y56600D01*
X73532Y56385D01*
X73653Y56203D01*
X73753Y56137D01*
Y56047D01*
X73632Y55865D01*
X73589Y55650D01*
X73632Y55435D01*
X73638Y55426D01*
X73256Y55044D01*
X73212Y54978D01*
X73196Y54900D01*
Y52634D01*
X72719Y52157D01*
X66834D01*
X66834Y52157D01*
X66756Y52141D01*
X66690Y52097D01*
X65997Y51404D01*
X62853D01*
X62060Y52197D01*
X61993Y52241D01*
X61915Y52257D01*
X61482D01*
X61292Y52557D01*
X61311Y52650D01*
X61268Y52865D01*
X61147Y53047D01*
X61003Y53142D01*
X61005Y53294D01*
X61053Y53442D01*
X62471D01*
X62482Y53385D01*
X62603Y53203D01*
X62785Y53082D01*
X63000Y53039D01*
X63187Y53076D01*
X63306Y53006D01*
X63454Y52881D01*
X63438Y52800D01*
X63485Y52566D01*
X63617Y52367D01*
X63816Y52235D01*
X64050Y52188D01*
X64284Y52235D01*
X64482Y52367D01*
X64615Y52566D01*
X64662Y52800D01*
X64660Y52808D01*
X64669Y52817D01*
X64761Y52955D01*
X64793Y53118D01*
Y56091D01*
X66396Y57694D01*
X66667Y57767D01*
X66866Y57635D01*
X67100Y57588D01*
X67334Y57635D01*
X67533Y57767D01*
X67665Y57966D01*
X67712Y58200D01*
X67665Y58434D01*
X67533Y58633D01*
X67334Y58765D01*
X67100Y58812D01*
X66866Y58765D01*
X66667Y58633D01*
X66663Y58626D01*
X66300D01*
X66250Y58616D01*
X66099Y58634D01*
X65928Y58814D01*
X65918Y58865D01*
X65899Y58893D01*
X66060Y59193D01*
X71166D01*
X73537Y56822D01*
D02*
G37*
G36*
X60495Y53294D02*
X60497Y53142D01*
X60353Y53047D01*
X60232Y52865D01*
X60230Y52856D01*
X55726D01*
X55647Y52840D01*
X55580Y52795D01*
X55580Y52795D01*
X55339Y52554D01*
X49819D01*
X49728Y52854D01*
X49777Y52887D01*
X50332Y53442D01*
X60447D01*
X60495Y53294D01*
D02*
G37*
G36*
X66431Y49749D02*
X66497Y49704D01*
X66576Y49689D01*
X66576Y49689D01*
X73270D01*
X76190Y46769D01*
X76043Y46492D01*
X75950Y46511D01*
X75735Y46468D01*
X75553Y46346D01*
X75432Y46165D01*
X75389Y45950D01*
X75432Y45735D01*
X75553Y45553D01*
X75735Y45432D01*
X75950Y45389D01*
X76039Y45200D01*
X76068Y45054D01*
X75948Y44835D01*
X75876Y44754D01*
X75505D01*
X75449Y44792D01*
X75370Y44807D01*
X75370Y44807D01*
X74830D01*
X74830Y44807D01*
X74751Y44792D01*
X74685Y44747D01*
X74685Y44747D01*
X73953Y44015D01*
X73909Y43949D01*
X73893Y43870D01*
X73893Y43870D01*
Y43315D01*
X73788Y43244D01*
X73593Y43182D01*
X73464Y43268D01*
X73325Y43479D01*
X73368Y43693D01*
X73325Y43908D01*
X73257Y44010D01*
X73396Y44103D01*
X73518Y44285D01*
X73561Y44500D01*
X73518Y44715D01*
X73396Y44896D01*
X73214Y45018D01*
X73000Y45061D01*
X72785Y45018D01*
X72603Y44896D01*
X72489Y44726D01*
X72479Y44714D01*
X72159Y44631D01*
X70868Y45922D01*
X70802Y45967D01*
X70723Y45982D01*
X70723Y45982D01*
X65708D01*
X65434Y46256D01*
X65368Y46301D01*
X65289Y46317D01*
X65289Y46317D01*
X63483D01*
X63483Y46317D01*
X63404Y46301D01*
X63337Y46256D01*
X63235Y46154D01*
X61838D01*
X61747Y46453D01*
X61868Y46635D01*
X61911Y46850D01*
X61868Y47065D01*
X61788Y47184D01*
X61863Y47405D01*
X61921Y47484D01*
X62272D01*
X62282Y47435D01*
X62403Y47253D01*
X62585Y47132D01*
X62800Y47089D01*
X63014Y47132D01*
X63196Y47253D01*
X63263Y47353D01*
X63428Y47461D01*
X63639Y47511D01*
X63750Y47489D01*
X63965Y47532D01*
X64147Y47653D01*
X64341Y47794D01*
X64510Y47699D01*
X64535Y47682D01*
X64750Y47639D01*
X64964Y47682D01*
X65146Y47803D01*
X65268Y47985D01*
X65311Y48200D01*
X65268Y48415D01*
X65146Y48596D01*
X64964Y48718D01*
X64750Y48761D01*
X64535Y48718D01*
X64353Y48596D01*
X64159Y48456D01*
X63990Y48551D01*
X63965Y48568D01*
X63750Y48611D01*
X63535Y48568D01*
X63438Y48503D01*
X63418Y48507D01*
X63418Y48507D01*
X62657D01*
X62627Y48807D01*
X62752Y48832D01*
X62934Y48953D01*
X63056Y49135D01*
X63098Y49350D01*
X63056Y49565D01*
X62934Y49747D01*
X62960Y50090D01*
X63005Y50146D01*
X66033D01*
X66431Y49749D01*
D02*
G37*
G36*
X58413Y46850D02*
X58480Y46805D01*
X58493Y46803D01*
X58441Y46507D01*
X57723D01*
X57723Y46507D01*
X57644Y46492D01*
X57578Y46447D01*
X57578Y46447D01*
X57335Y46204D01*
X56362D01*
X56333Y46504D01*
X56355Y46508D01*
X56422Y46553D01*
X56965Y47096D01*
X58167D01*
X58413Y46850D01*
D02*
G37*
G36*
X77786Y49673D02*
Y47659D01*
X77786Y47659D01*
X77796Y47611D01*
Y46641D01*
X77521Y46472D01*
X77496Y46472D01*
X77300Y46511D01*
X77085Y46468D01*
X77078Y46463D01*
X73501Y50040D01*
X73434Y50084D01*
X73356Y50100D01*
X73356Y50100D01*
X67570D01*
X67498Y50180D01*
X67378Y50400D01*
X67407Y50546D01*
X67378Y50692D01*
X67498Y50911D01*
X67570Y50992D01*
X76467D01*
X77786Y49673D01*
D02*
G37*
G36*
X60928Y45803D02*
X60928Y45803D01*
X60995Y45758D01*
X61073Y45743D01*
X62899D01*
X63023Y45443D01*
X62784Y45204D01*
X59774D01*
X59702Y45285D01*
X59582Y45504D01*
X59611Y45650D01*
X59582Y45796D01*
X59702Y46015D01*
X59774Y46096D01*
X60635D01*
X60928Y45803D01*
D02*
G37*
G36*
X44311Y44899D02*
X44212Y44573D01*
X44185Y44568D01*
X44003Y44447D01*
X43882Y44265D01*
X43880Y44256D01*
X39635D01*
X39562Y44313D01*
X39551Y44529D01*
X39578Y44645D01*
X39735Y44765D01*
X39855Y44922D01*
X39931Y45104D01*
X39956Y45300D01*
X39931Y45496D01*
X39855Y45678D01*
X39735Y45835D01*
X39719Y46078D01*
X40382Y46741D01*
X42469D01*
X44311Y44899D01*
D02*
G37*
G36*
X71950Y43759D02*
Y43423D01*
X71950Y43423D01*
X71965Y43345D01*
X72010Y43278D01*
X72392Y42896D01*
X72458Y42852D01*
X72562Y42806D01*
X72715Y42621D01*
X72728Y42556D01*
X72727Y42527D01*
X72558Y42256D01*
X71908D01*
X71748Y42556D01*
X71768Y42585D01*
X71811Y42800D01*
X71768Y43015D01*
X71647Y43197D01*
X71465Y43318D01*
X71250Y43361D01*
X71161Y43600D01*
X71118Y43815D01*
X70997Y43997D01*
X70815Y44118D01*
X70600Y44161D01*
X70385Y44118D01*
X70203Y43997D01*
X70082Y43815D01*
X70039Y43600D01*
X70082Y43385D01*
X70203Y43203D01*
X70385Y43082D01*
X70600Y43039D01*
X70699Y42753D01*
X70732Y42585D01*
X70752Y42556D01*
X70591Y42256D01*
X68159D01*
X65496Y44918D01*
X65620Y45218D01*
X67826D01*
X67898Y45138D01*
X68018Y44918D01*
X67989Y44772D01*
X68032Y44557D01*
X68153Y44376D01*
X68335Y44254D01*
X68550Y44211D01*
X68765Y44254D01*
X68947Y44376D01*
X69068Y44557D01*
X69111Y44772D01*
X69082Y44918D01*
X69202Y45138D01*
X69274Y45218D01*
X70491D01*
X71950Y43759D01*
D02*
G37*
%LPC*%
G36*
X69350Y57161D02*
X69135Y57118D01*
X68953Y56997D01*
X68832Y56815D01*
X68686Y56600D01*
X68507Y56600D01*
X68450Y56611D01*
X68235Y56568D01*
X68053Y56447D01*
X67932Y56265D01*
X67889Y56050D01*
X67932Y55835D01*
X68053Y55653D01*
X68235Y55532D01*
X68450Y55489D01*
X68639Y55250D01*
X68682Y55035D01*
X68803Y54853D01*
X68985Y54732D01*
X69200Y54689D01*
X69414Y54732D01*
X69596Y54853D01*
X69718Y55035D01*
X69761Y55250D01*
X69718Y55464D01*
X69596Y55646D01*
X69440Y55751D01*
X69430Y55851D01*
X69469Y56063D01*
X69565Y56082D01*
X69682Y56160D01*
X69760Y56199D01*
X70047Y56113D01*
X70053Y56103D01*
X70235Y55982D01*
X70450Y55939D01*
X70665Y55982D01*
X70847Y56103D01*
X70968Y56285D01*
X71011Y56500D01*
X70968Y56715D01*
X70847Y56897D01*
X70665Y57018D01*
X70450Y57061D01*
X70235Y57018D01*
X70118Y56940D01*
X70040Y56901D01*
X69753Y56987D01*
X69747Y56997D01*
X69565Y57118D01*
X69350Y57161D01*
D02*
G37*
G36*
X66850Y54211D02*
X66635Y54168D01*
X66453Y54046D01*
X66332Y53864D01*
X66289Y53650D01*
X66332Y53435D01*
X66453Y53253D01*
X66635Y53132D01*
X66850Y53089D01*
X67064Y53132D01*
X67246Y53253D01*
X67368Y53435D01*
X67411Y53650D01*
X67368Y53864D01*
X67246Y54046D01*
X67064Y54168D01*
X66850Y54211D01*
D02*
G37*
%LPD*%
G36*
X81252Y28544D02*
X81232Y28515D01*
X81189Y28300D01*
X81232Y28085D01*
X81353Y27903D01*
X81535Y27782D01*
X81750Y27739D01*
X81934Y27776D01*
X82710Y26999D01*
X82612Y26673D01*
X82585Y26668D01*
X82403Y26547D01*
X82282Y26365D01*
X82280Y26356D01*
X81850D01*
X81850Y26356D01*
X81771Y26340D01*
X81705Y26295D01*
X81705Y26295D01*
X81457Y26047D01*
X81097Y26047D01*
X80915Y26168D01*
X80700Y26211D01*
X80485Y26168D01*
X80303Y26047D01*
X80008Y26144D01*
Y26700D01*
X79977Y26856D01*
X79888Y26988D01*
X79888Y26988D01*
X79756Y27121D01*
X79762Y27150D01*
X79715Y27384D01*
X79583Y27583D01*
X79384Y27715D01*
X79150Y27762D01*
X78916Y27715D01*
X78717Y27583D01*
X78585Y27384D01*
X78538Y27150D01*
X78585Y26916D01*
X78717Y26717D01*
X78753Y26694D01*
X78753Y26685D01*
X78662Y26393D01*
X78535Y26368D01*
X78353Y26247D01*
X78232Y26065D01*
X78189Y25850D01*
X78232Y25635D01*
X78237Y25628D01*
X76204Y23595D01*
X76167Y23540D01*
X76154Y23525D01*
X76096Y23485D01*
X75960Y23418D01*
X75844Y23398D01*
X75815Y23418D01*
X75600Y23461D01*
X75385Y23418D01*
X75203Y23297D01*
X75082Y23115D01*
X75039Y22900D01*
X75078Y22705D01*
X74154Y21781D01*
X73996Y21796D01*
X73814Y21918D01*
X73600Y21961D01*
X73385Y21918D01*
X73203Y21796D01*
X73121Y21673D01*
X72880Y21603D01*
X72772Y21597D01*
X72274Y22095D01*
X72207Y22140D01*
X72128Y22156D01*
X72128Y22156D01*
X71170D01*
X71168Y22165D01*
X71046Y22346D01*
X70864Y22468D01*
X70650Y22511D01*
X70435Y22468D01*
X70253Y22346D01*
X70132Y22165D01*
X70089Y21950D01*
X70132Y21735D01*
X70253Y21553D01*
X70435Y21432D01*
X70650Y21389D01*
X70864Y21432D01*
X71046Y21553D01*
X71168Y21735D01*
X71170Y21744D01*
X72043D01*
X73119Y20669D01*
X73185Y20589D01*
X73196Y20315D01*
X73185Y20269D01*
X73182Y20265D01*
X73139Y20050D01*
X73182Y19835D01*
X73303Y19653D01*
X73485Y19532D01*
X73700Y19489D01*
X73915Y19532D01*
X74097Y19653D01*
X74218Y19835D01*
X74261Y20050D01*
X74518Y20294D01*
X76474D01*
X76540Y20154D01*
X76553Y20025D01*
X76554Y19994D01*
X74993Y18434D01*
X72371D01*
X72371Y18434D01*
X72293Y18418D01*
X72226Y18374D01*
X71158Y17306D01*
X70078D01*
X70030Y17365D01*
X69997Y17703D01*
X70118Y17885D01*
X70161Y18100D01*
X70118Y18315D01*
X69997Y18497D01*
X69993Y18499D01*
X69833Y18666D01*
X69917Y18883D01*
X69918Y18885D01*
X69961Y19100D01*
X69918Y19315D01*
X69797Y19497D01*
X69662Y19726D01*
X69728Y19876D01*
X69768Y19935D01*
X69811Y20150D01*
X69768Y20365D01*
X69647Y20547D01*
Y20637D01*
X69747Y20703D01*
X69868Y20885D01*
X69911Y21100D01*
X69868Y21315D01*
X69747Y21497D01*
X69565Y21618D01*
X69350Y21661D01*
X69135Y21618D01*
X68953Y21497D01*
X68832Y21315D01*
X68789Y21100D01*
X68832Y20885D01*
X68953Y20703D01*
Y20613D01*
X68853Y20547D01*
X68732Y20365D01*
X68689Y20150D01*
X68732Y19935D01*
X68853Y19753D01*
X68988Y19524D01*
X68922Y19374D01*
X68882Y19315D01*
X68839Y19100D01*
X68882Y18885D01*
X69003Y18703D01*
X69007Y18701D01*
X69167Y18534D01*
X69083Y18317D01*
X69082Y18315D01*
X69039Y18100D01*
X69079Y17902D01*
X69082Y17885D01*
X68935Y17568D01*
X68934Y17567D01*
X68753Y17447D01*
X68632Y17265D01*
X68589Y17050D01*
X68608Y16957D01*
X68331Y16810D01*
X67694Y17447D01*
X67627Y17492D01*
X67548Y17507D01*
X67548Y17507D01*
X61323D01*
X61244Y17492D01*
X61178Y17447D01*
X61178Y17447D01*
X60592Y16861D01*
X58996D01*
X58828Y17120D01*
X58823Y17161D01*
X58861Y17350D01*
X58818Y17565D01*
X58697Y17747D01*
X58555Y17841D01*
Y19950D01*
X58535Y20048D01*
X58480Y20130D01*
X58464Y20146D01*
X58563Y20472D01*
X58615Y20482D01*
X58797Y20603D01*
X58918Y20785D01*
X58920Y20794D01*
X65650D01*
X65650Y20794D01*
X65867Y20671D01*
X65911Y20627D01*
X65901Y20311D01*
X65900Y20311D01*
X65685Y20268D01*
X65503Y20147D01*
X65382Y19965D01*
X65339Y19750D01*
X65382Y19535D01*
X65503Y19353D01*
X65685Y19232D01*
X65900Y19189D01*
X65944Y19198D01*
X66199Y18955D01*
X66188Y18900D01*
X66235Y18666D01*
X66367Y18467D01*
X66566Y18335D01*
X66800Y18288D01*
X67034Y18335D01*
X67233Y18467D01*
X67365Y18666D01*
X67412Y18900D01*
X67365Y19134D01*
X67233Y19333D01*
X67208Y19349D01*
Y20683D01*
X71717Y25192D01*
X74401D01*
X74417Y25167D01*
X74616Y25035D01*
X74850Y24988D01*
X75084Y25035D01*
X75283Y25167D01*
X75415Y25366D01*
X75462Y25600D01*
X75415Y25834D01*
X75405Y25849D01*
X75246Y26103D01*
X75368Y26285D01*
X75411Y26500D01*
X75368Y26715D01*
X75246Y26896D01*
X75064Y27018D01*
X74850Y27061D01*
X74635Y27018D01*
X74453Y26896D01*
X74332Y26715D01*
X74289Y26500D01*
X74172Y26357D01*
X71722D01*
X71598Y26657D01*
X73130Y28190D01*
X79845D01*
X79845Y28190D01*
X79924Y28205D01*
X79991Y28250D01*
X80585Y28844D01*
X81091D01*
X81252Y28544D01*
D02*
G37*
G36*
X80274Y25298D02*
X80303Y25253D01*
X80485Y25132D01*
X80700Y25089D01*
X80796Y25010D01*
Y23851D01*
X80584Y23701D01*
X80496Y23673D01*
X80300Y23712D01*
X80208Y23693D01*
X79908Y23893D01*
Y25239D01*
X79931Y25274D01*
X80176Y25312D01*
X80274Y25298D01*
D02*
G37*
G36*
X58557Y24825D02*
X58678Y24643D01*
X58820Y24549D01*
Y23031D01*
X57574Y21784D01*
X57297Y21932D01*
X57311Y22000D01*
X57268Y22215D01*
X57147Y22397D01*
Y22487D01*
X57247Y22553D01*
X57368Y22735D01*
X57411Y22950D01*
X57368Y23165D01*
X57247Y23347D01*
X57207Y23373D01*
Y24120D01*
X57207Y24120D01*
X57192Y24199D01*
X57147Y24265D01*
X56767Y24645D01*
X56767Y24654D01*
X56844Y24945D01*
X58533D01*
X58557Y24825D01*
D02*
G37*
G36*
X58045Y19844D02*
Y17841D01*
X57903Y17747D01*
X57782Y17565D01*
X57739Y17350D01*
X57777Y17161D01*
X57772Y17120D01*
X57604Y16861D01*
X56827D01*
X56748Y16846D01*
X56686Y16804D01*
X56230D01*
X56230Y16804D01*
X56230Y16804D01*
X55465D01*
X54729Y17540D01*
X54761Y17700D01*
X54718Y17915D01*
X54597Y18097D01*
X54415Y18218D01*
X54200Y18261D01*
X53985Y18218D01*
X53888Y18153D01*
X53020Y19020D01*
X53022Y19054D01*
X53138Y19327D01*
X53252Y19349D01*
X53434Y19471D01*
X53556Y19653D01*
X53598Y19867D01*
X53596Y19878D01*
X53824Y20145D01*
X56550D01*
X56648Y20165D01*
X56730Y20220D01*
X57033Y20522D01*
X57200Y20489D01*
X57367Y20522D01*
X58045Y19844D01*
D02*
G37*
G36*
X82002Y19516D02*
Y18935D01*
X81823Y18788D01*
X81608Y18745D01*
X81426Y18624D01*
X81305Y18442D01*
X81262Y18227D01*
X81301Y18032D01*
X78394Y15126D01*
X73571D01*
X73487Y15312D01*
X73461Y15426D01*
X73568Y15585D01*
X73611Y15800D01*
X73568Y16015D01*
X73446Y16197D01*
X73264Y16318D01*
X73050Y16361D01*
X72874Y16326D01*
X72469Y16730D01*
X72394Y16781D01*
X72305Y16798D01*
X72156D01*
X72031Y17098D01*
X72603Y17670D01*
X75254D01*
X75254Y17670D01*
X75332Y17685D01*
X75399Y17730D01*
X76962Y19293D01*
X78093D01*
X78110Y19290D01*
X81266D01*
X81266Y19290D01*
X81345Y19305D01*
X81411Y19350D01*
X81702Y19640D01*
X82002Y19516D01*
D02*
G37*
G36*
X79863Y14554D02*
X80162Y14436D01*
X80182Y14335D01*
X80303Y14153D01*
X80469Y14043D01*
Y13009D01*
X80486Y12920D01*
X80536Y12845D01*
X80879Y12502D01*
X80873Y12395D01*
X80803Y12154D01*
X80680Y12072D01*
X80558Y11890D01*
X80515Y11675D01*
X80558Y11460D01*
X80680Y11278D01*
X80820Y11185D01*
Y9422D01*
X80655Y9311D01*
X80533Y9129D01*
X80490Y8915D01*
X80533Y8700D01*
X80655Y8518D01*
X80837Y8397D01*
X81051Y8354D01*
X81266Y8397D01*
X81448Y8518D01*
X81569Y8700D01*
X81612Y8915D01*
X81569Y9129D01*
X81448Y9311D01*
X81283Y9422D01*
Y10021D01*
X81583Y10086D01*
X81590Y10076D01*
X82419Y9247D01*
Y8057D01*
X82253Y7947D01*
X82132Y7765D01*
X82089Y7550D01*
X82132Y7335D01*
X82194Y7242D01*
X81978Y7025D01*
X81914Y7068D01*
X81700Y7111D01*
X81485Y7068D01*
X81303Y6947D01*
X81280Y6911D01*
X80807D01*
X80559Y7159D01*
X80442Y7237D01*
X80304Y7265D01*
X77012D01*
X76178Y8099D01*
X76185Y8176D01*
X76400Y8439D01*
X76615Y8482D01*
X76797Y8603D01*
X76918Y8785D01*
X76961Y9000D01*
X76918Y9215D01*
X76797Y9397D01*
X76615Y9518D01*
X76400Y9561D01*
X76185Y9518D01*
X76178Y9513D01*
X75974Y9716D01*
Y12084D01*
X76528Y12637D01*
X76535Y12632D01*
X76750Y12589D01*
X76965Y12632D01*
X77147Y12753D01*
X77268Y12935D01*
X77311Y13150D01*
X77268Y13365D01*
X77147Y13547D01*
X77105Y13574D01*
X77196Y13874D01*
X79000D01*
X79163Y13907D01*
X79301Y13999D01*
X79856Y14554D01*
X79863Y14554D01*
D02*
G37*
%LPC*%
G36*
X79400Y13261D02*
X79185Y13218D01*
X79003Y13097D01*
X78882Y12915D01*
X78839Y12700D01*
X78882Y12485D01*
X79003Y12303D01*
X79168Y12193D01*
Y9576D01*
X79150Y9561D01*
X78935Y9518D01*
X78753Y9397D01*
X78632Y9215D01*
X78589Y9000D01*
X78632Y8785D01*
X78753Y8603D01*
X78935Y8482D01*
X79150Y8439D01*
X79364Y8482D01*
X79546Y8603D01*
X79668Y8785D01*
X79711Y9000D01*
X79668Y9215D01*
X79624Y9280D01*
X79631Y9317D01*
Y12193D01*
X79796Y12303D01*
X79918Y12485D01*
X79961Y12700D01*
X79918Y12915D01*
X79796Y13097D01*
X79614Y13218D01*
X79400Y13261D01*
D02*
G37*
%LPD*%
D10*
X61019Y52000D02*
X61072Y52053D01*
X60481Y52000D02*
X61019D01*
X60428Y52053D02*
X60481Y52000D01*
X57003Y52053D02*
X60428D01*
X52900Y47950D02*
X57003Y52053D01*
X61915D02*
X62769Y51200D01*
X61072Y52053D02*
X61915D01*
X62769Y51200D02*
X66081D01*
X66834Y51953D01*
X72803D01*
X73400Y52550D01*
Y54900D01*
X74150Y55650D01*
D13*
X46050Y54250D02*
X47952Y52348D01*
X60750Y52650D02*
Y52700D01*
X73356Y49894D02*
X77300Y45950D01*
X66576Y49894D02*
X73356D01*
X66119Y50352D02*
X66576Y49894D01*
X76553Y51197D02*
X77992Y49758D01*
X66576Y51197D02*
X76553D01*
X66227Y50848D02*
X66576Y51197D01*
X77992Y47659D02*
X78001Y47649D01*
X77992Y47659D02*
Y49758D01*
X78355Y45576D02*
Y47796D01*
X78708Y45429D02*
Y47942D01*
X80101Y44601D02*
Y45948D01*
X78500Y43000D02*
X80101Y44601D01*
X68073Y42050D02*
X73471D01*
X75423Y44548D02*
X77327D01*
X75370Y44602D02*
X75423Y44548D01*
X74830Y44602D02*
X75370D01*
X74098Y43870D02*
X74830Y44602D01*
X77327Y44548D02*
X78355Y45576D01*
X72958Y43042D02*
X73250Y42750D01*
X72537Y43042D02*
X72958D01*
X72155Y43423D02*
X72537Y43042D01*
X72155Y43423D02*
Y43845D01*
X70576Y45424D02*
X72155Y43845D01*
X65337Y45424D02*
X70576D01*
X65623Y45777D02*
X70723D01*
X65289Y46111D02*
X65623Y45777D01*
X63483Y46111D02*
X65289D01*
X55050Y47328D02*
X55680Y46698D01*
X56277D02*
X56880Y47302D01*
X55680Y46698D02*
X56277D01*
X56880Y47302D02*
X58252D01*
X61230Y51701D02*
X61770D01*
X61177Y51648D02*
X61230Y51701D01*
X61770D02*
X62623Y50848D01*
X71252Y59398D02*
X74050Y56600D01*
X40852Y59402D02*
X60170D01*
X39800Y58350D02*
X40852Y59402D01*
X39046Y58350D02*
X39800D01*
X39200Y53300D02*
X40150Y52350D01*
Y50849D02*
Y52350D01*
Y50849D02*
X45001Y45998D01*
X40297Y46947D02*
X42554D01*
X39200Y45850D02*
X40297Y46947D01*
X39200Y45300D02*
Y45850D01*
X42554Y46947D02*
X44599Y44902D01*
X79845Y28395D02*
X80500Y29050D01*
X82200D01*
X82850Y28400D01*
X81750Y28250D02*
Y28300D01*
Y28250D02*
X83550Y26450D01*
Y23079D02*
Y26450D01*
X78228Y31800D02*
X81000D01*
X75828Y29400D02*
X78228Y31800D01*
X73045Y28395D02*
X79845D01*
X65650Y21000D02*
X73045Y28395D01*
X78378Y21950D02*
X78830Y22402D01*
X77700Y21950D02*
X78378D01*
X78830Y22402D02*
X79370D01*
X79373Y22398D01*
X80590D01*
X81002Y22809D01*
Y25348D01*
X80700Y25650D02*
X81002Y25348D01*
X81382Y22248D02*
Y25682D01*
Y22248D02*
X81550Y22080D01*
X81382Y25682D02*
X81850Y26150D01*
X82034Y22647D02*
X82034Y22647D01*
X81050Y21350D02*
X81501Y20898D01*
X78298Y20948D02*
X79100Y21750D01*
X76350Y21700D02*
Y23450D01*
X81850Y26150D02*
X82800D01*
X82034Y22666D02*
X82800Y23432D01*
Y24850D01*
X81501Y20230D02*
Y20898D01*
X81120Y19848D02*
X81501Y20230D01*
X81855Y21383D02*
X83550Y23079D01*
X81855Y20084D02*
Y21383D01*
X76702Y19852D02*
X79430D01*
X75078Y18228D02*
X76702Y19852D01*
X72371Y18228D02*
X75078D01*
X76877Y19498D02*
X78106D01*
X75254Y17875D02*
X76877Y19498D01*
X72518Y17875D02*
X75254D01*
X68452Y16398D02*
X69791D01*
X67548Y17302D02*
X68452Y16398D01*
X69791D02*
X70139Y16747D01*
X71243Y17100D02*
X72371Y18228D01*
X69642Y28748D02*
X77020D01*
X69501Y28608D02*
X69642Y28748D01*
X77020D02*
X77700Y29429D01*
X69000Y29400D02*
X75828D01*
X54200Y17700D02*
X54278D01*
X56230Y16598D02*
X56230Y16598D01*
X55380Y16598D02*
X56230D01*
X56827Y16656D02*
X60677D01*
X56770Y16598D02*
X56827Y16656D01*
X56230Y16598D02*
X56770D01*
X54278Y17700D02*
X55380Y16598D01*
X54050Y17700D02*
X54200D01*
X52386Y19364D02*
X54050Y17700D01*
X53549Y21300D02*
X53800D01*
X52386Y20137D02*
X53549Y21300D01*
X55350Y23500D02*
X55850Y23000D01*
X53025Y23500D02*
X55350D01*
X57002Y23102D02*
Y24120D01*
X56850Y22950D02*
X57002Y23102D01*
X40595Y15705D02*
X44245D01*
X39300Y17000D02*
X40595Y15705D01*
X44245D02*
X56950Y3000D01*
X44400Y15000D02*
X56753Y2647D01*
X39300Y15000D02*
X44400D01*
X60239Y49750D02*
X60840Y50352D01*
X57950Y49750D02*
X60239D01*
X53548Y24502D02*
X56620D01*
X57002Y24120D01*
X53100Y24950D02*
X53548Y24502D01*
X53100Y24950D02*
Y25100D01*
X53600Y22150D02*
X56631D01*
X52450Y21000D02*
X53600Y22150D01*
X56631D02*
X56750Y22031D01*
Y22000D02*
Y22031D01*
X60049Y50550D02*
X61148Y51648D01*
X61177D01*
X60840Y50352D02*
X66119D01*
X62623Y50848D02*
X66227D01*
X63670Y48050D02*
X63750D01*
X63418Y48301D02*
X63670Y48050D01*
X55726Y52650D02*
X60750D01*
X55424Y52348D02*
X55726Y52650D01*
X58000Y50550D02*
X60049D01*
X64572Y45052D02*
X67927Y41697D01*
X42700Y47300D02*
X44745Y45255D01*
X64719Y45405D02*
X68073Y42050D01*
X39200Y51300D02*
X44892Y45608D01*
X62869Y44998D02*
X63629Y45758D01*
X58722Y44998D02*
X62869D01*
X63016Y44645D02*
X63775Y45405D01*
X58576Y44645D02*
X63016D01*
X63921Y45052D02*
X64572D01*
X63162Y44292D02*
X63921Y45052D01*
X58429Y44292D02*
X63162D01*
X44599Y44902D02*
X57820D01*
X63775Y45405D02*
X64719D01*
X65003Y45758D02*
X65337Y45424D01*
X63629Y45758D02*
X65003D01*
X63320Y45948D02*
X63483Y46111D01*
X61073Y45948D02*
X63320D01*
X60720Y46302D02*
X61073Y45948D01*
X57723Y46302D02*
X60720D01*
X57420Y45998D02*
X57723Y46302D01*
X45001Y45998D02*
X57420D01*
X70723Y45777D02*
X72807Y43693D01*
X67927Y41697D02*
X74468D01*
X57966Y45255D02*
X58576Y44645D01*
X58112Y45608D02*
X58722Y44998D01*
X65450Y38050D02*
X80950D01*
X63900Y39600D02*
X65450Y38050D01*
X80050Y46000D02*
X80101Y45948D01*
X77474Y44195D02*
X78708Y45429D01*
X78001Y45722D02*
Y47649D01*
X77479Y45200D02*
X78001Y45722D01*
X76600Y45200D02*
X77479D01*
X79000Y49420D02*
Y49500D01*
X78698Y47951D02*
Y49118D01*
X79000Y49420D01*
X78345Y47805D02*
Y50015D01*
X76374Y44195D02*
X77474D01*
X75402Y43223D02*
X76374Y44195D01*
X78345Y47805D02*
X78355Y47796D01*
X78345Y50015D02*
X78600Y50270D01*
X76900Y43000D02*
X78500D01*
X78698Y47951D02*
X78708Y47942D01*
X74098Y42677D02*
Y43870D01*
X78600Y50270D02*
Y50350D01*
X47952Y52348D02*
X55424D01*
X60173Y59398D02*
X71252D01*
X60170Y59402D02*
X60173Y59398D01*
X38200Y45096D02*
Y46300D01*
X39200Y47300D01*
X38200Y45096D02*
X39246Y44050D01*
X44400D01*
X75402Y42630D02*
Y43223D01*
X74468Y41697D02*
X75402Y42630D01*
X73471Y42050D02*
X74098Y42677D01*
X60516Y46995D02*
X61210Y47689D01*
X60370Y47348D02*
X61323Y48301D01*
X57820Y44902D02*
X58429Y44292D01*
X44745Y45255D02*
X57966D01*
X44892Y45608D02*
X58112D01*
X58559Y46995D02*
X60516D01*
X58252Y47302D02*
X58559Y46995D01*
X55050Y47328D02*
Y47650D01*
X58705Y47348D02*
X60370D01*
X58399Y47655D02*
X58705Y47348D01*
X56734Y47655D02*
X58399D01*
X56486Y47407D02*
X56734Y47655D01*
X56007Y47407D02*
X56486D01*
X55950Y47350D02*
X56007Y47407D01*
X39200Y47300D02*
X42700D01*
X38119Y57423D02*
X39046Y58350D01*
X38119Y54219D02*
Y57423D01*
X37200Y53300D02*
X38119Y54219D01*
X62760Y47689D02*
X62800Y47650D01*
X61323Y48301D02*
X63418D01*
X61210Y47689D02*
X62760D01*
X74200Y36850D02*
X79750D01*
X79800Y36900D01*
X72128Y21950D02*
X73330Y20748D01*
X70650Y21950D02*
X72128D01*
X73870Y20748D02*
X74070Y20948D01*
X78298D01*
X73330Y20748D02*
X73870D01*
X75769Y12169D02*
X76750Y13150D01*
X73700Y20050D02*
Y20079D01*
X74121Y20500D01*
X76350Y23450D02*
X78750Y25850D01*
X77700Y29429D02*
Y29450D01*
X76750Y29421D02*
X77928Y30600D01*
X76750Y29400D02*
Y29421D01*
X77928Y30600D02*
X80800D01*
X56950Y3000D02*
X79600D01*
X79650Y3050D01*
X79132Y2647D02*
X79828Y1950D01*
X79900D01*
X56753Y2647D02*
X79132D01*
X58400Y21000D02*
X65650D01*
X39300D02*
X52450D01*
X52386Y19364D02*
Y20137D01*
X60677Y16656D02*
X61323Y17302D01*
X67548D01*
X80950Y38050D02*
X81050Y38150D01*
X82850Y28300D02*
Y28400D01*
X66150Y20982D02*
X71319Y26152D01*
X66150Y19919D02*
Y20982D01*
X81550Y22000D02*
Y22080D01*
X74121Y20500D02*
X80850D01*
X81266Y19495D02*
X81855Y20084D01*
X78110Y19495D02*
X81266D01*
X78106Y19498D02*
X78110Y19495D01*
X79433Y19848D02*
X81120D01*
X79430Y19852D02*
X79433Y19848D01*
X71389Y16747D02*
X72518Y17875D01*
X70139Y16747D02*
X71389D01*
X69200Y17100D02*
X71243D01*
X69150Y17050D02*
X69200Y17100D01*
X54700Y30600D02*
X57331D01*
X57450Y30719D01*
Y30750D01*
X57300Y35800D02*
X57850Y35250D01*
X55550Y35800D02*
X57300D01*
X54884Y36466D02*
X55550Y35800D01*
X54616Y36466D02*
X54884D01*
X54600Y36450D02*
X54616Y36466D01*
X65900Y19750D02*
X65980D01*
X66149Y19919D02*
X66150D01*
X65980Y19750D02*
X66149Y19919D01*
X75769Y9631D02*
X76400Y9000D01*
X71319Y26152D02*
X74409D01*
X74559Y26302D01*
X74571D01*
X74770Y26500D01*
X74850D01*
X70650Y21950D02*
X70650D01*
X70650Y21950D01*
X75769Y9631D02*
Y12169D01*
X82034Y22647D02*
Y22666D01*
D14*
X80650Y14550D02*
X80700Y14500D01*
X74147Y21447D02*
X75600Y22900D01*
X82649Y21077D02*
X84881D01*
X85688Y20270D01*
X81823Y18227D02*
X82233Y18637D01*
X68070Y16020D02*
X69947D01*
X67850Y15800D02*
X68070Y16020D01*
X69947D02*
X70296Y16368D01*
X71546D02*
X71745Y16567D01*
X70296Y16368D02*
X71546D01*
X60112Y16220D02*
X60170Y16277D01*
X55123Y16220D02*
X60112D01*
X54993Y16350D02*
X55123Y16220D01*
X50350Y13300D02*
X50600Y13050D01*
X50350Y13300D02*
Y16100D01*
X50600Y16350D01*
X60730Y16277D02*
X62057Y14950D01*
X60170Y16277D02*
X60730D01*
X80700Y13009D02*
Y14500D01*
Y13009D02*
X81753Y11955D01*
Y10239D02*
Y11955D01*
Y10239D02*
X82650Y9343D01*
Y7550D02*
Y9343D01*
X79150Y9000D02*
Y9067D01*
X79400Y9317D01*
Y12700D01*
X81076Y11626D02*
Y11675D01*
X81051Y8915D02*
Y11601D01*
X78490Y14894D02*
X81823Y18227D01*
X73355Y14894D02*
X78490D01*
X73600Y21400D02*
X73647Y21447D01*
X74147D01*
X81051Y11601D02*
X81076Y11626D01*
X50600Y16350D02*
X54993D01*
X63450Y14950D02*
X63500Y14900D01*
X62057Y14950D02*
X63450D01*
X82233Y20661D02*
X82649Y21077D01*
X82233Y18637D02*
Y20661D01*
X72305Y16567D02*
X73050Y15822D01*
X71745Y16567D02*
X72305D01*
X72005Y15870D02*
X72025Y15890D01*
X72005Y15545D02*
Y15870D01*
Y15545D02*
X72650Y14900D01*
X73050Y15800D02*
Y15822D01*
X72650Y14900D02*
X73350D01*
X73355Y14894D01*
X80650Y14550D02*
X80700D01*
X69350Y12750D02*
X72100D01*
D15*
X59075Y22925D02*
Y25040D01*
X57200Y21050D02*
X59075Y22925D01*
X53037Y19867D02*
X53570Y20400D01*
X56550D01*
X57200Y21050D01*
X52800Y38550D02*
X56900D01*
X57900Y39550D01*
X57200Y21050D02*
X58300Y19950D01*
X54250Y25200D02*
X58861D01*
X58300Y17350D02*
Y19950D01*
D31*
X96500Y13250D02*
D03*
Y22013D02*
D03*
D118*
X66300Y58200D02*
X67100D01*
X64368Y56268D02*
X66300Y58200D01*
X64368Y53118D02*
Y56268D01*
X64250Y44400D02*
X64300D01*
X67572Y41128D01*
X68849D01*
X70394Y39582D01*
X76159D01*
X76727Y40150D01*
X77150D01*
X64050Y52800D02*
X64368Y53118D01*
X83000Y18050D02*
Y20350D01*
X82000Y17050D02*
X83000Y18050D01*
X72054Y14300D02*
X79000D01*
X80200Y15500D02*
X81925D01*
X79000Y14300D02*
X80200Y15500D01*
X82000Y15425D02*
Y17050D01*
Y13800D02*
Y15425D01*
X81925Y15500D02*
X82000Y15425D01*
X67915Y14350D02*
X67950D01*
X67971Y14329D01*
X72025D01*
X72054Y14300D01*
D119*
X60150Y9696D02*
X60246Y9600D01*
X66650D02*
X67950D01*
X60246D02*
X66650D01*
X66550Y9700D02*
X66650Y9600D01*
X66550Y9700D02*
Y12750D01*
X70725Y9600D02*
X70750Y9575D01*
Y6500D02*
Y9575D01*
X76862Y6904D02*
X80304D01*
X74166Y9600D02*
X76862Y6904D01*
X70725Y9600D02*
X74166D01*
X80658Y6550D02*
X81700D01*
X80304Y6904D02*
X80658Y6550D01*
X60150Y6200D02*
Y9696D01*
X59150Y5200D02*
X60150Y6200D01*
X58750Y5200D02*
X59150D01*
X66500Y12700D02*
X66550Y12750D01*
X70725Y9600D02*
X70725Y9600D01*
X67950Y9600D02*
X70725D01*
D120*
X79150Y27150D02*
X79600Y26700D01*
Y25498D02*
Y26700D01*
X79500Y25398D02*
X79600Y25498D01*
X79500Y23100D02*
Y25398D01*
Y23100D02*
X80300D01*
X77626D02*
X79500D01*
X51150Y14100D02*
X55550Y9700D01*
X62750Y53850D02*
X63000Y53600D01*
X50164Y53850D02*
X62750D01*
X49489Y53175D02*
X50164Y53850D01*
X48550Y53175D02*
X49489D01*
X50100Y22350D02*
Y22500D01*
X46500Y26100D02*
X50100Y22500D01*
X35550Y26100D02*
X46500D01*
X51100Y15600D02*
X51150Y15550D01*
Y14100D02*
Y15550D01*
X51100Y15600D02*
X60450D01*
X44800Y22600D02*
Y22700D01*
X42850Y24650D02*
X44800Y22700D01*
X35600Y24650D02*
X42850D01*
X66800Y20852D02*
X71548Y25600D01*
X66800Y18900D02*
Y20852D01*
X80300Y23100D02*
X80300Y23100D01*
X71548Y25600D02*
X74850D01*
X63600Y54200D02*
Y57800D01*
X63000Y53600D02*
X63600Y54200D01*
D130*
X65888Y4798D02*
D03*
D131*
X39300Y9000D02*
D03*
Y11000D02*
D03*
Y13000D02*
D03*
Y15000D02*
D03*
Y17000D02*
D03*
Y19000D02*
D03*
Y21000D02*
D03*
Y23000D02*
D03*
X37300Y9000D02*
D03*
Y11000D02*
D03*
Y13000D02*
D03*
Y15000D02*
D03*
Y17000D02*
D03*
Y19000D02*
D03*
Y21000D02*
D03*
X37200Y57300D02*
D03*
Y55300D02*
D03*
Y53300D02*
D03*
Y51300D02*
D03*
Y49300D02*
D03*
Y47300D02*
D03*
Y45300D02*
D03*
X39200Y59300D02*
D03*
Y57300D02*
D03*
Y55300D02*
D03*
Y53300D02*
D03*
Y51300D02*
D03*
Y49300D02*
D03*
Y47300D02*
D03*
Y45300D02*
D03*
D132*
X37300Y23000D02*
D03*
X37200Y59300D02*
D03*
D133*
X48600Y5150D02*
D03*
X49050Y63400D02*
D03*
X76100Y63950D02*
D03*
D134*
X46050Y54250D02*
D03*
X69850Y42850D02*
D03*
X40550Y45600D02*
D03*
X81750Y28300D02*
D03*
X81000Y31800D02*
D03*
X82034Y22647D02*
D03*
X81050Y21350D02*
D03*
X79100Y21750D02*
D03*
X77700Y21950D02*
D03*
X76350Y21700D02*
D03*
X75600Y22900D02*
D03*
X57950Y49750D02*
D03*
X57150Y27500D02*
D03*
X56350Y23850D02*
D03*
X56850Y22950D02*
D03*
X55850Y23000D02*
D03*
X57750Y24350D02*
D03*
X54250Y29700D02*
D03*
X56000Y31500D02*
D03*
X79350Y60371D02*
D03*
Y61788D02*
D03*
Y63206D02*
D03*
Y64624D02*
D03*
Y66041D02*
D03*
X81450Y65991D02*
D03*
Y64574D02*
D03*
Y63156D02*
D03*
Y61738D02*
D03*
Y60321D02*
D03*
Y58903D02*
D03*
Y57485D02*
D03*
Y56068D02*
D03*
Y54650D02*
D03*
X82200Y41833D02*
D03*
Y45392D02*
D03*
Y47171D02*
D03*
Y48950D02*
D03*
Y43612D02*
D03*
Y40054D02*
D03*
Y38275D02*
D03*
X79807Y58267D02*
D03*
X76850Y57650D02*
D03*
X65307Y60217D02*
D03*
X68257Y66317D02*
D03*
X55457Y61567D02*
D03*
X58050Y54950D02*
D03*
X57307Y57317D02*
D03*
X81000Y2800D02*
D03*
X69157Y8117D02*
D03*
X64907D02*
D03*
X58307Y14467D02*
D03*
X56007Y13617D02*
D03*
X45157Y12617D02*
D03*
X49557Y16767D02*
D03*
X50257Y19367D02*
D03*
X37157Y33017D02*
D03*
Y38217D02*
D03*
Y40017D02*
D03*
Y41867D02*
D03*
X48857Y47817D02*
D03*
X51350Y47750D02*
D03*
X54000D02*
D03*
X61100Y54900D02*
D03*
X54600Y50900D02*
D03*
X41657Y62167D02*
D03*
X32950Y34683D02*
D03*
Y38242D02*
D03*
Y40021D02*
D03*
Y41800D02*
D03*
Y36462D02*
D03*
Y32904D02*
D03*
Y31125D02*
D03*
Y29346D02*
D03*
X83700Y36446D02*
D03*
X86150D02*
D03*
X83700Y38225D02*
D03*
X88500D02*
D03*
X86150Y40004D02*
D03*
X83700D02*
D03*
X86150Y45342D02*
D03*
X83700Y43562D02*
D03*
X88500Y45342D02*
D03*
X86150Y47121D02*
D03*
X88500Y41783D02*
D03*
X86150D02*
D03*
X88500Y43562D02*
D03*
X86150Y48900D02*
D03*
X83700D02*
D03*
Y47121D02*
D03*
X34900Y66417D02*
D03*
X38329D02*
D03*
X41757D02*
D03*
X45186D02*
D03*
X48614D02*
D03*
X52043D02*
D03*
X55471D02*
D03*
X58900D02*
D03*
X55121Y2267D02*
D03*
X51693D02*
D03*
X48264D02*
D03*
X44836D02*
D03*
X41407D02*
D03*
X37979D02*
D03*
X34550D02*
D03*
X86400Y34667D02*
D03*
X88100D02*
D03*
X90100D02*
D03*
X92000D02*
D03*
X93900Y32887D02*
D03*
X96050D02*
D03*
X98150D02*
D03*
X86350Y31108D02*
D03*
X88050D02*
D03*
X90050D02*
D03*
X92000D02*
D03*
X93850D02*
D03*
X96000D02*
D03*
X98200D02*
D03*
Y29329D02*
D03*
X96000D02*
D03*
X93850D02*
D03*
X92000D02*
D03*
X90050D02*
D03*
X88050D02*
D03*
X86350D02*
D03*
X98200Y27550D02*
D03*
X96000D02*
D03*
X93850D02*
D03*
X92000D02*
D03*
X90050D02*
D03*
X88050D02*
D03*
X86350D02*
D03*
X86550Y2050D02*
D03*
X88250D02*
D03*
X90250D02*
D03*
X92200D02*
D03*
X94050Y2100D02*
D03*
X96200D02*
D03*
X98350D02*
D03*
X86550Y4300D02*
D03*
X88250D02*
D03*
X90250D02*
D03*
X92200D02*
D03*
X94050Y4325D02*
D03*
X96200D02*
D03*
X98350Y4312D02*
D03*
X88500Y36446D02*
D03*
X62450Y38950D02*
D03*
X60700Y57000D02*
D03*
X59200Y49000D02*
D03*
X61500Y51050D02*
D03*
X61750Y49700D02*
D03*
X60550Y49000D02*
D03*
X62538Y49350D02*
D03*
X63750Y48050D02*
D03*
X61350Y46850D02*
D03*
X60750Y52650D02*
D03*
X63200Y51850D02*
D03*
X72350Y52700D02*
D03*
X69750Y49150D02*
D03*
X72079Y48758D02*
D03*
X74550Y50300D02*
D03*
X69200Y52650D02*
D03*
X74350Y52450D02*
D03*
X74300Y47500D02*
D03*
X69550D02*
D03*
X64250Y44400D02*
D03*
X63050Y46600D02*
D03*
X68550Y44772D02*
D03*
X72807Y43693D02*
D03*
X71250Y42800D02*
D03*
X70600Y43600D02*
D03*
X73000Y44500D02*
D03*
X64750Y48200D02*
D03*
X66846Y50546D02*
D03*
X63250Y43350D02*
D03*
X68650Y39300D02*
D03*
X69500Y39250D02*
D03*
X64300Y40350D02*
D03*
X63900Y39600D02*
D03*
X63200Y38300D02*
D03*
X77150Y40150D02*
D03*
X75800Y40450D02*
D03*
X76100Y43000D02*
D03*
X80050Y46000D02*
D03*
X80650Y47250D02*
D03*
X79100Y44900D02*
D03*
X77300Y45950D02*
D03*
X75950D02*
D03*
X80900Y45000D02*
D03*
X79000Y49500D02*
D03*
X79350Y48600D02*
D03*
X80550Y49700D02*
D03*
X76600Y45200D02*
D03*
X75100Y43950D02*
D03*
X78600Y50350D02*
D03*
X79050Y53250D02*
D03*
X79700Y55575D02*
D03*
X69350Y56600D02*
D03*
X69200Y55250D02*
D03*
X74850Y6050D02*
D03*
X50750Y53000D02*
D03*
X47250Y57550D02*
D03*
X46750Y43400D02*
D03*
X44550Y52250D02*
D03*
X50850Y56150D02*
D03*
X78150Y56950D02*
D03*
X74400Y59850D02*
D03*
X68750Y60050D02*
D03*
X39250Y43300D02*
D03*
X44400Y44050D02*
D03*
X73250Y36800D02*
D03*
X76900Y43000D02*
D03*
X74750Y42900D02*
D03*
X73250Y42750D02*
D03*
X55950Y47350D02*
D03*
X57150Y46650D02*
D03*
X60450Y45650D02*
D03*
X57550Y44250D02*
D03*
X62800Y47650D02*
D03*
X59650Y48000D02*
D03*
X58000Y50550D02*
D03*
X66850Y53650D02*
D03*
X68450Y56050D02*
D03*
X70450Y56500D02*
D03*
X74200Y36850D02*
D03*
X79150Y9000D02*
D03*
X79160Y17750D02*
D03*
X81076Y11675D02*
D03*
X81051Y8915D02*
D03*
X79050Y16450D02*
D03*
X74950Y12400D02*
D03*
X73600Y21400D02*
D03*
X76300Y17650D02*
D03*
X76750Y13150D02*
D03*
X73700Y20050D02*
D03*
X77810Y17700D02*
D03*
X81700Y6550D02*
D03*
X77700Y29450D02*
D03*
X76750Y29400D02*
D03*
X78750Y25850D02*
D03*
X84100Y15700D02*
D03*
X85250D02*
D03*
X83000D02*
D03*
X79650Y3050D02*
D03*
X79900Y1950D02*
D03*
X53650Y10200D02*
D03*
X51100Y15600D02*
D03*
X62500Y21750D02*
D03*
X56750Y22000D02*
D03*
X53037Y19867D02*
D03*
X55650Y17250D02*
D03*
X55050Y21100D02*
D03*
X53800Y21300D02*
D03*
X42850Y28650D02*
D03*
X37250Y30100D02*
D03*
X48400Y13500D02*
D03*
X44800Y19600D02*
D03*
X53025Y23500D02*
D03*
X62950Y15800D02*
D03*
X63500Y14900D02*
D03*
X60200Y17350D02*
D03*
X50600Y13050D02*
D03*
X60450Y15600D02*
D03*
X54000Y19250D02*
D03*
X54200Y17700D02*
D03*
X56500Y17250D02*
D03*
X55550Y9700D02*
D03*
X57950Y12850D02*
D03*
X52900Y47950D02*
D03*
X52800Y38550D02*
D03*
X53800Y35500D02*
D03*
X53100Y34450D02*
D03*
X81050Y38150D02*
D03*
X63950Y21700D02*
D03*
X57200Y21050D02*
D03*
X58750Y8150D02*
D03*
X82850Y28300D02*
D03*
X69400Y19100D02*
D03*
X58400Y21000D02*
D03*
X59100Y31400D02*
D03*
X59050Y35500D02*
D03*
X59100Y41400D02*
D03*
X59050Y45650D02*
D03*
X60425Y40350D02*
D03*
X60500Y34450D02*
D03*
Y30150D02*
D03*
X60425Y25040D02*
D03*
X81700Y50700D02*
D03*
X82650D02*
D03*
X82800Y26150D02*
D03*
Y24850D02*
D03*
X81550Y22000D02*
D03*
X77100Y18800D02*
D03*
X79150D02*
D03*
X80850Y20500D02*
D03*
X72025Y15890D02*
D03*
X69150Y17050D02*
D03*
X69600Y18100D02*
D03*
X73050Y15800D02*
D03*
Y17200D02*
D03*
X80700Y14550D02*
D03*
X54700Y30600D02*
D03*
X55050Y47650D02*
D03*
X56650Y36550D02*
D03*
X57850Y35250D02*
D03*
X57000Y41750D02*
D03*
X53500Y41650D02*
D03*
X57100Y33000D02*
D03*
X54600Y36450D02*
D03*
X57450Y30750D02*
D03*
X56400Y28250D02*
D03*
X53100Y25100D02*
D03*
X54250Y25200D02*
D03*
X53400Y44050D02*
D03*
X57900Y39550D02*
D03*
X52850D02*
D03*
X57900Y26950D02*
D03*
X53950Y26150D02*
D03*
X59075Y25040D02*
D03*
X51750Y17100D02*
D03*
X58300Y17350D02*
D03*
X56050Y21200D02*
D03*
X64050Y16650D02*
D03*
X65900Y19750D02*
D03*
X58750Y5200D02*
D03*
X61400Y4100D02*
D03*
X61450Y12950D02*
D03*
X60165Y9710D02*
D03*
X66475Y15900D02*
D03*
X64200Y13550D02*
D03*
X66550Y12750D02*
D03*
X76400Y9000D02*
D03*
X74850Y26500D02*
D03*
X77800Y4950D02*
D03*
X84950Y4900D02*
D03*
X64150Y5900D02*
D03*
X67950Y9600D02*
D03*
X69200Y5550D02*
D03*
X73050Y3950D02*
D03*
X73000Y7400D02*
D03*
X70750Y6500D02*
D03*
X79800Y36900D02*
D03*
X70450Y23300D02*
D03*
X70650Y21950D02*
D03*
X69350Y21100D02*
D03*
X69250Y20150D02*
D03*
X65400Y58650D02*
D03*
X64450Y58550D02*
D03*
X69000Y29400D02*
D03*
X71550Y4800D02*
D03*
X70725Y9600D02*
D03*
X71550Y6050D02*
D03*
X63000Y53600D02*
D03*
X69501Y28608D02*
D03*
X59900Y58750D02*
D03*
X57350Y64850D02*
D03*
X59950D02*
D03*
X61200D02*
D03*
X69200Y35400D02*
D03*
X80800Y30600D02*
D03*
X77750Y34400D02*
D03*
X72760Y32200D02*
D03*
X75550Y57650D02*
D03*
X72450Y40450D02*
D03*
X81200Y48300D02*
D03*
X74050Y56600D02*
D03*
X74150Y55650D02*
D03*
X74482Y54790D02*
D03*
X83850Y54550D02*
D03*
Y55968D02*
D03*
Y57385D02*
D03*
Y58803D02*
D03*
Y60221D02*
D03*
Y61638D02*
D03*
Y63056D02*
D03*
Y64474D02*
D03*
Y65891D02*
D03*
X86150Y55259D02*
D03*
Y56676D02*
D03*
Y58094D02*
D03*
Y59512D02*
D03*
Y60929D02*
D03*
Y62347D02*
D03*
Y63765D02*
D03*
Y65182D02*
D03*
Y66600D02*
D03*
X83700Y45342D02*
D03*
Y41783D02*
D03*
X86150Y43562D02*
D03*
Y38225D02*
D03*
X88500Y40004D02*
D03*
Y47121D02*
D03*
Y48900D02*
D03*
X88600Y66600D02*
D03*
Y65182D02*
D03*
Y63765D02*
D03*
Y62347D02*
D03*
Y60929D02*
D03*
Y59512D02*
D03*
Y58094D02*
D03*
Y56676D02*
D03*
Y55259D02*
D03*
X88650Y53300D02*
D03*
X87400Y53150D02*
D03*
X86300Y49900D02*
D03*
X86150Y53200D02*
D03*
X84750Y53150D02*
D03*
X83500Y53100D02*
D03*
X82750Y52850D02*
D03*
X81750D02*
D03*
X88650Y50300D02*
D03*
X88100Y51050D02*
D03*
X87450Y50300D02*
D03*
X84550Y50400D02*
D03*
X83450D02*
D03*
X80177Y50723D02*
D03*
X77650Y53250D02*
D03*
X80350D02*
D03*
X76350Y54750D02*
D03*
X98350Y6525D02*
D03*
X96200Y6550D02*
D03*
X94050D02*
D03*
X92200Y6550D02*
D03*
X90250D02*
D03*
X88250D02*
D03*
X86550D02*
D03*
X98350Y8738D02*
D03*
X96200Y8775D02*
D03*
X94050D02*
D03*
X92200Y8800D02*
D03*
X90250D02*
D03*
X88250D02*
D03*
X86550D02*
D03*
X98350Y10950D02*
D03*
X96200Y11000D02*
D03*
X94050D02*
D03*
X86550Y11050D02*
D03*
X88250D02*
D03*
X90250D02*
D03*
X92200D02*
D03*
X86550Y12475D02*
D03*
X88250D02*
D03*
X90250D02*
D03*
X92200D02*
D03*
X86550Y13900D02*
D03*
X92200D02*
D03*
X90250D02*
D03*
X88250D02*
D03*
X85050D02*
D03*
X98250Y13250D02*
D03*
X94750Y13200D02*
D03*
X98650Y15500D02*
D03*
X96500Y15450D02*
D03*
X96450Y19800D02*
D03*
X98400Y21860D02*
D03*
X94750Y22890D02*
D03*
X98850Y19800D02*
D03*
X97950Y24950D02*
D03*
X96000D02*
D03*
X94100D02*
D03*
X92250Y20830D02*
D03*
X92200Y21860D02*
D03*
X92250Y23920D02*
D03*
X92300Y24950D02*
D03*
X90400Y21860D02*
D03*
X90450Y23920D02*
D03*
X90500Y24950D02*
D03*
X88450D02*
D03*
Y23920D02*
D03*
Y21860D02*
D03*
Y20830D02*
D03*
X93050Y16350D02*
D03*
X92150D02*
D03*
X91700Y15900D02*
D03*
X91100Y15150D02*
D03*
X90050Y15100D02*
D03*
X89100Y15150D02*
D03*
X88100Y15200D02*
D03*
X87150D02*
D03*
X86200Y15250D02*
D03*
X92950Y19000D02*
D03*
X91900D02*
D03*
X90850Y18950D02*
D03*
X89850Y18800D02*
D03*
X88900Y18750D02*
D03*
X88000Y18700D02*
D03*
X87050D02*
D03*
X86150Y18650D02*
D03*
X85500Y18050D02*
D03*
X90350Y20830D02*
D03*
X96510Y22890D02*
D03*
Y13200D02*
D03*
X81823Y18227D02*
D03*
X75950Y24350D02*
D03*
X76460Y16250D02*
D03*
X73550Y27514D02*
D03*
X67850Y15800D02*
D03*
X70725Y11209D02*
D03*
X72100Y12750D02*
D03*
X69350D02*
D03*
X67915Y14350D02*
D03*
X84250Y20300D02*
D03*
X80700Y25650D02*
D03*
X80350Y24400D02*
D03*
X82000Y13800D02*
D03*
X84300Y26150D02*
D03*
Y23450D02*
D03*
X83400Y13800D02*
D03*
X78000Y10350D02*
D03*
X84250Y10300D02*
D03*
X82650D02*
D03*
Y7550D02*
D03*
X79400Y12700D02*
D03*
X76420Y10325D02*
D03*
X73550Y10500D02*
D03*
X85688Y20270D02*
D03*
D135*
X48550Y53175D02*
D03*
X50100Y22350D02*
D03*
X35550Y26100D02*
D03*
X79150Y27150D02*
D03*
X41150Y31500D02*
D03*
X44800Y22600D02*
D03*
X35600Y24650D02*
D03*
X64050Y52800D02*
D03*
X83000Y20350D02*
D03*
X80300Y23100D02*
D03*
X66800Y18900D02*
D03*
X79950Y6050D02*
D03*
X63600Y57800D02*
D03*
X74850Y25600D02*
D03*
X67100Y58200D02*
D03*
X72025Y14329D02*
D03*
X77626Y23100D02*
D03*
M02*
