G04*
G04 #@! TF.GenerationSoftware,Altium Limited,Altium Designer,19.1.6 (110)*
G04*
G04 Layer_Color=8388736*
%FSLAX43Y43*%
%MOMM*%
G71*
G01*
G75*
%ADD36R,0.950X0.700*%
%ADD41R,0.700X0.950*%
%ADD42R,1.000X1.000*%
%ADD68R,1.303X2.403*%
%ADD69R,1.203X1.403*%
%ADD70R,4.203X4.203*%
%ADD71R,1.113X0.423*%
%ADD72R,0.423X1.113*%
%ADD73R,1.103X0.903*%
%ADD74R,1.153X1.053*%
%ADD75R,0.903X1.103*%
%ADD76R,1.103X0.628*%
%ADD77R,0.503X1.003*%
%ADD78R,5.283X2.616*%
%ADD79R,5.283X2.489*%
%ADD80R,0.963X0.923*%
G04:AMPARAMS|DCode=81|XSize=0.753mm|YSize=1.003mm|CornerRadius=0.151mm|HoleSize=0mm|Usage=FLASHONLY|Rotation=270.000|XOffset=0mm|YOffset=0mm|HoleType=Round|Shape=RoundedRectangle|*
%AMROUNDEDRECTD81*
21,1,0.753,0.701,0,0,270.0*
21,1,0.451,1.003,0,0,270.0*
1,1,0.302,-0.351,-0.226*
1,1,0.302,-0.351,0.226*
1,1,0.302,0.351,0.226*
1,1,0.302,0.351,-0.226*
%
%ADD81ROUNDEDRECTD81*%
%ADD82R,1.053X1.153*%
%ADD83R,0.603X1.153*%
%ADD84R,1.503X0.553*%
%ADD85R,0.553X2.503*%
%ADD86R,0.953X0.725*%
%ADD87R,0.503X0.553*%
%ADD88R,0.553X0.503*%
%ADD89R,0.703X0.553*%
%ADD90R,1.803X2.703*%
%ADD91R,1.053X0.653*%
%ADD92R,1.303X1.903*%
%ADD93R,0.803X0.553*%
%ADD94C,0.351*%
%ADD95R,3.703X4.603*%
%ADD96R,1.153X0.653*%
%ADD97R,1.453X1.203*%
%ADD98R,6.603X6.603*%
%ADD99R,1.173X0.423*%
%ADD100R,0.423X1.173*%
%ADD101R,0.503X0.503*%
%ADD102R,0.803X0.703*%
%ADD103R,0.923X0.963*%
%ADD104R,1.053X0.953*%
%ADD105R,1.593X1.193*%
%ADD106R,0.703X0.803*%
%ADD107R,0.965X2.997*%
%ADD108R,0.803X0.503*%
%ADD109R,0.503X0.803*%
%ADD110R,1.423X0.603*%
%ADD111O,1.423X0.603*%
%ADD112C,1.828*%
%ADD113C,1.403*%
%ADD114R,1.403X1.403*%
%ADD115C,4.203*%
%ADD116C,0.703*%
%ADD117C,0.803*%
D36*
X67725Y12750D02*
D03*
X69375D02*
D03*
D41*
X48350Y19575D02*
D03*
Y21225D02*
D03*
X46550Y19575D02*
D03*
Y21225D02*
D03*
X77076Y41925D02*
D03*
Y40275D02*
D03*
X38950Y30275D02*
D03*
Y28625D02*
D03*
X41100Y30275D02*
D03*
Y28625D02*
D03*
X77550Y27375D02*
D03*
Y25725D02*
D03*
D42*
X71838Y27514D02*
D03*
Y25814D02*
D03*
X73550Y27514D02*
D03*
Y25814D02*
D03*
X70250Y61800D02*
D03*
Y63500D02*
D03*
D68*
X90550Y52150D02*
D03*
X96450D02*
D03*
D69*
X73560Y12190D02*
D03*
Y10490D02*
D03*
X74860D02*
D03*
Y12190D02*
D03*
D70*
X77710Y17700D02*
D03*
D71*
X74810Y15500D02*
D03*
Y15900D02*
D03*
Y16300D02*
D03*
Y16700D02*
D03*
Y17100D02*
D03*
Y17500D02*
D03*
Y17900D02*
D03*
Y18300D02*
D03*
Y18700D02*
D03*
Y19100D02*
D03*
Y19500D02*
D03*
Y19900D02*
D03*
X80610D02*
D03*
Y19500D02*
D03*
Y19100D02*
D03*
Y18700D02*
D03*
Y18300D02*
D03*
Y17900D02*
D03*
Y17500D02*
D03*
Y17100D02*
D03*
Y16700D02*
D03*
Y16300D02*
D03*
Y15900D02*
D03*
Y15500D02*
D03*
D72*
X75510Y20600D02*
D03*
X75910Y20550D02*
D03*
X76310Y20600D02*
D03*
X76710D02*
D03*
X77110D02*
D03*
X77510D02*
D03*
X77910D02*
D03*
X78310D02*
D03*
X78710D02*
D03*
X79110D02*
D03*
X79510D02*
D03*
X79910D02*
D03*
Y14800D02*
D03*
X79510D02*
D03*
X79110D02*
D03*
X78710D02*
D03*
X78310D02*
D03*
X77910D02*
D03*
X77510D02*
D03*
X77110D02*
D03*
X76710D02*
D03*
X76310D02*
D03*
X75910D02*
D03*
X75510D02*
D03*
D73*
X73550Y22950D02*
D03*
Y24450D02*
D03*
X71850Y22950D02*
D03*
Y24450D02*
D03*
X70200Y24450D02*
D03*
Y22950D02*
D03*
X66850Y23000D02*
D03*
Y24500D02*
D03*
X79150Y25650D02*
D03*
Y27150D02*
D03*
X80650Y25635D02*
D03*
Y27135D02*
D03*
X79550Y9000D02*
D03*
Y7500D02*
D03*
X76400Y7500D02*
D03*
Y9000D02*
D03*
X79050Y28160D02*
D03*
Y29660D02*
D03*
X76050Y27100D02*
D03*
Y25600D02*
D03*
X80500Y28150D02*
D03*
Y29650D02*
D03*
X71060Y40350D02*
D03*
Y41850D02*
D03*
X69850Y40350D02*
D03*
Y41850D02*
D03*
X68640Y41850D02*
D03*
Y40350D02*
D03*
X67100Y62450D02*
D03*
Y60950D02*
D03*
D74*
X79160Y24425D02*
D03*
Y23075D02*
D03*
X80660D02*
D03*
Y24425D02*
D03*
X77560Y24375D02*
D03*
Y23025D02*
D03*
X68500Y22975D02*
D03*
Y24325D02*
D03*
X84222Y11675D02*
D03*
Y10325D02*
D03*
X82662Y10325D02*
D03*
Y11675D02*
D03*
X81101Y10325D02*
D03*
Y11675D02*
D03*
X79541Y10325D02*
D03*
Y11675D02*
D03*
X77981Y10325D02*
D03*
Y11675D02*
D03*
X76420Y10325D02*
D03*
Y11675D02*
D03*
X84222Y8915D02*
D03*
Y7565D02*
D03*
X82661Y7565D02*
D03*
Y8915D02*
D03*
X81101Y7565D02*
D03*
Y8915D02*
D03*
X77981Y7565D02*
D03*
Y8915D02*
D03*
X76400Y6025D02*
D03*
Y4675D02*
D03*
X74840Y6025D02*
D03*
Y4675D02*
D03*
X48400Y13625D02*
D03*
Y14975D02*
D03*
X44800Y19675D02*
D03*
Y21025D02*
D03*
X75566Y40475D02*
D03*
Y41825D02*
D03*
X74006Y40475D02*
D03*
Y41825D02*
D03*
X72446Y40475D02*
D03*
Y41825D02*
D03*
X80550Y48325D02*
D03*
Y49675D02*
D03*
X79700Y56925D02*
D03*
Y55575D02*
D03*
X78140Y56925D02*
D03*
Y55575D02*
D03*
X74410Y59525D02*
D03*
Y58175D02*
D03*
X70279Y59525D02*
D03*
Y58175D02*
D03*
X68719Y59525D02*
D03*
Y58175D02*
D03*
X67159Y59525D02*
D03*
Y58175D02*
D03*
X42850Y28775D02*
D03*
Y30125D02*
D03*
X37300Y30075D02*
D03*
Y28725D02*
D03*
X70201Y25975D02*
D03*
Y27325D02*
D03*
X76000Y23025D02*
D03*
Y24375D02*
D03*
D75*
X82800Y24850D02*
D03*
X84300D02*
D03*
X82800Y26150D02*
D03*
X84300D02*
D03*
X84150Y6200D02*
D03*
X82650D02*
D03*
X84150Y4900D02*
D03*
X82650D02*
D03*
X67850Y15900D02*
D03*
X69350D02*
D03*
X65050Y14300D02*
D03*
X66550D02*
D03*
X66550Y12750D02*
D03*
X65050D02*
D03*
X67900Y11200D02*
D03*
X69400D02*
D03*
X65050Y11200D02*
D03*
X66550D02*
D03*
X76350Y3365D02*
D03*
X74850D02*
D03*
X61550Y9700D02*
D03*
X63050D02*
D03*
X61500Y6650D02*
D03*
X63000D02*
D03*
X60250Y6650D02*
D03*
X58750D02*
D03*
X63000Y5250D02*
D03*
X61500D02*
D03*
X58750Y5250D02*
D03*
X60250D02*
D03*
X53100Y21300D02*
D03*
X51600D02*
D03*
X52250Y15900D02*
D03*
X53750D02*
D03*
X57050Y12450D02*
D03*
X55550D02*
D03*
X53100Y25150D02*
D03*
X51600D02*
D03*
X61550Y15900D02*
D03*
X63050D02*
D03*
X60400Y19800D02*
D03*
X58900D02*
D03*
X60500Y36500D02*
D03*
X59000D02*
D03*
X58950Y38550D02*
D03*
X60450D02*
D03*
X64550Y53800D02*
D03*
X63050D02*
D03*
X46700Y45850D02*
D03*
X45200D02*
D03*
X46700Y44390D02*
D03*
X45200D02*
D03*
X48500Y54550D02*
D03*
X50000D02*
D03*
X46550Y57150D02*
D03*
X45050D02*
D03*
X51600Y34550D02*
D03*
X53100D02*
D03*
X51550Y36500D02*
D03*
X53050D02*
D03*
D76*
X70500Y21160D02*
D03*
X70500Y20360D02*
D03*
Y19560D02*
D03*
Y18760D02*
D03*
X72200D02*
D03*
Y19560D02*
D03*
Y20360D02*
D03*
Y21160D02*
D03*
X66450Y33850D02*
D03*
Y33050D02*
D03*
Y32250D02*
D03*
Y31450D02*
D03*
X64750D02*
D03*
Y32250D02*
D03*
Y33050D02*
D03*
X64750Y33850D02*
D03*
X80150Y33400D02*
D03*
Y32600D02*
D03*
Y31800D02*
D03*
Y31000D02*
D03*
X78450D02*
D03*
Y31800D02*
D03*
Y32600D02*
D03*
X78450Y33400D02*
D03*
X46800Y49900D02*
D03*
Y49100D02*
D03*
Y48300D02*
D03*
Y47500D02*
D03*
X45100D02*
D03*
Y48300D02*
D03*
Y49100D02*
D03*
X45100Y49900D02*
D03*
D77*
X90660Y17600D02*
D03*
X90010D02*
D03*
X89360D02*
D03*
Y16300D02*
D03*
X90010D02*
D03*
X90660D02*
D03*
D78*
X96500Y22013D02*
D03*
Y13250D02*
D03*
D79*
Y17632D02*
D03*
D80*
X88190Y17560D02*
D03*
X87210D02*
D03*
X88190Y16300D02*
D03*
X87210D02*
D03*
D81*
X81325Y4100D02*
D03*
Y5050D02*
D03*
Y6000D02*
D03*
X78775D02*
D03*
Y5050D02*
D03*
Y4100D02*
D03*
X51675Y12500D02*
D03*
Y13450D02*
D03*
Y14400D02*
D03*
X54225D02*
D03*
Y13450D02*
D03*
Y12500D02*
D03*
X66125Y26110D02*
D03*
Y27060D02*
D03*
Y28010D02*
D03*
X68675D02*
D03*
Y27060D02*
D03*
Y26110D02*
D03*
X47125Y55250D02*
D03*
Y54300D02*
D03*
Y53350D02*
D03*
X44575D02*
D03*
Y54300D02*
D03*
Y55250D02*
D03*
D82*
X72025Y17450D02*
D03*
X70675D02*
D03*
X70675Y15890D02*
D03*
X72025D02*
D03*
X65125Y15900D02*
D03*
X66475D02*
D03*
X70675Y14329D02*
D03*
X72025D02*
D03*
X69265Y14350D02*
D03*
X67915D02*
D03*
X70725Y12769D02*
D03*
X72075D02*
D03*
X70725Y11209D02*
D03*
X72075D02*
D03*
X72075Y9600D02*
D03*
X70725D02*
D03*
X69315Y9600D02*
D03*
X67965D02*
D03*
X65075Y9600D02*
D03*
X66425D02*
D03*
X62925Y8150D02*
D03*
X61575D02*
D03*
X58815Y9710D02*
D03*
X60165D02*
D03*
X58815Y8150D02*
D03*
X60165D02*
D03*
X53025Y19800D02*
D03*
X51675D02*
D03*
X53025Y18200D02*
D03*
X51675D02*
D03*
X57025Y10650D02*
D03*
X55675D02*
D03*
X53675Y10640D02*
D03*
X52325D02*
D03*
X53025Y23500D02*
D03*
X51675D02*
D03*
X60325Y18250D02*
D03*
X58975D02*
D03*
X59075Y26600D02*
D03*
X60425D02*
D03*
X59075Y25040D02*
D03*
X60425D02*
D03*
X59075Y23479D02*
D03*
X60425D02*
D03*
X59125Y30250D02*
D03*
X60475D02*
D03*
X59075Y34450D02*
D03*
X60425D02*
D03*
X59075Y40350D02*
D03*
X60425D02*
D03*
X67125Y29800D02*
D03*
X65775D02*
D03*
X59050Y45650D02*
D03*
X60400D02*
D03*
X63225Y46450D02*
D03*
X64575D02*
D03*
X63225Y44890D02*
D03*
X64575D02*
D03*
X63225Y43329D02*
D03*
X64575D02*
D03*
X63225Y41769D02*
D03*
X64575D02*
D03*
X63225Y51850D02*
D03*
X64575D02*
D03*
X49975Y53000D02*
D03*
X48625D02*
D03*
X49975Y56150D02*
D03*
X48625D02*
D03*
X87033Y20300D02*
D03*
X85683D02*
D03*
X87035Y21860D02*
D03*
X85685D02*
D03*
X83375Y13800D02*
D03*
X82025D02*
D03*
X87035Y24981D02*
D03*
X85685D02*
D03*
X84275Y23450D02*
D03*
X82925D02*
D03*
X84275Y21860D02*
D03*
X82925D02*
D03*
X84272Y18800D02*
D03*
X82923D02*
D03*
X84273Y20300D02*
D03*
X82923D02*
D03*
X87035Y23421D02*
D03*
X85685D02*
D03*
D83*
X70725Y6275D02*
D03*
X71575D02*
D03*
Y4925D02*
D03*
X70725D02*
D03*
D84*
X71150Y7225D02*
D03*
Y3975D02*
D03*
D85*
X72275Y5600D02*
D03*
X70025D02*
D03*
D86*
X65050Y6872D02*
D03*
X66726D02*
D03*
X65050Y6050D02*
D03*
X66726D02*
D03*
D87*
X55650Y26250D02*
D03*
X56150D02*
D03*
Y24750D02*
D03*
X55650D02*
D03*
D88*
X56650Y26250D02*
D03*
Y25750D02*
D03*
Y25250D02*
D03*
Y24750D02*
D03*
X55150D02*
D03*
Y25250D02*
D03*
Y25750D02*
D03*
Y26250D02*
D03*
D89*
X56100Y44075D02*
D03*
Y44725D02*
D03*
Y45375D02*
D03*
Y46025D02*
D03*
X54500D02*
D03*
Y45375D02*
D03*
Y44725D02*
D03*
Y44075D02*
D03*
D90*
X55300Y39550D02*
D03*
D91*
X56750Y40550D02*
D03*
Y39550D02*
D03*
Y38550D02*
D03*
X53850D02*
D03*
Y39550D02*
D03*
Y40550D02*
D03*
D92*
X55750Y34450D02*
D03*
D93*
X56800Y35100D02*
D03*
Y34450D02*
D03*
Y33800D02*
D03*
X54700D02*
D03*
Y34450D02*
D03*
Y35100D02*
D03*
D94*
X55800Y30050D02*
D03*
Y30400D02*
D03*
X56150Y30050D02*
D03*
Y30400D02*
D03*
X56500Y30050D02*
D03*
Y30400D02*
D03*
D95*
X72760Y32200D02*
D03*
D96*
X68860Y30295D02*
D03*
Y31565D02*
D03*
Y32835D02*
D03*
Y34105D02*
D03*
X76660D02*
D03*
Y32835D02*
D03*
Y31565D02*
D03*
Y30295D02*
D03*
D97*
X66185Y41850D02*
D03*
Y43350D02*
D03*
D98*
X71950Y49850D02*
D03*
D99*
X68045Y46650D02*
D03*
Y47050D02*
D03*
Y47450D02*
D03*
Y47850D02*
D03*
Y48250D02*
D03*
Y48650D02*
D03*
Y49050D02*
D03*
Y49450D02*
D03*
Y49850D02*
D03*
Y50250D02*
D03*
Y50650D02*
D03*
Y51050D02*
D03*
Y51450D02*
D03*
Y51850D02*
D03*
Y52250D02*
D03*
Y52650D02*
D03*
Y53050D02*
D03*
X75855D02*
D03*
Y52650D02*
D03*
Y52250D02*
D03*
Y51850D02*
D03*
Y51450D02*
D03*
Y51050D02*
D03*
Y50650D02*
D03*
Y50250D02*
D03*
Y49850D02*
D03*
Y49450D02*
D03*
Y49050D02*
D03*
Y48650D02*
D03*
Y48250D02*
D03*
Y47850D02*
D03*
Y47450D02*
D03*
Y47050D02*
D03*
Y46650D02*
D03*
D100*
X68750Y53755D02*
D03*
X69150D02*
D03*
X69550D02*
D03*
X69950D02*
D03*
X70350D02*
D03*
X70750D02*
D03*
X71150D02*
D03*
X71550D02*
D03*
X71950D02*
D03*
X72350D02*
D03*
X72750D02*
D03*
X73150D02*
D03*
X73550D02*
D03*
X73950D02*
D03*
X74350D02*
D03*
X74750D02*
D03*
X75150D02*
D03*
Y45945D02*
D03*
X74750D02*
D03*
X74350D02*
D03*
X73950D02*
D03*
X73550D02*
D03*
X73150D02*
D03*
X72750D02*
D03*
X72350D02*
D03*
X71950D02*
D03*
X71550D02*
D03*
X71150D02*
D03*
X70750D02*
D03*
X70350D02*
D03*
X69950D02*
D03*
X69550D02*
D03*
X69150D02*
D03*
X68750D02*
D03*
D101*
X84637Y51350D02*
D03*
X84050D02*
D03*
X83463D02*
D03*
Y51850D02*
D03*
X84050D02*
D03*
X84637D02*
D03*
D102*
X88450Y52100D02*
D03*
X87450D02*
D03*
D103*
X86300Y51070D02*
D03*
Y52050D02*
D03*
D104*
X76525Y55675D02*
D03*
X75175D02*
D03*
X76525Y56725D02*
D03*
X75175D02*
D03*
D105*
X72750Y59605D02*
D03*
Y58095D02*
D03*
D106*
X71465Y58350D02*
D03*
Y59350D02*
D03*
D107*
X57360Y59718D02*
D03*
Y63782D02*
D03*
X58630Y59718D02*
D03*
Y63782D02*
D03*
X59900Y59718D02*
D03*
Y63782D02*
D03*
X61170Y59718D02*
D03*
Y63782D02*
D03*
X62440Y59718D02*
D03*
Y63782D02*
D03*
D108*
X54900Y19900D02*
D03*
Y19400D02*
D03*
Y18900D02*
D03*
Y18400D02*
D03*
X57200D02*
D03*
Y18900D02*
D03*
Y19400D02*
D03*
Y19900D02*
D03*
D109*
X55550Y18250D02*
D03*
X56050D02*
D03*
X56550D02*
D03*
Y20050D02*
D03*
X56050D02*
D03*
X55550D02*
D03*
D110*
X63020Y11550D02*
D03*
D111*
Y12200D02*
D03*
Y12850D02*
D03*
Y13500D02*
D03*
X60400Y11550D02*
D03*
Y12200D02*
D03*
Y12850D02*
D03*
Y13500D02*
D03*
D112*
X65888Y4798D02*
D03*
D113*
X39300Y9000D02*
D03*
Y11000D02*
D03*
Y13000D02*
D03*
Y15000D02*
D03*
Y17000D02*
D03*
Y19000D02*
D03*
Y21000D02*
D03*
Y23000D02*
D03*
X37300Y9000D02*
D03*
Y11000D02*
D03*
Y13000D02*
D03*
Y15000D02*
D03*
Y17000D02*
D03*
Y19000D02*
D03*
Y21000D02*
D03*
X37200Y57300D02*
D03*
Y55300D02*
D03*
Y53300D02*
D03*
Y51300D02*
D03*
Y49300D02*
D03*
Y47300D02*
D03*
Y45300D02*
D03*
X39200Y59300D02*
D03*
Y57300D02*
D03*
Y55300D02*
D03*
Y53300D02*
D03*
Y51300D02*
D03*
Y49300D02*
D03*
Y47300D02*
D03*
Y45300D02*
D03*
D114*
X37300Y23000D02*
D03*
X37200Y59300D02*
D03*
D115*
X48600Y5150D02*
D03*
X49050Y63400D02*
D03*
X76100Y63950D02*
D03*
D116*
X46050Y54250D02*
D03*
X69850Y42850D02*
D03*
X40550Y45600D02*
D03*
X81750Y28300D02*
D03*
X81000Y31800D02*
D03*
X82034Y22647D02*
D03*
X81050Y21350D02*
D03*
X79100Y21750D02*
D03*
X77700Y21950D02*
D03*
X76350Y21700D02*
D03*
X75600Y22900D02*
D03*
X57950Y49750D02*
D03*
X57150Y27500D02*
D03*
X56350Y23850D02*
D03*
X56850Y22950D02*
D03*
X55850Y23000D02*
D03*
X57750Y24350D02*
D03*
X54250Y29700D02*
D03*
X56000Y31500D02*
D03*
X79350Y60371D02*
D03*
Y61788D02*
D03*
Y63206D02*
D03*
Y64624D02*
D03*
Y66041D02*
D03*
X81450Y65991D02*
D03*
Y64574D02*
D03*
Y63156D02*
D03*
Y61738D02*
D03*
Y60321D02*
D03*
Y58903D02*
D03*
Y57485D02*
D03*
Y56068D02*
D03*
Y54650D02*
D03*
X82200Y41833D02*
D03*
Y45392D02*
D03*
Y47171D02*
D03*
Y48950D02*
D03*
Y43612D02*
D03*
Y40054D02*
D03*
Y38275D02*
D03*
X79807Y58267D02*
D03*
X76850Y57650D02*
D03*
X65307Y60217D02*
D03*
X68257Y66317D02*
D03*
X55457Y61567D02*
D03*
X58050Y54950D02*
D03*
X57307Y57317D02*
D03*
X81000Y2800D02*
D03*
X69157Y8117D02*
D03*
X64907D02*
D03*
X58307Y14467D02*
D03*
X56007Y13617D02*
D03*
X45157Y12617D02*
D03*
X49557Y16767D02*
D03*
X50257Y19367D02*
D03*
X37157Y33017D02*
D03*
Y38217D02*
D03*
Y40017D02*
D03*
Y41867D02*
D03*
X48857Y47817D02*
D03*
X51350Y47750D02*
D03*
X54000D02*
D03*
X61100Y54900D02*
D03*
X54600Y50900D02*
D03*
X41657Y62167D02*
D03*
X32950Y34683D02*
D03*
Y38242D02*
D03*
Y40021D02*
D03*
Y41800D02*
D03*
Y36462D02*
D03*
Y32904D02*
D03*
Y31125D02*
D03*
Y29346D02*
D03*
X83700Y36446D02*
D03*
X86150D02*
D03*
X83700Y38225D02*
D03*
X88500D02*
D03*
X86150Y40004D02*
D03*
X83700D02*
D03*
X86150Y45342D02*
D03*
X83700Y43562D02*
D03*
X88500Y45342D02*
D03*
X86150Y47121D02*
D03*
X88500Y41783D02*
D03*
X86150D02*
D03*
X88500Y43562D02*
D03*
X86150Y48900D02*
D03*
X83700D02*
D03*
Y47121D02*
D03*
X34900Y66417D02*
D03*
X38329D02*
D03*
X41757D02*
D03*
X45186D02*
D03*
X48614D02*
D03*
X52043D02*
D03*
X55471D02*
D03*
X58900D02*
D03*
X55121Y2267D02*
D03*
X51693D02*
D03*
X48264D02*
D03*
X44836D02*
D03*
X41407D02*
D03*
X37979D02*
D03*
X34550D02*
D03*
X86400Y34667D02*
D03*
X88100D02*
D03*
X90100D02*
D03*
X92000D02*
D03*
X93900Y32887D02*
D03*
X96050D02*
D03*
X98150D02*
D03*
X86350Y31108D02*
D03*
X88050D02*
D03*
X90050D02*
D03*
X92000D02*
D03*
X93850D02*
D03*
X96000D02*
D03*
X98200D02*
D03*
Y29329D02*
D03*
X96000D02*
D03*
X93850D02*
D03*
X92000D02*
D03*
X90050D02*
D03*
X88050D02*
D03*
X86350D02*
D03*
X98200Y27550D02*
D03*
X96000D02*
D03*
X93850D02*
D03*
X92000D02*
D03*
X90050D02*
D03*
X88050D02*
D03*
X86350D02*
D03*
X86550Y2050D02*
D03*
X88250D02*
D03*
X90250D02*
D03*
X92200D02*
D03*
X94050Y2100D02*
D03*
X96200D02*
D03*
X98350D02*
D03*
X86550Y4300D02*
D03*
X88250D02*
D03*
X90250D02*
D03*
X92200D02*
D03*
X94050Y4325D02*
D03*
X96200D02*
D03*
X98350Y4312D02*
D03*
X88500Y36446D02*
D03*
X62450Y38950D02*
D03*
X60700Y57000D02*
D03*
X59200Y49000D02*
D03*
X61500Y51050D02*
D03*
X61750Y49700D02*
D03*
X60550Y49000D02*
D03*
X62538Y49350D02*
D03*
X63750Y48050D02*
D03*
X61350Y46850D02*
D03*
X60750Y52650D02*
D03*
X63200Y51850D02*
D03*
X72350Y52700D02*
D03*
X69750Y49150D02*
D03*
X72079Y48758D02*
D03*
X74550Y50300D02*
D03*
X69200Y52650D02*
D03*
X74350Y52450D02*
D03*
X74300Y47500D02*
D03*
X69550D02*
D03*
X64250Y44400D02*
D03*
X63050Y46600D02*
D03*
X68550Y44772D02*
D03*
X72807Y43693D02*
D03*
X71250Y42800D02*
D03*
X70600Y43600D02*
D03*
X73000Y44500D02*
D03*
X64750Y48200D02*
D03*
X66846Y50546D02*
D03*
X63250Y43350D02*
D03*
X68650Y39300D02*
D03*
X69500Y39250D02*
D03*
X64300Y40350D02*
D03*
X63900Y39600D02*
D03*
X63200Y38300D02*
D03*
X77150Y40150D02*
D03*
X75800Y40450D02*
D03*
X76100Y43000D02*
D03*
X80050Y46000D02*
D03*
X80650Y47250D02*
D03*
X79100Y44900D02*
D03*
X77300Y45950D02*
D03*
X75950D02*
D03*
X80900Y45000D02*
D03*
X79000Y49500D02*
D03*
X79350Y48600D02*
D03*
X80550Y49700D02*
D03*
X76600Y45200D02*
D03*
X75100Y43950D02*
D03*
X78600Y50350D02*
D03*
X79050Y53250D02*
D03*
X79700Y55575D02*
D03*
X69350Y56600D02*
D03*
X69200Y55250D02*
D03*
X74850Y6050D02*
D03*
X50750Y53000D02*
D03*
X47250Y57550D02*
D03*
X46750Y43400D02*
D03*
X44550Y52250D02*
D03*
X50850Y56150D02*
D03*
X78150Y56950D02*
D03*
X74400Y59850D02*
D03*
X68750Y60050D02*
D03*
X39250Y43300D02*
D03*
X44400Y44050D02*
D03*
X73250Y36800D02*
D03*
X76900Y43000D02*
D03*
X74750Y42900D02*
D03*
X73250Y42750D02*
D03*
X55950Y47350D02*
D03*
X57150Y46650D02*
D03*
X60450Y45650D02*
D03*
X57550Y44250D02*
D03*
X62800Y47650D02*
D03*
X59650Y48000D02*
D03*
X58000Y50550D02*
D03*
X66850Y53650D02*
D03*
X68450Y56050D02*
D03*
X70450Y56500D02*
D03*
X74200Y36850D02*
D03*
X79150Y9000D02*
D03*
X79160Y17750D02*
D03*
X81076Y11675D02*
D03*
X81051Y8915D02*
D03*
X79050Y16450D02*
D03*
X74950Y12400D02*
D03*
X73600Y21400D02*
D03*
X76300Y17650D02*
D03*
X76750Y13150D02*
D03*
X73700Y20050D02*
D03*
X77810Y17700D02*
D03*
X81700Y6550D02*
D03*
X77700Y29450D02*
D03*
X76750Y29400D02*
D03*
X78750Y25850D02*
D03*
X84100Y15700D02*
D03*
X85250D02*
D03*
X83000D02*
D03*
X79650Y3050D02*
D03*
X79900Y1950D02*
D03*
X53650Y10200D02*
D03*
X51100Y15600D02*
D03*
X62500Y21750D02*
D03*
X56750Y22000D02*
D03*
X53037Y19867D02*
D03*
X55650Y17250D02*
D03*
X55050Y21100D02*
D03*
X53800Y21300D02*
D03*
X42850Y28650D02*
D03*
X37250Y30100D02*
D03*
X48400Y13500D02*
D03*
X44800Y19600D02*
D03*
X53025Y23500D02*
D03*
X62950Y15800D02*
D03*
X63500Y14900D02*
D03*
X60200Y17350D02*
D03*
X50600Y13050D02*
D03*
X60450Y15600D02*
D03*
X54000Y19250D02*
D03*
X54200Y17700D02*
D03*
X56500Y17250D02*
D03*
X55550Y9700D02*
D03*
X57950Y12850D02*
D03*
X52900Y47950D02*
D03*
X52800Y38550D02*
D03*
X53800Y35500D02*
D03*
X53100Y34450D02*
D03*
X81050Y38150D02*
D03*
X63950Y21700D02*
D03*
X57200Y21050D02*
D03*
X58750Y8150D02*
D03*
X82850Y28300D02*
D03*
X69400Y19100D02*
D03*
X58400Y21000D02*
D03*
X59100Y31400D02*
D03*
X59050Y35500D02*
D03*
X59100Y41400D02*
D03*
X59050Y45650D02*
D03*
X60425Y40350D02*
D03*
X60500Y34450D02*
D03*
Y30150D02*
D03*
X60425Y25040D02*
D03*
X81700Y50700D02*
D03*
X82650D02*
D03*
X82800Y26150D02*
D03*
Y24850D02*
D03*
X81550Y22000D02*
D03*
X77100Y18800D02*
D03*
X79150D02*
D03*
X80850Y20500D02*
D03*
X72025Y15890D02*
D03*
X69150Y17050D02*
D03*
X69600Y18100D02*
D03*
X73050Y15800D02*
D03*
Y17200D02*
D03*
X80700Y14550D02*
D03*
X54700Y30600D02*
D03*
X55050Y47650D02*
D03*
X56650Y36550D02*
D03*
X57850Y35250D02*
D03*
X57000Y41750D02*
D03*
X53500Y41650D02*
D03*
X57100Y33000D02*
D03*
X54600Y36450D02*
D03*
X57450Y30750D02*
D03*
X56400Y28250D02*
D03*
X53100Y25100D02*
D03*
X54250Y25200D02*
D03*
X53400Y44050D02*
D03*
X57900Y39550D02*
D03*
X52850D02*
D03*
X57900Y26950D02*
D03*
X53950Y26150D02*
D03*
X59075Y25040D02*
D03*
X51750Y17100D02*
D03*
X58300Y17350D02*
D03*
X56050Y21200D02*
D03*
X64050Y16650D02*
D03*
X65900Y19750D02*
D03*
X58750Y5200D02*
D03*
X61400Y4100D02*
D03*
X61450Y12950D02*
D03*
X60165Y9710D02*
D03*
X66475Y15900D02*
D03*
X64200Y13550D02*
D03*
X66550Y12750D02*
D03*
X76400Y9000D02*
D03*
X74850Y26500D02*
D03*
X77800Y4950D02*
D03*
X84950Y4900D02*
D03*
X64150Y5900D02*
D03*
X67950Y9600D02*
D03*
X69200Y5550D02*
D03*
X73050Y3950D02*
D03*
X73000Y7400D02*
D03*
X70750Y6500D02*
D03*
X79800Y36900D02*
D03*
X70450Y23300D02*
D03*
X70650Y21950D02*
D03*
X69350Y21100D02*
D03*
X69250Y20150D02*
D03*
X65400Y58650D02*
D03*
X64450Y58550D02*
D03*
X69000Y29400D02*
D03*
X71550Y4800D02*
D03*
X70725Y9600D02*
D03*
X71550Y6050D02*
D03*
X63000Y53600D02*
D03*
X69501Y28608D02*
D03*
X59900Y58750D02*
D03*
X57350Y64850D02*
D03*
X59950D02*
D03*
X61200D02*
D03*
X69200Y35400D02*
D03*
X80800Y30600D02*
D03*
X77750Y34400D02*
D03*
X72760Y32200D02*
D03*
X75550Y57650D02*
D03*
X72450Y40450D02*
D03*
X81200Y48300D02*
D03*
X74050Y56600D02*
D03*
X74150Y55650D02*
D03*
X74482Y54790D02*
D03*
X83850Y54550D02*
D03*
Y55968D02*
D03*
Y57385D02*
D03*
Y58803D02*
D03*
Y60221D02*
D03*
Y61638D02*
D03*
Y63056D02*
D03*
Y64474D02*
D03*
Y65891D02*
D03*
X86150Y55259D02*
D03*
Y56676D02*
D03*
Y58094D02*
D03*
Y59512D02*
D03*
Y60929D02*
D03*
Y62347D02*
D03*
Y63765D02*
D03*
Y65182D02*
D03*
Y66600D02*
D03*
X83700Y45342D02*
D03*
Y41783D02*
D03*
X86150Y43562D02*
D03*
Y38225D02*
D03*
X88500Y40004D02*
D03*
Y47121D02*
D03*
Y48900D02*
D03*
X88600Y66600D02*
D03*
Y65182D02*
D03*
Y63765D02*
D03*
Y62347D02*
D03*
Y60929D02*
D03*
Y59512D02*
D03*
Y58094D02*
D03*
Y56676D02*
D03*
Y55259D02*
D03*
X88650Y53300D02*
D03*
X87400Y53150D02*
D03*
X86300Y49900D02*
D03*
X86150Y53200D02*
D03*
X84750Y53150D02*
D03*
X83500Y53100D02*
D03*
X82750Y52850D02*
D03*
X81750D02*
D03*
X88650Y50300D02*
D03*
X88100Y51050D02*
D03*
X87450Y50300D02*
D03*
X84550Y50400D02*
D03*
X83450D02*
D03*
X80177Y50723D02*
D03*
X77650Y53250D02*
D03*
X80350D02*
D03*
X76350Y54750D02*
D03*
X98350Y6525D02*
D03*
X96200Y6550D02*
D03*
X94050D02*
D03*
X92200Y6550D02*
D03*
X90250D02*
D03*
X88250D02*
D03*
X86550D02*
D03*
X98350Y8738D02*
D03*
X96200Y8775D02*
D03*
X94050D02*
D03*
X92200Y8800D02*
D03*
X90250D02*
D03*
X88250D02*
D03*
X86550D02*
D03*
X98350Y10950D02*
D03*
X96200Y11000D02*
D03*
X94050D02*
D03*
X86550Y11050D02*
D03*
X88250D02*
D03*
X90250D02*
D03*
X92200D02*
D03*
X86550Y12475D02*
D03*
X88250D02*
D03*
X90250D02*
D03*
X92200D02*
D03*
X86550Y13900D02*
D03*
X92200D02*
D03*
X90250D02*
D03*
X88250D02*
D03*
X85050D02*
D03*
X98250Y13250D02*
D03*
X94750Y13200D02*
D03*
X98650Y15500D02*
D03*
X96500Y15450D02*
D03*
X96450Y19800D02*
D03*
X98400Y21860D02*
D03*
X94750Y22890D02*
D03*
X98850Y19800D02*
D03*
X97950Y24950D02*
D03*
X96000D02*
D03*
X94100D02*
D03*
X92250Y20830D02*
D03*
X92200Y21860D02*
D03*
X92250Y23920D02*
D03*
X92300Y24950D02*
D03*
X90400Y21860D02*
D03*
X90450Y23920D02*
D03*
X90500Y24950D02*
D03*
X88450D02*
D03*
Y23920D02*
D03*
Y21860D02*
D03*
Y20830D02*
D03*
X93050Y16350D02*
D03*
X92150D02*
D03*
X91700Y15900D02*
D03*
X91100Y15150D02*
D03*
X90050Y15100D02*
D03*
X89100Y15150D02*
D03*
X88100Y15200D02*
D03*
X87150D02*
D03*
X86200Y15250D02*
D03*
X92950Y19000D02*
D03*
X91900D02*
D03*
X90850Y18950D02*
D03*
X89850Y18800D02*
D03*
X88900Y18750D02*
D03*
X88000Y18700D02*
D03*
X87050D02*
D03*
X86150Y18650D02*
D03*
X85500Y18050D02*
D03*
X90350Y20830D02*
D03*
X96510Y22890D02*
D03*
Y13200D02*
D03*
X81823Y18227D02*
D03*
X75950Y24350D02*
D03*
X76460Y16250D02*
D03*
X73550Y27514D02*
D03*
X67850Y15800D02*
D03*
X70725Y11209D02*
D03*
X72100Y12750D02*
D03*
X69350D02*
D03*
X67915Y14350D02*
D03*
X84250Y20300D02*
D03*
X80700Y25650D02*
D03*
X80350Y24400D02*
D03*
X82000Y13800D02*
D03*
X84300Y26150D02*
D03*
Y23450D02*
D03*
X83400Y13800D02*
D03*
X78000Y10350D02*
D03*
X84250Y10300D02*
D03*
X82650D02*
D03*
Y7550D02*
D03*
X79400Y12700D02*
D03*
X76420Y10325D02*
D03*
X73550Y10500D02*
D03*
X85688Y20270D02*
D03*
D117*
X48550Y53175D02*
D03*
X50100Y22350D02*
D03*
X35550Y26100D02*
D03*
X79150Y27150D02*
D03*
X41150Y31500D02*
D03*
X44800Y22600D02*
D03*
X35600Y24650D02*
D03*
X64050Y52800D02*
D03*
X83000Y20350D02*
D03*
X80300Y23100D02*
D03*
X66800Y18900D02*
D03*
X79950Y6050D02*
D03*
X63600Y57800D02*
D03*
X74850Y25600D02*
D03*
X67100Y58200D02*
D03*
X72025Y14329D02*
D03*
X77626Y23100D02*
D03*
M02*
