G04*
G04 #@! TF.GenerationSoftware,Altium Limited,Altium Designer,19.1.6 (110)*
G04*
G04 Layer_Color=8421504*
%FSLAX43Y43*%
%MOMM*%
G71*
G01*
G75*
%ADD10C,0.200*%
%ADD21R,1.100X2.200*%
%ADD22R,1.000X1.200*%
%ADD23R,4.000X4.000*%
%ADD24R,0.910X0.220*%
%ADD25R,0.220X0.910*%
%ADD26R,0.900X0.700*%
%ADD27R,0.950X0.850*%
%ADD28R,0.700X0.900*%
%ADD29R,0.900X0.425*%
%ADD30R,0.300X0.800*%
%ADD31R,5.080X2.413*%
%ADD32R,5.080X2.286*%
%ADD33R,0.760X0.720*%
G04:AMPARAMS|DCode=34|XSize=0.55mm|YSize=0.8mm|CornerRadius=0.05mm|HoleSize=0mm|Usage=FLASHONLY|Rotation=270.000|XOffset=0mm|YOffset=0mm|HoleType=Round|Shape=RoundedRectangle|*
%AMROUNDEDRECTD34*
21,1,0.550,0.701,0,0,270.0*
21,1,0.451,0.800,0,0,270.0*
1,1,0.099,-0.351,-0.226*
1,1,0.099,-0.351,0.226*
1,1,0.099,0.351,0.226*
1,1,0.099,0.351,-0.226*
%
%ADD34ROUNDEDRECTD34*%
%ADD35R,0.850X0.950*%
%ADD36R,0.950X0.700*%
%ADD37R,0.400X0.950*%
%ADD38R,1.300X0.350*%
%ADD39R,0.350X2.300*%
%ADD40R,0.750X0.522*%
%ADD41R,0.700X0.950*%
%ADD42R,1.000X1.000*%
%ADD43R,0.300X0.350*%
%ADD44R,0.350X0.300*%
%ADD45R,0.500X0.350*%
%ADD46R,1.600X2.500*%
%ADD47R,0.850X0.450*%
%ADD48R,1.100X1.700*%
%ADD49R,0.600X0.350*%
%ADD50C,0.148*%
%ADD51R,3.500X4.400*%
%ADD52R,0.950X0.450*%
%ADD53R,1.250X1.000*%
%ADD54R,6.400X6.400*%
%ADD55R,0.970X0.220*%
%ADD56R,0.220X0.970*%
%ADD57R,0.300X0.300*%
%ADD58R,0.600X0.500*%
%ADD59R,0.720X0.760*%
%ADD60R,0.850X0.750*%
%ADD61R,1.390X0.990*%
%ADD62R,0.500X0.600*%
%ADD63R,0.762X2.794*%
%ADD64R,0.600X0.300*%
%ADD65R,0.300X0.600*%
%ADD66R,1.220X0.400*%
%ADD67O,1.220X0.400*%
G36*
X74835Y51225D02*
X73325D01*
Y52735D01*
X74835D01*
Y51225D01*
D02*
G37*
G36*
X72705D02*
X71195D01*
Y52735D01*
X72705D01*
Y51225D01*
D02*
G37*
G36*
X70575D02*
X69065D01*
Y52735D01*
X70575D01*
Y51225D01*
D02*
G37*
G36*
X74835Y49095D02*
X73325D01*
Y50605D01*
X74835D01*
Y49095D01*
D02*
G37*
G36*
X72705D02*
X71195D01*
Y50605D01*
X72705D01*
Y49095D01*
D02*
G37*
G36*
X70575D02*
X69065D01*
Y50605D01*
X70575D01*
Y49095D01*
D02*
G37*
G36*
X74835Y46965D02*
X73325D01*
Y48475D01*
X74835D01*
Y46965D01*
D02*
G37*
G36*
X72705D02*
X71195D01*
Y48475D01*
X72705D01*
Y46965D01*
D02*
G37*
G36*
X70575D02*
X69065D01*
Y48475D01*
X70575D01*
Y46965D01*
D02*
G37*
G36*
X79011Y16399D02*
X76410D01*
Y19000D01*
X79011D01*
Y16399D01*
D02*
G37*
D10*
X65588Y5548D02*
G03*
X65598Y4030I296J-757D01*
G01*
X66128Y4028D02*
G03*
X66238Y5548I-227J781D01*
G01*
D21*
X90550Y52150D02*
D03*
X96450D02*
D03*
D22*
X73560Y12190D02*
D03*
Y10490D02*
D03*
X74860D02*
D03*
Y12190D02*
D03*
D23*
X77710Y17700D02*
D03*
D24*
X74810Y15500D02*
D03*
Y15900D02*
D03*
Y16300D02*
D03*
Y16700D02*
D03*
Y17100D02*
D03*
Y17500D02*
D03*
Y17900D02*
D03*
Y18300D02*
D03*
Y18700D02*
D03*
Y19100D02*
D03*
Y19500D02*
D03*
Y19900D02*
D03*
X80610D02*
D03*
Y19500D02*
D03*
Y19100D02*
D03*
Y18700D02*
D03*
Y18300D02*
D03*
Y17900D02*
D03*
Y17500D02*
D03*
Y17100D02*
D03*
Y16700D02*
D03*
Y16300D02*
D03*
Y15900D02*
D03*
Y15500D02*
D03*
D25*
X75510Y20600D02*
D03*
X75910Y20550D02*
D03*
X76310Y20600D02*
D03*
X76710D02*
D03*
X77110D02*
D03*
X77510D02*
D03*
X77910D02*
D03*
X78310D02*
D03*
X78710D02*
D03*
X79110D02*
D03*
X79510D02*
D03*
X79910D02*
D03*
Y14800D02*
D03*
X79510D02*
D03*
X79110D02*
D03*
X78710D02*
D03*
X78310D02*
D03*
X77910D02*
D03*
X77510D02*
D03*
X77110D02*
D03*
X76710D02*
D03*
X76310D02*
D03*
X75910D02*
D03*
X75510D02*
D03*
D26*
X73550Y22950D02*
D03*
Y24450D02*
D03*
X71850Y22950D02*
D03*
Y24450D02*
D03*
X70200Y24450D02*
D03*
Y22950D02*
D03*
X66850Y23000D02*
D03*
Y24500D02*
D03*
X79150Y25650D02*
D03*
Y27150D02*
D03*
X80650Y25635D02*
D03*
Y27135D02*
D03*
X79550Y9000D02*
D03*
Y7500D02*
D03*
X76400Y7500D02*
D03*
Y9000D02*
D03*
X79050Y28160D02*
D03*
Y29660D02*
D03*
X76050Y27100D02*
D03*
Y25600D02*
D03*
X80500Y28150D02*
D03*
Y29650D02*
D03*
X71060Y40350D02*
D03*
Y41850D02*
D03*
X69850Y40350D02*
D03*
Y41850D02*
D03*
X68640Y41850D02*
D03*
Y40350D02*
D03*
X67100Y62450D02*
D03*
Y60950D02*
D03*
D27*
X79160Y24425D02*
D03*
Y23075D02*
D03*
X80660D02*
D03*
Y24425D02*
D03*
X77560Y24375D02*
D03*
Y23025D02*
D03*
X68500Y22975D02*
D03*
Y24325D02*
D03*
X84222Y11675D02*
D03*
Y10325D02*
D03*
X82662Y10325D02*
D03*
Y11675D02*
D03*
X81101Y10325D02*
D03*
Y11675D02*
D03*
X79541Y10325D02*
D03*
Y11675D02*
D03*
X77981Y10325D02*
D03*
Y11675D02*
D03*
X76420Y10325D02*
D03*
Y11675D02*
D03*
X84222Y8915D02*
D03*
Y7565D02*
D03*
X82661Y7565D02*
D03*
Y8915D02*
D03*
X81101Y7565D02*
D03*
Y8915D02*
D03*
X77981Y7565D02*
D03*
Y8915D02*
D03*
X76400Y6025D02*
D03*
Y4675D02*
D03*
X74840Y6025D02*
D03*
Y4675D02*
D03*
X48400Y13625D02*
D03*
Y14975D02*
D03*
X44800Y19675D02*
D03*
Y21025D02*
D03*
X75566Y40475D02*
D03*
Y41825D02*
D03*
X74006Y40475D02*
D03*
Y41825D02*
D03*
X72446Y40475D02*
D03*
Y41825D02*
D03*
X80550Y48325D02*
D03*
Y49675D02*
D03*
X79700Y56925D02*
D03*
Y55575D02*
D03*
X78140Y56925D02*
D03*
Y55575D02*
D03*
X74410Y59525D02*
D03*
Y58175D02*
D03*
X70279Y59525D02*
D03*
Y58175D02*
D03*
X68719Y59525D02*
D03*
Y58175D02*
D03*
X67159Y59525D02*
D03*
Y58175D02*
D03*
X42850Y28775D02*
D03*
Y30125D02*
D03*
X37300Y30075D02*
D03*
Y28725D02*
D03*
X70201Y25975D02*
D03*
Y27325D02*
D03*
X76000Y23025D02*
D03*
Y24375D02*
D03*
D28*
X82800Y24850D02*
D03*
X84300D02*
D03*
X82800Y26150D02*
D03*
X84300D02*
D03*
X84150Y6200D02*
D03*
X82650D02*
D03*
X84150Y4900D02*
D03*
X82650D02*
D03*
X67850Y15900D02*
D03*
X69350D02*
D03*
X65050Y14300D02*
D03*
X66550D02*
D03*
X66550Y12750D02*
D03*
X65050D02*
D03*
X67900Y11200D02*
D03*
X69400D02*
D03*
X65050Y11200D02*
D03*
X66550D02*
D03*
X76350Y3365D02*
D03*
X74850D02*
D03*
X61550Y9700D02*
D03*
X63050D02*
D03*
X61500Y6650D02*
D03*
X63000D02*
D03*
X60250Y6650D02*
D03*
X58750D02*
D03*
X63000Y5250D02*
D03*
X61500D02*
D03*
X58750Y5250D02*
D03*
X60250D02*
D03*
X53100Y21300D02*
D03*
X51600D02*
D03*
X52250Y15900D02*
D03*
X53750D02*
D03*
X57050Y12450D02*
D03*
X55550D02*
D03*
X53100Y25150D02*
D03*
X51600D02*
D03*
X61550Y15900D02*
D03*
X63050D02*
D03*
X60400Y19800D02*
D03*
X58900D02*
D03*
X60500Y36500D02*
D03*
X59000D02*
D03*
X58950Y38550D02*
D03*
X60450D02*
D03*
X64550Y53800D02*
D03*
X63050D02*
D03*
X46700Y45850D02*
D03*
X45200D02*
D03*
X46700Y44390D02*
D03*
X45200D02*
D03*
X48500Y54550D02*
D03*
X50000D02*
D03*
X46550Y57150D02*
D03*
X45050D02*
D03*
X51600Y34550D02*
D03*
X53100D02*
D03*
X51550Y36500D02*
D03*
X53050D02*
D03*
D29*
X70500Y21160D02*
D03*
X70500Y20360D02*
D03*
Y19560D02*
D03*
Y18760D02*
D03*
X72200D02*
D03*
Y19560D02*
D03*
Y20360D02*
D03*
Y21160D02*
D03*
X66450Y33850D02*
D03*
Y33050D02*
D03*
Y32250D02*
D03*
Y31450D02*
D03*
X64750D02*
D03*
Y32250D02*
D03*
Y33050D02*
D03*
X64750Y33850D02*
D03*
X80150Y33400D02*
D03*
Y32600D02*
D03*
Y31800D02*
D03*
Y31000D02*
D03*
X78450D02*
D03*
Y31800D02*
D03*
Y32600D02*
D03*
X78450Y33400D02*
D03*
X46800Y49900D02*
D03*
Y49100D02*
D03*
Y48300D02*
D03*
Y47500D02*
D03*
X45100D02*
D03*
Y48300D02*
D03*
Y49100D02*
D03*
X45100Y49900D02*
D03*
D30*
X90660Y17600D02*
D03*
X90010D02*
D03*
X89360D02*
D03*
Y16300D02*
D03*
X90010D02*
D03*
X90660D02*
D03*
D31*
X96500Y22013D02*
D03*
Y13250D02*
D03*
D32*
Y17632D02*
D03*
D33*
X88190Y17560D02*
D03*
X87210D02*
D03*
X88190Y16300D02*
D03*
X87210D02*
D03*
D34*
X81325Y4100D02*
D03*
Y5050D02*
D03*
Y6000D02*
D03*
X78775D02*
D03*
Y5050D02*
D03*
Y4100D02*
D03*
X51675Y12500D02*
D03*
Y13450D02*
D03*
Y14400D02*
D03*
X54225D02*
D03*
Y13450D02*
D03*
Y12500D02*
D03*
X66125Y26110D02*
D03*
Y27060D02*
D03*
Y28010D02*
D03*
X68675D02*
D03*
Y27060D02*
D03*
Y26110D02*
D03*
X47125Y55250D02*
D03*
Y54300D02*
D03*
Y53350D02*
D03*
X44575D02*
D03*
Y54300D02*
D03*
Y55250D02*
D03*
D35*
X72025Y17450D02*
D03*
X70675D02*
D03*
X70675Y15890D02*
D03*
X72025D02*
D03*
X65125Y15900D02*
D03*
X66475D02*
D03*
X70675Y14329D02*
D03*
X72025D02*
D03*
X69265Y14350D02*
D03*
X67915D02*
D03*
X70725Y12769D02*
D03*
X72075D02*
D03*
X70725Y11209D02*
D03*
X72075D02*
D03*
X72075Y9600D02*
D03*
X70725D02*
D03*
X69315Y9600D02*
D03*
X67965D02*
D03*
X65075Y9600D02*
D03*
X66425D02*
D03*
X62925Y8150D02*
D03*
X61575D02*
D03*
X58815Y9710D02*
D03*
X60165D02*
D03*
X58815Y8150D02*
D03*
X60165D02*
D03*
X53025Y19800D02*
D03*
X51675D02*
D03*
X53025Y18200D02*
D03*
X51675D02*
D03*
X57025Y10650D02*
D03*
X55675D02*
D03*
X53675Y10640D02*
D03*
X52325D02*
D03*
X53025Y23500D02*
D03*
X51675D02*
D03*
X60325Y18250D02*
D03*
X58975D02*
D03*
X59075Y26600D02*
D03*
X60425D02*
D03*
X59075Y25040D02*
D03*
X60425D02*
D03*
X59075Y23479D02*
D03*
X60425D02*
D03*
X59125Y30250D02*
D03*
X60475D02*
D03*
X59075Y34450D02*
D03*
X60425D02*
D03*
X59075Y40350D02*
D03*
X60425D02*
D03*
X67125Y29800D02*
D03*
X65775D02*
D03*
X59050Y45650D02*
D03*
X60400D02*
D03*
X63225Y46450D02*
D03*
X64575D02*
D03*
X63225Y44890D02*
D03*
X64575D02*
D03*
X63225Y43329D02*
D03*
X64575D02*
D03*
X63225Y41769D02*
D03*
X64575D02*
D03*
X63225Y51850D02*
D03*
X64575D02*
D03*
X49975Y53000D02*
D03*
X48625D02*
D03*
X49975Y56150D02*
D03*
X48625D02*
D03*
X87033Y20300D02*
D03*
X85683D02*
D03*
X87035Y21860D02*
D03*
X85685D02*
D03*
X83375Y13800D02*
D03*
X82025D02*
D03*
X87035Y24981D02*
D03*
X85685D02*
D03*
X84275Y23450D02*
D03*
X82925D02*
D03*
X84275Y21860D02*
D03*
X82925D02*
D03*
X84272Y18800D02*
D03*
X82923D02*
D03*
X84273Y20300D02*
D03*
X82923D02*
D03*
X87035Y23421D02*
D03*
X85685D02*
D03*
D36*
X67725Y12750D02*
D03*
X69375D02*
D03*
D37*
X70725Y6275D02*
D03*
X71575D02*
D03*
Y4925D02*
D03*
X70725D02*
D03*
D38*
X71150Y7225D02*
D03*
Y3975D02*
D03*
D39*
X72275Y5600D02*
D03*
X70025D02*
D03*
D40*
X65050Y6872D02*
D03*
X66726D02*
D03*
X65050Y6050D02*
D03*
X66726D02*
D03*
D41*
X48350Y19575D02*
D03*
Y21225D02*
D03*
X46550Y19575D02*
D03*
Y21225D02*
D03*
X77076Y41925D02*
D03*
Y40275D02*
D03*
X38950Y30275D02*
D03*
Y28625D02*
D03*
X41100Y30275D02*
D03*
Y28625D02*
D03*
X77550Y27375D02*
D03*
Y25725D02*
D03*
D42*
X71838Y27514D02*
D03*
Y25814D02*
D03*
X73550Y27514D02*
D03*
Y25814D02*
D03*
X70250Y61800D02*
D03*
Y63500D02*
D03*
D43*
X55650Y26250D02*
D03*
X56150D02*
D03*
Y24750D02*
D03*
X55650D02*
D03*
D44*
X56650Y26250D02*
D03*
Y25750D02*
D03*
Y25250D02*
D03*
Y24750D02*
D03*
X55150D02*
D03*
Y25250D02*
D03*
Y25750D02*
D03*
Y26250D02*
D03*
D45*
X56100Y44075D02*
D03*
Y44725D02*
D03*
Y45375D02*
D03*
Y46025D02*
D03*
X54500D02*
D03*
Y45375D02*
D03*
Y44725D02*
D03*
Y44075D02*
D03*
D46*
X55300Y39550D02*
D03*
D47*
X56750Y40550D02*
D03*
Y39550D02*
D03*
Y38550D02*
D03*
X53850D02*
D03*
Y39550D02*
D03*
Y40550D02*
D03*
D48*
X55750Y34450D02*
D03*
D49*
X56800Y35100D02*
D03*
Y34450D02*
D03*
Y33800D02*
D03*
X54700D02*
D03*
Y34450D02*
D03*
Y35100D02*
D03*
D50*
X55800Y30050D02*
D03*
Y30400D02*
D03*
X56150Y30050D02*
D03*
Y30400D02*
D03*
X56500Y30050D02*
D03*
Y30400D02*
D03*
D51*
X72760Y32200D02*
D03*
D52*
X68860Y30295D02*
D03*
Y31565D02*
D03*
Y32835D02*
D03*
Y34105D02*
D03*
X76660D02*
D03*
Y32835D02*
D03*
Y31565D02*
D03*
Y30295D02*
D03*
D53*
X66185Y41850D02*
D03*
Y43350D02*
D03*
D54*
X71950Y49850D02*
D03*
D55*
X68045Y46650D02*
D03*
Y47050D02*
D03*
Y47450D02*
D03*
Y47850D02*
D03*
Y48250D02*
D03*
Y48650D02*
D03*
Y49050D02*
D03*
Y49450D02*
D03*
Y49850D02*
D03*
Y50250D02*
D03*
Y50650D02*
D03*
Y51050D02*
D03*
Y51450D02*
D03*
Y51850D02*
D03*
Y52250D02*
D03*
Y52650D02*
D03*
Y53050D02*
D03*
X75855D02*
D03*
Y52650D02*
D03*
Y52250D02*
D03*
Y51850D02*
D03*
Y51450D02*
D03*
Y51050D02*
D03*
Y50650D02*
D03*
Y50250D02*
D03*
Y49850D02*
D03*
Y49450D02*
D03*
Y49050D02*
D03*
Y48650D02*
D03*
Y48250D02*
D03*
Y47850D02*
D03*
Y47450D02*
D03*
Y47050D02*
D03*
Y46650D02*
D03*
D56*
X68750Y53755D02*
D03*
X69150D02*
D03*
X69550D02*
D03*
X69950D02*
D03*
X70350D02*
D03*
X70750D02*
D03*
X71150D02*
D03*
X71550D02*
D03*
X71950D02*
D03*
X72350D02*
D03*
X72750D02*
D03*
X73150D02*
D03*
X73550D02*
D03*
X73950D02*
D03*
X74350D02*
D03*
X74750D02*
D03*
X75150D02*
D03*
Y45945D02*
D03*
X74750D02*
D03*
X74350D02*
D03*
X73950D02*
D03*
X73550D02*
D03*
X73150D02*
D03*
X72750D02*
D03*
X72350D02*
D03*
X71950D02*
D03*
X71550D02*
D03*
X71150D02*
D03*
X70750D02*
D03*
X70350D02*
D03*
X69950D02*
D03*
X69550D02*
D03*
X69150D02*
D03*
X68750D02*
D03*
D57*
X84637Y51350D02*
D03*
X84050D02*
D03*
X83463D02*
D03*
Y51850D02*
D03*
X84050D02*
D03*
X84637D02*
D03*
D58*
X88450Y52100D02*
D03*
X87450D02*
D03*
D59*
X86300Y51070D02*
D03*
Y52050D02*
D03*
D60*
X76525Y55675D02*
D03*
X75175D02*
D03*
X76525Y56725D02*
D03*
X75175D02*
D03*
D61*
X72750Y59605D02*
D03*
Y58095D02*
D03*
D62*
X71465Y58350D02*
D03*
Y59350D02*
D03*
D63*
X57360Y59718D02*
D03*
Y63782D02*
D03*
X58630Y59718D02*
D03*
Y63782D02*
D03*
X59900Y59718D02*
D03*
Y63782D02*
D03*
X61170Y59718D02*
D03*
Y63782D02*
D03*
X62440Y59718D02*
D03*
Y63782D02*
D03*
D64*
X54900Y19900D02*
D03*
Y19400D02*
D03*
Y18900D02*
D03*
Y18400D02*
D03*
X57200D02*
D03*
Y18900D02*
D03*
Y19400D02*
D03*
Y19900D02*
D03*
D65*
X55550Y18250D02*
D03*
X56050D02*
D03*
X56550D02*
D03*
Y20050D02*
D03*
X56050D02*
D03*
X55550D02*
D03*
D66*
X63020Y11550D02*
D03*
D67*
Y12200D02*
D03*
Y12850D02*
D03*
Y13500D02*
D03*
X60400Y11550D02*
D03*
Y12200D02*
D03*
Y12850D02*
D03*
Y13500D02*
D03*
M02*
