M48
;Layer_Color=9474304
;FILE_FORMAT=4:3
METRIC,LZ
;TYPE=PLATED
T1F00S00C0.300
T2F00S00C0.400
T3F00S00C0.700
T4F00S00C1.025
T5F00S00C3.000
%
T01
X003455Y0002267
X0037979
X003725Y00301
X0037157Y0033017
X003295Y0032904
Y0034683
Y0036462
Y0038242
X0037157Y0038217
X003295Y0031125
Y0029346
X004285Y002865
X00448Y00196
X0050257Y0019367
X0053037Y0019867
X0054Y001925
X00542Y00177
X005565Y001725
X00565Y001725
X00583Y001735
X00602Y001735
X006045Y00156
X006295Y00158
X00635Y00149
X00642Y001355
X006655Y001275
X006935
X00721
X0070725Y0011209
X0070725Y00096
X006795Y00096
X0069157Y0008117
X00692Y000555
X007075Y00065
X007155Y000605
Y00048
X007305Y000395
X0073Y00074
X007485Y000605
X00778Y000495
X007915Y0009
X0078Y001035
X007642Y0010325
X00764Y0009
X007355Y00105
X007495Y00124
X007675Y001315
X007646Y001625
X00763Y001765
X007781Y00177
X007916Y001775
X007915Y00188
X00771
X007635Y00217
X00777Y002195
X00791Y002175
X007875Y002585
X007595Y002435
X00756Y00229
X00736Y00214
X00737Y002005
X007305Y00172
Y00158
X0072025Y001589
X006915Y001705
X00696Y00181
X00694Y00191
X006925Y002015
X006935Y00211
X007065Y002195
X007045Y00233
X0069501Y0028608
X0069Y00294
X00692Y00354
X00695Y003925
X006865Y00393
X00639Y00396
X00632Y00383
X006245Y003895
X00579Y003955
X005665Y003655
X00546Y003645
X00538Y00355
X00531Y003445
X00528Y003855
X005285Y003955
X005785Y003525
X005905Y00355
X00605Y003445
Y003015
X00591Y00314
X005745Y003075
X0056Y00315
X00547Y00306
X005425Y00297
X00564Y002825
X005715Y00275
X00579Y002695
X005775Y002435
X005635Y002385
X005585Y0023
X005685Y002295
X005675Y0022
X00572Y002105
X00584Y0021
X005605Y00212
X005505Y00211
X00538Y00213
X0053025Y00235
X00531Y00251
X005425Y00252
X005395Y002615
X0059075Y002504
X0060425
X00625Y002175
X006395Y00217
X00659Y001975
X0066475Y00159
X006785Y00158
X0067915Y001435
X006405Y001665
X006145Y001295
X005795Y001285
X0058307Y0014467
X0056007Y0013617
X005555Y00097
X005365Y00102
X00506Y001305
X00484Y00135
X0045157Y0012617
X0049557Y0016767
X005175Y00171
X00511Y00156
X0051693Y0002267
X0055121
X005875Y00052
Y000815
X0060165Y000971
X0064907Y0008117
X006415Y00059
X00614Y00041
X0048264Y0002267
X0044836
X0041407
X00571Y0033
X007276Y00322
X007325Y00368
X00742Y003685
X007775Y00344
X00777Y002945
X007675Y00294
X007485Y00265
X007355Y0027514
X007905Y001645
X00807Y001455
X0082Y00138
X00834
X008505Y00139
X008655
Y0012475
Y001105
X008825
Y0012475
Y00139
X00881Y00152
X008715
X00862Y001525
X008525Y00157
X00841
X0083
X0081823Y0018227
X008085Y00205
X008105Y002135
X008155Y0022
X0082034Y0022647
X00828Y002485
Y002615
X00843Y002615
Y002345
X008425Y00203
X0085688Y002027
X008615Y001865
X008705Y00187
X0088
X00889Y001875
X008985Y00188
X009085Y001895
X00919Y0019
X009295
X009225Y002083
X00922Y002186
X00904
X009035Y002083
X008845
Y002186
Y002392
Y002495
X00905
X009045Y002392
X009225
X00923Y002495
X00941
X0096
X009795
X00982Y002755
Y0029329
Y0031108
X009815Y0032887
X009605
X0096Y0031108
Y0029329
Y002755
X009385
Y0029329
Y0031108
X00939Y0032887
X0092Y0034667
X00901
X00881
X00864
X008615Y0036446
Y0038225
X00885
Y0036446
X00837
Y0038225
X00822Y0038275
X008105Y003815
X00798Y00369
X0081Y00318
X00808Y00306
X008175Y00283
X008285
X008635Y002755
X008805
Y0029329
X008635
Y0031108
X008805
X009005
Y0029329
Y002755
X0092
Y0029329
Y0031108
X009475Y002289
X009651
X00984Y002186
X009885Y00198
X009645
X00965Y001545
X009865Y00155
X009825Y001325
X009651Y00132
X009475Y00132
X009405Y0011
X00922Y001105
Y0012475
Y00139
X009025
X009005Y00151
X00891Y001515
X00911
X00917Y00159
X009215Y001635
X009305
X009025Y0012475
Y001105
Y00088
X00922
X009405Y0008775
X00962
X009835Y0008738
Y0006525
X00962Y000655
X009405
X00922Y000655
X009025
X008825
X008655
Y00043
X008825
X009025
X00922
X009405Y0004325
X00962
X009835Y0004312
Y00021
X00962
X009405
X00922Y000205
X009025
X008825
X008655
X008495Y00049
X00817Y000655
X008265Y000755
Y00103
X008425
X008655Y00088
X008825
X0081051Y0008915
X0081076Y0011675
X00794Y00127
X007965Y000305
X00799Y000195
X0081Y00028
X00855Y001805
X008035Y00244
X00807Y002565
X00962Y0011
X009835Y001095
X00885Y0040004
Y0041783
Y0043562
Y0045342
Y0047121
Y00489
X008865Y00503
X008745Y00503
X00881Y005105
X008865Y00533
X00874Y005315
X008615Y00532
X008475Y005315
X00835Y00531
X008275Y005285
X008175
X008035Y005325
X008145Y005465
Y0056068
Y0057485
Y0058903
Y0060321
Y0061738
Y0063156
Y0064574
Y0065991
X008385Y0065891
Y0064474
Y0063056
Y0061638
Y0060221
Y0058803
Y0057385
Y0055968
Y005455
X008615Y0055259
Y0056676
Y0058094
Y0059512
Y0060929
Y0062347
Y0063765
Y0065182
Y00666
X00886
Y0065182
Y0063765
Y0062347
Y0060929
Y0059512
Y0058094
Y0056676
Y0055259
X00863Y00499
X008615Y00489
Y0047121
Y0045342
Y0043562
Y0041783
Y0040004
X00837
X00822Y0040054
Y0041833
X00837Y0041783
Y0043562
X00822Y0043612
Y0045392
X00837Y0045342
Y0047121
X00822Y0047171
X008065Y004725
X00812Y00483
X00822Y004895
X00837Y00489
X008345Y00504
X008265Y00507
X00817
X0080177Y0050723
X008055Y00497
X008005Y0046
X00809Y0045
X008455Y00504
X00797Y0055575
X0079807Y0058267
X007935Y0060371
Y0061788
Y0063206
Y0064624
Y0066041
X007815Y005695
X007685Y005765
X007555
X007405Y00566
X007415Y005565
X0074482Y005479
X007635Y005475
X007765Y005325
X007905
X00786Y005035
X0079Y00495
X007935Y00486
X00791Y00449
X00766Y00452
X007595Y004595
X00773
X00769Y0043
X00761Y0043
X007475Y00429
X00751Y004395
X0072807Y0043693
X0073Y00445
X007325Y004275
X007125Y00428
X00706Y00436
X006985Y004285
X006855Y0044772
X006955Y00475
X006975Y004915
X0072079Y0048758
X00743Y00475
X007455Y00503
X007435Y005245
X007235Y00527
X00692Y005265
X00692Y005525
X006935Y00566
X007045Y00565
X006845Y005605
X006685Y005365
X0066846Y0050546
X006475Y00482
X006375Y004805
X00628Y004765
X006305Y00466
X006135Y004685
X006045Y004565
X005905
X005715Y004665
X005595Y004735
X005505Y004765
X0054Y004775
X00529Y004795
X005135Y004775
X0048857Y0047817
X004675Y00434
X00444Y004405
X004055Y00456
X004455Y005225
X004605Y005425
X004725Y005755
X005085Y005615
X005075Y0053
X00546Y00509
X0058Y005055
X005795Y004975
X00592Y0049
X006055
X005965Y0048
X006175Y00497
X0062538Y004935
X00615Y005105
X006075Y005265
X00611Y00549
X00607Y0057
X00599Y005875
X0057307Y0057317
X005805Y005495
X0063Y00536
X00632Y005185
X006445Y005855
X00654Y005865
X0065307Y0060217
X006875Y006005
X00744Y005985
X0068257Y0066317
X00612Y006485
X005995
X005735
X00589Y0066417
X0055471
X0052043
X0048614
X0045186
X0041757
X0041657Y0062167
X0055457Y0061567
X005755Y004425
X0057Y004175
X00591Y00414
X0060425Y004035
X00643Y004035
X006325Y004335
X006425Y00444
X00534Y004405
X00535Y004165
X007245Y004045
X00758Y004045
X007715Y004015
X0037157Y0040017
Y0041867
X003925Y00433
X003295Y00418
Y0040021
X00349Y0066417
X0038329
T02
X00356Y002465
X003555Y00261
X004115Y00315
X00448Y00226
X00501Y002235
X00668Y00189
X0072025Y0014329
X007485Y00256
X0077626Y00231
X007915Y002715
X00803Y00231
X0083Y002035
X007995Y000605
X006405Y00528
X00636Y00578
X00671Y00582
X004855Y0053175
T03
X00373Y0009
X00393
Y0011
Y0013
Y0015
Y0017
Y0019
Y0021
Y0023
X00373
Y0021
Y0019
Y0017
Y0015
Y0013
Y0011
X00372Y00453
Y00473
Y00493
Y00513
Y00533
Y00553
Y00573
Y00593
X00392
Y00573
Y00553
Y00533
Y00513
Y00493
Y00473
Y00453
T04
X0065888Y0004798
T05
X00486Y000515
X004905Y00634
X00761Y006395
M30
